<svg width="960" height="960" viewBox="0 0 960 960" fill="none" xmlns="http://www.w3.org/2000/svg">
<g clip-path="url(#clip0_46_7731)">
<g clip-path="url(#clip1_46_7731)">
<path fill-rule="evenodd" clip-rule="evenodd" d="M342.51 334.138C341.642 329.951 341.291 325.673 341.465 321.401C341.646 316.892 343.304 312.567 346.184 309.093C349.197 305.727 353.476 303.857 357.623 302.075C361.539 300.403 365.448 298.731 369.348 297.059L370.217 296.773C371.977 300.414 373.737 304.051 375.497 307.685L401.675 361.856C409.142 377.31 416.614 392.768 424.091 408.229C436.87 371.696 438.498 332.189 428.766 294.729C428.425 293.409 428.073 292.111 427.699 290.802C427.134 289.263 426.913 287.618 427.05 285.984C427.099 285.668 427.18 285.359 427.292 285.06C427.915 283.721 428.932 282.605 430.207 281.86C433.178 279.864 436.656 278.757 440.234 278.669C443.811 278.581 447.34 279.516 450.404 281.365C453.469 283.213 455.942 285.897 457.534 289.103C459.125 292.308 459.768 295.901 459.388 299.46C577.696 297.271 716.066 339.442 777.088 440.448C763.68 435.114 749.095 434.348 734.554 434.729L734.543 434.377C735.973 431.605 734.664 428.03 732.288 426.017C729.912 424.004 726.711 423.257 723.62 422.861C717.109 422.036 710.52 422.509 703.987 422.982C699.367 423.323 694.593 423.697 690.513 425.874C686.433 428.051 683.176 432.518 683.924 437.083L683.935 437.27C667.669 438.128 651.405 438.982 635.143 439.832L635.088 438.81C628.499 425.028 621.907 411.246 615.311 397.463L613.87 396.297C616.752 395.583 619.931 394.626 621.416 392.052C623.428 388.598 621.075 383.923 617.555 382.032C614.035 380.141 609.811 380.25 605.819 380.404C563.395 382.108 520.975 383.808 478.557 385.504C469.164 385.878 448.557 393.072 460.475 405.457C461.667 406.65 463.069 407.612 464.61 408.295L464.478 409.23L439.598 449.586L439.631 450.125C431.195 450.576 422.755 451.02 414.311 451.456L414.278 450.796C416.17 446.418 413.761 441.096 409.9 438.268C406.039 435.44 401.123 434.594 396.371 434.099C389.497 433.395 382.575 433.285 375.682 433.769C368.895 434.242 361.944 435.375 356.147 438.939C350.35 442.503 344.741 448.233 345.28 455.019V455.085L345.186 455.091C345.147 455.094 345.107 455.096 345.067 455.098L345.016 455.101L344.917 455.106L344.796 455.113C344.634 455.121 344.472 455.129 344.312 455.14C327.824 456.009 310.379 457.24 295.475 463.566L295.387 463.366C272.212 469.635 241.645 481.566 228.105 501.39C214.136 521.86 216.82 548.973 220.064 573.545L219.679 574.986C229.953 577.703 241.392 580.75 246.76 589.879C247.701 591.503 248.429 593.24 248.926 595.049C250.444 600.46 250.169 606.466 249.817 612.186C248.607 632.173 247.401 652.159 246.201 672.144C246.154 672.948 246.105 673.754 246.056 674.561C246.001 675.465 245.946 676.369 245.893 677.27C245.607 682 245.266 686.916 242.956 691.041C238.908 698.268 230.01 701.16 221.782 702.062L221.089 702.128C184.979 705.736 149.957 681.67 132.534 649.783C115.001 617.7 112.648 579.333 116.52 542.969C120.413 506.485 130.5 469.989 151.189 439.686C172.189 408.911 203.172 385.966 236.664 369.654C270.156 353.342 306.289 343.245 342.411 334.16L342.51 334.138ZM490.059 310.914C572.712 307.513 656.228 338.8 716.306 395.665C716.968 396.291 716.997 397.335 716.37 397.997C715.744 398.659 714.7 398.688 714.038 398.061C654.606 341.809 571.958 310.847 490.195 314.212C489.284 314.249 488.516 313.541 488.478 312.631C488.441 311.72 489.149 310.952 490.059 310.914ZM453.463 290.802C453.219 289.924 452.309 289.41 451.431 289.654C450.553 289.898 450.039 290.808 450.283 291.686C457.602 318.014 458.236 345.753 452.127 372.388C451.923 373.276 452.478 374.162 453.366 374.365C454.254 374.569 455.14 374.014 455.343 373.126C461.575 345.956 460.929 317.66 453.463 290.802ZM369.771 315.346C370.589 314.945 371.577 315.284 371.978 316.102C381.089 334.711 390.199 353.32 399.308 371.929C399.709 372.747 399.37 373.735 398.552 374.136C397.733 374.537 396.745 374.198 396.344 373.379C387.235 354.771 378.125 336.162 369.014 317.554C368.613 316.735 368.952 315.747 369.771 315.346ZM192.345 560.325C192.13 559.44 191.237 558.896 190.352 559.112C189.467 559.327 188.924 560.22 189.139 561.105C191.55 571.011 197.353 579.76 205.543 585.833C213.732 591.905 223.789 594.918 233.968 594.347C234.878 594.297 235.575 593.518 235.524 592.608C235.473 591.698 234.694 591.002 233.784 591.053C224.375 591.58 215.078 588.795 207.508 583.182C199.939 577.569 194.574 569.482 192.345 560.325Z" fill="#171717"/>
<path d="M858.373 540.659C861.992 550.988 861.707 562.328 859.716 573.096C857.802 583.48 854.238 593.753 847.826 602.145C841.479 610.472 832.074 616.785 821.691 617.973C821.317 610.494 820.892 603.022 820.415 595.557L820.229 594.644C820.429 594.611 820.635 594.567 820.833 594.523C828.521 592.873 840.939 590.882 844.333 583.787C846.599 579.047 845.973 573.481 845.203 568.287C842.727 551.461 839.364 534.777 835.128 518.306L836.32 518C846.8 521.147 854.765 530.331 858.373 540.659Z" fill="#171717"/>
<path d="M635.09 438.807L635.145 439.829C631.053 440.049 626.972 440.258 622.88 440.478L622.792 438.741C617.37 425.794 611.951 412.847 606.536 399.902L606.129 398.131C608.713 397.537 611.298 396.931 613.872 396.294L615.313 397.46C621.901 411.242 628.493 425.024 635.09 438.807Z" fill="url(#paint0_linear_46_7731)"/>
<path d="M622.792 438.741L622.881 440.478C565.069 443.525 507.257 446.568 449.445 449.608L449.434 449.421C457.234 436.761 465.036 424.101 472.84 411.44L472.972 410.56C484.235 412.166 498.853 410.22 506.355 410.11C539.941 409.631 573.383 405.616 606.129 398.131L606.536 399.902C611.958 412.848 617.376 425.794 622.792 438.741Z" fill="#171717"/>
<path d="M472.972 410.56L472.84 411.44C465.03 424.101 457.227 436.762 449.433 449.421L449.445 449.608C446.178 449.784 442.9 449.949 439.633 450.125L439.6 449.586C447.894 436.134 456.187 422.682 464.48 409.23L464.612 408.295C467.274 409.449 470.09 410.212 472.972 410.56V410.56Z" fill="url(#paint1_linear_46_7731)"/>
<path d="M345.457 240.875C345.283 242.211 344.695 243.458 343.776 244.443C342.856 245.427 341.652 246.099 340.331 246.364C336.954 246.936 333.49 244.664 332.159 241.513C331.654 240.294 331.41 238.982 331.444 237.663C332.323 236.977 332.965 236.034 333.281 234.965C333.597 233.896 333.57 232.755 333.204 231.702C332.1 233.498 331.493 235.555 331.444 237.663C330.412 238.599 329.094 239.161 327.704 239.258C324.052 239.434 320.763 236.718 319.136 233.44C317.509 230.162 317.211 226.411 316.969 222.771C316.078 209.681 315.462 196.537 316.331 183.448C316.815 176.057 317.816 168.577 320.785 161.802C323.754 155.027 328.936 148.933 335.832 146.227C341.299 144.082 347.349 144.203 353.2 143.642C359.051 143.081 365.266 141.563 369.127 137.13C374.649 130.795 374.484 119.576 382.194 116.23C384.129 115.441 386.269 115.307 388.287 115.849C390.305 116.39 392.09 117.578 393.369 119.23C394.597 120.941 395.203 123.022 395.085 125.125C394.104 126.896 393.385 128.801 392.951 130.779C394.278 129.188 395.029 127.196 395.085 125.125C396.75 122.019 399.363 119.526 402.543 118.009C407.569 115.732 414.213 116.887 417.48 121.342C420.747 125.797 419.317 133.21 414.257 135.41C419.031 133.936 421.945 129.272 425.685 125.95C429.425 122.628 436.079 121.012 438.851 125.169C440.281 127.303 440.006 130.152 439.236 132.605C436.662 140.854 429.546 146.541 421.329 149.786V149.797C418.061 151.089 414.66 152.015 411.188 152.557C399.243 154.449 386.957 152.997 375.001 154.857C363.045 156.717 350.538 163.162 346.843 174.678C344.434 182.178 346.227 190.308 348.02 197.985C351.473 212.713 354.729 227.397 357.952 242.07L357.897 242.081C357.556 245.634 355.103 246.371 351.55 246.081C350.131 245.921 348.792 245.339 347.706 244.411C346.62 243.484 345.837 242.252 345.457 240.875ZM345.457 240.864C345.528 240.166 345.449 239.461 345.226 238.796C345.181 239.493 345.259 240.194 345.457 240.864V240.864Z" fill="#171717"/>
<path d="M405.163 323.8L405.086 323.789C400.058 317.431 395.032 311.077 390.006 304.727L389.973 304.595C400.025 302.351 410.025 299.876 419.973 297.17L420.028 297.379C418.499 305.662 414.165 314.56 412.636 322.843C418.268 334.986 427.1 346.612 434.184 357.974L434.524 357.996C433.303 375.131 429.796 392.025 424.097 408.23C416.63 392.776 409.158 377.318 401.681 361.857H401.692C402.271 349.13 403.428 336.445 405.163 323.8Z" fill="url(#paint2_linear_46_7731)"/>
<path d="M304.529 877.313L304.518 877.39C293.276 876.18 269.012 868.173 258.431 864.235C247.85 860.297 237.939 853.302 232.846 843.216C228.634 834.889 228.018 825.265 227.49 815.948C225.323 777.693 223.354 741.341 221.176 703.085L221.088 702.128L221.781 702.062C230.009 701.162 238.907 698.268 242.955 691.041C245.265 686.916 245.606 682 245.892 677.27C245.992 675.57 246.101 673.849 246.2 672.144L246.453 672.155C249.664 671.913 252.876 671.627 256.077 671.264L256.121 671.639C259.707 722.664 263.754 772.15 267.351 823.164C268.385 837.892 269.914 853.83 279.857 864.752C286.325 871.858 295.036 875.5 304.529 877.313Z" fill="url(#paint3_linear_46_7731)"/>
<path d="M246.762 589.881C241.394 580.752 229.955 577.705 219.681 574.988L220.066 573.547C216.822 548.975 214.138 521.862 228.107 501.392C241.647 481.572 272.214 469.637 295.389 463.368L295.477 463.568C289.851 465.891 284.625 469.083 279.99 473.027C258.014 491.927 255.803 524.592 255.231 553.575L255.759 554.29C255.54 554.469 255.33 554.66 255.132 554.862C252.632 557.369 251.524 560.922 250.688 564.362C248.234 574.376 247.725 584.767 249.188 594.973L248.924 595.05C248.427 593.242 247.7 591.505 246.762 589.881Z" fill="url(#paint4_linear_46_7731)"/>
<path d="M426.026 285.763C421.252 280.714 418.668 273.422 420.988 266.877C423.308 260.332 427.511 254.635 430.349 248.3C437.113 233.253 435.837 215.83 432.373 199.705C428.909 183.58 423.386 167.818 421.989 151.385" stroke="#171717" stroke-width="3.3" stroke-linecap="round" stroke-linejoin="round"/>
<path d="M345.457 240.875C345.835 242.253 346.618 243.487 347.704 244.416C348.79 245.346 350.13 245.928 351.55 246.089C355.103 246.375 357.556 245.638 357.897 242.089" stroke="#171717" stroke-width="3.3" stroke-linecap="round" stroke-linejoin="round"/>
<path d="M345.458 240.864C345.529 240.166 345.451 239.461 345.227 238.796C345.182 239.493 345.26 240.193 345.458 240.864V240.864Z" stroke="#171717" stroke-width="3.3" stroke-linecap="round" stroke-linejoin="round"/>
<path d="M345.457 240.864V240.875" stroke="#171717" stroke-width="3.3" stroke-linecap="round" stroke-linejoin="round"/>
<path d="M331.444 237.663C331.411 238.982 331.654 240.294 332.159 241.513C333.489 244.659 336.959 246.936 340.331 246.364C341.652 246.099 342.857 245.427 343.776 244.443C344.695 243.458 345.283 242.211 345.457 240.875" stroke="#171717" stroke-width="3.3" stroke-linecap="round" stroke-linejoin="round"/>
<path d="M331.445 237.663C332.324 236.977 332.966 236.034 333.282 234.965C333.598 233.896 333.571 232.755 333.205 231.702C332.102 233.498 331.494 235.555 331.445 237.663V237.663Z" stroke="#171717" stroke-width="3.3" stroke-linecap="round" stroke-linejoin="round"/>
<path d="M395.085 125.13C395.203 123.027 394.597 120.946 393.369 119.235C392.09 117.583 390.305 116.395 388.287 115.854C386.269 115.312 384.129 115.446 382.194 116.235C374.484 119.579 374.649 130.798 369.127 137.135C365.266 141.568 359.052 143.075 353.2 143.647C347.348 144.219 341.3 144.087 335.832 146.232C328.932 148.938 323.755 155.02 320.785 161.807C317.815 168.594 316.815 176.062 316.331 183.453C315.462 196.542 316.078 209.686 316.969 222.776C317.211 226.416 317.508 230.176 319.135 233.445C320.762 236.714 324.052 239.439 327.704 239.263C329.094 239.166 330.412 238.604 331.444 237.668" stroke="#171717" stroke-width="3.3" stroke-linecap="round" stroke-linejoin="round"/>
<path d="M395.085 125.13C394.104 126.901 393.385 128.806 392.951 130.784C394.278 129.193 395.029 127.201 395.085 125.13V125.13Z" stroke="#171717" stroke-width="3.3" stroke-linecap="round" stroke-linejoin="round"/>
<path d="M370.216 296.773C365.937 278.493 361.967 260.289 357.952 242.073C354.729 227.4 351.473 212.716 348.02 197.988C346.227 190.311 344.434 182.182 346.843 174.681C350.538 163.165 363.055 156.73 375.001 154.86C386.947 152.99 399.243 154.453 411.188 152.56C414.66 152.018 418.061 151.092 421.329 149.8V149.789C429.546 146.544 436.662 140.857 439.236 132.608C440.006 130.155 440.281 127.308 438.851 125.172C436.079 121.015 429.414 122.631 425.685 125.953C421.956 129.275 419.031 133.939 414.257 135.413C419.317 133.213 420.746 125.799 417.48 121.345C414.214 116.891 407.569 115.735 402.543 118.012C399.363 119.53 396.75 122.022 395.085 125.128" stroke="#171717" stroke-width="3.3" stroke-linecap="round" stroke-linejoin="round"/>
<path d="M390.4 222.847C392.786 223.847 395.58 221.836 396.372 219.361C397.164 216.886 396.526 214.213 395.899 211.694C393.369 201.586 390.836 191.481 388.299 181.38C387.65 178.785 387.144 175.628 389.091 173.78C390.136 172.954 391.376 172.412 392.691 172.207C397.883 170.964 403.075 169.714 408.266 168.456" stroke="#171717" stroke-width="3.3" stroke-linecap="round" stroke-linejoin="round"/>
<path d="M401.047 186.638C402.174 185.193 403.747 184.161 405.521 183.702C407.295 183.242 409.171 183.381 410.858 184.097" stroke="#171717" stroke-width="3.3" stroke-linecap="round" stroke-linejoin="round"/>
<path d="M375.134 190.818C372.263 188.178 366.906 189.289 365.311 192.842" stroke="#171717" stroke-width="3.3" stroke-linecap="round" stroke-linejoin="round"/>
<path d="M377.586 244.747C378.555 245.995 379.796 247.004 381.215 247.698C382.634 248.392 384.193 248.752 385.772 248.751C387.352 248.75 388.91 248.388 390.328 247.692C391.746 246.996 392.986 245.985 393.953 244.736" stroke="#171717" stroke-width="3.3" stroke-linecap="round" stroke-linejoin="round"/>
<path d="M370.217 296.773C371.977 300.414 373.737 304.051 375.497 307.685C384.219 325.734 392.945 343.791 401.675 361.856C409.141 377.31 416.613 392.768 424.091 408.229C436.87 371.696 438.497 332.189 428.766 294.729C428.425 293.409 428.073 292.111 427.699 290.802C427.134 289.263 426.912 287.618 427.05 285.984C427.098 285.668 427.179 285.359 427.292 285.06C427.915 283.721 428.932 282.605 430.207 281.86C433.177 279.864 436.655 278.757 440.233 278.669C443.811 278.581 447.339 279.516 450.404 281.365C453.468 283.213 455.942 285.897 457.533 289.103C459.124 292.308 459.768 295.901 459.388 299.46C459.377 299.592 459.366 299.713 459.344 299.845" stroke="#171717" stroke-width="3.3" stroke-linecap="round" stroke-linejoin="round"/>
<path d="M369.348 297.059C365.444 298.731 361.535 300.403 357.623 302.075C353.476 303.857 349.197 305.727 346.184 309.093C343.304 312.567 341.646 316.892 341.465 321.401C341.291 325.674 341.642 329.951 342.51 334.138C342.554 334.338 342.587 334.545 342.62 334.743" stroke="#171717" stroke-width="3.3" stroke-linecap="round" stroke-linejoin="round"/>
<path d="M375.52 307.674C380.348 306.695 385.165 305.669 389.973 304.594C400.025 302.35 410.025 299.875 419.973 297.169C422.906 296.377 425.839 295.563 428.773 294.728C428.803 294.726 428.833 294.719 428.861 294.706" stroke="#171717" stroke-width="3.3" stroke-linecap="round" stroke-linejoin="round"/>
<path d="M420.021 297.378C418.492 305.661 414.158 314.559 412.629 322.842" stroke="#171717" stroke-width="3.3" stroke-linecap="round" stroke-linejoin="round"/>
<path d="M390 304.726C395.026 311.072 400.053 317.426 405.08 323.787" stroke="#171717" stroke-width="3.3" stroke-linecap="round" stroke-linejoin="round"/>
<path d="M401.686 361.856C402.268 349.13 403.427 336.444 405.162 323.798V323.765" stroke="#171717" stroke-width="3.3" stroke-linecap="round" stroke-linejoin="round"/>
<path d="M412.629 322.842C418.261 334.985 427.093 346.611 434.177 357.973" stroke="#171717" stroke-width="3.3" stroke-linecap="round" stroke-linejoin="round"/>
<path d="M342.411 334.16C306.289 343.245 270.157 353.342 236.664 369.654C203.171 385.966 172.187 408.911 151.189 439.686C130.5 469.986 120.413 506.486 116.52 542.969C112.648 579.333 115.001 617.7 132.534 649.783C149.957 681.67 184.979 705.736 221.089 702.128L221.782 702.062C230.01 701.162 238.908 698.268 242.956 691.041C245.266 686.916 245.607 682 245.893 677.27C245.993 675.57 246.102 673.849 246.201 672.144C247.411 652.159 248.617 632.174 249.819 612.188C250.171 606.468 250.446 600.462 248.928 595.051C248.43 593.242 247.702 591.505 246.762 589.881C241.394 580.752 229.955 577.705 219.681 574.988C219.538 574.955 219.395 574.911 219.252 574.878C208.869 572.15 197.243 567.597 193.811 557.422" stroke="#171717" stroke-width="3.3" stroke-linecap="round" stroke-linejoin="round"/>
<path d="M249.193 594.974C247.729 584.768 248.238 574.377 250.693 564.363C251.529 560.92 252.64 557.363 255.137 554.863C255.335 554.661 255.545 554.471 255.764 554.291C258.305 552.191 262.132 551.421 264.783 553.302C266.84 554.764 267.709 557.349 268.347 559.791C271.866 573.257 272.043 587.378 268.864 600.928" stroke="#171717" stroke-width="3.3" stroke-linecap="round" stroke-linejoin="round"/>
<path d="M246.453 672.155C249.664 671.913 252.876 671.627 256.077 671.264C275.349 669.153 294.347 665.024 312.756 658.945C319.862 656.761 326.719 653.838 333.215 650.223C339.727 646.583 345.292 641.462 349.46 635.275C350.37 634.052 350.923 632.602 351.06 631.084C351.104 628.818 349.454 626.805 347.508 625.651C343.515 623.297 338.62 623.781 334.033 624.936C333.187 625.145 332.351 625.387 331.526 625.629C319.877 629.115 308.702 634.029 297.153 637.849C285.604 641.669 273.453 644.404 261.329 643.315" stroke="#171717" stroke-width="3.3" stroke-linecap="round" stroke-linejoin="round"/>
<path d="M333.843 624.166C338.513 621.857 342.17 617.91 344.117 613.078C344.997 610.901 345.481 608.371 344.491 606.226C343.303 603.641 340.223 602.354 337.374 602.442C334.677 602.695 332.058 603.476 329.664 604.742C329.532 604.808 329.389 604.863 329.257 604.929C318.676 609.835 308.226 615.129 297.183 618.876C286.14 622.623 274.338 624.805 262.766 623.276" stroke="#171717" stroke-width="3.3" stroke-linecap="round" stroke-linejoin="round"/>
<path d="M329.388 604.136C331.874 601.826 334.227 599.23 335.371 596.041C336.515 592.852 336.196 588.941 333.82 586.541C330.939 583.616 326.209 583.747 322.183 584.572C312.856 586.464 304.277 590.864 295.444 594.395C286.611 597.926 278.208 602.666 268.859 600.928" stroke="#171717" stroke-width="3.3" stroke-linecap="round" stroke-linejoin="round"/>
<path d="M459.035 299.457H459.387C577.695 297.268 716.065 339.439 777.087 440.445" stroke="#171717" stroke-width="3.3" stroke-linecap="round" stroke-linejoin="round"/>
<path d="M811.341 573.382C797.02 576.407 788.287 578.882 768.983 578.282C765.827 578.182 756.73 578.788 754.288 580.801C751.846 582.814 750.23 586.124 751.132 589.149C752.532 593.89 765.695 597.971 770.622 598.149C789.134 598.819 802.222 598.449 820.229 594.649C820.429 594.616 820.636 594.572 820.834 594.528C828.522 592.878 840.94 590.887 844.334 583.793C846.6 579.052 845.973 573.486 845.203 568.293C842.727 551.467 839.364 534.783 835.128 518.312C834.928 517.498 834.71 516.695 834.501 515.881C831.784 505.52 828.407 494.73 820.609 487.393C817.364 484.346 812.117 482.081 808.598 484.577C808.455 484.687 808.298 484.808 808.158 484.929C805.419 487.283 805.558 491.474 805.925 495.071C807.125 506.84 808.32 518.609 809.51 530.378" stroke="#171717" stroke-width="3.3" stroke-linecap="round" stroke-linejoin="round"/>
<path d="M761.889 553.43C777.904 554.266 794.051 551.175 809.878 548.084" stroke="#171717" stroke-width="3.3" stroke-linecap="round" stroke-linejoin="round"/>
<path d="M808.401 530.606C788.833 530.683 768.363 530.969 751.095 540.187C748.158 541.748 744.968 544.387 745.606 547.655C746.233 550.855 750.072 552.121 753.306 552.594C756.155 553.012 759.004 553.291 761.853 553.43" stroke="#171717" stroke-width="3.3" stroke-linecap="round" stroke-linejoin="round"/>
<path d="M764.935 553.474C763.923 553.408 762.9 553.397 761.888 553.43C761.877 553.441 761.866 553.43 761.855 553.43C755.792 553.712 749.974 555.906 745.235 559.699C742.749 561.712 740.461 564.616 740.967 567.773C741.649 572.007 746.667 573.8 750.889 574.559C770.027 577.991 790.089 576.693 811.307 573.159C811.549 573.115 811.791 573.082 812.033 573.038" stroke="#171717" stroke-width="3.3" stroke-linecap="round" stroke-linejoin="round"/>
<path d="M255.23 553.573C255.802 524.59 258.013 491.922 279.989 473.025C284.625 469.081 289.851 465.889 295.476 463.566C310.376 457.241 327.825 456.009 344.313 455.14C344.632 455.118 344.962 455.107 345.281 455.085L414.312 451.456C422.748 451.016 431.188 450.572 439.632 450.125C442.899 449.949 446.177 449.784 449.443 449.608C507.255 446.572 565.067 443.529 622.879 440.478C626.971 440.258 631.052 440.049 635.144 439.829C651.411 438.972 667.675 438.118 683.936 437.267L720.836 435.32C725.378 435.078 729.965 434.847 734.552 434.726C749.093 434.341 763.678 435.111 777.086 440.445C794.718 447.463 809.786 464.745 807.862 483.629" stroke="#171717" stroke-width="3.3" stroke-linecap="round" stroke-linejoin="round"/>
<path d="M256.121 671.638C259.707 722.664 263.754 772.149 267.351 823.164C268.385 837.892 269.914 853.83 279.857 864.752C286.325 871.858 295.036 875.498 304.529 877.313C313.603 879.062 323.37 879.128 332.555 878.963C467.218 876.499 601.955 874.024 736.326 864.752C762.416 862.952 791.619 859.296 807.788 838.752C819.656 823.683 821.306 803.202 822.164 784.042C824.649 728.715 824.491 673.36 821.691 617.975C821.317 610.496 820.892 603.024 820.415 595.559" stroke="#171717" stroke-width="3.3" stroke-linecap="round" stroke-linejoin="round"/>
<path d="M295.389 463.368C272.214 469.637 241.647 481.568 228.107 501.392C214.138 521.862 216.822 548.975 220.066 573.547" stroke="#171717" stroke-width="3.3" stroke-linecap="round" stroke-linejoin="round"/>
<path d="M221.178 703.085C223.356 741.341 225.325 777.693 227.492 815.948C228.02 825.265 228.636 834.889 232.848 843.215C237.941 853.302 247.84 860.286 258.433 864.235C269.026 868.184 293.278 876.18 304.52 877.39" stroke="#171717" stroke-width="3.3" stroke-linecap="round" stroke-linejoin="round"/>
<path d="M345.282 455.019C344.743 448.233 350.341 442.502 356.149 438.939C361.957 435.376 368.897 434.239 375.684 433.769C382.577 433.285 389.499 433.395 396.373 434.099C401.125 434.599 406.052 435.452 409.902 438.268C413.752 441.084 416.172 446.418 414.28 450.796" stroke="#171717" stroke-width="3.3" stroke-linecap="round" stroke-linejoin="round"/>
<path d="M683.926 437.08C683.178 432.515 686.426 428.038 690.515 425.871C694.604 423.704 699.369 423.32 703.989 422.979C710.522 422.506 717.111 422.033 723.622 422.858C726.713 423.258 729.903 424.002 732.29 426.014C734.677 428.026 735.975 431.602 734.545 434.374" stroke="#171717" stroke-width="3.3" stroke-linecap="round" stroke-linejoin="round"/>
<path d="M439.602 449.586C447.896 436.134 456.189 422.682 464.482 409.23" stroke="#171717" stroke-width="3.3" stroke-linecap="round" stroke-linejoin="round"/>
<path d="M449.434 449.421C457.234 436.761 465.036 424.101 472.841 411.44" stroke="#171717" stroke-width="3.3" stroke-linecap="round" stroke-linejoin="round"/>
<path d="M622.791 438.741C617.369 425.794 611.95 412.847 606.535 399.902" stroke="#171717" stroke-width="3.3" stroke-linecap="round" stroke-linejoin="round"/>
<path d="M635.089 438.807C628.5 425.025 621.908 411.243 615.312 397.46" stroke="#171717" stroke-width="3.3" stroke-linecap="round" stroke-linejoin="round"/>
<path d="M613.872 396.294C616.754 395.58 619.933 394.623 621.418 392.049C623.43 388.595 621.077 383.92 617.557 382.028C614.037 380.136 609.813 380.247 605.821 380.401C563.397 382.105 520.976 383.805 478.559 385.501C469.166 385.875 448.553 393.069 460.477 405.454C461.668 406.647 463.07 407.609 464.612 408.292C467.275 409.446 470.091 410.209 472.972 410.558C484.235 412.163 498.853 410.217 506.355 410.107C539.941 409.628 573.384 405.613 606.129 398.128C608.713 397.537 611.301 396.932 613.872 396.294Z" stroke="#171717" stroke-width="3.3" stroke-linecap="round" stroke-linejoin="round"/>
<path d="M836.322 518C846.804 521.146 854.767 530.33 858.375 540.658C861.983 550.986 861.708 562.327 859.717 573.095C857.803 583.478 854.239 593.752 847.827 602.144C841.48 610.471 832.076 616.784 821.693 617.972L821.393 618.005" stroke="#171717" stroke-width="3.3" stroke-linecap="round" stroke-linejoin="round"/>
<path d="M175.69 338.469C163.251 324.124 146.133 313.36 127.324 310.762C108.515 308.164 88.1708 314.476 75.7808 328.862C63.3908 343.248 60.4628 365.742 70.6128 381.789C79.2968 395.517 95.6758 402.817 111.821 404.612C122.36 405.785 135.421 403.312 138.987 393.323C142.696 382.923 132.698 372.079 122.01 369.323C115.127 367.668 107.911 368.05 101.242 370.423C94.5724 372.796 88.7368 377.057 84.4458 382.687C74.5738 396.094 75.2578 414.387 77.7148 430.852C80.1718 447.317 83.9268 464.442 78.8548 480.301C73.7828 496.16 55.6768 509.301 40.5898 502.26" stroke="#171717" stroke-width="3.3" stroke-linecap="round" stroke-linejoin="round"/>
<path d="M842.547 355.26C826.838 386.607 826.939 425.401 842.81 456.667C851.537 473.86 867.21 489.918 886.495 489.967C900.742 490.003 914.487 480.202 919.095 466.72C922.395 457.068 920.36 444.772 911.724 439.343C899.024 431.36 882.269 443.065 876.124 456.749C867.96 474.942 869.939 496.224 875.924 515.249C881.909 534.274 891.604 551.89 898.924 570.438C912.029 603.759 917.321 639.641 914.391 675.326C913.309 688.353 910.932 701.788 903.409 712.479C895.886 723.17 882.016 730.326 869.517 726.499C857.471 722.811 850.023 710.035 848.817 697.499C848.06 689.629 850.061 680.452 857.017 676.699C863.973 672.946 874.861 680.26 871.411 687.375" stroke="url(#paint5_linear_46_7731)" stroke-width="3.3" stroke-linecap="round" stroke-linejoin="round"/>
<path d="M469.893 146.786H497.844" stroke="#171717" stroke-width="3.3" stroke-linecap="round" stroke-linejoin="round"/>
<path d="M459.732 127.447C479.83 113.345 499.93 99.2431 520.032 85.1411" stroke="#171717" stroke-width="3.3" stroke-linecap="round" stroke-linejoin="round"/>
<path d="M447.422 114.074C450.547 103.598 453.672 93.122 456.796 82.646" stroke="#171717" stroke-width="3.3" stroke-linecap="round" stroke-linejoin="round"/>
<path d="M299.783 110.985C294.99 105.445 288.451 101.706 281.246 100.385" stroke="#171717" stroke-width="3.3" stroke-linecap="round" stroke-linejoin="round"/>
<path d="M283.74 114.252L296.635 92.436" stroke="#171717" stroke-width="3.3" stroke-linecap="round" stroke-linejoin="round"/>
<path d="M280.033 295.888L259.326 279.264" stroke="#171717" stroke-width="3.3" stroke-linecap="round" stroke-linejoin="round"/>
<path d="M257.711 300.356C264.784 290.713 271.856 281.07 278.928 271.426" stroke="#171717" stroke-width="3.3" stroke-linecap="round" stroke-linejoin="round"/>
<path d="M661.932 247.039C655.609 238.914 647.841 232.026 639.018 226.721" stroke="url(#paint6_linear_46_7731)" stroke-width="3.3" stroke-linecap="round" stroke-linejoin="round"/>
<path d="M641.031 246.9C647.224 238.345 653.416 229.791 659.608 221.236" stroke="url(#paint7_linear_46_7731)" stroke-width="3.3" stroke-linecap="round" stroke-linejoin="round"/>
<path d="M519.286 236.356L534.873 241.068C535.005 241.108 535.121 241.187 535.206 241.295C535.291 241.403 535.341 241.534 535.35 241.671C535.358 241.809 535.324 241.945 535.252 242.063C535.181 242.18 535.075 242.273 534.949 242.328L520.043 248.882C519.921 248.935 519.818 249.024 519.747 249.136C519.676 249.248 519.64 249.379 519.643 249.512L519.978 265.792C519.981 265.929 519.942 266.065 519.865 266.179C519.789 266.293 519.68 266.382 519.552 266.432C519.424 266.483 519.283 266.492 519.149 266.461C519.016 266.429 518.895 266.357 518.803 266.254L507.963 254.1C507.875 254.001 507.759 253.93 507.63 253.896C507.501 253.863 507.365 253.868 507.239 253.912L491.859 259.262C491.729 259.306 491.589 259.31 491.457 259.273C491.325 259.235 491.208 259.158 491.121 259.052C491.034 258.946 490.981 258.816 490.97 258.679C490.959 258.542 490.99 258.406 491.059 258.287L499.266 244.224C499.333 244.109 499.365 243.977 499.357 243.844C499.349 243.711 499.302 243.584 499.221 243.478L489.381 230.504C489.298 230.394 489.25 230.262 489.245 230.125C489.239 229.987 489.276 229.851 489.35 229.736C489.424 229.62 489.532 229.529 489.659 229.477C489.786 229.424 489.926 229.411 490.06 229.441L505.972 232.901C506.102 232.929 506.237 232.918 506.361 232.869C506.485 232.821 506.591 232.737 506.667 232.628L515.967 219.26C516.046 219.147 516.157 219.061 516.286 219.014C516.415 218.966 516.556 218.959 516.689 218.993C516.822 219.028 516.941 219.102 517.031 219.207C517.12 219.311 517.176 219.44 517.19 219.577L518.816 235.777C518.828 235.909 518.88 236.035 518.963 236.138C519.047 236.241 519.159 236.317 519.286 236.356V236.356Z" fill="#171717"/>
<path d="M192.616 224.585L205.446 227.904C205.554 227.933 205.65 227.994 205.723 228.079C205.795 228.164 205.84 228.269 205.851 228.38C205.862 228.491 205.838 228.603 205.784 228.701C205.729 228.798 205.646 228.877 205.546 228.926L193.639 234.745C193.542 234.792 193.46 234.868 193.406 234.961C193.352 235.055 193.326 235.163 193.333 235.271L194.142 248.5C194.149 248.612 194.121 248.723 194.063 248.819C194.005 248.915 193.919 248.99 193.816 249.036C193.714 249.081 193.6 249.093 193.49 249.072C193.38 249.05 193.279 248.996 193.201 248.915L183.986 239.389C183.911 239.311 183.814 239.257 183.708 239.235C183.603 239.212 183.492 239.221 183.392 239.261L171.061 244.117C170.957 244.158 170.842 244.166 170.734 244.14C170.625 244.114 170.527 244.055 170.452 243.971C170.378 243.888 170.33 243.784 170.317 243.672C170.304 243.561 170.324 243.449 170.377 243.35L176.588 231.643C176.637 231.548 176.658 231.44 176.647 231.334C176.636 231.227 176.594 231.126 176.526 231.043L168.1 220.81C168.029 220.724 167.986 220.618 167.976 220.506C167.967 220.394 167.993 220.283 168.049 220.186C168.105 220.089 168.19 220.012 168.292 219.965C168.393 219.918 168.507 219.903 168.617 219.923L181.67 222.213C181.777 222.232 181.886 222.218 181.986 222.175C182.085 222.131 182.169 222.059 182.227 221.968L189.348 210.79C189.409 210.697 189.496 210.625 189.599 210.583C189.702 210.541 189.815 210.531 189.923 210.555C190.031 210.579 190.13 210.635 190.206 210.715C190.282 210.796 190.331 210.898 190.348 211.008L192.204 224.13C192.22 224.238 192.267 224.339 192.341 224.42C192.414 224.501 192.51 224.558 192.616 224.585Z" fill="url(#paint8_linear_46_7731)"/>
<path d="M149.766 698.464C122.901 683.037 104.625 653.596 102.719 622.675" stroke="#171717" stroke-width="3.3" stroke-linecap="round" stroke-linejoin="round"/>
<path d="M844.227 627.535C852.941 621.407 860.162 613.394 865.353 604.091C870.543 594.788 873.57 584.434 874.208 573.8" stroke="#171717" stroke-width="3.3" stroke-linecap="round" stroke-linejoin="round"/>
<g opacity="0.1">
<path d="M361.645 158.275C351.734 161.69 347.389 171.688 345.297 181.158C342.392 194.314 347.125 207.947 350.07 220.79C353.27 234.733 356.67 248.625 360.045 262.526C363.456 276.578 365.864 291.477 370.583 305.142C373.483 313.528 384.841 310.019 383.6 301.553C381.789 289.189 377.756 276.812 374.792 264.668C371.792 252.391 368.892 240.088 365.792 227.835C362.839 216.146 359.478 204.528 356.78 192.778C355.549 187.416 353.962 181.516 355.273 176.078C356.355 170.916 359.439 166.392 363.848 163.498C366.317 161.761 364.922 157.143 361.648 158.272L361.645 158.275Z" fill="#171717"/>
</g>
<g opacity="0.1">
<path d="M422.799 397.129C423.68 394.98 425.144 393.329 426.031 391.218C426.798 389.169 427.46 387.083 428.016 384.967C429.108 381.386 430.156 377.813 430.946 374.152C432.647 366.4 433.812 358.541 434.431 350.629C435.041 342.528 435.18 334.399 434.847 326.283C434.513 318.199 433.147 310.183 432.917 302.118C432.617 291.775 416.243 294.6 419.382 303.95C424.135 318.111 424.182 334.88 423.773 349.693C423.566 357.142 423.151 364.641 422.346 372.049C421.93 375.884 421.559 379.737 421.034 383.558C420.759 385.565 420.29 387.566 420.089 389.579C419.863 391.845 420.277 394.053 419.907 396.332C419.801 396.715 419.852 397.125 420.048 397.472C420.244 397.818 420.57 398.072 420.953 398.178C421.337 398.284 421.747 398.233 422.093 398.037C422.439 397.841 422.693 397.515 422.799 397.132V397.129Z" fill="#171717"/>
</g>
<g opacity="0.1">
<path d="M278.838 469.263C268.804 469.012 258.268 474.033 249.55 478.588C239.37 483.907 231.742 492.021 225.514 501.599C212.084 522.254 209.476 549.048 217.979 572.082C219.95 577.423 225.127 581.05 230.953 579.448C236.093 578.036 240.302 571.848 238.319 566.475C231.692 548.523 232.119 527.875 241.319 510.836C245.47 503.149 251.46 496.37 257.519 490.12C264.214 483.211 272.347 480.068 280.486 475.336C281.085 474.963 281.549 474.407 281.807 473.749C282.066 473.092 282.106 472.369 281.921 471.688C281.736 471.006 281.337 470.402 280.782 469.966C280.227 469.529 279.547 469.282 278.841 469.263H278.838Z" fill="#171717"/>
</g>
<g opacity="0.1">
<path d="M220.928 705.258C218.599 713.173 221.162 722.919 221.314 731.089C221.467 739.302 221.363 747.545 221.28 755.76C221.11 772.646 220.838 789.418 223.305 806.177C225.525 821.258 231.866 834.677 240.153 847.312C247.216 858.079 258.004 869.626 270.734 873.412C277.579 875.448 281.379 865.754 275.502 862.103C269.913 858.63 264.546 855.851 259.822 851.121C255.62 846.856 252.022 842.034 249.131 836.791C245.915 831.063 244.508 824.139 243.198 817.713C241.69 810.413 240.629 803.027 240.021 795.598C238.798 780.135 239.328 764.598 239.203 749.106C239.122 741.185 238.55 733.277 237.492 725.427C236.476 717.746 235.735 708.785 230.408 702.753C227.495 699.453 222.071 701.376 220.928 705.253V705.258Z" fill="#171717"/>
</g>
</g>
</g>
<defs>
<linearGradient id="paint0_linear_46_7731" x1="620.637" y1="396.294" x2="620.637" y2="440.478" gradientUnits="userSpaceOnUse">
<stop stop-color="#FF5757"/>
<stop offset="1" stop-color="#F02356"/>
</linearGradient>
<linearGradient id="paint1_linear_46_7731" x1="456.286" y1="408.295" x2="456.286" y2="450.125" gradientUnits="userSpaceOnUse">
<stop stop-color="#FF5757"/>
<stop offset="1" stop-color="#F02356"/>
</linearGradient>
<linearGradient id="paint2_linear_46_7731" x1="412.248" y1="297.17" x2="412.248" y2="408.23" gradientUnits="userSpaceOnUse">
<stop stop-color="#FF5757"/>
<stop offset="1" stop-color="#F02356"/>
</linearGradient>
<linearGradient id="paint3_linear_46_7731" x1="262.808" y1="671.264" x2="262.808" y2="877.39" gradientUnits="userSpaceOnUse">
<stop stop-color="#FF5757"/>
<stop offset="1" stop-color="#F02356"/>
</linearGradient>
<linearGradient id="paint4_linear_46_7731" x1="256.472" y1="463.368" x2="256.472" y2="595.05" gradientUnits="userSpaceOnUse">
<stop stop-color="#FF5757"/>
<stop offset="1" stop-color="#F02356"/>
</linearGradient>
<linearGradient id="paint5_linear_46_7731" x1="875.713" y1="355.26" x2="875.713" y2="727.543" gradientUnits="userSpaceOnUse">
<stop stop-color="#FF5757"/>
<stop offset="1" stop-color="#F02356"/>
</linearGradient>
<linearGradient id="paint6_linear_46_7731" x1="650.475" y1="226.721" x2="650.475" y2="247.039" gradientUnits="userSpaceOnUse">
<stop stop-color="#FF5757"/>
<stop offset="1" stop-color="#F02356"/>
</linearGradient>
<linearGradient id="paint7_linear_46_7731" x1="650.32" y1="221.236" x2="650.32" y2="246.9" gradientUnits="userSpaceOnUse">
<stop stop-color="#FF5757"/>
<stop offset="1" stop-color="#F02356"/>
</linearGradient>
<linearGradient id="paint8_linear_46_7731" x1="186.914" y1="210.542" x2="186.914" y2="249.082" gradientUnits="userSpaceOnUse">
<stop stop-color="#FF5757"/>
<stop offset="1" stop-color="#F02356"/>
</linearGradient>
<clipPath id="clip0_46_7731">
<rect width="960" height="960" fill="white"/>
</clipPath>
<clipPath id="clip1_46_7731">
<rect width="885" height="801" fill="white" transform="translate(38 80)"/>
</clipPath>
</defs>
</svg>
