<svg width="960" height="960" viewBox="0 0 960 960" fill="none" xmlns="http://www.w3.org/2000/svg">
<path d="M324.937 705.498C331.372 716.203 334.85 728.424 335.015 740.913C335.181 753.402 332.029 765.712 325.88 776.584C319.732 787.456 310.808 796.501 300.02 802.796C289.232 809.09 276.966 812.408 264.476 812.411C243.91 812.411 226.345 804.552 213.449 790.511L212.713 789.926L233.882 763.126L266.287 794.644L324.314 705.089L324.937 705.498Z" fill="url(#paint0_linear_248_1697)"/>
<path d="M307.062 786.038C323.253 771.718 330.194 747.769 324.168 727.011" stroke="white" stroke-width="3" stroke-linecap="round" stroke-linejoin="round"/>
<path d="M324.644 393.344C318.692 399.504 305.711 397.644 295.079 388.944C284.079 379.953 279.749 367.057 285.409 360.144C291.069 353.231 304.56 354.909 315.55 363.899C326.54 372.889 330.88 385.785 325.22 392.699C325.041 392.925 324.849 393.141 324.644 393.344Z" fill="#171717"/>
<path d="M325.267 384.698C323.335 378.588 319.922 373.05 315.332 368.577C310.742 364.105 305.118 360.836 298.959 359.063" stroke="white" stroke-width="3" stroke-linecap="round" stroke-linejoin="round"/>
<path d="M285.409 360.146C279.749 367.061 284.079 379.957 295.079 388.946C305.711 397.646 318.692 399.502 324.644 393.346C324.849 393.144 325.041 392.929 325.22 392.704C330.88 385.789 326.55 372.893 315.55 363.904C304.55 354.915 291.06 353.231 285.409 360.146ZM244.976 336.505L247.222 336.552L247.203 337.496L232.995 468.352L244.976 491.436L272.503 455.918L260.513 336.949V336.849L264.956 336.949L257.409 321.411L244.976 336.505ZM224.363 509.219C224.792 513.218 224.842 517.248 224.514 521.256C224.175 526.935 223.448 532.397 219.76 536.407V536.718H92.9794V535.539C80.0274 526.577 71.1874 512.049 65.6034 497.106C48.6124 451.706 57.8205 397.513 88.8575 360.278C119.894 323.043 171.544 304.223 219.257 312.751L220.389 311.44L242.756 330.732L258.737 311.195L268.501 329.845L293.831 318.445L294.331 319.545C306.27 327.149 319.638 332.231 333.613 334.478C347.588 336.724 361.875 336.089 375.596 332.61C389.316 329.132 402.18 322.883 413.397 314.249C424.613 305.615 433.945 294.779 440.818 282.405C444.177 276.348 447.233 269.612 453.118 265.971C453.885 265.497 454.688 265.084 455.518 264.735C459.839 262.886 464.678 262.811 469.556 263.518C473.416 264.164 477.226 265.082 480.956 266.263C487.88 268.329 495.456 270.99 500.625 275.678C503.017 277.781 504.831 280.46 505.898 283.461C508.219 290.206 506.012 297.489 502.908 304.046C502.446 305.027 501.965 305.98 501.474 306.923C495.4 318.582 487.985 329.492 479.38 339.432V339.441C472.179 347.779 464.189 355.402 455.522 362.205C449.405 367.019 442.958 371.401 436.23 375.318C408.424 391.426 376.639 399.363 344.524 398.218C340.241 398.057 335.477 397.935 331.638 399.444C329.853 400.089 328.273 401.199 327.062 402.661C324.355 405.982 324.162 410.614 324.11 414.887L322.355 536.724H291.636V535.677C291.447 530.224 286.947 525.977 282.475 522.857C265.519 511.142 244.761 506.271 224.363 509.219V509.219ZM139.186 391.91C127.818 399.881 119.086 411.541 115.677 424.975C110.536 445.286 118.771 468.729 136.318 480.097L136.45 479.889C137.365 450.56 138.277 421.234 139.186 391.91Z" fill="url(#paint1_linear_248_1697)"/>
<path d="M122.357 397.221C115.724 404.074 110.84 412.424 108.117 421.564C105.393 430.705 104.911 440.366 106.711 449.732C108.51 459.098 112.539 467.893 118.456 475.373C124.372 482.853 132.004 488.798 140.704 492.706" stroke="white" stroke-width="3" stroke-linecap="round" stroke-linejoin="round"/>
<path d="M282.439 199.904C273.695 197.594 264.604 196.887 255.609 197.819C249.147 198.499 242.043 200.555 238.902 206.244C237.043 209.612 236.959 213.644 236.911 217.489C236.844 223.659 236.775 229.832 236.704 236.007H236.383C235.042 237.318 233.299 238.14 231.435 238.341C229.571 238.542 227.693 238.11 226.104 237.115C224.514 236.12 223.306 234.62 222.672 232.855C222.038 231.09 222.016 229.164 222.61 227.385C221.049 227.112 219.628 226.315 218.58 225.127C217.532 223.938 216.92 222.428 216.844 220.846C216.768 219.263 217.234 217.702 218.163 216.418C219.093 215.135 220.431 214.207 221.959 213.785C219.795 213.105 217.969 211.633 216.846 209.662C215.723 207.692 215.387 205.37 215.906 203.163C216.424 200.955 217.758 199.025 219.64 197.76C221.522 196.495 223.813 195.988 226.053 196.342C224.554 195.232 223.461 193.659 222.945 191.866C222.428 190.074 222.516 188.161 223.194 186.423C223.872 184.685 225.103 183.218 226.697 182.249C228.291 181.28 230.16 180.862 232.015 181.06C230.551 179.411 229.763 177.271 229.81 175.066C229.856 172.862 230.732 170.756 232.263 169.17C233.795 167.584 235.869 166.634 238.07 166.51C240.271 166.387 242.438 167.098 244.138 168.503C244.149 166.616 244.755 164.781 245.867 163.257C246.98 161.733 248.544 160.598 250.338 160.013C252.132 159.427 254.065 159.421 255.862 159.995C257.66 160.569 259.231 161.694 260.354 163.211C261.234 161.199 262.72 159.513 264.605 158.386C266.489 157.26 268.679 156.75 270.867 156.927C273.056 157.105 275.135 157.961 276.813 159.377C278.492 160.793 279.686 162.697 280.231 164.824C281.374 163.275 283.046 162.199 284.929 161.799C286.813 161.399 288.777 161.703 290.452 162.653C292.127 163.603 293.395 165.134 294.018 166.956C294.64 168.778 294.574 170.765 293.831 172.541C296.491 169.673 301.821 171.107 303.642 174.56C305.463 178.013 304.397 182.409 302.123 185.578C305.764 183.371 311.029 186.107 312.123 190.22C313.217 194.333 310.802 198.833 307.18 201.078C304.266 202.754 300.92 203.526 297.567 203.295C296.644 203.266 295.724 203.184 294.812 203.05C290.604 202.442 286.552 200.999 282.439 199.904Z" fill="#171717"/>
<path d="M300.884 198.306C302.066 197.35 302.853 195.991 303.096 194.491C303.339 192.99 303.02 191.452 302.201 190.172C301.381 188.892 300.118 187.958 298.654 187.551C297.189 187.143 295.626 187.289 294.263 187.962C295.053 186.993 295.551 185.819 295.696 184.577C295.841 183.335 295.629 182.077 295.083 180.952C294.538 179.827 293.682 178.881 292.617 178.226C291.552 177.571 290.322 177.234 289.071 177.255" stroke="white" stroke-width="3" stroke-linecap="round" stroke-linejoin="round"/>
<path d="M579.715 172.301L578.234 230.97L524.159 231.96C527.112 224.517 528.942 216.715 528.433 208.782C528.357 207.687 528.15 206.433 527.216 205.866C525.98 205.121 524.433 206.066 523.348 207.017C519.299 210.575 515.943 214.852 513.448 219.63L512.92 219.442C514.212 215.8 515.412 212.13 516.52 208.432C516.841 207.58 516.989 206.673 516.954 205.763C516.933 205.311 516.784 204.874 516.525 204.503C516.267 204.131 515.909 203.84 515.492 203.663C515.001 203.577 514.496 203.598 514.014 203.727C513.532 203.856 513.083 204.088 512.7 204.408C507.785 207.61 503.94 212.21 501.662 217.616C502.832 213.597 503.832 209.531 504.624 205.416C504.851 204.236 505.024 202.887 504.275 201.935C503.087 200.425 500.653 201.123 499.096 202.246C495.653 204.718 493.436 208.51 491.474 212.274C488.183 218.683 485.232 225.261 482.634 231.981L482.578 231.962V172.685L579.698 171.704L579.715 172.301Z" fill="url(#paint2_linear_248_1697)"/>
<path d="M108.913 580.557H418.558L355.634 897.664H127.894L108.913 582.057V580.557ZM361.738 614.405L294.338 643.263L319.12 659.244L302.743 682.621L302.149 682.206C291.477 675.466 279.192 671.713 266.576 671.338C253.959 670.963 241.473 673.979 230.419 680.073C219.366 686.167 210.149 695.114 203.731 705.983C197.313 716.851 193.928 729.243 193.93 741.865C193.928 743.056 193.997 744.247 194.138 745.431L194.449 745.667L163.742 785.326L192.147 815.958L212.713 789.93L213.449 790.515C226.349 804.552 243.91 812.415 264.476 812.415C276.966 812.412 289.232 809.094 300.02 802.799C310.808 796.505 319.732 787.46 325.881 776.588C332.029 765.715 335.181 753.406 335.016 740.917C334.85 728.428 331.372 716.207 324.937 705.502L324.314 705.096L343.087 676.125L365.728 697.87L361.738 614.405Z" fill="#171717"/>
<path d="M260.514 336.949L272.504 455.918L244.976 491.436L232.995 468.352L247.203 337.496L247.222 336.552L248.976 336.59L260.514 336.845V336.949Z" fill="#171717"/>
<path d="M257.411 321.411L264.958 336.949L260.515 336.845L248.977 336.59L247.223 336.552L244.977 336.505L257.411 321.411Z" fill="#171717"/>
<path d="M253.803 255.585C250.879 256.868 249.294 261.548 250.417 264.548C248.781 263.989 247.429 262.81 246.652 261.265C246.267 260.307 246.093 259.278 246.142 258.247C246.191 257.216 246.462 256.208 246.937 255.292C247.412 254.375 248.079 253.572 248.893 252.937C249.707 252.303 250.648 251.851 251.652 251.614C252.111 253.054 252.888 254.373 253.926 255.472L253.803 255.585Z" fill="#171717"/>
<path d="M224.231 707.196L194.449 745.667L194.138 745.431C193.997 744.248 193.927 743.057 193.93 741.865C193.929 729.244 197.313 716.853 203.731 705.985C210.149 695.117 219.365 686.17 230.418 680.076C241.471 673.983 253.957 670.966 266.572 671.341C279.188 671.715 291.473 675.467 302.145 682.206L302.739 682.621L261.239 741.865L224.231 707.196Z" fill="url(#paint3_linear_248_1697)"/>
<path d="M263.646 245.064C265.278 246.809 268.438 245.856 269.73 243.847C271.022 241.838 270.985 239.3 270.91 236.913L270.259 216.564C270.193 214.442 270.212 212.074 271.664 210.527C272.74 209.564 274.07 208.931 275.495 208.706C279.316 207.802 283.241 207.412 287.164 207.546" stroke="#171717" stroke-width="3" stroke-linecap="round" stroke-linejoin="round"/>
<path d="M287.447 222.055C287.064 221.504 286.563 221.045 285.982 220.71C285.4 220.376 284.752 220.173 284.083 220.118C283.414 220.063 282.741 220.157 282.113 220.392C281.484 220.627 280.916 220.998 280.447 221.479" stroke="#171717" stroke-width="3" stroke-linecap="round" stroke-linejoin="round"/>
<path d="M259.268 221.913C257.599 219.159 252.853 219.196 251.231 221.989" stroke="#171717" stroke-width="3" stroke-linecap="round" stroke-linejoin="round"/>
<path d="M265.212 258.724C263.214 259.27 261.104 259.255 259.113 258.681C257.123 258.107 255.329 256.996 253.929 255.469C252.891 254.37 252.114 253.051 251.655 251.611C250.651 251.848 249.709 252.3 248.896 252.935C248.082 253.569 247.415 254.372 246.94 255.289C246.465 256.205 246.194 257.213 246.145 258.244C246.096 259.275 246.27 260.304 246.655 261.262C247.432 262.807 248.783 263.986 250.42 264.545C251.553 264.99 252.782 265.133 253.986 264.957C255.191 264.782 256.329 264.295 257.287 263.545" stroke="#171717" stroke-width="3" stroke-linecap="round" stroke-linejoin="round"/>
<path d="M250.438 264.592C250.429 264.573 250.429 264.563 250.42 264.545C249.297 261.545 250.882 256.865 253.806 255.582" stroke="#171717" stroke-width="3" stroke-linecap="round" stroke-linejoin="round"/>
<path d="M276.004 295.119C275.664 290.319 275.334 285.45 276.23 280.719C277.126 275.988 279.419 271.333 283.362 268.578C286.117 266.663 289.551 265.729 291.919 263.352C295.192 260.069 295.56 254.965 295.739 250.333C296.353 234.667 296.963 218.997 297.57 203.325" stroke="#171717" stroke-width="3" stroke-linecap="round" stroke-linejoin="round"/>
<path d="M236.033 294.317C236.259 274.875 236.483 255.438 236.703 236.007C236.77 229.837 236.839 223.665 236.91 217.489C236.958 213.64 237.042 209.612 238.901 206.244C242.042 200.555 249.146 198.499 255.608 197.819C264.604 196.887 273.695 197.593 282.438 199.904C286.551 200.999 290.598 202.442 294.815 203.046C295.728 203.18 296.648 203.262 297.57 203.291C300.924 203.522 304.27 202.75 307.183 201.074C310.805 198.829 313.22 194.338 312.126 190.216C311.032 186.094 305.767 183.367 302.126 185.574C304.4 182.405 305.466 178.009 303.645 174.556C301.824 171.103 296.494 169.669 293.834 172.537C294.578 170.76 294.644 168.774 294.022 166.952C293.399 165.13 292.131 163.599 290.456 162.648C288.781 161.698 286.817 161.394 284.933 161.795C283.05 162.195 281.378 163.271 280.234 164.82C279.69 162.692 278.496 160.788 276.817 159.372C275.139 157.957 273.06 157.1 270.871 156.923C268.683 156.745 266.493 157.255 264.608 158.382C262.724 159.508 261.238 161.195 260.357 163.207C259.235 161.69 257.664 160.565 255.866 159.991C254.069 159.417 252.136 159.423 250.342 160.008C248.548 160.594 246.984 161.729 245.871 163.253C244.758 164.777 244.153 166.612 244.141 168.499C242.442 167.094 240.275 166.382 238.074 166.506C235.872 166.629 233.799 167.579 232.267 169.166C230.736 170.752 229.86 172.858 229.813 175.062C229.767 177.266 230.555 179.407 232.018 181.056C230.163 180.858 228.295 181.276 226.701 182.245C225.107 183.214 223.876 184.68 223.197 186.418C222.519 188.156 222.432 190.069 222.949 191.862C223.465 193.654 224.557 195.227 226.056 196.338C223.817 195.984 221.526 196.49 219.644 197.755C217.762 199.02 216.428 200.95 215.91 203.158C215.391 205.366 215.727 207.688 216.85 209.658C217.973 211.628 219.799 213.101 221.962 213.781C220.435 214.202 219.096 215.131 218.167 216.414C217.237 217.697 216.772 219.258 216.848 220.841C216.924 222.424 217.536 223.934 218.584 225.122C219.632 226.311 221.053 227.107 222.613 227.381C222.02 229.16 222.042 231.086 222.676 232.851C223.31 234.615 224.518 236.116 226.108 237.111C227.697 238.106 229.575 238.537 231.439 238.336C233.303 238.135 235.046 237.314 236.386 236.003" stroke="#171717" stroke-width="3" stroke-linecap="round" stroke-linejoin="round"/>
<path d="M258.741 311.195C257.751 310.534 243.355 299.883 235.968 294.412C233.393 292.506 231.668 291.223 231.668 291.223L217.018 308.534L220.395 311.44L242.762 330.732L258.741 311.195Z" stroke="#171717" stroke-width="3" stroke-linecap="round" stroke-linejoin="round"/>
<path d="M293.834 318.44L295.145 317.855L279.608 292.553L276.325 295.487L258.74 311.195L268.504 329.845L293.834 318.44Z" stroke="#171717" stroke-width="3" stroke-linecap="round" stroke-linejoin="round"/>
<path d="M247.223 336.552L244.977 336.505L257.411 321.411L264.958 336.949L260.515 336.845L248.977 336.59L247.223 336.552Z" stroke="#171717" stroke-width="3" stroke-linecap="round" stroke-linejoin="round"/>
<path d="M247.203 337.496L232.995 468.352L244.976 491.436L272.504 455.918L260.514 336.949" stroke="#171717" stroke-width="3" stroke-linecap="round" stroke-linejoin="round"/>
<path d="M219.76 536.407C223.448 532.397 224.175 526.935 224.514 521.256C224.842 517.248 224.791 513.218 224.363 509.219C223.788 504.955 222.42 500.964 219.496 497.851C214.958 493.051 207.902 491.738 201.326 491.162C179.459 489.238 155.761 492.134 137.092 480.597C136.828 480.436 136.573 480.276 136.318 480.097C118.771 468.729 110.536 445.286 115.677 424.975C119.083 411.541 127.818 399.881 139.186 391.91C145.261 387.629 152.054 384.469 159.242 382.58" stroke="#171717" stroke-width="3" stroke-linecap="round" stroke-linejoin="round"/>
<path d="M219.26 312.751C171.544 304.223 119.894 323.043 88.86 360.278C57.826 397.513 48.612 451.71 65.603 497.106C71.187 512.049 80.027 526.577 92.979 535.539" stroke="#171717" stroke-width="3" stroke-linecap="round" stroke-linejoin="round"/>
<path d="M139.195 391.542C139.195 391.665 139.186 391.787 139.186 391.91C138.272 421.239 137.36 450.566 136.45 479.889" stroke="#171717" stroke-width="3" stroke-linecap="round" stroke-linejoin="round"/>
<path d="M479.378 339.439C472.176 347.777 464.186 355.4 455.52 362.203C449.402 367.018 442.956 371.399 436.228 375.316C408.422 391.424 376.636 399.361 344.522 398.216C340.239 398.055 335.475 397.933 331.636 399.442C329.85 400.087 328.27 401.198 327.06 402.659C324.353 405.98 324.16 410.612 324.108 414.885L322.353 536.722" stroke="#171717" stroke-width="3" stroke-linecap="round" stroke-linejoin="round"/>
<path d="M294.334 319.543C306.273 327.147 319.64 332.229 333.616 334.476C347.591 336.722 361.878 336.087 375.598 332.608C389.319 329.13 402.183 322.881 413.399 314.247C424.616 305.613 433.947 294.777 440.821 282.403C444.18 276.346 447.236 269.61 453.121 265.969C453.888 265.495 454.69 265.082 455.521 264.733C459.842 262.884 464.681 262.809 469.559 263.516C473.419 264.162 477.228 265.08 480.959 266.261C487.883 268.327 495.459 270.988 500.628 275.676C503.019 277.779 504.834 280.458 505.901 283.459C508.222 290.204 506.015 297.487 502.911 304.044C502.449 305.025 501.968 305.978 501.477 306.921C495.402 318.58 487.987 329.49 479.383 339.43" stroke="#171717" stroke-width="3" stroke-linecap="round" stroke-linejoin="round"/>
<path d="M501.661 217.64C498.746 227.791 494.831 237.677 490.934 247.507" stroke="#171717" stroke-width="3" stroke-linecap="round" stroke-linejoin="round"/>
<path d="M469.66 262.846C464.673 255.928 461.507 247.867 460.453 239.404C460.198 237.385 460.264 234.932 461.972 233.828C462.66 233.462 463.44 233.308 464.215 233.383C464.991 233.459 465.726 233.761 466.33 234.253C467.512 235.265 468.484 236.499 469.189 237.885C471.481 241.781 473.781 245.677 476.089 249.573C478.211 243.686 480.353 237.8 482.645 231.979C485.243 225.259 488.194 218.681 491.485 212.272C493.447 208.508 495.664 204.716 499.107 202.244C500.664 201.121 503.098 200.423 504.286 201.933C505.031 202.885 504.862 204.233 504.635 205.414C503.843 209.527 502.843 213.593 501.673 217.614" stroke="#171717" stroke-width="3" stroke-linecap="round" stroke-linejoin="round"/>
<path d="M501.66 217.64C501.66 217.63 501.669 217.621 501.669 217.612C503.946 212.207 507.789 207.607 512.703 204.404C513.086 204.084 513.534 203.852 514.017 203.723C514.499 203.594 515.003 203.572 515.495 203.659C515.912 203.836 516.27 204.127 516.528 204.498C516.787 204.87 516.936 205.307 516.957 205.759C516.992 206.669 516.844 207.576 516.523 208.428C515.41 212.127 514.21 215.797 512.923 219.438C509.182 230.067 504.739 240.435 499.623 250.475" stroke="#171717" stroke-width="3" stroke-linecap="round" stroke-linejoin="round"/>
<path d="M513.452 219.63C515.947 214.852 519.303 210.576 523.352 207.017C524.437 206.065 525.984 205.117 527.22 205.866C528.154 206.433 528.361 207.687 528.437 208.782C528.946 216.715 527.116 224.517 524.163 231.96C522.612 235.834 520.829 239.611 518.824 243.271C513.079 253.913 506.124 263.96 501.616 275.186" stroke="#171717" stroke-width="3" stroke-linecap="round" stroke-linejoin="round"/>
<path d="M435.538 146.047L455.51 145.679L906 137.321L919.991 137.057" stroke="#171717" stroke-width="3" stroke-linecap="round" stroke-linejoin="round"/>
<path d="M435.538 458.691L455.519 458.984L734.202 463.069L896.01 465.446L913 465.691" stroke="#171717" stroke-width="3" stroke-linecap="round" stroke-linejoin="round"/>
<path d="M906.01 137.057L906 137.321L896.01 465.437" stroke="#171717" stroke-width="3" stroke-linecap="round" stroke-linejoin="round"/>
<path d="M455.52 362.024V362.203V458.691" stroke="#171717" stroke-width="3" stroke-linecap="round" stroke-linejoin="round"/>
<path d="M455.52 146.047V264.733V265.356" stroke="#171717" stroke-width="3" stroke-linecap="round" stroke-linejoin="round"/>
<path d="M613.337 462.191L523.442 880.437" stroke="#171717" stroke-width="3" stroke-linecap="round" stroke-linejoin="round"/>
<path d="M734.202 463.069L794.135 869.23" stroke="#171717" stroke-width="3" stroke-linecap="round" stroke-linejoin="round"/>
<path d="M108.913 580.557H76.9511L70.9521 536.718H92.9791H219.76H291.636H322.352H345.974H404.577H451.519V580.557H418.558H108.913Z" stroke="#171717" stroke-width="3" stroke-linecap="round" stroke-linejoin="round"/>
<path d="M108.913 582.057L127.894 897.664H355.634L418.558 580.557" stroke="#171717" stroke-width="3" stroke-linecap="round" stroke-linejoin="round"/>
<path d="M345.975 536.718V500.983H375.276H404.578V536.718" stroke="#171717" stroke-width="3" stroke-linecap="round" stroke-linejoin="round"/>
<path d="M306.022 377.118L324.644 393.344L331.635 399.438L373.276 435.72L375.275 500.983" stroke="#171717" stroke-width="3" stroke-linecap="round" stroke-linejoin="round"/>
<path d="M325.22 392.702C325.041 392.927 324.849 393.142 324.644 393.344C318.692 399.504 305.711 397.644 295.079 388.944C284.079 379.953 279.749 367.057 285.409 360.144C291.069 353.231 304.56 354.909 315.55 363.899C326.54 372.889 330.88 385.785 325.22 392.702Z" stroke="#171717" stroke-width="3" stroke-linecap="round" stroke-linejoin="round"/>
<path d="M224.231 509.238C224.279 509.228 224.316 509.228 224.363 509.219C244.76 506.269 265.518 511.139 282.475 522.851C286.947 525.973 291.447 530.218 291.636 535.671" stroke="#171717" stroke-width="3" stroke-linecap="round" stroke-linejoin="round"/>
<path d="M194.138 745.431C193.997 744.248 193.927 743.057 193.93 741.865C193.929 729.244 197.313 716.853 203.731 705.985C210.149 695.117 219.365 686.17 230.418 680.076C241.471 673.983 253.957 670.966 266.572 671.341C279.188 671.715 291.473 675.467 302.145 682.206" stroke="#171717" stroke-width="3" stroke-linecap="round" stroke-linejoin="round"/>
<path d="M324.937 705.498C331.372 716.203 334.85 728.424 335.016 740.914C335.181 753.403 332.029 765.712 325.881 776.584C319.732 787.456 310.808 796.501 300.02 802.796C289.232 809.09 276.966 812.408 264.476 812.411C243.91 812.411 226.345 804.552 213.449 790.511" stroke="#171717" stroke-width="3" stroke-linecap="round" stroke-linejoin="round"/>
<path d="M194.449 745.667L163.742 785.326L192.147 815.958L212.713 789.93L233.882 763.129L266.287 794.647L324.314 705.092L343.087 676.121L365.728 697.866L361.738 614.405L294.334 643.263L319.116 659.244L302.739 682.621L261.24 741.865L224.231 707.196L194.449 745.667Z" stroke="#171717" stroke-width="3" stroke-linecap="round" stroke-linejoin="round"/>
<path d="M479.377 339.43V339.439L477.802 375.306L475.16 435.72H573.054H684.929H786.144H864.058L867.011 369.939L870.246 297.78L873.482 225.63L876.039 168.688L791.465 169.546L688.901 170.594L583.035 171.669L579.705 171.707L482.585 172.688V231.96" stroke="#171717" stroke-width="3" stroke-linecap="round" stroke-linejoin="round"/>
<path d="M579.715 172.301L578.234 230.97L576.413 302.789L574.611 374.061L573.054 435.72" stroke="#171717" stroke-width="3" stroke-linecap="round" stroke-linejoin="round"/>
<path d="M688.92 172.301L688.061 228.97L686.967 300.902L685.892 372.486L684.929 435.72" stroke="#171717" stroke-width="3" stroke-linecap="round" stroke-linejoin="round"/>
<path d="M791.474 170.414L790.333 227.102L788.891 299.166L787.447 371.061L786.145 435.72" stroke="#171717" stroke-width="3" stroke-linecap="round" stroke-linejoin="round"/>
<path d="M479.812 375.391L574.612 374.061L685.893 372.486L787.447 371.061L867.012 369.939H867.115" stroke="#171717" stroke-width="3" stroke-linecap="round" stroke-linejoin="round"/>
<path d="M502.812 304.044H502.906L576.414 302.789L686.968 300.902L788.891 299.166L870.18 297.78" stroke="#171717" stroke-width="3" stroke-linecap="round" stroke-linejoin="round"/>
<path d="M524.159 231.96L578.234 230.97L688.061 228.97L790.333 227.102L872.822 225.602" stroke="#171717" stroke-width="3" stroke-linecap="round" stroke-linejoin="round"/>
<path d="M438.868 286.216L499.921 307.752" stroke="#171717" stroke-width="3" stroke-linecap="round" stroke-linejoin="round"/>
<path d="M486.274 302.422L498.226 275.77" stroke="#171717" stroke-width="3" stroke-linecap="round" stroke-linejoin="round"/>
<path d="M470.557 297.013L482.95 268.141" stroke="#171717" stroke-width="3" stroke-linecap="round" stroke-linejoin="round"/>
<path d="M454.527 291.222L466.141 264.616" stroke="#171717" stroke-width="3" stroke-linecap="round" stroke-linejoin="round"/>
<path d="M195.035 490.537C194.231 505.798 192.135 520.963 188.77 535.869" stroke="#171717" stroke-width="3" stroke-linecap="round" stroke-linejoin="round"/>
<path d="M190.829 525.045L222.745 527.455" stroke="#171717" stroke-width="3" stroke-linecap="round" stroke-linejoin="round"/>
<path d="M193.503 510.72L224.537 513.42" stroke="#171717" stroke-width="3" stroke-linecap="round" stroke-linejoin="round"/>
<path d="M193.928 498.905L220.994 499.549" stroke="#171717" stroke-width="3" stroke-linecap="round" stroke-linejoin="round"/>
<path d="M461.058 336.13L463.404 325.846" stroke="#171717" stroke-width="3" stroke-linecap="round" stroke-linejoin="round"/>
<path d="M419.503 322.966L427.465 324.866" stroke="#171717" stroke-width="3" stroke-linecap="round" stroke-linejoin="round"/>
<path d="M411.48 368.473L414.153 360.929" stroke="#171717" stroke-width="3" stroke-linecap="round" stroke-linejoin="round"/>
<path d="M379.953 349.806C377.922 347.62 375.29 346.084 372.388 345.392" stroke="#171717" stroke-width="3" stroke-linecap="round" stroke-linejoin="round"/>
<path d="M358.259 381.39L364.043 372.964" stroke="#171717" stroke-width="3" stroke-linecap="round" stroke-linejoin="round"/>
<path d="M342.128 360.571C339.677 358.666 337.728 356.192 336.45 353.363" stroke="#171717" stroke-width="3" stroke-linecap="round" stroke-linejoin="round"/>
<path d="M295.165 342.291L301.414 335.664" stroke="#171717" stroke-width="3" stroke-linecap="round" stroke-linejoin="round"/>
<path d="M302.249 422.626C301.019 419.269 299.046 416.234 296.478 413.747" stroke="#171717" stroke-width="3" stroke-linecap="round" stroke-linejoin="round"/>
<path d="M277.388 403.092L283.159 397.321" stroke="#171717" stroke-width="3" stroke-linecap="round" stroke-linejoin="round"/>
<path d="M293.393 453.293C290.728 455.014 288.434 457.252 286.647 459.874" stroke="#171717" stroke-width="3" stroke-linecap="round" stroke-linejoin="round"/>
<path d="M310.239 462.136L306.239 454.589" stroke="#171717" stroke-width="3" stroke-linecap="round" stroke-linejoin="round"/>
<path d="M278.703 502.509L286.248 496.735" stroke="#171717" stroke-width="3" stroke-linecap="round" stroke-linejoin="round"/>
<path d="M210.584 474.768L204.107 467.936" stroke="#171717" stroke-width="3" stroke-linecap="round" stroke-linejoin="round"/>
<path d="M198.852 430.656C201.555 427.831 204.882 425.679 208.567 424.372" stroke="#171717" stroke-width="3" stroke-linecap="round" stroke-linejoin="round"/>
<path d="M177.057 452.814L171.526 444.074L172.686 443.125" stroke="#171717" stroke-width="3" stroke-linecap="round" stroke-linejoin="round"/>
<path d="M199.365 393.53C197.776 390.898 196.462 388.11 195.443 385.21" stroke="#171717" stroke-width="3" stroke-linecap="round" stroke-linejoin="round"/>
<path d="M219.575 369.638L227.184 364.852" stroke="#171717" stroke-width="3" stroke-linecap="round" stroke-linejoin="round"/>
<path d="M197.035 342.272C194.543 340.616 192.548 338.315 191.264 335.613" stroke="#171717" stroke-width="3" stroke-linecap="round" stroke-linejoin="round"/>
<path d="M161.073 364.91L168.173 360.026" stroke="#171717" stroke-width="3" stroke-linecap="round" stroke-linejoin="round"/>
<path d="M121.559 369.801L115.788 363.142" stroke="#171717" stroke-width="3" stroke-linecap="round" stroke-linejoin="round"/>
<path d="M108.695 402.74L101.595 403.16" stroke="#171717" stroke-width="3" stroke-linecap="round" stroke-linejoin="round"/>
<path d="M86.9894 429.211L81.1895 423.026L81.9245 422.075" stroke="#171717" stroke-width="3" stroke-linecap="round" stroke-linejoin="round"/>
<path d="M106.544 468.055L98.7266 471.872L99.8106 471.46" stroke="#171717" stroke-width="3" stroke-linecap="round" stroke-linejoin="round"/>
<path d="M78.503 472.347C75.9301 470.126 73.819 467.421 72.29 464.385L73.618 464.358" stroke="#171717" stroke-width="3" stroke-linecap="round" stroke-linejoin="round"/>
<path d="M120.704 506.04C117.819 504.429 115.676 501.757 114.729 498.592" stroke="#171717" stroke-width="3" stroke-linecap="round" stroke-linejoin="round"/>
<path d="M147.742 507.403L156.172 499.403" stroke="#171717" stroke-width="3" stroke-linecap="round" stroke-linejoin="round"/>
<path d="M172.589 527.439C169.583 525.46 167.028 522.871 165.089 519.839" stroke="#171717" stroke-width="3" stroke-linecap="round" stroke-linejoin="round"/>
<path d="M119.788 529.616C121.878 528.136 123.559 526.15 124.672 523.844" stroke="#171717" stroke-width="3" stroke-linecap="round" stroke-linejoin="round"/>
<path d="M164.103 167.24C166.154 198.821 165.877 230.51 163.275 262.05C162.638 269.775 160.688 279.064 153.355 281.577C146.297 283.995 139.155 278.328 134.393 272.577C127.651 264.431 122.24 255.269 118.361 245.432C117.192 242.463 116.61 238.232 119.482 236.842C121.326 235.948 123.516 236.914 125.218 238.056C139.187 247.429 141.024 269.423 130.718 282.714C120.412 296.005 101.068 300.293 84.9892 295.346C79.7892 293.746 74.5362 291.019 71.9212 286.246C69.3062 281.473 70.5762 274.346 75.5902 272.223C79.5302 270.554 84.2902 272.534 86.9852 275.856C89.6802 279.178 90.7172 283.53 91.3312 287.764C93.0812 299.814 91.6772 313.097 83.8092 322.39C78.5212 328.634 70.9502 332.39 63.6682 336.118C56.3862 339.846 48.9182 343.947 44.1432 350.591C39.3682 357.235 38.1502 367.162 43.5432 373.314" stroke="#171717" stroke-width="3" stroke-linecap="round" stroke-linejoin="round"/>
<path d="M346.534 182.047L341.891 168.723" stroke="#171717" stroke-width="3" stroke-linecap="round" stroke-linejoin="round"/>
<path d="M336.21 179.056L350.086 170.882" stroke="#171717" stroke-width="3" stroke-linecap="round" stroke-linejoin="round"/>
<path d="M326.003 128.07L318.008 116.085" stroke="#171717" stroke-width="3" stroke-linecap="round" stroke-linejoin="round"/>
<path d="M314.771 126.831L325.463 116.214" stroke="#171717" stroke-width="3" stroke-linecap="round" stroke-linejoin="round"/>
<path d="M439.023 125.01L415.423 109.143" stroke="#171717" stroke-width="3" stroke-linecap="round" stroke-linejoin="round"/>
<path d="M460.736 119.353L445.062 62" stroke="#171717" stroke-width="3" stroke-linecap="round" stroke-linejoin="round"/>
<path d="M479.559 117.522C481.801 109.143 484.91 101.02 488.835 93.2852" stroke="#171717" stroke-width="3" stroke-linecap="round" stroke-linejoin="round"/>
<path d="M873.339 506.147C851.543 524.032 835.918 548.313 828.67 575.56C827.105 581.505 826.227 588.627 830.448 593.097C834.703 597.605 841.887 597.09 848.027 596.235C853.375 595.49 858.846 594.706 863.627 592.188C868.408 589.67 872.427 585.028 872.673 579.634C872.919 574.24 868.22 568.683 862.857 569.316C857.412 569.958 854.325 575.816 852.742 581.064C849.181 592.916 848.447 605.437 850.599 617.624C851.979 625.389 854.528 632.982 854.899 640.859C855.27 648.736 852.999 657.338 846.638 662.005C840.277 666.672 829.445 665.079 826.652 657.705" stroke="#171717" stroke-width="3" stroke-linecap="round" stroke-linejoin="round"/>
<path d="M434.149 489.726C437.917 512.576 462.206 529.901 485.037 526.026C491.294 524.964 497.564 522.544 503.805 523.699C514.118 525.608 520.219 536.405 522.897 546.546C526.519 560.344 526.488 574.847 522.805 588.629C521.622 593.029 520.005 597.453 516.96 600.847C513.915 604.241 509.192 606.431 504.753 605.396C499.485 604.167 496.095 598.882 494.793 593.632C493.712 589.278 493.724 584.489 495.786 580.505C497.848 576.521 502.256 573.593 506.707 574.144C511.158 574.695 514.921 579.369 513.75 583.699C512.579 588.029 505.983 589.884 503.199 586.368" stroke="#171717" stroke-width="3" stroke-linecap="round" stroke-linejoin="round"/>
<path d="M480.851 648.391L467.975 632.06" stroke="#171717" stroke-width="3" stroke-linecap="round" stroke-linejoin="round"/>
<path d="M463.843 650.812L478.493 636.162" stroke="#171717" stroke-width="3" stroke-linecap="round" stroke-linejoin="round"/>
<path d="M551.612 524.061L566.057 515.714" stroke="#171717" stroke-width="3" stroke-linecap="round" stroke-linejoin="round"/>
<path d="M561.148 528.246L552.104 508.759" stroke="#171717" stroke-width="3" stroke-linecap="round" stroke-linejoin="round"/>
<path d="M743.279 80.6081L754.015 66.0181" stroke="#171717" stroke-width="3" stroke-linecap="round" stroke-linejoin="round"/>
<path d="M755.604 76.6632L742.304 67.3242" stroke="#171717" stroke-width="3" stroke-linecap="round" stroke-linejoin="round"/>
<path d="M816.777 111.422L830.095 96.772" stroke="#171717" stroke-width="3" stroke-linecap="round" stroke-linejoin="round"/>
<path d="M827.182 110.256L816.573 94.2441" stroke="#171717" stroke-width="3" stroke-linecap="round" stroke-linejoin="round"/>
<path d="M607.355 269.505L648.295 270.242" stroke="#171717" stroke-width="3" stroke-linecap="round" stroke-linejoin="round"/>
<path d="M717.236 267.025L751.194 262.996" stroke="#171717" stroke-width="3" stroke-linecap="round" stroke-linejoin="round"/>
<path d="M814.116 266.885C825.999 267.893 837.957 266.232 849.116 262.025" stroke="#171717" stroke-width="3" stroke-linecap="round" stroke-linejoin="round"/>
<path d="M599.351 341.699L640.293 339.499" stroke="#171717" stroke-width="3" stroke-linecap="round" stroke-linejoin="round"/>
<path d="M716.229 341.985L754.18 340.785" stroke="#171717" stroke-width="3" stroke-linecap="round" stroke-linejoin="round"/>
<path d="M813.115 340.829L837.088 339.829" stroke="#171717" stroke-width="3" stroke-linecap="round" stroke-linejoin="round"/>
<path d="M804.124 404.901L841.087 405.151" stroke="#171717" stroke-width="3" stroke-linecap="round" stroke-linejoin="round"/>
<path d="M713.227 329.796L768.17 327.964" stroke="#171717" stroke-width="3" stroke-linecap="round" stroke-linejoin="round"/>
<path d="M595.352 415.385L652.3 413.834" stroke="#171717" stroke-width="3" stroke-linecap="round" stroke-linejoin="round"/>
<path d="M591.365 403.296C614.693 403.27 638 402.429 661.287 400.773" stroke="#171717" stroke-width="3" stroke-linecap="round" stroke-linejoin="round"/>
<path d="M710.255 409.114L750.234 406.489" stroke="#171717" stroke-width="3" stroke-linecap="round" stroke-linejoin="round"/>
<path d="M642.087 193.836C643.334 189.914 640.387 185.32 636.349 184.521C634.308 184.219 632.225 184.655 630.476 185.75C628.727 186.845 627.425 188.528 626.804 190.496C626.283 192.494 626.39 194.605 627.111 196.54C627.832 198.476 629.132 200.142 630.834 201.312C634.528 203.841 640.197 204.52 641.521 208.797C642.89 213.22 637.308 217.37 632.836 216.17C628.364 214.97 625.555 210.482 624.245 206.042" stroke="#171717" stroke-width="3" stroke-linecap="round" stroke-linejoin="round"/>
<path d="M632.826 221.97L632.289 180.012" stroke="#171717" stroke-width="3" stroke-linecap="round" stroke-linejoin="round"/>
<path d="M725.26 212.044L756.221 191.061" stroke="#171717" stroke-width="3" stroke-linecap="round" stroke-linejoin="round"/>
<path d="M751.185 204.985L756.018 190.242L740.189 189.122" stroke="#171717" stroke-width="3" stroke-linecap="round" stroke-linejoin="round"/>
<path d="M822.185 210.053L839.185 192.092" stroke="#171717" stroke-width="3" stroke-linecap="round" stroke-linejoin="round"/>
<path d="M819.147 195.929L842.171 209.829" stroke="#171717" stroke-width="3" stroke-linecap="round" stroke-linejoin="round"/>
<path d="M521.443 340.794L541.421 339.804" stroke="#171717" stroke-width="3" stroke-linecap="round" stroke-linejoin="round"/>
<path d="M623.329 259.921H649.303" stroke="#171717" stroke-width="3" stroke-linecap="round" stroke-linejoin="round"/>
<path d="M432.547 389.779C444.798 385.042 455.914 377.778 465.171 368.46" stroke="#171717" stroke-width="3" stroke-linecap="round" stroke-linejoin="round"/>
<path d="M55.5317 504.385C49.7547 495.457 46.828 484.984 47.1397 474.355" stroke="#171717" stroke-width="3" stroke-linecap="round" stroke-linejoin="round"/>
<path d="M290.427 197.402C285.284 196.15 279.998 195.815 274.742 195.265C269.486 194.715 264.056 193.788 258.742 193.922C254.261 194.006 249.874 195.218 245.984 197.444C241.266 200.144 237.875 202.922 232.334 203.819C226.064 204.833 227.524 213.344 232.334 215.119C243.639 219.29 248.234 206.262 257.806 204.631C268.106 202.877 279.006 205.916 289.406 204.922C293.444 204.537 294.906 198.493 290.424 197.402H290.427Z" fill="#171717"/>
<g opacity="0.1">
<path d="M220.509 316.162C200.152 307.324 174.198 308.872 153.175 314.519C131.135 320.419 110.979 331.878 94.6348 347.798C78.9124 363.317 67.2316 382.453 60.6137 403.53C53.9958 424.607 52.6424 446.985 56.6718 468.707C61.5677 493.936 73.6561 517.21 91.4798 535.725C98.6798 543.292 109.78 532.008 102.88 524.325C76.5598 494.988 65.6388 452.132 75.6418 413.925C85.3888 376.701 113.168 345.042 149.535 331.941C160.156 328.062 171.232 325.567 182.49 324.518C194.49 323.475 206.107 324.788 218.07 325.156C222.593 325.295 225.008 318.113 220.507 316.156L220.509 316.162Z" fill="#171717"/>
</g>
<g opacity="0.1">
<path d="M334.947 392.922C337.828 397.814 347.547 397.665 352.521 397.822C360.139 398.066 367.765 397.735 375.334 396.833C390.443 395.038 405.216 391.084 419.202 385.093C445.956 373.593 468.302 354.624 484.775 330.683C493.961 317.401 501.117 302.824 506.007 287.433C509.161 277.414 493.252 273.022 490.277 283.096C480.895 314.885 460.962 342.527 433.762 361.467C419.116 371.664 402.748 379.131 385.447 383.507C376.607 385.808 367.57 387.268 358.455 387.87C353.936 388.161 349.403 388.049 344.895 388.39C341.609 388.639 337.614 388.239 335.218 390.824C334.954 391.099 334.785 391.451 334.736 391.829C334.688 392.207 334.761 392.591 334.947 392.924V392.922Z" fill="#171717"/>
</g>
<g opacity="0.1">
<path d="M356.406 529.907L358.145 510.757C359.045 500.798 342.792 500.557 342.429 510.757L341.747 529.907C341.407 539.457 355.566 539.157 356.406 529.907V529.907Z" fill="#171717"/>
</g>
<g opacity="0.1">
<path d="M88.7691 572.95C88.5071 563.656 88.1021 554.378 88.6811 545.077C89.4081 533.398 70.5811 533.244 70.4001 545.077C70.2481 555.184 70.8101 565.22 73.1001 575.07C75.1331 583.809 89.0211 581.95 88.7671 572.95H88.7691Z" fill="#171717"/>
</g>
<defs>
<linearGradient id="paint0_linear_248_1697" x1="273.867" y1="705.089" x2="273.867" y2="812.411" gradientUnits="userSpaceOnUse">
<stop stop-color="#42E670"/>
<stop offset="1" stop-color="#07AA50"/>
</linearGradient>
<linearGradient id="paint1_linear_248_1697" x1="282.024" y1="263.104" x2="282.024" y2="536.724" gradientUnits="userSpaceOnUse">
<stop stop-color="#42E670"/>
<stop offset="1" stop-color="#07AA50"/>
</linearGradient>
<linearGradient id="paint2_linear_248_1697" x1="531.147" y1="171.704" x2="531.147" y2="231.981" gradientUnits="userSpaceOnUse">
<stop stop-color="#42E670"/>
<stop offset="1" stop-color="#07AA50"/>
</linearGradient>
<linearGradient id="paint3_linear_248_1697" x1="248.334" y1="671.31" x2="248.334" y2="745.667" gradientUnits="userSpaceOnUse">
<stop stop-color="#42E670"/>
<stop offset="1" stop-color="#07AA50"/>
</linearGradient>
</defs>
</svg>
