<svg width="180" height="127" viewBox="0 0 180 127" fill="none" xmlns="http://www.w3.org/2000/svg">
<path opacity="0.5" d="M90.5 122.656C121.704 122.656 147 97.3601 147 66.156C147 34.9519 121.704 9.65601 90.5 9.65601C59.2959 9.65601 34 34.9519 34 66.156C34 97.3601 59.2959 122.656 90.5 122.656Z" fill="#05B08B"/>
<path d="M127.29 13.0659C128.09 17.0559 128.74 17.7059 132.73 18.5059C128.74 19.3059 128.09 19.9559 127.29 23.9459C126.49 19.9559 125.84 19.3059 121.85 18.5059C125.84 17.7059 126.49 17.0559 127.29 13.0659Z" fill="#B2E7DB"/>
<path d="M127.29 13.0659C128.09 17.0559 128.74 17.7059 132.73 18.5059C128.74 19.3059 128.09 19.9559 127.29 23.9459C126.49 19.9559 125.84 19.3059 121.85 18.5059C125.84 17.7059 126.49 17.0559 127.29 13.0659Z" stroke="#21324C" stroke-width="0.5"/>
<path d="M98.4599 99.7758H81.1399C80.1599 99.7758 79.3699 98.9858 79.3699 98.0058C79.3699 97.0258 80.1599 96.2358 81.1399 96.2358H98.4599C99.4399 96.2358 100.23 97.0258 100.23 98.0058C100.23 98.9858 99.4399 99.7758 98.4599 99.7758Z" fill="#39404F"/>
<path d="M98.4599 105.336H81.1399C80.1599 105.336 79.3699 104.546 79.3699 103.566C79.3699 102.586 80.1599 101.796 81.1399 101.796H98.4599C99.4399 101.796 100.23 102.586 100.23 103.566C100.23 104.546 99.4399 105.336 98.4599 105.336Z" fill="#39404F"/>
<path d="M85.5998 107.426C85.1698 107.426 84.8498 107.816 84.9198 108.236C85.3498 110.516 87.3398 112.246 89.7498 112.246C92.1598 112.246 94.1498 110.516 94.5798 108.236C94.6598 107.816 94.3298 107.426 93.8998 107.426H85.5898H85.5998Z" fill="#39404F"/>
<path d="M96.6299 94.0059H82.7199C80.3099 94.0059 78.2799 92.1259 78.0999 89.7159C77.5099 81.8759 74.3099 76.9059 70.9199 71.6459C67.2299 65.9059 63.3999 59.9759 63.3999 50.3859C63.3999 37.4359 72.6699 26.5359 85.4299 24.4659C88.4099 23.9859 91.5599 24.0259 94.5299 24.5759C106.93 26.8959 115.93 37.7459 115.93 50.3859C115.93 59.9759 112.11 65.9059 108.41 71.6459C105.02 76.9059 101.82 81.8759 101.23 89.7159C101.05 92.1159 99.0199 94.0059 96.6099 94.0059H96.6299ZM89.6699 27.5459C88.4299 27.5459 87.1899 27.6459 85.9899 27.8359C74.8899 29.6359 66.8299 39.1159 66.8299 50.3759C66.8299 58.9659 70.2199 64.2159 73.7999 69.7859C77.2699 75.1759 80.8599 80.7459 81.5099 89.4559C81.5599 90.0859 82.0899 90.5859 82.7199 90.5859H96.6299C97.2699 90.5859 97.7899 90.1059 97.8399 89.4559C98.4899 80.7459 102.08 75.1759 105.55 69.7859C109.13 64.2159 112.52 58.9659 112.52 50.3759C112.52 39.3859 104.69 29.9459 93.9099 27.9259C92.5299 27.6659 91.0999 27.5359 89.6699 27.5359V27.5459Z" fill="#39404F"/>
<path d="M76.95 66.8459C76.42 66.8459 75.9 66.6059 75.57 66.1459C66.08 53.1159 73.08 40.8759 73.38 40.3659C73.86 39.5559 74.91 39.2759 75.72 39.7559C76.53 40.2359 76.8 41.2759 76.33 42.0959C76.07 42.5459 70.2 52.9659 78.34 64.1359C78.9 64.8959 78.73 65.9659 77.96 66.5259C77.66 66.7459 77.3 66.8559 76.96 66.8559L76.95 66.8459Z" fill="#39404F"/>
<path d="M109.97 17.656C112.23 28.956 114.06 30.786 125.36 33.046C114.06 35.306 112.23 37.136 109.97 48.436C107.71 37.136 105.88 35.306 94.5798 33.046C105.88 30.786 107.71 28.956 109.97 17.656Z" fill="#B2E7DB"/>
<path d="M109.97 17.656C112.23 28.956 114.06 30.786 125.36 33.046C114.06 35.306 112.23 37.136 109.97 48.436C107.71 37.136 105.88 35.306 94.5798 33.046C105.88 30.786 107.71 28.956 109.97 17.656Z" stroke="#21324C" stroke-width="0.5"/>
</svg>
