<svg width="180" height="127" viewBox="0 0 180 127" fill="none" xmlns="http://www.w3.org/2000/svg">
<path opacity="0.5" d="M90.5 119.656C121.704 119.656 147 94.3601 147 63.156C147 31.9519 121.704 6.65601 90.5 6.65601C59.2959 6.65601 34 31.9519 34 63.156C34 94.3601 59.2959 119.656 90.5 119.656Z" fill="#05B08B"/>
<path d="M34.9701 15.366C35.5801 18.406 36.0701 18.896 39.1101 19.506C36.0701 20.116 35.5801 20.606 34.9701 23.646C34.3601 20.606 33.8701 20.116 30.8301 19.506C33.8701 18.896 34.3601 18.406 34.9701 15.366Z" fill="#B2E7DB"/>
<path d="M34.9701 15.366C35.5801 18.406 36.0701 18.896 39.1101 19.506C36.0701 20.116 35.5801 20.606 34.9701 23.646C34.3601 20.606 33.8701 20.116 30.8301 19.506C33.8701 18.896 34.3601 18.406 34.9701 15.366Z" stroke="#21324C" stroke-width="0.5"/>
<path d="M151.71 84.656C153.43 93.256 154.82 94.646 163.42 96.366C154.82 98.086 153.43 99.476 151.71 108.076C149.99 99.476 148.6 98.086 140 96.366C148.6 94.646 149.99 93.256 151.71 84.656Z" fill="#B2E7DB"/>
<path d="M151.71 84.656C153.43 93.256 154.82 94.646 163.42 96.366C154.82 98.086 153.43 99.476 151.71 108.076C149.99 99.476 148.6 98.086 140 96.366C148.6 94.646 149.99 93.256 151.71 84.656Z" stroke="#21324C" stroke-width="0.5"/>
<path d="M47.1801 39.766C46.3301 39.766 45.6401 39.076 45.6401 38.226C45.6401 37.376 46.3301 36.686 47.1801 36.686H77.4201C78.2701 36.686 78.9601 37.376 78.9601 38.226C78.9601 39.076 78.2701 39.766 77.4201 39.766H47.1801ZM50.1801 49.486C49.3301 49.486 48.6401 48.796 48.6401 47.946C48.6401 47.096 49.3301 46.406 50.1801 46.406H72.9301C73.7801 46.406 74.4701 47.096 74.4701 47.946C74.4701 48.796 73.7801 49.486 72.9301 49.486H50.1801ZM51.6801 59.206C50.8301 59.206 50.1401 58.516 50.1401 57.666C50.1401 56.816 50.8301 56.126 51.6801 56.126H68.4401C69.2901 56.126 69.9801 56.816 69.9801 57.666C69.9801 58.516 69.2901 59.206 68.4401 59.206H51.6801ZM90.5701 43.706C90.5701 42.856 91.2601 42.166 92.1101 42.166C92.9601 42.166 93.6501 42.856 93.6501 43.706V62.846L108.2 72.816C108.9 73.296 109.08 74.246 108.6 74.946C108.12 75.646 107.17 75.826 106.46 75.346L91.3201 64.976C90.8701 64.706 90.5601 64.216 90.5601 63.656V43.706H90.5701ZM76.3401 33.096C75.5901 33.486 74.6601 33.186 74.2701 32.436C73.8801 31.686 74.1801 30.756 74.9301 30.366C77.5401 29.016 80.3301 27.966 83.2601 27.256C86.1101 26.566 89.0701 26.196 92.1101 26.196C102.46 26.196 111.82 30.386 118.61 37.166C125.39 43.946 129.59 53.306 129.59 63.646C129.59 73.986 125.39 83.346 118.61 90.126C111.83 96.906 102.46 101.096 92.1101 101.096C82.3301 101.096 73.4301 97.346 66.7501 91.216C60.0201 85.026 55.5601 76.416 54.7601 66.766C54.6901 65.916 55.3201 65.176 56.1701 65.106C57.0201 65.036 57.7601 65.666 57.8301 66.516C58.5601 75.376 62.6501 83.276 68.8301 88.956C74.6001 94.266 82.2001 97.616 90.5701 97.986V92.076C90.5701 91.226 91.2601 90.536 92.1101 90.536C92.9601 90.536 93.6501 91.226 93.6501 92.076V97.986C102.53 97.596 110.54 93.836 116.43 87.946C122.32 82.066 126.08 74.056 126.47 65.186H120.56C119.71 65.186 119.02 64.496 119.02 63.646C119.02 62.796 119.71 62.106 120.56 62.106H126.47C126.08 53.226 122.31 45.226 116.43 39.346C110.54 33.466 102.53 29.706 93.6501 29.306V35.216C93.6501 36.066 92.9601 36.756 92.1101 36.756C91.2601 36.756 90.5701 36.066 90.5701 35.216V29.306C88.3001 29.406 86.1001 29.716 83.9901 30.236C81.3101 30.886 78.7501 31.856 76.3501 33.096H76.3401Z" fill="#39404F"/>
</svg>
