<svg width="122" height="42" viewBox="0 0 122 42" fill="none" xmlns="http://www.w3.org/2000/svg">
<path d="M24.9265 11.4826H12.4147C12.1781 11.4818 11.9513 11.3873 11.7839 11.22C11.6165 11.0526 11.5221 10.8258 11.5213 10.5891V4.47085C11.5213 4.23475 11.4275 4.00832 11.2605 3.84137C11.0936 3.67442 10.8672 3.58063 10.6311 3.58063H5.30264C5.06624 3.58063 4.83948 3.67431 4.67201 3.84117C4.50455 4.00803 4.41004 4.23445 4.40918 4.47085V24.1012C4.41003 24.3379 4.50444 24.5646 4.67181 24.732C4.83918 24.8994 5.06595 24.9938 5.30264 24.9946H10.6311C10.8675 24.9938 11.0939 24.8993 11.2607 24.7318C11.4276 24.5643 11.5213 24.3376 11.5213 24.1012V19.4849C11.5221 19.2485 11.6167 19.0221 11.7841 18.8553C11.9516 18.6884 12.1783 18.5947 12.4147 18.5947H14.2243C14.4607 18.5947 14.6875 18.6884 14.855 18.8553C15.0224 19.0221 15.1169 19.2485 15.1178 19.4849V27.1215C15.1178 27.3579 15.2115 27.5846 15.3783 27.7521C15.5452 27.9196 15.7716 28.0141 16.008 28.0149H21.3364C21.5731 28.0141 21.7999 27.9197 21.9673 27.7523C22.1346 27.5849 22.2291 27.3582 22.2299 27.1215V19.4849C22.2299 19.2488 22.3237 19.0224 22.4906 18.8555C22.6576 18.6885 22.884 18.5947 23.1201 18.5947H24.9265C25.1629 18.5939 25.3893 18.4993 25.5562 18.3319C25.723 18.1644 25.8167 17.9376 25.8167 17.7012V12.3728C25.8167 12.1367 25.7229 11.9103 25.556 11.7433C25.389 11.5764 25.1626 11.4826 24.9265 11.4826Z" fill="#39404F"/>
<path d="M21.3396 3.58063H16.0079C15.5162 3.58063 15.1177 3.9792 15.1177 4.47085V7.77603C15.1177 8.26768 15.5162 8.66625 16.0079 8.66625H21.3396C21.8312 8.66625 22.2298 8.26768 22.2298 7.77603V4.47085C22.2298 3.9792 21.8312 3.58063 21.3396 3.58063Z" fill="#14AE8B"/>
<path d="M112.739 12.2722H116.904L112.694 18.171L117.017 24.2275H112.829L110.488 20.5801L108.124 24.2275H103.936L108.259 18.171L104.049 12.2722H108.214L110.488 15.762L112.739 12.2722Z" fill="#14AE8B"/>
<path d="M97.6559 12.2948H101.528V24.2275H97.6559V12.2948ZM97.5884 10.8538V8.24213H101.573V10.8538H97.5884Z" fill="#14AE8B"/>
<path d="M95.6657 8.24213V11.4392H90.9377V24.2275H86.9976V11.4392H82.2695V8.24213H95.6657Z" fill="#14AE8B"/>
<path d="M69.9741 27.6046V12.2947H73.7116L73.7791 14.0508C74.4545 12.745 75.6928 12.0245 77.2914 12.0245C80.601 12.0245 82.4022 14.6587 82.4022 18.2611C82.4022 21.8634 80.601 24.4976 77.2914 24.4976C75.7604 24.4976 74.5671 23.7997 73.8466 22.4938V27.6046H69.9741ZM73.6215 18.2611C73.6215 20.1523 74.432 21.6608 76.0306 21.6608C77.6291 21.6608 78.3946 20.1523 78.3946 18.2611C78.3946 16.3923 77.5841 14.8614 76.0306 14.8614C74.4095 14.8614 73.6215 16.4374 73.6215 18.2611Z" fill="#39404F"/>
<path d="M62.3228 8.24213H66.1953V20.4226C66.1953 21.053 66.5555 21.4357 67.1859 21.4357H67.9739V24.2275H65.9701C63.7637 24.2275 62.3228 22.9442 62.3228 20.5802V8.24213Z" fill="#39404F"/>
<path d="M47.7319 18.2611C47.7319 14.5011 50.2536 12.0245 54.0811 12.0245C57.6159 12.0245 60.2276 14.5236 60.1375 18.6888L60.115 19.2517H51.7846C51.8521 20.7827 52.7077 21.7508 54.0811 21.7508C54.9591 21.7508 55.7697 21.233 56.1074 20.445L59.9799 20.7152C59.2369 23.0342 56.9404 24.4976 54.0811 24.4976C50.2536 24.4976 47.7319 22.021 47.7319 18.2611ZM51.7846 17.0678H56.2425C56.1074 15.4918 55.2068 14.7713 54.0811 14.7713C52.7752 14.7713 51.9197 15.6494 51.7846 17.0678Z" fill="#39404F"/>
<path d="M32.3359 24.2276V8.24216H36.2535V14.5688H41.612V8.24216H45.5295V24.2276H41.612V17.7884H36.2535V24.2276H32.3359Z" fill="#39404F"/>
<path d="M115.211 34.3173C115.138 33.9431 114.79 33.7199 114.429 33.7199C114.075 33.7199 113.786 33.9037 113.786 34.2122C113.793 34.5274 114.193 34.6521 114.561 34.7243C115.427 34.8819 115.979 35.1117 115.979 35.7944C115.979 36.4772 115.296 36.7792 114.554 36.7792C113.668 36.7792 113.031 36.3328 112.979 35.604L113.694 35.5581C113.766 35.952 114.068 36.2015 114.548 36.2015C114.863 36.2015 115.257 36.0898 115.257 35.7616C115.25 35.3874 114.81 35.3414 114.436 35.2561C113.694 35.0985 113.064 34.895 113.064 34.2319C113.064 33.5557 113.615 33.1422 114.482 33.1422C115.237 33.1422 115.815 33.582 115.926 34.2779L115.211 34.3173Z" fill="#585E6C"/>
<path d="M108.999 33.2209H109.636L109.656 33.8052C109.833 33.3391 110.24 33.1422 110.712 33.1422C111.494 33.1422 111.894 33.7002 111.894 34.4617V36.7004H111.198V34.6784C111.198 34.0613 111.008 33.7264 110.522 33.7264C110.017 33.7264 109.695 34.0613 109.695 34.6784V36.7004H108.999V33.2209Z" fill="#585E6C"/>
<path d="M106.209 36.7792C105.205 36.7792 104.548 36.0702 104.548 34.9607C104.548 33.8512 105.205 33.1422 106.209 33.1422C107.207 33.1422 107.864 33.8512 107.864 34.9607C107.864 36.0702 107.207 36.7792 106.209 36.7792ZM105.27 34.9607C105.27 35.7222 105.618 36.1752 106.209 36.1752C106.8 36.1752 107.142 35.7222 107.142 34.9607C107.142 34.1991 106.8 33.7461 106.209 33.7461C105.618 33.7461 105.27 34.1991 105.27 34.9607Z" fill="#585E6C"/>
<path d="M102.678 33.2209H103.374V36.7003H102.678V33.2209ZM102.665 32.7088V32.0457H103.394V32.7088H102.665Z" fill="#585E6C"/>
<path d="M99.9463 32.4331H100.642V33.2209H101.561V33.7855H100.642V35.7025C100.642 35.9848 100.78 36.1292 101.049 36.1292H101.555V36.7003H100.977C100.307 36.7003 99.9463 36.3524 99.9463 35.7025V33.7855H99.4146V33.2209H99.9463V32.4331Z" fill="#585E6C"/>
<path d="M98.3033 36.7003H97.6533L97.6468 36.1291C97.4564 36.5887 97.0625 36.7791 96.6095 36.7791C95.8414 36.7791 95.4409 36.221 95.4409 35.4595V33.2208H96.1368V35.2429C96.1368 35.86 96.3206 36.1948 96.7933 36.1948C97.2923 36.1948 97.6074 35.86 97.6074 35.2429V33.2208H98.3033V36.7003Z" fill="#585E6C"/>
<path d="M93.1494 32.0392H93.8453V35.8929C93.8453 36.0505 93.9307 36.1293 94.0816 36.1293H94.3639V36.7004H93.9307C93.4645 36.7004 93.1494 36.3984 93.1494 35.9257V32.0392Z" fill="#585E6C"/>
<path d="M90.3211 36.7792C89.3167 36.7792 88.6602 36.0702 88.6602 34.9607C88.6602 33.8512 89.3167 33.1422 90.3211 33.1422C91.319 33.1422 91.9755 33.8512 91.9755 34.9607C91.9755 36.0702 91.319 36.7792 90.3211 36.7792ZM89.3823 34.9607C89.3823 35.7222 89.7303 36.1752 90.3211 36.1752C90.912 36.1752 91.2533 35.7222 91.2533 34.9607C91.2533 34.1991 90.912 33.7461 90.3211 33.7461C89.7303 33.7461 89.3823 34.1991 89.3823 34.9607Z" fill="#585E6C"/>
<path d="M84.7526 35.151C84.8642 35.7419 85.2778 36.1358 85.9606 36.1358C86.5121 36.1358 86.8797 35.9191 86.8731 35.4924C86.8731 35.0657 86.5055 34.8031 85.6389 34.5864C84.7986 34.3829 84.1224 33.9956 84.1224 33.2471C84.1224 32.4396 84.7789 31.9341 85.7243 31.9341C86.7353 31.9341 87.418 32.5644 87.5165 33.4507L86.7944 33.4901C86.7156 32.9386 86.3086 32.5775 85.7111 32.5775C85.2122 32.5775 84.8511 32.8401 84.8577 33.2537C84.8577 33.7592 85.4617 33.9102 86.0263 34.0612C86.9388 34.291 87.6084 34.7243 87.6084 35.4399C87.6084 36.313 86.8206 36.7791 85.9212 36.7791C84.8642 36.7791 84.1027 36.1555 84.0239 35.197L84.7526 35.151Z" fill="#585E6C"/>
<path d="M80.2155 34.3173C80.1433 33.9431 79.7953 33.7199 79.4343 33.7199C79.0798 33.7199 78.7909 33.9037 78.7909 34.2122C78.7975 34.5274 79.1979 34.6521 79.5656 34.7243C80.4322 34.8819 80.9836 35.1117 80.9836 35.7944C80.9836 36.4772 80.3009 36.7792 79.559 36.7792C78.6727 36.7792 78.0359 36.3328 77.9834 35.604L78.699 35.5581C78.7712 35.952 79.0732 36.2015 79.5524 36.2015C79.8676 36.2015 80.2615 36.0898 80.2615 35.7616C80.2549 35.3874 79.815 35.3414 79.4408 35.2561C78.699 35.0985 78.0687 34.895 78.0687 34.2319C78.0687 33.5557 78.6202 33.1422 79.4868 33.1422C80.2418 33.1422 80.8195 33.582 80.9311 34.2779L80.2155 34.3173Z" fill="#585E6C"/>
<path d="M76.2443 34.3173C76.1721 33.9431 75.8242 33.7199 75.4631 33.7199C75.1086 33.7199 74.8197 33.9037 74.8197 34.2122C74.8263 34.5274 75.2267 34.6521 75.5944 34.7243C76.461 34.8819 77.0124 35.1117 77.0124 35.7944C77.0124 36.4772 76.3297 36.7792 75.5878 36.7792C74.7015 36.7792 74.0647 36.3328 74.0122 35.604L74.7278 35.5581C74.8 35.952 75.102 36.2015 75.5812 36.2015C75.8964 36.2015 76.2903 36.0898 76.2903 35.7616C76.2837 35.3874 75.8438 35.3414 75.4696 35.2561C74.7278 35.0985 74.0976 34.895 74.0976 34.2319C74.0976 33.5557 74.649 33.1422 75.5156 33.1422C76.2706 33.1422 76.8483 33.582 76.9599 34.2779L76.2443 34.3173Z" fill="#585E6C"/>
<path d="M69.8037 34.9607C69.8037 33.8577 70.4536 33.1422 71.4647 33.1422C72.2984 33.1422 73.0009 33.7002 73.0337 34.9344L73.0403 35.1576H70.539C70.5849 35.8075 70.9198 36.1883 71.4647 36.1883C71.806 36.1883 72.1212 35.9848 72.259 35.65L72.9877 35.7025C72.7842 36.3656 72.1737 36.7792 71.4647 36.7792C70.4536 36.7792 69.8037 36.0636 69.8037 34.9607ZM70.5521 34.639H72.305C72.2262 33.9759 71.8586 33.733 71.4647 33.733C70.9592 33.733 70.6309 34.0678 70.5521 34.639Z" fill="#585E6C"/>
<path d="M67.7158 32.0392H68.4117V35.8929C68.4117 36.0505 68.4971 36.1293 68.6481 36.1293H68.9303V36.7004H68.4971C68.0309 36.7004 67.7158 36.3984 67.7158 35.9257V32.0392Z" fill="#585E6C"/>
<path d="M66.3348 32.0392V36.7004H65.6848L65.6651 36.2015C65.4682 36.556 65.0611 36.7792 64.5819 36.7792C63.6759 36.7792 63.1113 36.0767 63.1113 34.9607C63.1113 33.8446 63.6759 33.1422 64.5819 33.1422C65.0349 33.1422 65.4419 33.3522 65.6389 33.6871V32.0392H66.3348ZM63.8335 34.9607C63.8335 35.7091 64.2011 36.1818 64.7592 36.1818C65.3303 36.1818 65.6914 35.7091 65.6914 34.9607C65.6914 34.1991 65.3303 33.7199 64.7592 33.7199C64.1946 33.7199 63.8335 34.1991 63.8335 34.9607Z" fill="#585E6C"/>
<path d="M59.1255 33.2209H59.7623L59.782 33.8052C59.9592 33.3391 60.3663 33.1422 60.839 33.1422C61.6202 33.1422 62.0207 33.7002 62.0207 34.4617V36.7004H61.3248V34.6784C61.3248 34.0613 61.1344 33.7264 60.6486 33.7264C60.1431 33.7264 59.8214 34.0613 59.8214 34.6784V36.7004H59.1255V33.2209Z" fill="#585E6C"/>
<path d="M54.8032 32.0392H57.8363V32.6892H55.5122V34.0481H57.7575V34.6784H55.5122V36.0505H57.8888V36.7004H54.8032V32.0392Z" fill="#585E6C"/>
<path d="M51.5665 36.7004L51.166 37.718H50.7721L51.0412 36.7004H50.7393V35.8994H51.5599V36.7004H51.5665Z" fill="#585E6C"/>
<path d="M44.7402 33.2209H45.377L45.3902 33.7921C45.5609 33.3785 45.9154 33.1422 46.3815 33.1422C46.8804 33.1422 47.2415 33.4048 47.3925 33.8643C47.5501 33.3982 47.9111 33.1422 48.4363 33.1422C49.1388 33.1422 49.559 33.6148 49.559 34.4617V36.7004H48.8631V34.6784C48.8631 34.0613 48.6464 33.7264 48.2525 33.7264C47.7536 33.7264 47.4778 34.0744 47.4778 34.6784V36.7004H46.8213V34.6784C46.8213 34.0744 46.5981 33.7264 46.2108 33.7264C45.7184 33.7264 45.4361 34.0744 45.4361 34.6784V36.7004H44.7402V33.2209Z" fill="#585E6C"/>
<path d="M41.9102 33.2208H42.547L42.5667 33.8773C42.6914 33.4309 42.954 33.2208 43.4004 33.2208H43.7352V33.792H43.3938C42.849 33.792 42.606 34.094 42.606 34.6717V36.7003H41.9102V33.2208Z" fill="#585E6C"/>
<path d="M39.1204 36.7792C38.116 36.7792 37.4595 36.0702 37.4595 34.9607C37.4595 33.8512 38.116 33.1422 39.1204 33.1422C40.1183 33.1422 40.7748 33.8512 40.7748 34.9607C40.7748 36.0702 40.1183 36.7792 39.1204 36.7792ZM38.1816 34.9607C38.1816 35.7222 38.5296 36.1752 39.1204 36.1752C39.7113 36.1752 40.0527 35.7222 40.0527 34.9607C40.0527 34.1991 39.7113 33.7461 39.1204 33.7461C38.5296 33.7461 38.1816 34.1991 38.1816 34.9607Z" fill="#585E6C"/>
<path d="M35.0981 33.0634C35.0981 32.42 35.4132 32.0392 36.1223 32.0392H36.7197V32.6104H36.1748C35.9516 32.6104 35.794 32.7811 35.794 33.0634V33.2669H36.6672V33.8381H35.794V36.7004H35.0981V33.8381H34.6123V33.2669H35.0981V33.0634Z" fill="#585E6C"/>
<path d="M32.0117 32.4331H32.7076V33.2209H33.6267V33.7855H32.7076V35.7025C32.7076 35.9848 32.8455 36.1292 33.1147 36.1292H33.6202V36.7003H33.0425C32.3728 36.7003 32.0117 36.3524 32.0117 35.7025V33.7855H31.48V33.2209H32.0117V32.4331Z" fill="#585E6C"/>
<path d="M27.541 34.2648C27.6789 33.5623 28.2303 33.1422 29.0313 33.1422C29.9766 33.1422 30.4953 33.6674 30.4953 34.6193V35.9126C30.4953 36.0898 30.5741 36.1555 30.7119 36.1555H30.8498V36.7004H30.6331C30.318 36.707 29.8913 36.6544 29.8585 36.1621C29.7009 36.4969 29.3136 36.7792 28.7359 36.7792C28.0334 36.7792 27.4819 36.405 27.4819 35.7879C27.4819 35.092 28.0006 34.8884 28.8015 34.7375L29.7994 34.5405C29.7928 33.9825 29.5368 33.7067 29.0313 33.7067C28.6242 33.7067 28.3551 33.9168 28.2632 34.3107L27.541 34.2648ZM28.2041 35.7747C28.2041 36.0308 28.4273 36.2408 28.8868 36.2408C29.4055 36.2343 29.8125 35.8666 29.8125 35.1182V35.0723L29.0707 35.2036C28.5914 35.2889 28.2041 35.3349 28.2041 35.7747Z" fill="#585E6C"/>
<path d="M25.3423 32.0392H26.0382V35.8929C26.0382 36.0505 26.1235 36.1293 26.2745 36.1293H26.5568V36.7004H26.1235C25.6574 36.7004 25.3423 36.3984 25.3423 35.9257V32.0392Z" fill="#585E6C"/>
<path d="M22.4458 32.0392C23.5093 32.0392 24.1396 32.5841 24.1396 33.4901C24.1396 34.4027 23.5093 34.9541 22.4458 34.9541H21.4151V36.7004H20.7061V32.0392H22.4458ZM21.4151 34.3107H22.4261C23.0695 34.3107 23.4043 34.0284 23.4043 33.4901C23.4043 32.9583 23.0695 32.6892 22.4261 32.6892H21.4151V34.3107Z" fill="#585E6C"/>
<path d="M14.2314 34.9607C14.2314 33.8577 14.8814 33.1422 15.8924 33.1422C16.7262 33.1422 17.4286 33.7002 17.4614 34.9344L17.468 35.1576H14.9667C15.0127 35.8075 15.3475 36.1883 15.8924 36.1883C16.2338 36.1883 16.5489 35.9848 16.6868 35.65L17.4155 35.7025C17.212 36.3656 16.6014 36.7792 15.8924 36.7792C14.8814 36.7792 14.2314 36.0636 14.2314 34.9607ZM14.9799 34.639H16.7327C16.6539 33.9759 16.2863 33.733 15.8924 33.733C15.3869 33.733 15.0586 34.0678 14.9799 34.639Z" fill="#585E6C"/>
<path d="M10.252 33.2209H10.8888L10.9085 33.8052C11.0857 33.3391 11.4927 33.1422 11.9654 33.1422C12.7467 33.1422 13.1471 33.7002 13.1471 34.4617V36.7004H12.4512V34.6784C12.4512 34.0613 12.2608 33.7264 11.775 33.7264C11.2695 33.7264 10.9478 34.0613 10.9478 34.6784V36.7004H10.252V33.2209Z" fill="#585E6C"/>
<path d="M7.00701 36.8054C5.65461 36.8054 4.83398 35.8798 4.83398 34.3764C4.83398 32.8598 5.65461 31.9342 7.00701 31.9342C8.37253 31.9342 9.18659 32.8598 9.18659 34.3764C9.18659 35.8798 8.37253 36.8054 7.00701 36.8054ZM5.57583 34.3764C5.57583 35.4858 6.11416 36.1555 7.00701 36.1555C7.91298 36.1555 8.45131 35.4858 8.45131 34.3764C8.45131 33.2603 7.91298 32.5841 7.00701 32.5841C6.11416 32.5841 5.57583 33.2603 5.57583 34.3764Z" fill="#585E6C"/>
</svg>
