<svg width="462" height="243" viewBox="0 0 462 243" fill="none" xmlns="http://www.w3.org/2000/svg">
<g clip-path="url(#clip0_713_11856)">
<path opacity="0.26" d="M225.48 -70.16H203.21C94.3877 -70.16 6.16992 18.0555 6.16992 126.875C6.16992 235.694 94.3877 323.91 203.21 323.91H225.48C334.302 323.91 422.52 235.694 422.52 126.875C422.52 18.0555 334.302 -70.16 225.48 -70.16Z" fill="#FCF5EE"/>
<path opacity="0.68" d="M228.71 -26.63H211.66C128.331 -26.63 60.78 40.9213 60.78 124.25C60.78 207.579 128.331 275.13 211.66 275.13H228.71C312.039 275.13 379.59 207.579 379.59 124.25C379.59 40.9213 312.039 -26.63 228.71 -26.63Z" fill="#FCF5EE"/>
<path d="M342.8 121.5C342.8 54.3974 288.403 0 221.3 0C154.197 0 99.8 54.3974 99.8 121.5C99.8 188.603 154.197 243 221.3 243C288.403 243 342.8 188.603 342.8 121.5Z" fill="#FCF5EE"/>
<path d="M116.97 161.81C118.21 168.03 119.22 169.04 125.45 170.29C119.23 171.53 118.22 172.54 116.97 178.77C115.73 172.55 114.72 171.54 108.49 170.29C114.71 169.05 115.72 168.04 116.97 161.81Z" fill="#B2E7DB"/>
<path d="M116.97 161.81C118.21 168.03 119.22 169.04 125.45 170.29C119.23 171.53 118.22 172.54 116.97 178.77C115.73 172.55 114.72 171.54 108.49 170.29C114.71 169.05 115.72 168.04 116.97 161.81Z" stroke="#21324C" stroke-width="0.5"/>
<path d="M87.0399 173.77C89.4499 185.81 91.3999 187.76 103.44 190.17C91.3999 192.58 89.4499 194.53 87.0399 206.57C84.6299 194.53 82.6799 192.58 70.6399 190.17C82.6799 187.76 84.6299 185.81 87.0399 173.77Z" fill="#B2E7DB"/>
<path d="M87.0399 173.77C89.4499 185.81 91.3999 187.76 103.44 190.17C91.3999 192.58 89.4499 194.53 87.0399 206.57C84.6299 194.53 82.6799 192.58 70.6399 190.17C82.6799 187.76 84.6299 185.81 87.0399 173.77Z" stroke="#21324C" stroke-width="0.5"/>
<path d="M325.27 23.8H79.5699C75.2179 23.8 71.6899 27.328 71.6899 31.68V147.28C71.6899 151.632 75.2179 155.16 79.5699 155.16H325.27C329.622 155.16 333.15 151.632 333.15 147.28V31.68C333.15 27.328 329.622 23.8 325.27 23.8Z" fill="white"/>
<path d="M325.27 23.8H79.5699C75.2179 23.8 71.6899 27.328 71.6899 31.68V147.28C71.6899 151.632 75.2179 155.16 79.5699 155.16H325.27C329.622 155.16 333.15 151.632 333.15 147.28V31.68C333.15 27.328 329.622 23.8 325.27 23.8Z" stroke="#F0F4F5"/>
<path d="M101.52 46.8C101.61 47.42 101.51 48.05 101.22 48.61C100.93 49.17 100.47 49.62 99.9199 49.9C99.3599 50.18 98.7299 50.28 98.1099 50.18C97.4899 50.08 96.9199 49.79 96.4799 49.34C96.0399 48.9 95.7399 48.32 95.6499 47.71C95.5499 47.09 95.6499 46.46 95.9299 45.9C96.2099 45.34 96.6599 44.88 97.2199 44.59C97.7799 44.3 98.4099 44.2 99.0299 44.29C99.6599 44.38 100.25 44.68 100.7 45.13C101.15 45.58 101.45 46.17 101.54 46.8H101.52Z" stroke="#182233" stroke-width="2" stroke-linecap="round" stroke-linejoin="round"/>
<path d="M102.78 39.26H93.8999C92.243 39.26 90.8999 40.6032 90.8999 42.26V51.14C90.8999 52.7969 92.243 54.14 93.8999 54.14H102.78C104.437 54.14 105.78 52.7969 105.78 51.14V42.26C105.78 40.6032 104.437 39.26 102.78 39.26Z" stroke="#182233" stroke-width="2" stroke-linecap="round"/>
<path d="M92.8399 73.31V84.23H90.8599V73.31H92.8399ZM96.8299 79.43V84.23H94.8999V76.04H96.7399V77.43H96.8399C97.0299 76.97 97.3299 76.61 97.7399 76.34C98.1599 76.07 98.6699 75.93 99.2799 75.93C99.8499 75.93 100.34 76.05 100.76 76.29C101.18 76.53 101.51 76.88 101.74 77.34C101.97 77.8 102.09 78.35 102.09 79.01V84.22H100.16V79.3C100.16 78.75 100.02 78.32 99.7299 78.02C99.4499 77.71 99.0599 77.56 98.5599 77.56C98.2199 77.56 97.9199 77.63 97.6599 77.78C97.3999 77.93 97.1999 78.14 97.0499 78.41C96.8999 78.69 96.8299 79.02 96.8299 79.42V79.43ZM110.52 78.2L108.76 78.39C108.71 78.21 108.62 78.05 108.5 77.89C108.38 77.73 108.22 77.61 108.01 77.51C107.8 77.41 107.55 77.37 107.25 77.37C106.85 77.37 106.51 77.46 106.24 77.63C105.97 77.8 105.84 78.03 105.84 78.31C105.84 78.55 105.92 78.74 106.1 78.89C106.28 79.04 106.58 79.16 107 79.26L108.4 79.56C109.17 79.73 109.75 79.99 110.13 80.35C110.51 80.71 110.7 81.19 110.71 81.77C110.71 82.29 110.56 82.74 110.26 83.13C109.97 83.52 109.55 83.83 109.03 84.05C108.5 84.27 107.9 84.38 107.22 84.38C106.22 84.38 105.41 84.17 104.8 83.75C104.19 83.33 103.82 82.74 103.71 81.99L105.59 81.81C105.68 82.18 105.86 82.46 106.13 82.65C106.41 82.84 106.77 82.93 107.21 82.93C107.65 82.93 108.04 82.84 108.31 82.65C108.59 82.46 108.73 82.23 108.73 81.95C108.73 81.72 108.64 81.52 108.46 81.37C108.28 81.22 108.01 81.1 107.63 81.02L106.23 80.73C105.44 80.57 104.86 80.29 104.49 79.9C104.11 79.51 103.93 79.02 103.93 78.42C103.93 77.92 104.06 77.48 104.34 77.11C104.62 76.74 105.01 76.45 105.51 76.25C106.01 76.04 106.59 75.94 107.24 75.94C108.2 75.94 108.95 76.14 109.51 76.55C110.06 76.96 110.41 77.51 110.54 78.21L110.52 78.2ZM116.38 76.04V77.53H111.67V76.04H116.38ZM112.83 74.08H114.76V81.77C114.76 82.03 114.8 82.23 114.88 82.37C114.96 82.51 115.07 82.6 115.2 82.65C115.33 82.7 115.48 82.72 115.64 82.72C115.76 82.72 115.87 82.72 115.97 82.69C116.07 82.67 116.15 82.66 116.2 82.64L116.53 84.15C116.43 84.19 116.28 84.22 116.09 84.27C115.9 84.31 115.67 84.34 115.4 84.34C114.92 84.35 114.48 84.28 114.09 84.12C113.7 83.96 113.4 83.7 113.17 83.36C112.95 83.02 112.84 82.59 112.84 82.08V74.07L112.83 74.08ZM120.35 84.4C119.83 84.4 119.36 84.31 118.95 84.12C118.54 83.93 118.21 83.65 117.97 83.29C117.73 82.92 117.61 82.47 117.61 81.94C117.61 81.48 117.7 81.1 117.87 80.79C118.04 80.49 118.27 80.25 118.57 80.06C118.87 79.87 119.2 79.74 119.57 79.65C119.94 79.55 120.33 79.48 120.73 79.44C121.21 79.39 121.6 79.35 121.9 79.31C122.2 79.27 122.42 79.2 122.55 79.12C122.69 79.03 122.76 78.89 122.76 78.71V78.68C122.76 78.28 122.64 77.97 122.4 77.75C122.16 77.53 121.82 77.42 121.37 77.42C120.9 77.42 120.52 77.52 120.25 77.73C119.98 77.94 119.79 78.18 119.7 78.46L117.9 78.2C118.04 77.7 118.28 77.29 118.6 76.95C118.93 76.61 119.33 76.36 119.8 76.19C120.27 76.02 120.8 75.93 121.37 75.93C121.76 75.93 122.16 75.98 122.55 76.07C122.94 76.16 123.3 76.32 123.62 76.53C123.94 76.74 124.2 77.03 124.4 77.39C124.6 77.75 124.7 78.21 124.7 78.75V84.23H122.84V83.11H122.78C122.66 83.34 122.5 83.55 122.28 83.75C122.07 83.95 121.81 84.1 121.49 84.22C121.17 84.34 120.8 84.4 120.38 84.4H120.35ZM120.85 82.98C121.24 82.98 121.57 82.9 121.86 82.75C122.14 82.59 122.36 82.39 122.52 82.13C122.68 81.87 122.75 81.6 122.75 81.29V80.33C122.69 80.38 122.59 80.43 122.44 80.47C122.3 80.51 122.14 80.55 121.96 80.58C121.78 80.61 121.61 80.64 121.43 80.67C121.26 80.69 121.1 80.72 120.98 80.73C120.69 80.77 120.43 80.83 120.21 80.92C119.98 81.01 119.8 81.13 119.67 81.29C119.54 81.45 119.47 81.65 119.47 81.9C119.47 82.26 119.6 82.52 119.86 82.71C120.12 82.89 120.45 82.98 120.85 82.98ZM130.17 87.47C129.48 87.47 128.88 87.38 128.38 87.19C127.88 87.01 127.48 86.76 127.18 86.44C126.88 86.13 126.67 85.78 126.55 85.4L128.29 84.98C128.37 85.14 128.48 85.3 128.63 85.45C128.78 85.61 128.98 85.74 129.23 85.84C129.49 85.95 129.81 86 130.19 86C130.74 86 131.19 85.87 131.55 85.6C131.91 85.34 132.09 84.9 132.09 84.3V82.75H131.99C131.89 82.95 131.74 83.15 131.55 83.36C131.36 83.57 131.11 83.75 130.8 83.89C130.49 84.03 130.1 84.1 129.63 84.1C129 84.1 128.43 83.95 127.92 83.66C127.41 83.36 127.01 82.92 126.7 82.33C126.4 81.74 126.25 80.99 126.25 80.1C126.25 79.21 126.4 78.44 126.7 77.82C127 77.2 127.41 76.73 127.92 76.41C128.43 76.09 129 75.92 129.63 75.92C130.11 75.92 130.5 76 130.81 76.17C131.12 76.33 131.37 76.52 131.56 76.75C131.74 76.97 131.89 77.19 131.98 77.38H132.09V76.03H133.99V84.35C133.99 85.05 133.82 85.63 133.49 86.09C133.16 86.55 132.7 86.89 132.12 87.12C131.54 87.35 130.88 87.46 130.15 87.46L130.17 87.47ZM130.19 82.6C130.6 82.6 130.95 82.5 131.23 82.3C131.52 82.1 131.74 81.81 131.89 81.44C132.04 81.07 132.11 80.62 132.11 80.1C132.11 79.58 132.04 79.13 131.89 78.75C131.74 78.36 131.53 78.06 131.24 77.85C130.96 77.63 130.61 77.52 130.19 77.52C129.77 77.52 129.4 77.63 129.11 77.86C128.82 78.09 128.61 78.39 128.46 78.78C128.31 79.17 128.24 79.61 128.24 80.1C128.24 80.59 128.31 81.04 128.46 81.42C128.61 81.79 128.83 82.08 129.12 82.29C129.41 82.5 129.77 82.6 130.19 82.6ZM136 84.23V76.04H137.87V77.4H137.96C138.11 76.93 138.37 76.56 138.73 76.31C139.1 76.05 139.51 75.92 139.98 75.92C140.09 75.92 140.21 75.92 140.34 75.94C140.48 75.94 140.59 75.96 140.68 75.98V77.76C140.6 77.73 140.47 77.71 140.29 77.69C140.12 77.67 139.95 77.65 139.78 77.65C139.43 77.65 139.11 77.73 138.83 77.88C138.55 78.03 138.33 78.24 138.17 78.5C138.01 78.77 137.93 79.07 137.93 79.42V84.23H136ZM144.16 84.4C143.64 84.4 143.17 84.31 142.76 84.12C142.35 83.93 142.02 83.65 141.78 83.29C141.54 82.92 141.42 82.47 141.42 81.94C141.42 81.48 141.51 81.1 141.68 80.79C141.85 80.49 142.08 80.25 142.38 80.06C142.68 79.87 143.01 79.74 143.38 79.65C143.75 79.55 144.14 79.48 144.54 79.44C145.02 79.39 145.41 79.35 145.71 79.31C146.01 79.27 146.23 79.2 146.36 79.12C146.5 79.03 146.57 78.89 146.57 78.71V78.68C146.57 78.28 146.45 77.97 146.21 77.75C145.97 77.53 145.63 77.42 145.18 77.42C144.71 77.42 144.33 77.52 144.06 77.73C143.79 77.94 143.6 78.18 143.51 78.46L141.71 78.2C141.85 77.7 142.09 77.29 142.41 76.95C142.74 76.61 143.14 76.36 143.61 76.19C144.08 76.02 144.61 75.93 145.18 75.93C145.57 75.93 145.97 75.98 146.36 76.07C146.75 76.16 147.11 76.32 147.43 76.53C147.75 76.74 148.01 77.03 148.21 77.39C148.41 77.75 148.51 78.21 148.51 78.75V84.23H146.65V83.11H146.59C146.47 83.34 146.31 83.55 146.09 83.75C145.88 83.95 145.62 84.1 145.3 84.22C144.98 84.34 144.61 84.4 144.19 84.4H144.16ZM144.66 82.98C145.05 82.98 145.38 82.9 145.67 82.75C145.95 82.59 146.17 82.39 146.33 82.13C146.49 81.87 146.56 81.6 146.56 81.29V80.33C146.5 80.38 146.4 80.43 146.25 80.47C146.11 80.51 145.95 80.55 145.77 80.58C145.59 80.61 145.42 80.64 145.24 80.67C145.07 80.69 144.91 80.72 144.79 80.73C144.5 80.77 144.24 80.83 144.02 80.92C143.79 81.01 143.61 81.13 143.48 81.29C143.35 81.45 143.28 81.65 143.28 81.9C143.28 82.26 143.41 82.52 143.67 82.71C143.93 82.89 144.26 82.98 144.66 82.98ZM150.42 84.23V76.04H152.26V77.43H152.36C152.53 76.96 152.81 76.59 153.21 76.33C153.6 76.06 154.08 75.93 154.62 75.93C155.16 75.93 155.64 76.07 156.02 76.34C156.4 76.61 156.67 76.97 156.83 77.43H156.91C157.09 76.98 157.4 76.61 157.83 76.34C158.26 76.07 158.78 75.93 159.37 75.93C160.12 75.93 160.74 76.17 161.21 76.64C161.69 77.12 161.92 77.81 161.92 78.72V84.22H159.98V79.02C159.98 78.51 159.84 78.14 159.57 77.91C159.3 77.67 158.97 77.55 158.58 77.55C158.11 77.55 157.75 77.7 157.49 77.99C157.23 78.28 157.1 78.65 157.1 79.11V84.22H155.21V78.94C155.21 78.52 155.08 78.18 154.83 77.93C154.58 77.68 154.25 77.55 153.84 77.55C153.56 77.55 153.31 77.62 153.08 77.76C152.85 77.9 152.67 78.1 152.54 78.35C152.4 78.6 152.34 78.9 152.34 79.23V84.21H150.41L150.42 84.23Z" fill="#39404F"/>
<path d="M92.6199 106H90.2599V98.36H92.7199C93.4599 98.36 94.0999 98.51 94.6199 98.82C95.1499 99.12 95.5499 99.56 95.8299 100.13C96.1099 100.7 96.2499 101.38 96.2499 102.17C96.2499 102.96 96.1099 103.65 95.8199 104.23C95.5399 104.8 95.1199 105.24 94.5799 105.55C94.0399 105.86 93.3799 106.01 92.5999 106.01L92.6199 106ZM91.1899 105.18H92.5599C93.1899 105.18 93.7199 105.06 94.1299 104.81C94.5499 104.57 94.8599 104.22 95.0599 103.77C95.2599 103.32 95.3699 102.78 95.3699 102.16C95.3699 101.54 95.2699 101.01 95.0699 100.57C94.8699 100.12 94.5699 99.78 94.1699 99.54C93.7699 99.3 93.2699 99.18 92.6699 99.18H91.1899V105.18ZM100.1 106.12C99.5499 106.12 99.0699 106 98.6699 105.75C98.2699 105.5 97.9599 105.16 97.7499 104.72C97.5399 104.28 97.4299 103.76 97.4299 103.17C97.4299 102.58 97.5399 102.07 97.7499 101.62C97.9699 101.17 98.2699 100.82 98.6499 100.57C99.0399 100.32 99.4899 100.19 100.01 100.19C100.31 100.19 100.6 100.24 100.89 100.34C101.18 100.44 101.45 100.6 101.68 100.82C101.92 101.04 102.11 101.33 102.25 101.7C102.39 102.07 102.46 102.52 102.46 103.05V103.42H98.0399V102.66H101.56C101.56 102.34 101.5 102.05 101.37 101.79C101.24 101.54 101.06 101.34 100.83 101.19C100.6 101.04 100.32 100.97 99.9999 100.97C99.6499 100.97 99.3499 101.06 99.0899 101.23C98.8399 101.4 98.6399 101.63 98.4999 101.9C98.3599 102.18 98.2899 102.47 98.2899 102.79V103.3C98.2899 103.73 98.3599 104.1 98.5099 104.4C98.6599 104.7 98.8699 104.93 99.1399 105.08C99.4099 105.23 99.7199 105.31 100.08 105.31C100.31 105.31 100.52 105.28 100.71 105.21C100.9 105.14 101.06 105.04 101.2 104.91C101.34 104.78 101.44 104.61 101.52 104.41L102.37 104.65C102.28 104.94 102.13 105.19 101.92 105.41C101.71 105.63 101.45 105.8 101.14 105.92C100.83 106.04 100.48 106.1 100.09 106.1L100.1 106.12ZM104.69 102.55V106H103.81V100.27H104.66V101.17H104.73C104.86 100.88 105.07 100.64 105.34 100.47C105.61 100.29 105.97 100.2 106.4 100.2C106.79 100.2 107.13 100.28 107.42 100.44C107.71 100.6 107.94 100.84 108.1 101.16C108.26 101.48 108.34 101.88 108.34 102.37V106.01H107.46V102.43C107.46 101.98 107.34 101.63 107.11 101.38C106.88 101.13 106.56 101 106.15 101C105.87 101 105.62 101.06 105.4 101.18C105.18 101.3 105.01 101.48 104.88 101.71C104.75 101.94 104.69 102.23 104.69 102.56V102.55ZM112.27 108.27C111.84 108.27 111.48 108.22 111.17 108.11C110.86 108 110.61 107.86 110.4 107.68C110.2 107.51 110.04 107.32 109.92 107.12L110.62 106.63C110.7 106.73 110.8 106.85 110.92 106.99C111.04 107.13 111.21 107.25 111.42 107.35C111.63 107.45 111.91 107.5 112.26 107.5C112.72 107.5 113.1 107.39 113.41 107.16C113.71 106.94 113.86 106.59 113.86 106.11V104.95H113.79C113.73 105.05 113.63 105.18 113.51 105.34C113.39 105.49 113.22 105.63 113 105.75C112.78 105.87 112.49 105.93 112.11 105.93C111.65 105.93 111.23 105.82 110.86 105.6C110.49 105.38 110.2 105.06 109.99 104.64C109.78 104.22 109.67 103.71 109.67 103.12C109.67 102.53 109.77 102.02 109.98 101.59C110.19 101.15 110.47 100.81 110.84 100.57C111.21 100.33 111.63 100.21 112.12 100.21C112.49 100.21 112.79 100.27 113.01 100.4C113.23 100.52 113.4 100.66 113.52 100.82C113.64 100.97 113.73 101.1 113.8 101.2H113.89V100.29H114.74V106.19C114.74 106.68 114.63 107.08 114.4 107.39C114.18 107.7 113.88 107.93 113.5 108.07C113.13 108.22 112.71 108.29 112.25 108.29L112.27 108.27ZM112.24 105.12C112.59 105.12 112.89 105.04 113.14 104.88C113.38 104.72 113.57 104.49 113.7 104.18C113.83 103.88 113.89 103.51 113.89 103.09C113.89 102.67 113.83 102.31 113.7 102C113.58 101.68 113.39 101.44 113.15 101.26C112.91 101.08 112.61 100.99 112.25 100.99C111.89 100.99 111.57 101.08 111.32 101.27C111.07 101.46 110.89 101.71 110.76 102.03C110.64 102.35 110.58 102.7 110.58 103.09C110.58 103.48 110.64 103.84 110.77 104.15C110.9 104.45 111.08 104.69 111.33 104.87C111.58 105.04 111.89 105.13 112.26 105.13L112.24 105.12ZM118.05 106.13C117.69 106.13 117.36 106.06 117.06 105.93C116.76 105.79 116.53 105.59 116.35 105.33C116.18 105.07 116.09 104.75 116.09 104.37C116.09 104.04 116.15 103.78 116.28 103.57C116.41 103.36 116.58 103.2 116.8 103.09C117.02 102.97 117.26 102.89 117.52 102.83C117.78 102.77 118.05 102.72 118.31 102.69C118.66 102.65 118.94 102.61 119.16 102.59C119.38 102.57 119.54 102.52 119.64 102.47C119.74 102.41 119.79 102.31 119.79 102.17V102.14C119.79 101.77 119.69 101.49 119.49 101.28C119.29 101.08 118.99 100.97 118.58 100.97C118.17 100.97 117.83 101.06 117.59 101.25C117.35 101.44 117.18 101.63 117.09 101.84L116.25 101.54C116.4 101.19 116.6 100.92 116.85 100.73C117.1 100.53 117.37 100.4 117.67 100.32C117.97 100.24 118.26 100.2 118.55 100.2C118.73 100.2 118.95 100.22 119.18 100.27C119.42 100.31 119.65 100.4 119.88 100.53C120.11 100.66 120.29 100.87 120.44 101.14C120.59 101.41 120.66 101.77 120.66 102.23V106.01H119.78V105.23H119.74C119.68 105.35 119.58 105.49 119.44 105.63C119.3 105.77 119.12 105.89 118.88 105.99C118.65 106.09 118.37 106.14 118.03 106.14L118.05 106.13ZM118.18 105.34C118.53 105.34 118.82 105.27 119.06 105.14C119.3 105 119.48 104.83 119.6 104.61C119.72 104.39 119.79 104.17 119.79 103.93V103.12C119.79 103.12 119.67 103.21 119.54 103.24C119.42 103.27 119.27 103.31 119.11 103.33C118.95 103.35 118.79 103.38 118.64 103.4C118.49 103.42 118.37 103.43 118.27 103.44C118.04 103.47 117.83 103.52 117.63 103.59C117.43 103.65 117.27 103.75 117.15 103.88C117.03 104.01 116.97 104.19 116.97 104.41C116.97 104.72 117.08 104.95 117.31 105.1C117.54 105.25 117.83 105.33 118.18 105.33V105.34ZM123.16 102.55V106H122.28V100.27H123.13V101.17H123.2C123.33 100.88 123.54 100.64 123.81 100.47C124.08 100.29 124.44 100.2 124.87 100.2C125.26 100.2 125.6 100.28 125.89 100.44C126.18 100.6 126.41 100.84 126.57 101.16C126.73 101.48 126.81 101.88 126.81 102.37V106.01H125.93V102.43C125.93 101.98 125.81 101.63 125.58 101.38C125.35 101.13 125.03 101 124.62 101C124.34 101 124.09 101.06 123.87 101.18C123.65 101.3 123.48 101.48 123.35 101.71C123.22 101.94 123.16 102.23 123.16 102.56V102.55ZM131.38 106V100.27H132.23V101.17H132.3C132.42 100.86 132.61 100.63 132.88 100.46C133.15 100.29 133.47 100.2 133.84 100.2C134.21 100.2 134.53 100.29 134.78 100.46C135.03 100.63 135.23 100.87 135.37 101.17H135.43C135.58 100.87 135.8 100.64 136.09 100.46C136.38 100.28 136.74 100.2 137.15 100.2C137.66 100.2 138.08 100.36 138.41 100.68C138.74 101 138.9 101.49 138.9 102.17V106.01H138.02V102.17C138.02 101.75 137.9 101.44 137.67 101.26C137.44 101.08 137.17 100.99 136.85 100.99C136.45 100.99 136.13 101.11 135.91 101.36C135.69 101.6 135.58 101.91 135.58 102.28V106.01H134.68V102.08C134.68 101.75 134.57 101.49 134.36 101.29C134.15 101.09 133.88 100.99 133.54 100.99C133.31 100.99 133.1 101.05 132.9 101.17C132.7 101.29 132.54 101.46 132.42 101.68C132.3 101.89 132.24 102.14 132.24 102.42V106H131.36H131.38ZM142.92 106.12C142.37 106.12 141.89 106 141.49 105.75C141.09 105.5 140.78 105.16 140.57 104.72C140.36 104.28 140.25 103.76 140.25 103.17C140.25 102.58 140.36 102.07 140.57 101.62C140.79 101.17 141.09 100.82 141.47 100.57C141.86 100.32 142.31 100.19 142.83 100.19C143.13 100.19 143.42 100.24 143.71 100.34C144 100.44 144.27 100.6 144.5 100.82C144.74 101.04 144.93 101.33 145.07 101.7C145.21 102.07 145.28 102.52 145.28 103.05V103.42H140.86V102.66H144.38C144.38 102.34 144.32 102.05 144.19 101.79C144.06 101.54 143.88 101.34 143.65 101.19C143.42 101.04 143.14 100.97 142.82 100.97C142.47 100.97 142.17 101.06 141.91 101.23C141.66 101.4 141.46 101.63 141.32 101.9C141.18 102.18 141.11 102.47 141.11 102.79V103.3C141.11 103.73 141.18 104.1 141.33 104.4C141.48 104.7 141.69 104.93 141.96 105.08C142.23 105.23 142.54 105.31 142.9 105.31C143.13 105.31 143.34 105.28 143.53 105.21C143.72 105.14 143.88 105.04 144.02 104.91C144.16 104.78 144.26 104.61 144.34 104.41L145.19 104.65C145.1 104.94 144.95 105.19 144.74 105.41C144.53 105.63 144.27 105.8 143.96 105.92C143.65 106.04 143.3 106.1 142.91 106.1L142.92 106.12ZM147.51 102.55V106H146.63V100.27H147.48V101.17H147.55C147.68 100.88 147.89 100.64 148.16 100.47C148.43 100.29 148.79 100.2 149.22 100.2C149.61 100.2 149.95 100.28 150.24 100.44C150.53 100.6 150.76 100.84 150.92 101.16C151.08 101.48 151.16 101.88 151.16 102.37V106.01H150.28V102.43C150.28 101.98 150.16 101.63 149.93 101.38C149.7 101.13 149.38 101 148.97 101C148.69 101 148.44 101.06 148.22 101.18C148 101.3 147.83 101.48 147.7 101.71C147.57 101.94 147.51 102.23 147.51 102.56V102.55ZM155.09 108.27C154.67 108.27 154.3 108.22 153.99 108.11C153.68 108 153.43 107.86 153.23 107.68C153.03 107.51 152.87 107.32 152.75 107.12L153.45 106.63C153.53 106.73 153.63 106.85 153.75 106.99C153.87 107.13 154.04 107.25 154.25 107.35C154.46 107.45 154.74 107.5 155.09 107.5C155.55 107.5 155.94 107.39 156.24 107.16C156.54 106.94 156.69 106.59 156.69 106.11V104.95H156.62C156.56 105.05 156.46 105.18 156.34 105.34C156.22 105.49 156.05 105.63 155.83 105.75C155.61 105.87 155.32 105.93 154.94 105.93C154.48 105.93 154.06 105.82 153.69 105.6C153.32 105.38 153.03 105.06 152.82 104.64C152.61 104.22 152.5 103.71 152.5 103.12C152.5 102.53 152.6 102.02 152.81 101.59C153.02 101.15 153.3 100.81 153.67 100.57C154.04 100.33 154.46 100.21 154.95 100.21C155.32 100.21 155.62 100.27 155.84 100.4C156.06 100.52 156.23 100.66 156.35 100.82C156.47 100.97 156.56 101.1 156.63 101.2H156.72V100.29H157.57V106.19C157.57 106.68 157.46 107.08 157.23 107.39C157.01 107.7 156.71 107.93 156.33 108.07C155.96 108.22 155.54 108.29 155.08 108.29L155.09 108.27ZM155.06 105.12C155.41 105.12 155.71 105.04 155.96 104.88C156.2 104.72 156.39 104.49 156.52 104.18C156.65 103.87 156.71 103.51 156.71 103.09C156.71 102.67 156.65 102.31 156.52 102C156.4 101.68 156.21 101.44 155.97 101.26C155.73 101.08 155.43 100.99 155.07 100.99C154.71 100.99 154.39 101.08 154.14 101.27C153.89 101.46 153.71 101.71 153.58 102.03C153.46 102.35 153.4 102.7 153.4 103.09C153.4 103.48 153.46 103.84 153.59 104.15C153.72 104.45 153.9 104.69 154.15 104.87C154.4 105.04 154.71 105.13 155.08 105.13L155.06 105.12ZM160.06 102.55V106H159.18V98.36H160.06V101.17H160.13C160.26 100.87 160.47 100.64 160.73 100.46C161 100.28 161.36 100.2 161.81 100.2C162.2 100.2 162.54 100.28 162.84 100.43C163.13 100.58 163.36 100.82 163.52 101.14C163.68 101.46 163.77 101.86 163.77 102.36V106H162.89V102.42C162.89 101.97 162.77 101.61 162.54 101.36C162.31 101.11 161.98 100.98 161.57 100.98C161.28 100.98 161.02 101.04 160.79 101.16C160.56 101.28 160.38 101.46 160.25 101.69C160.12 101.92 160.06 102.21 160.06 102.54V102.55ZM169 103.65V100.26H169.88V105.99H169V105.02H168.94C168.81 105.31 168.6 105.56 168.31 105.76C168.03 105.96 167.67 106.06 167.24 106.06C166.88 106.06 166.56 105.98 166.28 105.83C166 105.67 165.78 105.43 165.62 105.11C165.46 104.79 165.38 104.38 165.38 103.9V100.26H166.26V103.84C166.26 104.26 166.38 104.59 166.61 104.84C166.85 105.09 167.15 105.21 167.51 105.21C167.73 105.21 167.95 105.15 168.18 105.04C168.41 104.93 168.6 104.76 168.75 104.53C168.91 104.3 168.98 104 168.98 103.65H169ZM171.61 105.99V98.35H172.49V101.17H172.56C172.62 101.07 172.71 100.94 172.83 100.79C172.95 100.63 173.11 100.49 173.33 100.37C173.55 100.25 173.85 100.18 174.22 100.18C174.7 100.18 175.13 100.3 175.5 100.54C175.87 100.78 176.16 101.12 176.36 101.57C176.57 102.01 176.67 102.54 176.67 103.14C176.67 103.74 176.57 104.27 176.36 104.72C176.15 105.16 175.87 105.51 175.5 105.75C175.13 105.99 174.71 106.11 174.24 106.11C173.87 106.11 173.58 106.05 173.36 105.93C173.14 105.81 172.97 105.67 172.85 105.51C172.73 105.35 172.64 105.22 172.57 105.11H172.47V105.99H171.62H171.61ZM172.48 103.12C172.48 103.55 172.54 103.93 172.67 104.27C172.8 104.6 172.98 104.86 173.23 105.04C173.47 105.22 173.77 105.32 174.13 105.32C174.49 105.32 174.81 105.22 175.05 105.03C175.3 104.83 175.49 104.57 175.61 104.24C175.74 103.91 175.8 103.54 175.8 103.13C175.8 102.72 175.74 102.36 175.61 102.04C175.49 101.71 175.3 101.46 175.05 101.27C174.8 101.08 174.49 100.98 174.12 100.98C173.75 100.98 173.46 101.07 173.22 101.25C172.98 101.43 172.79 101.68 172.67 102C172.55 102.32 172.48 102.7 172.48 103.12ZM181.63 103.64V100.25H182.51V105.98H181.63V105.01H181.57C181.44 105.3 181.23 105.55 180.94 105.75C180.66 105.95 180.3 106.05 179.87 106.05C179.51 106.05 179.19 105.97 178.91 105.82C178.63 105.66 178.41 105.42 178.25 105.1C178.09 104.78 178.01 104.37 178.01 103.89V100.25H178.89V103.83C178.89 104.25 179.01 104.58 179.24 104.83C179.48 105.08 179.78 105.2 180.14 105.2C180.36 105.2 180.58 105.14 180.81 105.03C181.04 104.92 181.23 104.75 181.38 104.52C181.54 104.29 181.61 103.99 181.61 103.64H181.63ZM185 102.54V105.99H184.12V100.26H184.97V101.16H185.05C185.18 100.87 185.39 100.63 185.66 100.46C185.93 100.28 186.29 100.19 186.72 100.19C187.11 100.19 187.45 100.27 187.74 100.43C188.03 100.59 188.26 100.83 188.42 101.15C188.58 101.47 188.66 101.87 188.66 102.36V106H187.78V102.42C187.78 101.97 187.66 101.62 187.43 101.37C187.2 101.12 186.88 100.99 186.47 100.99C186.19 100.99 185.94 101.05 185.72 101.17C185.5 101.29 185.33 101.47 185.2 101.7C185.07 101.93 185.01 102.22 185.01 102.55L185 102.54ZM192.58 108.26C192.16 108.26 191.79 108.21 191.48 108.1C191.17 107.99 190.92 107.85 190.72 107.67C190.52 107.5 190.36 107.31 190.24 107.11L190.94 106.62C191.02 106.72 191.12 106.84 191.24 106.98C191.36 107.12 191.53 107.24 191.74 107.34C191.95 107.44 192.23 107.49 192.58 107.49C193.04 107.49 193.43 107.38 193.73 107.15C194.03 106.93 194.18 106.58 194.18 106.1V104.94H194.11C194.05 105.04 193.95 105.17 193.83 105.33C193.71 105.48 193.54 105.62 193.32 105.74C193.1 105.86 192.81 105.92 192.43 105.92C191.97 105.92 191.55 105.81 191.18 105.59C190.81 105.37 190.52 105.05 190.31 104.63C190.1 104.21 189.99 103.7 189.99 103.11C189.99 102.52 190.09 102.01 190.3 101.58C190.51 101.14 190.79 100.8 191.16 100.56C191.53 100.32 191.95 100.2 192.44 100.2C192.81 100.2 193.11 100.26 193.33 100.39C193.55 100.51 193.72 100.65 193.84 100.81C193.96 100.96 194.05 101.09 194.12 101.19H194.21V100.28H195.06V106.18C195.06 106.67 194.95 107.07 194.72 107.38C194.5 107.69 194.2 107.92 193.82 108.06C193.45 108.21 193.03 108.28 192.57 108.28L192.58 108.26ZM192.55 105.11C192.9 105.11 193.2 105.03 193.45 104.87C193.69 104.71 193.88 104.48 194.01 104.17C194.14 103.87 194.2 103.5 194.2 103.08C194.2 102.66 194.14 102.3 194.01 101.99C193.89 101.67 193.7 101.43 193.46 101.25C193.22 101.07 192.92 100.98 192.56 100.98C192.2 100.98 191.88 101.07 191.63 101.26C191.38 101.45 191.2 101.7 191.07 102.02C190.95 102.34 190.89 102.69 190.89 103.08C190.89 103.47 190.95 103.83 191.08 104.14C191.21 104.44 191.39 104.68 191.64 104.86C191.89 105.03 192.2 105.12 192.57 105.12L192.55 105.11ZM197.49 103.9L197.47 102.81H197.65L200.16 100.26H201.25L198.58 102.96H198.5L197.49 103.9ZM196.67 105.99V98.35H197.55V105.99H196.67ZM200.31 105.99L198.07 103.15L198.7 102.54L201.43 105.99H200.31ZM204.07 106.12C203.71 106.12 203.38 106.05 203.08 105.92C202.78 105.78 202.55 105.58 202.38 105.32C202.21 105.06 202.12 104.74 202.12 104.36C202.12 104.03 202.18 103.77 202.31 103.56C202.44 103.35 202.61 103.19 202.83 103.08C203.05 102.97 203.29 102.88 203.55 102.82C203.81 102.76 204.08 102.71 204.34 102.68C204.69 102.64 204.97 102.6 205.19 102.58C205.41 102.56 205.57 102.51 205.67 102.46C205.77 102.4 205.82 102.3 205.82 102.16V102.13C205.82 101.76 205.72 101.48 205.52 101.27C205.32 101.07 205.02 100.96 204.61 100.96C204.2 100.96 203.86 101.05 203.62 101.24C203.38 101.42 203.21 101.62 203.12 101.83L202.28 101.53C202.43 101.18 202.63 100.91 202.88 100.72C203.13 100.52 203.4 100.39 203.7 100.31C204 100.23 204.29 100.19 204.58 100.19C204.76 100.19 204.98 100.21 205.21 100.26C205.45 100.3 205.68 100.39 205.91 100.52C206.14 100.65 206.32 100.86 206.47 101.13C206.62 101.4 206.69 101.76 206.69 102.22V106H205.81V105.22H205.77C205.71 105.34 205.61 105.48 205.47 105.62C205.33 105.76 205.14 105.88 204.91 105.98C204.68 106.08 204.4 106.13 204.06 106.13L204.07 106.12ZM204.2 105.33C204.55 105.33 204.84 105.26 205.08 105.13C205.32 104.99 205.5 104.82 205.62 104.6C205.74 104.38 205.81 104.16 205.81 103.92V103.11C205.81 103.11 205.69 103.2 205.56 103.23C205.44 103.26 205.29 103.3 205.13 103.32C204.97 103.34 204.81 103.37 204.66 103.39C204.51 103.41 204.39 103.42 204.29 103.43C204.06 103.46 203.85 103.51 203.65 103.58C203.45 103.64 203.29 103.74 203.17 103.87C203.05 104 202.99 104.18 202.99 104.4C202.99 104.71 203.1 104.94 203.33 105.09C203.56 105.24 203.85 105.32 204.2 105.32V105.33ZM209.18 102.54V105.99H208.3V100.26H209.15V101.16H209.22C209.35 100.87 209.56 100.63 209.83 100.46C210.1 100.28 210.46 100.19 210.89 100.19C211.28 100.19 211.62 100.27 211.91 100.43C212.2 100.59 212.43 100.83 212.59 101.15C212.75 101.47 212.83 101.87 212.83 102.36V106H211.95V102.42C211.95 101.97 211.83 101.62 211.6 101.37C211.37 101.12 211.05 100.99 210.64 100.99C210.36 100.99 210.11 101.05 209.89 101.17C209.67 101.29 209.5 101.47 209.37 101.7C209.24 101.93 209.18 102.22 209.18 102.55V102.54ZM219.09 106.12C218.73 106.12 218.4 106.05 218.1 105.92C217.8 105.78 217.57 105.58 217.39 105.32C217.22 105.06 217.13 104.74 217.13 104.36C217.13 104.03 217.19 103.77 217.32 103.56C217.45 103.35 217.62 103.19 217.84 103.08C218.06 102.96 218.29 102.88 218.56 102.82C218.82 102.76 219.09 102.71 219.35 102.68C219.7 102.64 219.98 102.6 220.2 102.58C220.42 102.56 220.58 102.51 220.68 102.46C220.78 102.4 220.83 102.3 220.83 102.16V102.13C220.83 101.76 220.73 101.48 220.53 101.27C220.33 101.07 220.03 100.96 219.62 100.96C219.21 100.96 218.87 101.05 218.63 101.24C218.39 101.42 218.22 101.62 218.13 101.83L217.29 101.53C217.44 101.18 217.64 100.91 217.89 100.72C218.14 100.52 218.42 100.39 218.71 100.31C219.01 100.23 219.3 100.19 219.59 100.19C219.77 100.19 219.99 100.21 220.23 100.26C220.47 100.3 220.7 100.39 220.93 100.52C221.16 100.65 221.34 100.86 221.49 101.13C221.64 101.4 221.71 101.76 221.71 102.22V106H220.83V105.22H220.78C220.72 105.34 220.62 105.48 220.48 105.62C220.34 105.76 220.15 105.88 219.92 105.98C219.69 106.08 219.41 106.13 219.07 106.13L219.09 106.12ZM219.22 105.33C219.57 105.33 219.86 105.26 220.1 105.13C220.34 104.99 220.52 104.82 220.64 104.6C220.76 104.38 220.83 104.16 220.83 103.92V103.11C220.83 103.11 220.71 103.2 220.58 103.23C220.46 103.26 220.31 103.3 220.15 103.32C219.99 103.34 219.83 103.37 219.68 103.39C219.53 103.41 219.41 103.42 219.31 103.43C219.08 103.46 218.87 103.51 218.67 103.58C218.47 103.64 218.31 103.74 218.19 103.87C218.07 104 218.01 104.18 218.01 104.4C218.01 104.71 218.12 104.94 218.35 105.09C218.58 105.24 218.87 105.32 219.22 105.32V105.33ZM224.14 103.9L224.12 102.81H224.3L226.81 100.26H227.9L225.23 102.96H225.16L224.15 103.9H224.14ZM223.32 105.99V98.35H224.2V105.99H223.32ZM226.96 105.99L224.72 103.15L225.35 102.54L228.08 105.99H226.96ZM232.65 103.65V100.26H233.53V105.99H232.65V105.02H232.59C232.46 105.31 232.25 105.56 231.96 105.76C231.68 105.96 231.32 106.06 230.89 106.06C230.53 106.06 230.21 105.98 229.93 105.83C229.65 105.67 229.43 105.43 229.27 105.11C229.11 104.79 229.03 104.38 229.03 103.9V100.26H229.91V103.84C229.91 104.26 230.03 104.59 230.26 104.84C230.5 105.09 230.8 105.21 231.16 105.21C231.38 105.21 231.6 105.15 231.83 105.04C232.06 104.93 232.25 104.76 232.4 104.53C232.56 104.3 232.64 104 232.64 103.65H232.65ZM236.02 102.55V106H235.14V100.27H235.99V101.17H236.07C236.2 100.88 236.41 100.64 236.68 100.47C236.95 100.29 237.31 100.2 237.74 100.2C238.13 100.2 238.47 100.28 238.76 100.44C239.05 100.6 239.28 100.84 239.44 101.16C239.6 101.48 239.68 101.88 239.68 102.37V106.01H238.8V102.43C238.8 101.98 238.68 101.63 238.45 101.38C238.22 101.13 237.9 101 237.49 101C237.21 101 236.96 101.06 236.74 101.18C236.52 101.3 236.35 101.48 236.22 101.71C236.09 101.94 236.03 102.23 236.03 102.56L236.02 102.55ZM244.24 106V100.27H245.12V106H244.24ZM244.69 99.31C244.52 99.31 244.37 99.25 244.25 99.13C244.13 99.01 244.07 98.87 244.07 98.71C244.07 98.55 244.13 98.41 244.25 98.29C244.37 98.17 244.52 98.11 244.69 98.11C244.86 98.11 245.01 98.17 245.13 98.29C245.25 98.41 245.32 98.55 245.32 98.71C245.32 98.87 245.26 99.01 245.13 99.13C245.01 99.25 244.86 99.31 244.69 99.31ZM247.62 102.55V106H246.74V100.27H247.59V101.17H247.66C247.79 100.88 248 100.64 248.27 100.47C248.54 100.29 248.9 100.2 249.33 100.2C249.72 100.2 250.06 100.28 250.35 100.44C250.64 100.6 250.87 100.84 251.03 101.16C251.19 101.48 251.27 101.88 251.27 102.37V106.01H250.39V102.43C250.39 101.98 250.27 101.63 250.04 101.38C249.81 101.13 249.49 101 249.08 101C248.8 101 248.55 101.06 248.33 101.18C248.11 101.3 247.94 101.48 247.81 101.71C247.68 101.94 247.62 102.23 247.62 102.56V102.55ZM256.95 101.55L256.16 101.77C256.11 101.64 256.04 101.51 255.94 101.39C255.85 101.26 255.72 101.16 255.55 101.08C255.39 101 255.18 100.96 254.92 100.96C254.57 100.96 254.28 101.04 254.04 101.2C253.81 101.36 253.69 101.56 253.69 101.81C253.69 102.03 253.77 102.2 253.93 102.33C254.09 102.46 254.34 102.56 254.68 102.65L255.53 102.86C256.04 102.98 256.42 103.17 256.68 103.43C256.93 103.68 257.06 104.01 257.06 104.41C257.06 104.74 256.97 105.03 256.78 105.29C256.59 105.55 256.33 105.75 256 105.9C255.66 106.05 255.27 106.12 254.83 106.12C254.25 106.12 253.76 105.99 253.38 105.74C253 105.49 252.75 105.12 252.65 104.63L253.49 104.42C253.57 104.73 253.72 104.96 253.94 105.11C254.16 105.26 254.46 105.34 254.82 105.34C255.23 105.34 255.56 105.25 255.8 105.08C256.04 104.9 256.17 104.69 256.17 104.45C256.17 104.25 256.1 104.08 255.96 103.95C255.82 103.81 255.61 103.71 255.32 103.64L254.36 103.42C253.84 103.3 253.45 103.1 253.2 102.84C252.96 102.58 252.83 102.25 252.83 101.85C252.83 101.53 252.92 101.24 253.1 100.99C253.28 100.74 253.53 100.55 253.85 100.4C254.17 100.26 254.53 100.19 254.93 100.19C255.5 100.19 255.94 100.31 256.27 100.56C256.6 100.81 256.83 101.14 256.96 101.55H256.95ZM260.87 100.27V101.02H257.9V100.27H260.87ZM258.77 98.9H259.65V104.36C259.65 104.61 259.69 104.8 259.76 104.92C259.84 105.04 259.93 105.12 260.04 105.17C260.16 105.21 260.28 105.23 260.41 105.23C260.51 105.23 260.59 105.23 260.65 105.21C260.71 105.2 260.76 105.19 260.8 105.18L260.98 105.97C260.92 105.99 260.84 106.02 260.73 106.04C260.62 106.06 260.49 106.08 260.32 106.08C260.07 106.08 259.83 106.03 259.59 105.92C259.35 105.81 259.16 105.65 259 105.43C258.85 105.21 258.77 104.94 258.77 104.6V98.9ZM263.89 106.14C263.53 106.14 263.2 106.07 262.9 105.94C262.6 105.8 262.37 105.6 262.19 105.34C262.02 105.08 261.93 104.76 261.93 104.38C261.93 104.05 261.99 103.79 262.12 103.58C262.25 103.37 262.42 103.21 262.64 103.1C262.86 102.98 263.1 102.9 263.36 102.84C263.62 102.78 263.89 102.73 264.15 102.7C264.5 102.66 264.78 102.62 265 102.6C265.22 102.58 265.38 102.53 265.48 102.48C265.58 102.42 265.63 102.32 265.63 102.18V102.15C265.63 101.78 265.53 101.5 265.33 101.29C265.13 101.09 264.83 100.98 264.42 100.98C264.01 100.98 263.67 101.07 263.43 101.26C263.19 101.44 263.02 101.64 262.93 101.85L262.09 101.55C262.24 101.2 262.44 100.93 262.69 100.74C262.94 100.54 263.21 100.41 263.51 100.33C263.81 100.25 264.1 100.21 264.39 100.21C264.57 100.21 264.79 100.23 265.02 100.28C265.26 100.32 265.49 100.41 265.72 100.54C265.95 100.67 266.13 100.88 266.28 101.15C266.43 101.42 266.5 101.78 266.5 102.24V106.02H265.62V105.24H265.57C265.51 105.36 265.41 105.5 265.27 105.64C265.13 105.78 264.95 105.9 264.71 106C264.48 106.1 264.2 106.15 263.86 106.15L263.89 106.14ZM264.02 105.35C264.37 105.35 264.66 105.28 264.9 105.15C265.14 105.01 265.32 104.84 265.44 104.62C265.56 104.4 265.63 104.18 265.63 103.94V103.13C265.63 103.13 265.51 103.22 265.38 103.25C265.26 103.28 265.11 103.32 264.95 103.34C264.79 103.36 264.63 103.39 264.48 103.41C264.33 103.43 264.2 103.44 264.11 103.45C263.88 103.48 263.67 103.53 263.47 103.6C263.27 103.66 263.11 103.76 262.99 103.89C262.87 104.02 262.81 104.2 262.81 104.42C262.81 104.73 262.92 104.96 263.15 105.11C263.38 105.26 263.67 105.34 264.02 105.34V105.35ZM270.43 108.28C270 108.28 269.64 108.23 269.33 108.12C269.02 108.01 268.77 107.87 268.57 107.69C268.37 107.52 268.21 107.33 268.09 107.13L268.79 106.64C268.87 106.74 268.97 106.86 269.09 107C269.21 107.14 269.38 107.26 269.59 107.36C269.8 107.46 270.08 107.51 270.43 107.51C270.89 107.51 271.27 107.4 271.58 107.17C271.88 106.95 272.03 106.6 272.03 106.12V104.96H271.95C271.89 105.06 271.79 105.19 271.67 105.35C271.55 105.5 271.38 105.64 271.16 105.76C270.94 105.88 270.65 105.94 270.27 105.94C269.81 105.94 269.39 105.83 269.02 105.61C268.65 105.39 268.36 105.07 268.15 104.65C267.94 104.23 267.83 103.72 267.83 103.13C267.83 102.54 267.93 102.03 268.14 101.6C268.35 101.16 268.63 100.82 269 100.58C269.37 100.34 269.79 100.22 270.28 100.22C270.65 100.22 270.95 100.28 271.17 100.41C271.39 100.53 271.56 100.67 271.68 100.83C271.8 100.98 271.89 101.11 271.96 101.21H272.05V100.3H272.9V106.2C272.9 106.69 272.79 107.09 272.56 107.4C272.34 107.71 272.04 107.94 271.66 108.08C271.29 108.23 270.87 108.3 270.41 108.3L270.43 108.28ZM270.4 105.13C270.75 105.13 271.05 105.05 271.3 104.89C271.54 104.73 271.73 104.5 271.86 104.19C271.99 103.88 272.05 103.52 272.05 103.1C272.05 102.68 271.99 102.32 271.86 102.01C271.74 101.69 271.55 101.45 271.31 101.27C271.07 101.09 270.77 101 270.41 101C270.05 101 269.73 101.09 269.48 101.28C269.23 101.47 269.05 101.72 268.92 102.04C268.8 102.36 268.74 102.71 268.74 103.1C268.74 103.49 268.8 103.85 268.93 104.16C269.06 104.46 269.24 104.7 269.49 104.88C269.74 105.05 270.05 105.14 270.42 105.14L270.4 105.13ZM274.52 106.01V100.28H275.37V101.15H275.43C275.53 100.87 275.72 100.64 276 100.46C276.27 100.28 276.58 100.2 276.92 100.2C276.99 100.2 277.07 100.2 277.16 100.2C277.26 100.2 277.33 100.2 277.38 100.21V101.11C277.38 101.11 277.28 101.09 277.18 101.08C277.07 101.06 276.96 101.05 276.85 101.05C276.57 101.05 276.32 101.11 276.1 101.23C275.88 101.34 275.71 101.5 275.59 101.71C275.47 101.91 275.4 102.14 275.4 102.4V106.03H274.52V106.01ZM280.12 106.14C279.76 106.14 279.43 106.07 279.13 105.94C278.83 105.8 278.6 105.6 278.43 105.34C278.26 105.08 278.17 104.76 278.17 104.38C278.17 104.05 278.23 103.79 278.36 103.58C278.49 103.37 278.66 103.21 278.88 103.1C279.1 102.98 279.34 102.9 279.6 102.84C279.86 102.78 280.13 102.73 280.39 102.7C280.74 102.66 281.02 102.62 281.24 102.6C281.46 102.58 281.62 102.53 281.72 102.48C281.82 102.42 281.87 102.32 281.87 102.18V102.15C281.87 101.78 281.77 101.5 281.57 101.29C281.37 101.09 281.07 100.98 280.66 100.98C280.25 100.98 279.91 101.07 279.67 101.26C279.43 101.44 279.26 101.64 279.17 101.85L278.33 101.55C278.48 101.2 278.68 100.93 278.93 100.74C279.18 100.54 279.45 100.41 279.75 100.33C280.05 100.25 280.34 100.21 280.63 100.21C280.81 100.21 281.03 100.23 281.26 100.28C281.5 100.32 281.73 100.41 281.96 100.54C282.19 100.67 282.37 100.88 282.52 101.15C282.67 101.42 282.74 101.78 282.74 102.24V106.02H281.86V105.24H281.81C281.75 105.36 281.65 105.5 281.51 105.64C281.37 105.78 281.19 105.9 280.95 106C280.72 106.1 280.44 106.15 280.1 106.15L280.12 106.14ZM280.25 105.35C280.6 105.35 280.89 105.28 281.13 105.15C281.37 105.01 281.55 104.84 281.67 104.62C281.79 104.4 281.86 104.18 281.86 103.94V103.13C281.86 103.13 281.74 103.22 281.61 103.25C281.49 103.28 281.34 103.32 281.18 103.34C281.02 103.36 280.86 103.39 280.71 103.41C280.56 103.43 280.44 103.44 280.34 103.45C280.11 103.48 279.9 103.53 279.7 103.6C279.5 103.66 279.34 103.76 279.22 103.89C279.1 104.02 279.04 104.2 279.04 104.42C279.04 104.73 279.15 104.96 279.38 105.11C279.61 105.26 279.9 105.34 280.25 105.34V105.35ZM284.35 106.01V100.28H285.2V101.18H285.27C285.39 100.87 285.58 100.64 285.85 100.47C286.12 100.3 286.44 100.21 286.81 100.21C287.18 100.21 287.5 100.3 287.75 100.47C288 100.64 288.2 100.88 288.34 101.18H288.4C288.55 100.88 288.77 100.65 289.06 100.47C289.35 100.29 289.71 100.21 290.12 100.21C290.63 100.21 291.05 100.37 291.38 100.69C291.71 101.01 291.87 101.5 291.87 102.18V106.02H290.99V102.18C290.99 101.76 290.87 101.45 290.64 101.27C290.41 101.09 290.14 101 289.82 101C289.42 101 289.1 101.12 288.88 101.37C288.66 101.61 288.55 101.92 288.55 102.29V106.02H287.65V102.09C287.65 101.76 287.54 101.5 287.33 101.3C287.12 101.1 286.85 101 286.51 101C286.28 101 286.07 101.06 285.87 101.18C285.67 101.3 285.51 101.47 285.39 101.69C285.27 101.9 285.21 102.15 285.21 102.43V106.01H284.33H284.35ZM90.1199 122.52V116.79H90.9699V117.69H91.0399C91.1599 117.38 91.3499 117.15 91.6199 116.98C91.8899 116.81 92.2099 116.72 92.5799 116.72C92.9499 116.72 93.2699 116.81 93.5199 116.98C93.7699 117.15 93.9699 117.39 94.1099 117.69H94.1699C94.3199 117.39 94.5399 117.16 94.8299 116.98C95.1199 116.8 95.4799 116.72 95.8899 116.72C96.3999 116.72 96.8199 116.88 97.1499 117.2C97.4799 117.52 97.6399 118.01 97.6399 118.69V122.53H96.7599V118.69C96.7599 118.27 96.6399 117.96 96.4099 117.78C96.1799 117.6 95.9099 117.51 95.5899 117.51C95.1899 117.51 94.8699 117.63 94.6499 117.88C94.4299 118.12 94.3199 118.43 94.3199 118.8V122.53H93.4199V118.6C93.4199 118.27 93.3099 118.01 93.0999 117.81C92.8899 117.61 92.6199 117.51 92.2799 117.51C92.0499 117.51 91.8399 117.57 91.6399 117.69C91.4399 117.81 91.2799 117.98 91.1599 118.2C91.0399 118.41 90.9799 118.66 90.9799 118.94V122.52H90.0999H90.1199ZM100.94 122.65C100.58 122.65 100.25 122.58 99.9499 122.45C99.6499 122.31 99.4199 122.11 99.2399 121.85C99.0699 121.59 98.9799 121.27 98.9799 120.89C98.9799 120.56 99.0399 120.3 99.1699 120.09C99.2999 119.88 99.4699 119.72 99.6899 119.61C99.9099 119.49 100.15 119.41 100.41 119.35C100.67 119.29 100.94 119.24 101.2 119.21C101.55 119.17 101.83 119.13 102.05 119.11C102.27 119.09 102.43 119.04 102.53 118.99C102.63 118.93 102.68 118.83 102.68 118.69V118.66C102.68 118.29 102.58 118.01 102.38 117.8C102.18 117.6 101.88 117.49 101.47 117.49C101.06 117.49 100.72 117.58 100.48 117.77C100.24 117.95 100.07 118.15 99.9799 118.36L99.1399 118.06C99.2899 117.71 99.4899 117.44 99.7399 117.25C99.9899 117.05 100.26 116.92 100.56 116.84C100.86 116.76 101.15 116.72 101.44 116.72C101.62 116.72 101.84 116.74 102.07 116.79C102.31 116.83 102.54 116.92 102.77 117.05C103 117.18 103.18 117.39 103.33 117.66C103.48 117.93 103.55 118.29 103.55 118.75V122.53H102.67V121.75H102.63C102.57 121.87 102.47 122.01 102.33 122.15C102.19 122.29 102.01 122.41 101.77 122.51C101.54 122.61 101.26 122.66 100.92 122.66L100.94 122.65ZM101.07 121.86C101.42 121.86 101.71 121.79 101.95 121.66C102.19 121.52 102.37 121.35 102.49 121.13C102.61 120.91 102.68 120.69 102.68 120.45V119.64C102.68 119.64 102.56 119.73 102.43 119.76C102.31 119.79 102.16 119.83 102 119.85C101.84 119.87 101.68 119.9 101.53 119.92C101.38 119.94 101.26 119.95 101.16 119.96C100.93 119.99 100.72 120.04 100.52 120.11C100.32 120.17 100.16 120.27 100.04 120.4C99.9199 120.53 99.8599 120.71 99.8599 120.93C99.8599 121.24 99.9699 121.47 100.2 121.62C100.43 121.77 100.72 121.85 101.07 121.85V121.86ZM105.99 120.43V119.34H106.15L108.66 116.79H109.75L107.08 119.49H107.01L106 120.43H105.99ZM105.17 122.52V114.88H106.05V122.52H105.17ZM108.81 122.52L106.57 119.68L107.2 119.07L109.93 122.52H108.81ZM112.57 122.65C112.21 122.65 111.88 122.58 111.58 122.45C111.28 122.31 111.05 122.11 110.87 121.85C110.7 121.59 110.61 121.27 110.61 120.89C110.61 120.56 110.67 120.3 110.8 120.09C110.93 119.88 111.1 119.72 111.32 119.61C111.54 119.49 111.78 119.41 112.04 119.35C112.3 119.29 112.57 119.24 112.83 119.21C113.18 119.17 113.46 119.13 113.68 119.11C113.9 119.09 114.06 119.04 114.16 118.99C114.26 118.93 114.31 118.83 114.31 118.69V118.66C114.31 118.29 114.21 118.01 114.01 117.8C113.81 117.6 113.51 117.49 113.1 117.49C112.69 117.49 112.35 117.58 112.11 117.77C111.87 117.95 111.7 118.15 111.61 118.36L110.77 118.06C110.92 117.71 111.12 117.44 111.37 117.25C111.62 117.05 111.89 116.92 112.19 116.84C112.49 116.76 112.78 116.72 113.07 116.72C113.25 116.72 113.47 116.74 113.7 116.79C113.94 116.83 114.17 116.92 114.4 117.05C114.63 117.18 114.81 117.39 114.96 117.66C115.11 117.93 115.18 118.29 115.18 118.75V122.53H114.3V121.75H114.26C114.2 121.87 114.1 122.01 113.96 122.15C113.82 122.29 113.64 122.41 113.4 122.51C113.17 122.61 112.89 122.66 112.55 122.66L112.57 122.65ZM112.7 121.86C113.05 121.86 113.34 121.79 113.58 121.66C113.82 121.52 114 121.35 114.12 121.13C114.24 120.91 114.31 120.69 114.31 120.45V119.64C114.31 119.64 114.19 119.73 114.06 119.76C113.94 119.79 113.79 119.83 113.63 119.85C113.47 119.87 113.31 119.9 113.16 119.92C113.01 119.94 112.89 119.95 112.79 119.96C112.56 119.99 112.35 120.04 112.15 120.11C111.95 120.17 111.79 120.27 111.67 120.4C111.55 120.53 111.49 120.71 111.49 120.93C111.49 121.24 111.6 121.47 111.83 121.62C112.06 121.77 112.35 121.85 112.7 121.85V121.86ZM120.19 122.52H119.22L122.03 114.88H122.99L125.8 122.52H124.83L122.55 116.09H122.49L120.21 122.52H120.19ZM120.55 119.53H124.46V120.35H120.55V119.53ZM127.74 119.07V122.52H126.86V116.79H127.71V117.69H127.78C127.91 117.4 128.12 117.16 128.39 116.99C128.66 116.81 129.02 116.72 129.45 116.72C129.84 116.72 130.18 116.8 130.47 116.96C130.76 117.12 130.99 117.36 131.15 117.68C131.31 118 131.39 118.4 131.39 118.89V122.53H130.51V118.95C130.51 118.5 130.39 118.15 130.16 117.9C129.93 117.65 129.61 117.52 129.2 117.52C128.92 117.52 128.67 117.58 128.45 117.7C128.23 117.82 128.06 118 127.93 118.23C127.8 118.46 127.74 118.75 127.74 119.08V119.07ZM135.17 122.64C134.69 122.64 134.27 122.52 133.91 122.28C133.54 122.04 133.26 121.69 133.05 121.25C132.84 120.8 132.74 120.28 132.74 119.67C132.74 119.06 132.84 118.55 133.05 118.1C133.26 117.66 133.54 117.31 133.91 117.07C134.28 116.83 134.7 116.71 135.19 116.71C135.56 116.71 135.86 116.77 136.07 116.9C136.29 117.02 136.46 117.16 136.57 117.32C136.69 117.47 136.78 117.6 136.84 117.7H136.91V114.88H137.79V122.52H136.94V121.64H136.84C136.78 121.74 136.68 121.88 136.56 122.04C136.44 122.2 136.27 122.34 136.05 122.46C135.83 122.58 135.53 122.64 135.17 122.64ZM135.29 121.85C135.64 121.85 135.94 121.76 136.19 121.57C136.43 121.38 136.62 121.13 136.75 120.8C136.88 120.47 136.94 120.09 136.94 119.65C136.94 119.21 136.88 118.85 136.75 118.53C136.63 118.21 136.44 117.96 136.2 117.78C135.96 117.6 135.66 117.51 135.3 117.51C134.94 117.51 134.62 117.61 134.37 117.8C134.12 117.99 133.94 118.25 133.81 118.57C133.69 118.89 133.63 119.26 133.63 119.66C133.63 120.06 133.69 120.44 133.82 120.77C133.95 121.1 134.13 121.36 134.38 121.56C134.63 121.75 134.94 121.85 135.31 121.85H135.29ZM141.22 122.66C140.86 122.66 140.53 122.59 140.23 122.46C139.93 122.32 139.7 122.12 139.52 121.86C139.35 121.6 139.26 121.28 139.26 120.9C139.26 120.57 139.32 120.31 139.45 120.1C139.58 119.89 139.75 119.73 139.97 119.62C140.19 119.5 140.43 119.42 140.69 119.36C140.95 119.3 141.22 119.25 141.48 119.22C141.83 119.18 142.11 119.14 142.33 119.12C142.55 119.1 142.71 119.05 142.81 119C142.91 118.94 142.96 118.84 142.96 118.7V118.67C142.96 118.3 142.86 118.02 142.66 117.81C142.46 117.61 142.16 117.5 141.75 117.5C141.34 117.5 141 117.59 140.76 117.78C140.52 117.97 140.35 118.16 140.26 118.37L139.42 118.07C139.57 117.72 139.77 117.45 140.02 117.26C140.27 117.06 140.54 116.93 140.84 116.85C141.14 116.77 141.43 116.73 141.72 116.73C141.9 116.73 142.12 116.75 142.35 116.8C142.59 116.84 142.82 116.93 143.05 117.06C143.28 117.19 143.46 117.4 143.61 117.67C143.76 117.94 143.83 118.3 143.83 118.76V122.54H142.95V121.76H142.91C142.85 121.88 142.75 122.02 142.61 122.16C142.47 122.3 142.29 122.42 142.05 122.52C141.82 122.62 141.54 122.67 141.2 122.67L141.22 122.66ZM141.35 121.87C141.7 121.87 141.99 121.8 142.23 121.67C142.47 121.53 142.65 121.36 142.77 121.14C142.89 120.92 142.96 120.7 142.96 120.46V119.65C142.96 119.65 142.84 119.74 142.71 119.77C142.59 119.8 142.44 119.84 142.28 119.86C142.12 119.88 141.96 119.91 141.81 119.93C141.66 119.95 141.54 119.96 141.44 119.97C141.21 120 141 120.05 140.8 120.12C140.6 120.18 140.44 120.28 140.32 120.41C140.2 120.54 140.14 120.72 140.14 120.94C140.14 121.25 140.25 121.48 140.48 121.63C140.71 121.78 141 121.86 141.35 121.86V121.87ZM150.09 122.66C149.73 122.66 149.4 122.59 149.1 122.46C148.8 122.32 148.57 122.12 148.4 121.86C148.23 121.6 148.14 121.28 148.14 120.9C148.14 120.57 148.2 120.31 148.33 120.1C148.46 119.89 148.63 119.73 148.85 119.62C149.07 119.5 149.31 119.42 149.57 119.36C149.83 119.3 150.1 119.25 150.36 119.22C150.71 119.18 150.99 119.14 151.21 119.12C151.43 119.1 151.59 119.05 151.69 119C151.79 118.94 151.84 118.84 151.84 118.7V118.67C151.84 118.3 151.74 118.02 151.54 117.81C151.34 117.61 151.04 117.5 150.63 117.5C150.22 117.5 149.88 117.59 149.64 117.78C149.4 117.96 149.23 118.16 149.14 118.37L148.3 118.07C148.45 117.72 148.65 117.45 148.9 117.26C149.15 117.06 149.42 116.93 149.72 116.85C150.02 116.77 150.31 116.73 150.6 116.73C150.78 116.73 151 116.75 151.23 116.8C151.47 116.84 151.7 116.93 151.93 117.06C152.16 117.19 152.34 117.4 152.49 117.67C152.64 117.94 152.71 118.3 152.71 118.76V122.54H151.83V121.76H151.78C151.72 121.88 151.62 122.02 151.48 122.16C151.34 122.3 151.16 122.42 150.92 122.52C150.69 122.62 150.41 122.67 150.07 122.67L150.09 122.66ZM150.22 121.87C150.57 121.87 150.86 121.8 151.1 121.67C151.34 121.53 151.52 121.36 151.64 121.14C151.76 120.92 151.83 120.7 151.83 120.46V119.65C151.83 119.65 151.71 119.74 151.58 119.77C151.46 119.8 151.31 119.84 151.15 119.86C150.99 119.88 150.83 119.91 150.68 119.93C150.53 119.95 150.41 119.96 150.31 119.97C150.08 120 149.87 120.05 149.67 120.12C149.47 120.18 149.31 120.28 149.19 120.41C149.07 120.54 149.01 120.72 149.01 120.94C149.01 121.25 149.12 121.48 149.35 121.63C149.58 121.78 149.87 121.86 150.22 121.86V121.87ZM155.14 120.44L155.12 119.35H155.3L157.81 116.8H158.9L156.23 119.5H156.15L155.14 120.44ZM154.32 122.53V114.89H155.2V122.53H154.32ZM157.96 122.53L155.72 119.69L156.35 119.08L159.08 122.53H157.96ZM161.72 122.66C161.36 122.66 161.03 122.59 160.73 122.46C160.43 122.32 160.2 122.12 160.03 121.86C159.86 121.6 159.77 121.28 159.77 120.9C159.77 120.57 159.83 120.31 159.96 120.1C160.09 119.89 160.26 119.73 160.48 119.62C160.7 119.5 160.94 119.42 161.2 119.36C161.46 119.3 161.73 119.25 161.99 119.22C162.34 119.18 162.62 119.14 162.84 119.12C163.06 119.1 163.22 119.05 163.32 119C163.42 118.94 163.47 118.84 163.47 118.7V118.67C163.47 118.3 163.37 118.02 163.17 117.81C162.97 117.61 162.67 117.5 162.26 117.5C161.85 117.5 161.51 117.59 161.27 117.78C161.03 117.97 160.86 118.16 160.77 118.37L159.93 118.07C160.08 117.72 160.28 117.45 160.53 117.26C160.78 117.06 161.05 116.93 161.35 116.85C161.65 116.77 161.94 116.73 162.23 116.73C162.41 116.73 162.63 116.75 162.86 116.8C163.1 116.84 163.33 116.93 163.56 117.06C163.79 117.19 163.97 117.4 164.12 117.67C164.27 117.94 164.34 118.3 164.34 118.76V122.54H163.46V121.76H163.41C163.35 121.88 163.25 122.02 163.11 122.16C162.97 122.3 162.79 122.42 162.55 122.52C162.32 122.62 162.04 122.67 161.7 122.67L161.72 122.66ZM161.85 121.87C162.2 121.87 162.49 121.8 162.73 121.67C162.97 121.53 163.15 121.36 163.27 121.14C163.39 120.92 163.46 120.7 163.46 120.46V119.65C163.46 119.65 163.34 119.74 163.21 119.77C163.09 119.8 162.94 119.84 162.78 119.86C162.62 119.88 162.46 119.91 162.31 119.93C162.16 119.95 162.04 119.96 161.94 119.97C161.71 120 161.5 120.05 161.3 120.12C161.1 120.18 160.94 120.28 160.82 120.41C160.7 120.54 160.64 120.72 160.64 120.94C160.64 121.25 160.75 121.48 160.98 121.63C161.21 121.78 161.5 121.86 161.85 121.86V121.87ZM166.83 119.08V122.53H165.95V116.8H166.8V117.7H166.87C167 117.41 167.21 117.17 167.48 117C167.75 116.82 168.11 116.73 168.54 116.73C168.93 116.73 169.27 116.81 169.56 116.97C169.85 117.13 170.08 117.37 170.24 117.69C170.4 118.01 170.48 118.41 170.48 118.9V122.54H169.6V118.96C169.6 118.51 169.48 118.16 169.25 117.91C169.02 117.66 168.7 117.53 168.29 117.53C168.01 117.53 167.76 117.59 167.54 117.71C167.32 117.83 167.15 118.01 167.02 118.24C166.89 118.47 166.83 118.76 166.83 119.09V119.08ZM177.54 116.8V117.55H174.57V116.8H177.54ZM175.44 115.43H176.32V120.89C176.32 121.14 176.36 121.33 176.43 121.45C176.5 121.57 176.6 121.65 176.71 121.7C176.83 121.74 176.95 121.76 177.08 121.76C177.18 121.76 177.26 121.76 177.32 121.74C177.38 121.73 177.43 121.72 177.47 121.71L177.65 122.5C177.59 122.52 177.51 122.55 177.4 122.57C177.29 122.59 177.16 122.61 176.99 122.61C176.74 122.61 176.5 122.56 176.26 122.45C176.02 122.34 175.83 122.18 175.67 121.96C175.52 121.74 175.44 121.47 175.44 121.13V115.43ZM181.21 122.65C180.66 122.65 180.18 122.53 179.78 122.28C179.38 122.03 179.07 121.69 178.86 121.25C178.65 120.81 178.54 120.29 178.54 119.7C178.54 119.11 178.65 118.6 178.86 118.15C179.08 117.7 179.38 117.35 179.76 117.1C180.15 116.85 180.6 116.72 181.12 116.72C181.42 116.72 181.71 116.77 182 116.87C182.29 116.97 182.56 117.13 182.79 117.35C183.03 117.57 183.22 117.86 183.36 118.23C183.5 118.6 183.57 119.05 183.57 119.58V119.95H179.15V119.19H182.67C182.67 118.87 182.61 118.58 182.48 118.32C182.35 118.07 182.17 117.87 181.94 117.72C181.71 117.57 181.43 117.5 181.11 117.5C180.76 117.5 180.46 117.59 180.2 117.76C179.95 117.93 179.75 118.16 179.61 118.43C179.47 118.71 179.41 119 179.41 119.32V119.83C179.41 120.26 179.48 120.63 179.63 120.93C179.78 121.23 179.99 121.46 180.26 121.61C180.53 121.76 180.84 121.84 181.2 121.84C181.43 121.84 181.64 121.81 181.83 121.74C182.02 121.67 182.18 121.57 182.32 121.44C182.46 121.31 182.56 121.14 182.64 120.94L183.49 121.18C183.4 121.47 183.25 121.72 183.04 121.94C182.83 122.16 182.57 122.33 182.26 122.45C181.95 122.57 181.6 122.63 181.21 122.63V122.65ZM184.92 122.53V116.8H185.77V117.67H185.83C185.93 117.39 186.12 117.16 186.4 116.98C186.67 116.8 186.98 116.72 187.33 116.72C187.4 116.72 187.48 116.72 187.57 116.72C187.67 116.72 187.74 116.72 187.79 116.73V117.63C187.79 117.63 187.69 117.61 187.58 117.6C187.48 117.58 187.37 117.57 187.25 117.57C186.97 117.57 186.72 117.63 186.5 117.75C186.28 117.86 186.11 118.02 185.99 118.23C185.87 118.43 185.8 118.66 185.8 118.92V122.55H184.92V122.53ZM189.71 119.08V122.53H188.83V114.89H189.71V117.7H189.78C189.91 117.4 190.12 117.17 190.38 116.99C190.65 116.81 191.01 116.73 191.46 116.73C191.85 116.73 192.19 116.81 192.49 116.96C192.78 117.11 193.01 117.35 193.17 117.67C193.33 117.99 193.42 118.39 193.42 118.89V122.53H192.54V118.95C192.54 118.5 192.42 118.14 192.19 117.89C191.96 117.64 191.63 117.51 191.22 117.51C190.93 117.51 190.67 117.57 190.44 117.69C190.21 117.81 190.03 117.99 189.9 118.22C189.77 118.45 189.71 118.74 189.71 119.07V119.08ZM198.65 120.18V116.79H199.53V122.52H198.65V121.55H198.59C198.46 121.84 198.25 122.09 197.96 122.29C197.68 122.49 197.32 122.59 196.89 122.59C196.53 122.59 196.21 122.51 195.93 122.36C195.65 122.2 195.43 121.96 195.27 121.64C195.11 121.32 195.03 120.91 195.03 120.43V116.79H195.91V120.37C195.91 120.79 196.03 121.12 196.26 121.37C196.5 121.62 196.8 121.74 197.16 121.74C197.38 121.74 197.6 121.68 197.83 121.57C198.06 121.46 198.25 121.29 198.4 121.06C198.56 120.83 198.64 120.53 198.64 120.18H198.65ZM201.26 122.52V114.88H202.14V117.7H202.22C202.28 117.6 202.37 117.47 202.49 117.32C202.61 117.16 202.77 117.02 202.99 116.9C203.21 116.78 203.5 116.71 203.88 116.71C204.36 116.71 204.79 116.83 205.16 117.07C205.53 117.31 205.82 117.65 206.02 118.1C206.23 118.54 206.33 119.07 206.33 119.67C206.33 120.27 206.23 120.8 206.02 121.25C205.81 121.69 205.53 122.04 205.16 122.28C204.79 122.52 204.37 122.64 203.9 122.64C203.53 122.64 203.24 122.58 203.02 122.46C202.8 122.34 202.63 122.2 202.51 122.04C202.39 121.88 202.3 121.75 202.23 121.64H202.13V122.52H201.28H201.26ZM202.13 119.65C202.13 120.08 202.19 120.46 202.32 120.8C202.45 121.13 202.63 121.39 202.88 121.57C203.12 121.75 203.42 121.85 203.78 121.85C204.14 121.85 204.46 121.75 204.7 121.56C204.95 121.36 205.14 121.1 205.26 120.77C205.39 120.44 205.45 120.07 205.45 119.66C205.45 119.25 205.39 118.89 205.26 118.57C205.14 118.24 204.95 117.99 204.7 117.8C204.45 117.61 204.14 117.51 203.77 117.51C203.4 117.51 203.11 117.6 202.87 117.78C202.63 117.96 202.44 118.21 202.32 118.53C202.2 118.85 202.13 119.23 202.13 119.65ZM211.28 120.17V116.78H212.16V122.51H211.28V121.54H211.22C211.09 121.83 210.88 122.08 210.59 122.28C210.31 122.48 209.95 122.58 209.52 122.58C209.16 122.58 208.84 122.5 208.56 122.35C208.28 122.19 208.06 121.95 207.9 121.63C207.74 121.31 207.66 120.9 207.66 120.42V116.78H208.54V120.36C208.54 120.78 208.66 121.11 208.89 121.36C209.13 121.61 209.43 121.73 209.79 121.73C210.01 121.73 210.23 121.67 210.46 121.56C210.69 121.45 210.88 121.28 211.03 121.05C211.19 120.82 211.27 120.52 211.27 120.17H211.28ZM214.65 119.07V122.52H213.77V116.79H214.62V117.69H214.7C214.83 117.4 215.04 117.16 215.31 116.99C215.58 116.81 215.94 116.72 216.37 116.72C216.76 116.72 217.1 116.8 217.39 116.96C217.68 117.12 217.91 117.36 218.07 117.68C218.23 118 218.31 118.4 218.31 118.89V122.53H217.43V118.95C217.43 118.5 217.31 118.15 217.08 117.9C216.85 117.65 216.53 117.52 216.12 117.52C215.84 117.52 215.59 117.58 215.37 117.7C215.15 117.82 214.98 118 214.85 118.23C214.72 118.46 214.66 118.75 214.66 119.08L214.65 119.07ZM222.23 124.79C221.8 124.79 221.44 124.74 221.13 124.63C220.82 124.52 220.57 124.38 220.37 124.2C220.17 124.03 220.01 123.84 219.89 123.64L220.59 123.15C220.67 123.25 220.77 123.37 220.89 123.51C221.01 123.65 221.18 123.77 221.39 123.87C221.6 123.97 221.88 124.02 222.23 124.02C222.69 124.02 223.07 123.91 223.38 123.68C223.69 123.45 223.83 123.11 223.83 122.63V121.47H223.75C223.69 121.57 223.59 121.7 223.47 121.86C223.35 122.01 223.18 122.15 222.96 122.27C222.74 122.39 222.45 122.45 222.07 122.45C221.61 122.45 221.19 122.34 220.82 122.12C220.45 121.9 220.16 121.58 219.95 121.16C219.74 120.74 219.63 120.23 219.63 119.64C219.63 119.05 219.73 118.54 219.94 118.11C220.15 117.67 220.43 117.33 220.8 117.09C221.17 116.85 221.59 116.73 222.08 116.73C222.45 116.73 222.75 116.79 222.97 116.92C223.19 117.04 223.36 117.18 223.48 117.34C223.6 117.49 223.69 117.62 223.76 117.72H223.85V116.81H224.7V122.71C224.7 123.2 224.59 123.6 224.36 123.91C224.14 124.22 223.84 124.45 223.46 124.59C223.09 124.74 222.67 124.81 222.21 124.81L222.23 124.79ZM222.2 121.64C222.55 121.64 222.85 121.56 223.1 121.4C223.34 121.24 223.53 121.01 223.66 120.7C223.79 120.4 223.85 120.03 223.85 119.61C223.85 119.19 223.79 118.83 223.66 118.52C223.54 118.2 223.35 117.96 223.11 117.78C222.87 117.6 222.57 117.51 222.21 117.51C221.85 117.51 221.53 117.6 221.28 117.79C221.03 117.98 220.85 118.23 220.72 118.55C220.6 118.87 220.54 119.22 220.54 119.61C220.54 120 220.6 120.36 220.73 120.67C220.86 120.97 221.04 121.21 221.29 121.39C221.54 121.56 221.85 121.65 222.22 121.65L222.2 121.64ZM231.44 122.64C230.96 122.64 230.54 122.52 230.17 122.28C229.8 122.04 229.52 121.69 229.31 121.25C229.1 120.8 229 120.28 229 119.67C229 119.06 229.1 118.55 229.31 118.1C229.52 117.66 229.8 117.31 230.17 117.07C230.54 116.83 230.96 116.71 231.45 116.71C231.82 116.71 232.12 116.77 232.33 116.9C232.55 117.02 232.72 117.16 232.83 117.32C232.95 117.47 233.04 117.6 233.1 117.7H233.17V114.88H234.05V122.52H233.2V121.64H233.1C233.04 121.74 232.94 121.88 232.82 122.04C232.7 122.2 232.53 122.34 232.31 122.46C232.09 122.58 231.79 122.64 231.43 122.64H231.44ZM231.56 121.85C231.91 121.85 232.21 121.76 232.46 121.57C232.7 121.38 232.89 121.13 233.02 120.8C233.15 120.47 233.21 120.09 233.21 119.65C233.21 119.21 233.15 118.85 233.02 118.53C232.9 118.21 232.71 117.96 232.47 117.78C232.23 117.6 231.93 117.51 231.57 117.51C231.21 117.51 230.89 117.61 230.64 117.8C230.39 117.99 230.21 118.25 230.08 118.57C229.96 118.89 229.9 119.26 229.9 119.66C229.9 120.06 229.96 120.44 230.09 120.77C230.22 121.1 230.4 121.36 230.65 121.56C230.9 121.75 231.21 121.85 231.58 121.85H231.56ZM238.21 122.64C237.66 122.64 237.18 122.52 236.78 122.27C236.38 122.02 236.07 121.68 235.86 121.24C235.65 120.8 235.54 120.28 235.54 119.69C235.54 119.1 235.65 118.59 235.86 118.14C236.08 117.69 236.38 117.34 236.76 117.09C237.15 116.84 237.6 116.71 238.12 116.71C238.42 116.71 238.71 116.76 239 116.86C239.29 116.96 239.56 117.12 239.79 117.34C240.03 117.56 240.22 117.85 240.36 118.22C240.5 118.59 240.57 119.04 240.57 119.57V119.94H236.15V119.18H239.67C239.67 118.86 239.61 118.57 239.48 118.31C239.35 118.06 239.17 117.86 238.94 117.71C238.71 117.56 238.43 117.49 238.11 117.49C237.76 117.49 237.46 117.58 237.2 117.75C236.95 117.92 236.75 118.15 236.61 118.42C236.47 118.7 236.41 118.99 236.41 119.31V119.82C236.41 120.25 236.48 120.62 236.63 120.92C236.78 121.22 236.99 121.45 237.26 121.6C237.53 121.75 237.84 121.83 238.2 121.83C238.43 121.83 238.64 121.8 238.83 121.73C239.02 121.66 239.18 121.56 239.32 121.43C239.46 121.3 239.56 121.13 239.64 120.93L240.49 121.17C240.4 121.46 240.25 121.71 240.04 121.93C239.83 122.15 239.57 122.32 239.26 122.44C238.95 122.56 238.6 122.62 238.21 122.62V122.64ZM242.8 119.07V122.52H241.92V116.79H242.77V117.69H242.85C242.98 117.4 243.19 117.16 243.46 116.99C243.73 116.81 244.09 116.72 244.52 116.72C244.91 116.72 245.25 116.8 245.54 116.96C245.83 117.12 246.06 117.36 246.22 117.68C246.38 118 246.46 118.4 246.46 118.89V122.53H245.58V118.95C245.58 118.5 245.46 118.15 245.23 117.9C245 117.65 244.68 117.52 244.27 117.52C243.99 117.52 243.74 117.58 243.52 117.7C243.3 117.82 243.13 118 243 118.23C242.87 118.46 242.81 118.75 242.81 119.08L242.8 119.07ZM250.38 124.79C249.95 124.79 249.59 124.74 249.28 124.63C248.97 124.52 248.72 124.38 248.52 124.2C248.32 124.03 248.16 123.84 248.04 123.64L248.74 123.15C248.82 123.25 248.92 123.37 249.04 123.51C249.16 123.65 249.33 123.77 249.54 123.87C249.75 123.97 250.03 124.02 250.38 124.02C250.84 124.02 251.22 123.91 251.53 123.68C251.84 123.45 251.98 123.11 251.98 122.63V121.47H251.9C251.84 121.57 251.74 121.7 251.62 121.86C251.5 122.01 251.33 122.15 251.11 122.27C250.89 122.39 250.6 122.45 250.22 122.45C249.76 122.45 249.34 122.34 248.97 122.12C248.6 121.9 248.31 121.58 248.1 121.16C247.89 120.74 247.78 120.23 247.78 119.64C247.78 119.05 247.88 118.54 248.09 118.11C248.3 117.67 248.58 117.33 248.95 117.09C249.32 116.85 249.74 116.73 250.23 116.73C250.6 116.73 250.9 116.79 251.12 116.92C251.34 117.04 251.51 117.18 251.63 117.34C251.75 117.49 251.84 117.62 251.91 117.72H252V116.81H252.85V122.71C252.85 123.2 252.74 123.6 252.51 123.91C252.29 124.22 251.99 124.45 251.61 124.59C251.24 124.74 250.82 124.81 250.36 124.81L250.38 124.79ZM250.35 121.64C250.7 121.64 251 121.56 251.25 121.4C251.49 121.24 251.68 121.01 251.81 120.7C251.94 120.4 252 120.03 252 119.61C252 119.19 251.94 118.83 251.81 118.52C251.69 118.2 251.5 117.96 251.26 117.78C251.02 117.6 250.72 117.51 250.36 117.51C250 117.51 249.68 117.6 249.43 117.79C249.18 117.98 249 118.23 248.87 118.55C248.75 118.87 248.69 119.22 248.69 119.61C248.69 120 248.75 120.36 248.88 120.67C249.01 120.97 249.19 121.21 249.44 121.39C249.69 121.56 250 121.65 250.37 121.65L250.35 121.64ZM256.16 122.65C255.8 122.65 255.47 122.58 255.17 122.45C254.87 122.31 254.64 122.11 254.47 121.85C254.3 121.59 254.21 121.27 254.21 120.89C254.21 120.56 254.27 120.3 254.4 120.09C254.53 119.88 254.7 119.72 254.92 119.61C255.14 119.49 255.38 119.41 255.64 119.35C255.9 119.29 256.17 119.24 256.43 119.21C256.78 119.17 257.06 119.13 257.28 119.11C257.5 119.09 257.66 119.04 257.76 118.99C257.86 118.93 257.91 118.83 257.91 118.69V118.66C257.91 118.29 257.81 118.01 257.61 117.8C257.41 117.6 257.11 117.49 256.7 117.49C256.29 117.49 255.95 117.58 255.71 117.77C255.47 117.95 255.3 118.15 255.21 118.36L254.37 118.06C254.52 117.71 254.72 117.44 254.97 117.25C255.22 117.05 255.49 116.92 255.79 116.84C256.09 116.76 256.38 116.72 256.67 116.72C256.85 116.72 257.07 116.74 257.3 116.79C257.54 116.83 257.77 116.92 258 117.05C258.23 117.18 258.41 117.39 258.56 117.66C258.71 117.93 258.78 118.29 258.78 118.75V122.53H257.9V121.75H257.86C257.8 121.87 257.7 122.01 257.56 122.15C257.42 122.29 257.24 122.41 257 122.51C256.77 122.61 256.49 122.66 256.15 122.66L256.16 122.65ZM256.29 121.86C256.64 121.86 256.93 121.79 257.17 121.66C257.41 121.52 257.59 121.35 257.71 121.13C257.83 120.91 257.9 120.69 257.9 120.45V119.64C257.9 119.64 257.78 119.73 257.65 119.76C257.53 119.79 257.38 119.83 257.22 119.85C257.06 119.87 256.9 119.9 256.75 119.92C256.6 119.94 256.48 119.95 256.38 119.96C256.15 119.99 255.94 120.04 255.74 120.11C255.54 120.17 255.38 120.27 255.26 120.4C255.14 120.53 255.08 120.71 255.08 120.93C255.08 121.24 255.19 121.47 255.42 121.62C255.65 121.77 255.94 121.85 256.29 121.85V121.86ZM261.27 119.07V122.52H260.39V116.79H261.24V117.69H261.31C261.44 117.4 261.65 117.16 261.92 116.99C262.19 116.81 262.55 116.72 262.98 116.72C263.37 116.72 263.71 116.8 264 116.96C264.29 117.12 264.52 117.36 264.68 117.68C264.84 118 264.92 118.4 264.92 118.89V122.53H264.04V118.95C264.04 118.5 263.92 118.15 263.69 117.9C263.46 117.65 263.14 117.52 262.73 117.52C262.45 117.52 262.2 117.58 261.98 117.7C261.76 117.82 261.59 118 261.46 118.23C261.33 118.46 261.27 118.75 261.27 119.08V119.07ZM271.18 122.65C270.82 122.65 270.49 122.58 270.19 122.45C269.89 122.31 269.66 122.11 269.48 121.85C269.31 121.59 269.22 121.27 269.22 120.89C269.22 120.56 269.28 120.3 269.41 120.09C269.54 119.88 269.71 119.72 269.93 119.61C270.15 119.49 270.38 119.41 270.65 119.35C270.91 119.29 271.18 119.24 271.44 119.21C271.79 119.17 272.07 119.13 272.29 119.11C272.51 119.09 272.67 119.04 272.77 118.99C272.87 118.93 272.92 118.83 272.92 118.69V118.66C272.92 118.29 272.82 118.01 272.62 117.8C272.42 117.6 272.12 117.49 271.71 117.49C271.3 117.49 270.96 117.58 270.72 117.77C270.48 117.96 270.31 118.15 270.22 118.36L269.38 118.06C269.53 117.71 269.73 117.44 269.98 117.25C270.23 117.05 270.5 116.92 270.8 116.84C271.1 116.76 271.39 116.72 271.68 116.72C271.86 116.72 272.08 116.74 272.31 116.79C272.55 116.83 272.78 116.92 273.01 117.05C273.24 117.18 273.42 117.39 273.57 117.66C273.72 117.93 273.79 118.29 273.79 118.75V122.53H272.91V121.75H272.86C272.8 121.87 272.7 122.01 272.56 122.15C272.42 122.29 272.23 122.41 272 122.51C271.77 122.61 271.49 122.66 271.15 122.66L271.18 122.65ZM271.31 121.86C271.66 121.86 271.95 121.79 272.19 121.66C272.43 121.52 272.61 121.35 272.73 121.13C272.85 120.91 272.92 120.69 272.92 120.45V119.64C272.92 119.64 272.8 119.73 272.67 119.76C272.55 119.79 272.4 119.83 272.24 119.85C272.08 119.87 271.92 119.9 271.77 119.92C271.62 119.94 271.5 119.95 271.4 119.96C271.17 119.99 270.96 120.04 270.76 120.11C270.56 120.17 270.4 120.27 270.28 120.4C270.16 120.53 270.1 120.71 270.1 120.93C270.1 121.24 270.21 121.47 270.44 121.62C270.67 121.77 270.96 121.85 271.31 121.85V121.86ZM275.41 124.67V116.79H276.26V117.7H276.37C276.43 117.6 276.52 117.47 276.64 117.32C276.76 117.16 276.92 117.02 277.14 116.9C277.36 116.78 277.65 116.71 278.03 116.71C278.51 116.71 278.94 116.83 279.31 117.07C279.68 117.31 279.97 117.65 280.17 118.1C280.38 118.54 280.48 119.07 280.48 119.67C280.48 120.27 280.38 120.8 280.17 121.25C279.96 121.69 279.68 122.04 279.31 122.28C278.94 122.52 278.52 122.64 278.05 122.64C277.68 122.64 277.39 122.58 277.17 122.46C276.95 122.34 276.78 122.2 276.66 122.04C276.54 121.88 276.45 121.75 276.38 121.64H276.3V124.67H275.42H275.41ZM276.28 119.65C276.28 120.08 276.34 120.46 276.47 120.8C276.6 121.13 276.78 121.39 277.03 121.57C277.27 121.75 277.57 121.85 277.93 121.85C278.29 121.85 278.61 121.75 278.85 121.56C279.1 121.36 279.29 121.1 279.41 120.77C279.54 120.44 279.6 120.07 279.6 119.66C279.6 119.25 279.54 118.89 279.41 118.57C279.29 118.24 279.1 117.99 278.85 117.8C278.6 117.61 278.29 117.51 277.92 117.51C277.55 117.51 277.26 117.6 277.02 117.78C276.78 117.96 276.59 118.21 276.47 118.53C276.35 118.85 276.28 119.23 276.28 119.65ZM282.7 114.87V122.51H281.82V114.87H282.7ZM284.31 122.51V116.78H285.19V122.51H284.31ZM284.76 115.82C284.59 115.82 284.44 115.76 284.32 115.64C284.2 115.52 284.14 115.38 284.14 115.22C284.14 115.06 284.2 114.92 284.32 114.8C284.44 114.68 284.59 114.62 284.76 114.62C284.93 114.62 285.08 114.68 285.2 114.8C285.32 114.92 285.39 115.06 285.39 115.22C285.39 115.38 285.33 115.52 285.2 115.64C285.08 115.76 284.93 115.82 284.76 115.82ZM287.63 120.42V119.33H287.79L290.3 116.78H291.39L288.72 119.48H288.65L287.63 120.42ZM286.81 122.51V114.87H287.69V122.51H286.81ZM290.45 122.51L288.21 119.67L288.84 119.06L291.57 122.51H290.45ZM294.21 122.64C293.85 122.64 293.52 122.57 293.22 122.44C292.92 122.3 292.69 122.1 292.51 121.84C292.34 121.58 292.25 121.26 292.25 120.88C292.25 120.55 292.31 120.29 292.44 120.08C292.57 119.87 292.74 119.71 292.96 119.6C293.18 119.48 293.41 119.4 293.68 119.34C293.94 119.28 294.21 119.23 294.47 119.2C294.82 119.16 295.1 119.12 295.32 119.1C295.54 119.08 295.7 119.03 295.8 118.98C295.9 118.92 295.95 118.82 295.95 118.68V118.65C295.95 118.28 295.85 118 295.65 117.79C295.45 117.59 295.15 117.48 294.74 117.48C294.33 117.48 293.99 117.57 293.75 117.76C293.51 117.94 293.34 118.14 293.25 118.35L292.41 118.05C292.56 117.7 292.76 117.43 293.01 117.24C293.26 117.04 293.54 116.91 293.83 116.83C294.13 116.75 294.42 116.71 294.71 116.71C294.89 116.71 295.11 116.73 295.34 116.78C295.58 116.82 295.81 116.91 296.04 117.04C296.27 117.17 296.45 117.38 296.6 117.65C296.75 117.92 296.82 118.28 296.82 118.74V122.52H295.94V121.74H295.89C295.83 121.86 295.73 122 295.59 122.14C295.45 122.28 295.27 122.4 295.03 122.5C294.8 122.6 294.52 122.65 294.18 122.65L294.21 122.64ZM294.34 121.85C294.69 121.85 294.98 121.78 295.22 121.65C295.46 121.51 295.64 121.34 295.76 121.12C295.88 120.9 295.95 120.68 295.95 120.44V119.63C295.95 119.63 295.83 119.72 295.7 119.75C295.58 119.78 295.43 119.82 295.27 119.84C295.11 119.86 294.95 119.89 294.8 119.91C294.65 119.93 294.52 119.94 294.43 119.95C294.2 119.98 293.99 120.03 293.79 120.1C293.59 120.16 293.43 120.26 293.31 120.39C293.19 120.52 293.13 120.7 293.13 120.92C293.13 121.23 293.24 121.46 293.47 121.61C293.7 121.76 293.99 121.84 294.34 121.84V121.85ZM302.5 118.06L301.71 118.28C301.66 118.15 301.59 118.02 301.49 117.9C301.4 117.77 301.27 117.67 301.1 117.59C300.94 117.51 300.73 117.47 300.47 117.47C300.12 117.47 299.83 117.55 299.59 117.71C299.36 117.87 299.24 118.07 299.24 118.32C299.24 118.54 299.32 118.71 299.48 118.84C299.64 118.97 299.89 119.07 300.23 119.16L301.08 119.37C301.59 119.49 301.97 119.68 302.23 119.94C302.48 120.19 302.61 120.52 302.61 120.92C302.61 121.25 302.52 121.54 302.33 121.8C302.14 122.06 301.88 122.26 301.55 122.41C301.21 122.56 300.82 122.63 300.38 122.63C299.8 122.63 299.31 122.5 298.93 122.25C298.55 122 298.3 121.63 298.2 121.14L299.04 120.93C299.12 121.24 299.27 121.47 299.49 121.62C299.71 121.77 300.01 121.85 300.37 121.85C300.78 121.85 301.11 121.76 301.35 121.59C301.59 121.41 301.72 121.2 301.72 120.96C301.72 120.76 301.65 120.59 301.51 120.46C301.37 120.32 301.16 120.22 300.87 120.15L299.92 119.93C299.39 119.81 299.01 119.61 298.76 119.35C298.52 119.09 298.39 118.76 298.39 118.36C298.39 118.04 298.48 117.75 298.66 117.5C298.84 117.25 299.09 117.06 299.41 116.91C299.73 116.77 300.09 116.7 300.49 116.7C301.06 116.7 301.5 116.82 301.83 117.07C302.16 117.32 302.39 117.65 302.52 118.06H302.5ZM303.93 122.51V116.78H304.81V122.51H303.93ZM304.38 115.82C304.21 115.82 304.06 115.76 303.94 115.64C303.82 115.52 303.76 115.38 303.76 115.22C303.76 115.06 303.82 114.92 303.94 114.8C304.06 114.68 304.21 114.62 304.38 114.62C304.55 114.62 304.7 114.68 304.82 114.8C304.94 114.92 305.01 115.06 305.01 115.22C305.01 115.38 304.95 115.52 304.82 115.64C304.7 115.76 304.55 115.82 304.38 115.82ZM90.1999 139.02V131.38H91.1299V134.78H95.2099V131.38H96.1399V139.02H95.2099V135.6H91.1299V139.02H90.1999ZM100.26 139.14C99.7099 139.14 99.2299 139.02 98.8299 138.77C98.4299 138.52 98.1199 138.18 97.9099 137.74C97.6999 137.3 97.5899 136.78 97.5899 136.19C97.5899 135.6 97.6999 135.09 97.9099 134.64C98.1299 134.19 98.4299 133.84 98.8099 133.59C99.1999 133.34 99.6499 133.21 100.17 133.21C100.47 133.21 100.76 133.26 101.05 133.36C101.34 133.46 101.61 133.62 101.84 133.84C102.08 134.06 102.27 134.35 102.41 134.72C102.55 135.09 102.62 135.54 102.62 136.07V136.44H98.1999V135.68H101.72C101.72 135.36 101.66 135.07 101.53 134.81C101.4 134.56 101.22 134.36 100.99 134.21C100.76 134.06 100.48 133.99 100.16 133.99C99.8099 133.99 99.5099 134.08 99.2499 134.25C98.9999 134.42 98.7999 134.65 98.6599 134.92C98.5199 135.2 98.4499 135.49 98.4499 135.81V136.32C98.4499 136.75 98.5199 137.12 98.6699 137.42C98.8199 137.72 99.0299 137.95 99.2999 138.1C99.5699 138.25 99.8799 138.33 100.24 138.33C100.47 138.33 100.68 138.3 100.87 138.23C101.06 138.16 101.22 138.06 101.36 137.93C101.5 137.8 101.6 137.63 101.68 137.43L102.53 137.67C102.44 137.96 102.29 138.21 102.08 138.43C101.87 138.65 101.61 138.82 101.3 138.94C100.99 139.06 100.64 139.12 100.25 139.12L100.26 139.14ZM104.85 131.38V139.02H103.97V131.38H104.85ZM106.46 141.17V133.29H107.31V134.2H107.41C107.47 134.1 107.56 133.97 107.68 133.82C107.8 133.66 107.96 133.52 108.18 133.4C108.4 133.28 108.69 133.21 109.07 133.21C109.55 133.21 109.98 133.33 110.35 133.57C110.72 133.81 111.01 134.15 111.21 134.6C111.42 135.04 111.52 135.57 111.52 136.17C111.52 136.77 111.42 137.3 111.21 137.75C111 138.19 110.72 138.54 110.35 138.78C109.98 139.02 109.56 139.14 109.08 139.14C108.71 139.14 108.42 139.08 108.2 138.96C107.98 138.84 107.81 138.7 107.69 138.54C107.57 138.38 107.48 138.25 107.41 138.14H107.34V141.17H106.46ZM107.33 136.15C107.33 136.58 107.39 136.96 107.52 137.3C107.65 137.63 107.83 137.89 108.08 138.07C108.32 138.25 108.62 138.35 108.98 138.35C109.34 138.35 109.66 138.25 109.9 138.06C110.15 137.86 110.34 137.6 110.46 137.27C110.59 136.94 110.65 136.57 110.65 136.16C110.65 135.75 110.59 135.39 110.46 135.07C110.34 134.74 110.15 134.49 109.9 134.3C109.65 134.11 109.34 134.01 108.97 134.01C108.6 134.01 108.31 134.1 108.07 134.28C107.83 134.46 107.64 134.71 107.52 135.03C107.4 135.35 107.33 135.73 107.33 136.15ZM115.36 133.28V134.03H112.39V133.28H115.36ZM113.26 131.91H114.14V137.37C114.14 137.62 114.18 137.81 114.25 137.93C114.32 138.05 114.42 138.13 114.53 138.18C114.65 138.22 114.77 138.24 114.9 138.24C115 138.24 115.08 138.24 115.14 138.22C115.2 138.21 115.25 138.2 115.29 138.19L115.47 138.98C115.41 139 115.33 139.03 115.22 139.05C115.11 139.07 114.98 139.09 114.81 139.09C114.56 139.09 114.32 139.04 114.08 138.93C113.84 138.82 113.65 138.66 113.49 138.44C113.34 138.22 113.26 137.95 113.26 137.61V131.91ZM116.69 139.02V133.29H117.57V139.02H116.69ZM117.14 132.33C116.97 132.33 116.82 132.27 116.7 132.15C116.58 132.03 116.52 131.89 116.52 131.73C116.52 131.57 116.58 131.43 116.7 131.31C116.82 131.19 116.97 131.13 117.14 131.13C117.31 131.13 117.46 131.19 117.58 131.31C117.7 131.43 117.77 131.57 117.77 131.73C117.77 131.89 117.71 132.03 117.58 132.15C117.46 132.27 117.31 132.33 117.14 132.33ZM119.84 133.29L121.21 135.63L122.58 133.29H123.6L121.75 136.16L123.6 139.03H122.58L121.21 136.81L119.84 139.03H118.82L120.64 136.16L118.82 133.29H119.84Z" fill="#757C86"/>
<path d="M364.9 126.91H135.22C131.15 126.91 127.85 130.21 127.85 134.28V212.87C127.85 216.94 131.15 220.24 135.22 220.24H364.9C368.97 220.24 372.27 216.94 372.27 212.87V134.28C372.27 130.21 368.97 126.91 364.9 126.91Z" fill="white"/>
<path d="M364.9 126.91H135.22C131.15 126.91 127.85 130.21 127.85 134.28V212.87C127.85 216.94 131.15 220.24 135.22 220.24H364.9C368.97 220.24 372.27 216.94 372.27 212.87V134.28C372.27 130.21 368.97 126.91 364.9 126.91Z" stroke="#39404F"/>
<path d="M157.94 143.33C157.3 142.68 156.53 142.16 155.69 141.81C154.85 141.46 153.94 141.28 153.03 141.28C149.2 141.28 146.08 144.4 146.08 148.23C146.08 149.46 146.4 150.65 147.01 151.7L146.03 155.31L149.71 154.34C150.73 154.89 151.87 155.19 153.04 155.19C156.87 155.19 159.99 152.07 159.99 148.24C159.99 146.38 159.27 144.63 157.96 143.32L157.94 143.33ZM153.02 154.02C151.98 154.02 150.96 153.74 150.07 153.21L149.86 153.08L147.67 153.66L148.25 151.53L148.11 151.31C147.53 150.39 147.23 149.32 147.23 148.24C147.23 145.05 149.83 142.46 153.01 142.46C154.55 142.46 156.01 143.06 157.09 144.16C157.63 144.7 158.06 145.33 158.35 146.04C158.64 146.74 158.79 147.5 158.79 148.25C158.8 151.44 156.21 154.02 153.02 154.02ZM156.19 149.7C156.01 149.62 155.16 149.19 155 149.13C154.84 149.07 154.73 149.05 154.61 149.21C154.49 149.39 154.16 149.78 154.06 149.89C153.96 150.01 153.86 150.02 153.68 149.93C153.5 149.85 152.94 149.66 152.28 149.07C151.76 148.61 151.42 148.04 151.31 147.86C151.21 147.68 151.3 147.59 151.39 147.5C151.47 147.42 151.57 147.3 151.65 147.2C151.73 147.1 151.77 147.02 151.83 146.91C151.89 146.79 151.86 146.69 151.82 146.61C151.78 146.53 151.43 145.67 151.29 145.32C151.15 144.98 151 145.03 150.9 145.02H150.56C150.44 145.02 150.26 145.06 150.1 145.24C149.95 145.42 149.5 145.84 149.5 146.69C149.5 147.54 150.12 148.37 150.21 148.49C150.29 148.61 151.44 150.36 153.18 151.11C153.59 151.29 153.92 151.4 154.17 151.47C154.58 151.6 154.96 151.58 155.26 151.54C155.6 151.49 156.29 151.12 156.43 150.71C156.58 150.3 156.58 149.96 156.53 149.88C156.48 149.8 156.38 149.77 156.2 149.68L156.19 149.7Z" fill="#39404F"/>
<path d="M147.64 183.39L144.76 173.18H146.75L148.59 180.68H148.68L150.64 173.18H152.45L154.42 180.69H154.51L156.35 173.18H158.34L155.46 183.39H153.64L151.6 176.23H151.52L149.47 183.39H147.65H147.64ZM161.35 178.9V183.39H159.55V173.18H161.31V177.03H161.4C161.58 176.6 161.86 176.26 162.23 176.01C162.61 175.76 163.09 175.63 163.68 175.63C164.21 175.63 164.68 175.74 165.07 175.96C165.47 176.18 165.77 176.51 165.99 176.94C166.21 177.37 166.32 177.89 166.32 178.51V183.38H164.52V178.79C164.52 178.28 164.39 177.87 164.12 177.59C163.86 177.3 163.49 177.16 163.01 177.16C162.69 177.16 162.41 177.23 162.15 177.37C161.9 177.51 161.7 177.7 161.56 177.96C161.42 178.22 161.35 178.53 161.35 178.9ZM170.36 183.54C169.87 183.54 169.44 183.45 169.05 183.28C168.66 183.1 168.36 182.84 168.13 182.5C167.91 182.16 167.8 181.74 167.8 181.23C167.8 180.8 167.88 180.44 168.04 180.16C168.2 179.88 168.42 179.65 168.69 179.48C168.97 179.31 169.28 179.18 169.62 179.1C169.97 179.01 170.33 178.95 170.7 178.91C171.15 178.86 171.51 178.82 171.79 178.79C172.07 178.75 172.27 178.69 172.4 178.61C172.53 178.53 172.59 178.4 172.59 178.23V178.2C172.59 177.82 172.48 177.53 172.26 177.33C172.04 177.12 171.72 177.02 171.3 177.02C170.86 177.02 170.51 177.12 170.25 177.31C169.99 177.5 169.82 177.73 169.73 177.99L168.05 177.75C168.18 177.28 168.4 176.9 168.71 176.58C169.02 176.26 169.39 176.03 169.83 175.87C170.27 175.71 170.76 175.63 171.3 175.63C171.67 175.63 172.04 175.67 172.4 175.76C172.77 175.85 173.1 175.99 173.4 176.19C173.7 176.39 173.94 176.65 174.13 176.99C174.32 177.33 174.41 177.75 174.41 178.26V183.38H172.68V182.33H172.62C172.51 182.54 172.36 182.74 172.16 182.93C171.96 183.11 171.72 183.26 171.42 183.37C171.12 183.48 170.78 183.53 170.38 183.53L170.36 183.54ZM170.83 182.21C171.19 182.21 171.51 182.14 171.77 182C172.04 181.85 172.24 181.66 172.38 181.42C172.53 181.18 172.6 180.92 172.6 180.64V179.74C172.54 179.79 172.45 179.83 172.31 179.87C172.18 179.91 172.03 179.94 171.86 179.97C171.69 180 171.53 180.03 171.37 180.05C171.21 180.07 171.07 180.09 170.95 180.11C170.68 180.15 170.44 180.21 170.23 180.29C170.02 180.37 169.85 180.49 169.73 180.64C169.61 180.79 169.55 180.98 169.55 181.21C169.55 181.54 169.67 181.79 169.91 181.96C170.15 182.13 170.46 182.21 170.84 182.21H170.83ZM180.04 175.73V177.13H175.64V175.73H180.04ZM176.73 173.9H178.53V181.09C178.53 181.33 178.57 181.52 178.64 181.65C178.72 181.78 178.82 181.86 178.94 181.91C179.06 181.96 179.2 181.98 179.35 181.98C179.46 181.98 179.57 181.98 179.66 181.96C179.76 181.94 179.83 181.93 179.88 181.92L180.18 183.33C180.08 183.36 179.95 183.4 179.77 183.44C179.59 183.48 179.38 183.5 179.12 183.51C178.67 183.52 178.26 183.46 177.9 183.31C177.54 183.16 177.25 182.92 177.04 182.6C176.83 182.28 176.73 181.88 176.73 181.4V173.91V173.9ZM187.49 177.76L185.85 177.94C185.8 177.77 185.72 177.62 185.61 177.47C185.5 177.32 185.34 177.21 185.15 177.12C184.96 177.03 184.72 176.99 184.44 176.99C184.06 176.99 183.75 177.07 183.49 177.23C183.24 177.39 183.11 177.6 183.12 177.86C183.12 178.08 183.2 178.26 183.36 178.4C183.53 178.54 183.81 178.65 184.2 178.74L185.51 179.02C186.23 179.18 186.77 179.42 187.12 179.76C187.48 180.1 187.65 180.54 187.66 181.09C187.66 181.57 187.52 182 187.24 182.37C186.96 182.74 186.58 183.02 186.09 183.23C185.6 183.44 185.03 183.54 184.4 183.54C183.46 183.54 182.71 183.34 182.14 182.95C181.57 182.55 181.23 182 181.12 181.3L182.88 181.13C182.96 181.48 183.13 181.74 183.39 181.91C183.65 182.09 183.99 182.17 184.4 182.17C184.81 182.17 185.17 182.08 185.43 181.91C185.69 181.73 185.82 181.52 185.82 181.26C185.82 181.04 185.74 180.86 185.57 180.72C185.4 180.58 185.14 180.47 184.79 180.39L183.48 180.12C182.75 179.97 182.2 179.71 181.85 179.35C181.5 178.98 181.32 178.52 181.33 177.96C181.33 177.49 181.45 177.08 181.71 176.73C181.97 176.38 182.34 176.11 182.8 175.92C183.27 175.73 183.81 175.63 184.42 175.63C185.32 175.63 186.02 175.82 186.54 176.2C187.06 176.58 187.38 177.1 187.5 177.75L187.49 177.76ZM191.34 183.55C190.85 183.55 190.42 183.46 190.03 183.29C189.64 183.11 189.34 182.85 189.11 182.51C188.89 182.17 188.78 181.75 188.78 181.24C188.78 180.81 188.86 180.45 189.02 180.17C189.18 179.89 189.4 179.66 189.67 179.49C189.95 179.32 190.26 179.19 190.6 179.11C190.95 179.02 191.31 178.96 191.68 178.92C192.13 178.87 192.49 178.83 192.77 178.8C193.05 178.76 193.25 178.7 193.38 178.62C193.51 178.54 193.57 178.41 193.57 178.24V178.21C193.57 177.83 193.46 177.54 193.24 177.34C193.02 177.13 192.7 177.03 192.28 177.03C191.84 177.03 191.49 177.13 191.23 177.32C190.97 177.51 190.8 177.74 190.71 178L189.03 177.76C189.16 177.29 189.38 176.91 189.69 176.59C190 176.27 190.37 176.04 190.81 175.88C191.25 175.72 191.74 175.64 192.28 175.64C192.65 175.64 193.02 175.68 193.38 175.77C193.75 175.86 194.08 176 194.38 176.2C194.68 176.4 194.92 176.66 195.11 177C195.3 177.34 195.39 177.76 195.39 178.27V183.39H193.66V182.34H193.6C193.49 182.55 193.34 182.75 193.14 182.94C192.94 183.12 192.7 183.27 192.4 183.38C192.1 183.49 191.76 183.54 191.36 183.54L191.34 183.55ZM191.81 182.22C192.17 182.22 192.49 182.15 192.75 182.01C193.02 181.86 193.22 181.67 193.36 181.43C193.51 181.19 193.58 180.93 193.58 180.65V179.75C193.52 179.8 193.43 179.84 193.29 179.88C193.16 179.92 193.01 179.95 192.84 179.98C192.67 180.01 192.51 180.04 192.35 180.06C192.19 180.08 192.05 180.1 191.93 180.12C191.66 180.16 191.42 180.22 191.21 180.3C191 180.38 190.83 180.5 190.71 180.65C190.59 180.8 190.53 180.99 190.53 181.22C190.53 181.55 190.65 181.8 190.89 181.97C191.13 182.14 191.44 182.22 191.82 182.22H191.81ZM197.2 186.26V175.73H198.97V177H199.08C199.17 176.81 199.3 176.62 199.47 176.41C199.64 176.2 199.87 176.02 200.16 175.87C200.45 175.72 200.82 175.64 201.27 175.64C201.86 175.64 202.39 175.79 202.87 176.09C203.35 176.39 203.73 176.83 204.01 177.42C204.29 178 204.43 178.72 204.43 179.57C204.43 180.42 204.29 181.12 204.02 181.71C203.74 182.3 203.37 182.75 202.89 183.06C202.41 183.37 201.88 183.52 201.28 183.52C200.84 183.52 200.48 183.45 200.19 183.3C199.9 183.15 199.67 182.98 199.49 182.77C199.32 182.56 199.18 182.36 199.09 182.18H199.01V186.26H197.21H197.2ZM198.97 179.56C198.97 180.05 199.04 180.49 199.18 180.86C199.32 181.23 199.53 181.52 199.79 181.73C200.06 181.94 200.39 182.04 200.77 182.04C201.15 182.04 201.5 181.93 201.77 181.72C202.04 181.5 202.24 181.21 202.38 180.84C202.52 180.46 202.59 180.04 202.59 179.56C202.59 179.08 202.52 178.66 202.39 178.29C202.25 177.92 202.05 177.63 201.78 177.42C201.51 177.21 201.18 177.11 200.77 177.11C200.36 177.11 200.06 177.21 199.79 177.41C199.52 177.61 199.32 177.9 199.18 178.26C199.04 178.63 198.98 179.06 198.98 179.55L198.97 179.56ZM205.97 186.26V175.73H207.74V177H207.85C207.94 176.81 208.07 176.62 208.24 176.41C208.41 176.2 208.64 176.02 208.93 175.87C209.22 175.72 209.59 175.64 210.04 175.64C210.63 175.64 211.16 175.79 211.64 176.09C212.12 176.39 212.5 176.83 212.78 177.42C213.06 178 213.2 178.72 213.2 179.57C213.2 180.42 213.06 181.12 212.79 181.71C212.51 182.3 212.14 182.75 211.66 183.06C211.18 183.37 210.65 183.52 210.05 183.52C209.61 183.52 209.25 183.45 208.96 183.3C208.67 183.15 208.44 182.98 208.26 182.77C208.09 182.56 207.95 182.36 207.86 182.18H207.78V186.26H205.98H205.97ZM207.74 179.56C207.74 180.05 207.81 180.49 207.95 180.86C208.09 181.23 208.3 181.52 208.56 181.73C208.83 181.94 209.16 182.04 209.54 182.04C209.92 182.04 210.27 181.93 210.54 181.72C210.81 181.5 211.01 181.21 211.15 180.84C211.29 180.46 211.36 180.04 211.36 179.56C211.36 179.08 211.29 178.66 211.16 178.29C211.02 177.92 210.82 177.63 210.55 177.42C210.28 177.21 209.95 177.11 209.54 177.11C209.13 177.11 208.83 177.21 208.56 177.41C208.29 177.61 208.09 177.9 207.95 178.26C207.81 178.63 207.75 179.06 207.75 179.55L207.74 179.56Z" fill="#39404F"/>
<path d="M147.54 203.77V198.38H148.61V203.77H147.54ZM145.38 201.61V200.54H150.77V201.61H145.38ZM155.45 205.25C155.09 205.25 154.73 205.18 154.37 205.05C154.02 204.92 153.7 204.71 153.41 204.41C153.12 204.11 152.89 203.71 152.72 203.21C152.55 202.71 152.46 202.08 152.46 201.33C152.46 200.62 152.53 199.98 152.67 199.43C152.81 198.88 153.02 198.41 153.29 198.03C153.56 197.65 153.88 197.36 154.26 197.16C154.64 196.96 155.07 196.86 155.54 196.86C156.01 196.86 156.46 196.96 156.84 197.15C157.22 197.34 157.52 197.61 157.76 197.94C158 198.28 158.15 198.66 158.21 199.09H156.99C156.91 198.75 156.74 198.47 156.5 198.26C156.26 198.05 155.94 197.94 155.54 197.94C154.94 197.94 154.48 198.2 154.14 198.72C153.81 199.24 153.64 199.97 153.64 200.89H153.7C153.84 200.66 154.01 200.46 154.22 200.3C154.43 200.14 154.66 200.01 154.91 199.92C155.17 199.83 155.44 199.78 155.72 199.78C156.19 199.78 156.62 199.9 157 200.13C157.39 200.36 157.69 200.68 157.92 201.08C158.15 201.48 158.26 201.95 158.26 202.47C158.26 202.99 158.14 203.46 157.91 203.89C157.68 204.31 157.35 204.65 156.92 204.89C156.49 205.13 156 205.25 155.43 205.25H155.45ZM155.45 204.21C155.76 204.21 156.04 204.13 156.29 203.98C156.54 203.83 156.73 203.62 156.88 203.36C157.02 203.1 157.1 202.81 157.1 202.49C157.1 202.17 157.03 201.89 156.89 201.63C156.75 201.37 156.56 201.17 156.32 201.02C156.08 200.87 155.8 200.79 155.49 200.79C155.25 200.79 155.03 200.84 154.83 200.93C154.63 201.02 154.46 201.15 154.3 201.3C154.15 201.46 154.03 201.64 153.94 201.85C153.85 202.05 153.81 202.27 153.81 202.5C153.81 202.81 153.88 203.09 154.02 203.35C154.16 203.61 154.36 203.82 154.61 203.98C154.86 204.14 155.14 204.22 155.46 204.22L155.45 204.21ZM159.74 205.13V204.24L162.5 201.38C162.8 201.07 163.04 200.8 163.23 200.56C163.42 200.32 163.57 200.1 163.66 199.89C163.76 199.68 163.8 199.45 163.8 199.21C163.8 198.94 163.74 198.7 163.61 198.51C163.48 198.31 163.31 198.16 163.09 198.05C162.87 197.94 162.62 197.89 162.34 197.89C162.05 197.89 161.79 197.95 161.57 198.07C161.35 198.19 161.18 198.36 161.07 198.58C160.95 198.8 160.89 199.05 160.89 199.35H159.71C159.71 198.85 159.82 198.42 160.05 198.05C160.28 197.68 160.59 197.39 160.99 197.18C161.39 196.97 161.84 196.87 162.35 196.87C162.86 196.87 163.31 196.97 163.71 197.18C164.1 197.38 164.41 197.66 164.63 198.01C164.85 198.36 164.96 198.75 164.96 199.19C164.96 199.49 164.9 199.79 164.79 200.08C164.68 200.37 164.48 200.69 164.2 201.05C163.92 201.4 163.53 201.83 163.04 202.34L161.42 204.04V204.1H165.1V205.16H159.73L159.74 205.13ZM172.36 205.24C171.79 205.24 171.28 205.14 170.84 204.95C170.4 204.75 170.06 204.48 169.82 204.14C169.57 203.79 169.45 203.4 169.45 202.96C169.45 202.61 169.52 202.3 169.66 202.01C169.81 201.72 170 201.47 170.25 201.28C170.5 201.08 170.78 200.96 171.09 200.91V200.86C170.68 200.76 170.36 200.54 170.11 200.21C169.87 199.87 169.74 199.48 169.75 199.05C169.75 198.63 169.86 198.26 170.08 197.93C170.31 197.6 170.62 197.34 171.01 197.15C171.4 196.96 171.85 196.87 172.35 196.87C172.85 196.87 173.29 196.97 173.68 197.16C174.07 197.35 174.38 197.61 174.61 197.94C174.84 198.27 174.95 198.64 174.95 199.05C174.95 199.49 174.82 199.88 174.58 200.21C174.33 200.55 174.01 200.77 173.62 200.86V200.91C173.93 200.96 174.2 201.09 174.45 201.28C174.7 201.47 174.89 201.72 175.04 202.01C175.19 202.3 175.26 202.62 175.27 202.96C175.27 203.4 175.14 203.79 174.9 204.14C174.65 204.49 174.31 204.76 173.87 204.95C173.43 205.15 172.93 205.24 172.37 205.24H172.36ZM172.36 204.23C172.7 204.23 172.99 204.17 173.24 204.06C173.49 203.95 173.68 203.79 173.81 203.59C173.95 203.39 174.01 203.15 174.02 202.87C174.02 202.59 173.94 202.33 173.8 202.12C173.66 201.9 173.46 201.73 173.21 201.61C172.96 201.49 172.68 201.42 172.36 201.42C172.04 201.42 171.75 201.48 171.5 201.61C171.25 201.73 171.05 201.91 170.91 202.12C170.77 202.34 170.7 202.59 170.7 202.87C170.7 203.14 170.76 203.38 170.9 203.59C171.04 203.79 171.23 203.95 171.48 204.06C171.73 204.17 172.02 204.23 172.37 204.23H172.36ZM172.36 200.43C172.63 200.43 172.87 200.38 173.08 200.27C173.29 200.16 173.45 200.01 173.57 199.82C173.69 199.63 173.75 199.4 173.76 199.14C173.76 198.88 173.7 198.66 173.58 198.47C173.46 198.28 173.3 198.13 173.09 198.03C172.88 197.92 172.64 197.87 172.36 197.87C172.08 197.87 171.83 197.92 171.62 198.03C171.41 198.13 171.25 198.28 171.13 198.47C171.01 198.66 170.96 198.88 170.96 199.14C170.96 199.4 171.02 199.63 171.14 199.82C171.26 200.01 171.42 200.17 171.63 200.27C171.84 200.38 172.09 200.43 172.36 200.43ZM177.65 199L179 201.38L180.36 199H181.66L179.75 202.06L181.68 205.12H180.38L179 202.83L177.62 205.12H176.31L178.22 202.06L176.34 199H177.65ZM183.83 199L185.18 201.38L186.54 199H187.84L185.93 202.06L187.86 205.12H186.56L185.18 202.83L183.8 205.12H182.49L184.4 202.06L182.52 199H183.83ZM192.98 199L194.33 201.38L195.69 199H196.99L195.08 202.06L197.01 205.12H195.71L194.33 202.83L192.95 205.12H191.64L193.55 202.06L191.67 199H192.98ZM199.16 199L200.51 201.38L201.87 199H203.17L201.26 202.06L203.19 205.12H201.89L200.51 202.83L199.13 205.12H197.82L199.73 202.06L197.85 199H199.16ZM205.34 199L206.69 201.38L208.05 199H209.35L207.44 202.06L209.37 205.12H208.07L206.69 202.83L205.31 205.12H204L205.91 202.06L204.03 199H205.34ZM214.5 199L215.85 201.38L217.21 199H218.51L216.6 202.06L218.53 205.12H217.23L215.85 202.83L214.47 205.12H213.16L215.07 202.06L213.19 199H214.5ZM220.68 199L222.03 201.38L223.39 199H224.69L222.78 202.06L224.71 205.12H223.41L222.03 202.83L220.65 205.12H219.34L221.25 202.06L219.37 199H220.68ZM226.86 199L228.21 201.38L229.57 199H230.87L228.96 202.06L230.89 205.12H229.59L228.21 202.83L226.83 205.12H225.52L227.43 202.06L225.55 199H226.86Z" fill="#757C86"/>
<path d="M370.43 94.52C382.144 94.52 391.64 85.0239 391.64 73.31C391.64 61.596 382.144 52.1 370.43 52.1C358.716 52.1 349.22 61.596 349.22 73.31C349.22 85.0239 358.716 94.52 370.43 94.52Z" fill="#39404F"/>
<path d="M373.88 68.7L377.14 68.83C377.85 68.86 378.56 69.02 379.21 69.32C379.86 69.61 380.44 70.03 380.93 70.54C381.42 71.05 381.79 71.66 382.04 72.31C382.29 72.97 382.4 73.66 382.37 74.36C382.34 75.06 382.18 75.74 381.88 76.38C381.58 77.01 381.16 77.59 380.63 78.06C380.11 78.53 379.49 78.9 378.82 79.14C378.15 79.38 377.44 79.49 376.72 79.46L373.46 79.33M366.93 79.08L363.67 78.95C362.96 78.92 362.25 78.76 361.6 78.46C360.95 78.16 360.37 77.75 359.88 77.24C358.9 76.2 358.38 74.83 358.43 73.42C358.48 72.01 359.11 70.68 360.17 69.72C361.23 68.76 362.63 68.26 364.08 68.31L367.34 68.44M366.05 73.72L374.75 74.06" stroke="white" stroke-width="2" stroke-linecap="round" stroke-linejoin="round"/>
<path d="M332.27 121.8H411.49C419.02 121.8 425.12 128.96 425.12 137.8C425.12 146.64 419.02 153.8 411.49 153.8H332.27C324.74 153.8 318.64 146.64 318.64 137.8C318.64 128.96 324.74 121.8 332.27 121.8Z" fill="#FFF7E6"/>
<path d="M332.82 133.68V132.17H341.83V133.68H338.2V143.8H336.45V133.68H332.83H332.82ZM346.18 143.98C345.32 143.98 344.58 143.8 343.96 143.43C343.34 143.06 342.87 142.54 342.53 141.87C342.2 141.2 342.03 140.41 342.03 139.5C342.03 138.59 342.2 137.82 342.53 137.14C342.87 136.46 343.34 135.93 343.94 135.54C344.55 135.16 345.25 134.97 346.06 134.97C346.55 134.97 347.03 135.05 347.49 135.21C347.95 135.37 348.37 135.63 348.73 135.98C349.1 136.33 349.39 136.78 349.6 137.34C349.81 137.89 349.92 138.57 349.92 139.36V139.96H342.98V138.69H348.25C348.25 138.24 348.16 137.85 347.98 137.5C347.8 137.15 347.54 136.88 347.21 136.68C346.88 136.48 346.5 136.38 346.06 136.38C345.58 136.38 345.17 136.5 344.81 136.73C344.46 136.96 344.19 137.26 343.99 137.64C343.8 138.01 343.71 138.41 343.71 138.85V139.84C343.71 140.42 343.81 140.92 344.02 141.33C344.23 141.74 344.52 142.05 344.89 142.27C345.26 142.48 345.69 142.59 346.19 142.59C346.51 142.59 346.81 142.54 347.07 142.45C347.34 142.36 347.56 142.22 347.76 142.03C347.95 141.84 348.1 141.62 348.2 141.34L349.81 141.63C349.68 142.1 349.45 142.52 349.12 142.87C348.79 143.22 348.38 143.5 347.88 143.69C347.38 143.88 346.82 143.98 346.18 143.98ZM351.81 143.8V135.07H353.45V136.46H353.54C353.7 135.99 353.98 135.62 354.38 135.35C354.79 135.08 355.24 134.94 355.76 134.94C355.87 134.94 355.99 134.94 356.14 134.95C356.29 134.95 356.4 134.97 356.49 134.98V136.6C356.42 136.58 356.3 136.56 356.13 136.54C355.96 136.51 355.78 136.5 355.61 136.5C355.21 136.5 354.85 136.59 354.54 136.76C354.23 136.93 353.98 137.16 353.8 137.46C353.62 137.76 353.53 138.09 353.53 138.47V143.8H351.83H351.81ZM359.65 138.62V143.8H357.95V132.16H359.63V136.49H359.74C359.94 136.02 360.26 135.65 360.68 135.37C361.1 135.09 361.65 134.96 362.33 134.96C362.93 134.96 363.45 135.08 363.9 135.33C364.35 135.58 364.7 135.94 364.95 136.43C365.2 136.91 365.33 137.52 365.33 138.25V143.8H363.63V138.45C363.63 137.81 363.47 137.31 363.14 136.96C362.81 136.6 362.35 136.43 361.76 136.43C361.36 136.43 361 136.52 360.68 136.69C360.37 136.86 360.12 137.11 359.94 137.44C359.76 137.77 359.67 138.16 359.67 138.62H359.65ZM373.1 140.18V135.07H374.8V143.8H373.13V142.29H373.04C372.84 142.76 372.52 143.14 372.07 143.45C371.63 143.76 371.08 143.91 370.43 143.91C369.87 143.91 369.37 143.79 368.94 143.54C368.51 143.29 368.17 142.92 367.93 142.43C367.69 141.94 367.57 141.34 367.57 140.62V135.07H369.27V140.42C369.27 141.01 369.43 141.49 369.76 141.84C370.09 142.19 370.52 142.37 371.04 142.37C371.36 142.37 371.67 142.29 371.99 142.13C372.31 141.97 372.57 141.73 372.78 141.41C372.99 141.09 373.1 140.68 373.09 140.18H373.1ZM377.22 143.8V132.16H378.92V136.48H379.02C379.12 136.3 379.26 136.09 379.45 135.85C379.64 135.61 379.89 135.4 380.22 135.23C380.55 135.05 380.99 134.96 381.53 134.96C382.23 134.96 382.86 135.14 383.42 135.49C383.97 135.85 384.41 136.36 384.72 137.03C385.04 137.7 385.2 138.51 385.2 139.45C385.2 140.39 385.04 141.2 384.73 141.88C384.42 142.55 383.98 143.07 383.43 143.43C382.88 143.79 382.25 143.97 381.55 143.97C381.02 143.97 380.59 143.88 380.25 143.7C379.92 143.52 379.66 143.31 379.47 143.08C379.28 142.85 379.13 142.63 379.03 142.44H378.89V143.8H377.23H377.22ZM378.88 139.44C378.88 140.05 378.97 140.59 379.15 141.05C379.33 141.51 379.59 141.87 379.92 142.14C380.26 142.4 380.67 142.53 381.16 142.53C381.65 142.53 382.09 142.4 382.43 142.13C382.77 141.86 383.03 141.49 383.2 141.02C383.38 140.55 383.47 140.03 383.47 139.45C383.47 138.87 383.38 138.36 383.21 137.9C383.04 137.44 382.78 137.08 382.44 136.81C382.1 136.54 381.67 136.41 381.16 136.41C380.65 136.41 380.25 136.54 379.91 136.79C379.57 137.04 379.32 137.4 379.14 137.85C378.97 138.3 378.88 138.83 378.88 139.44ZM392.62 140.18V135.07H394.32V143.8H392.65V142.29H392.56C392.36 142.76 392.04 143.14 391.59 143.45C391.15 143.76 390.6 143.91 389.95 143.91C389.39 143.91 388.89 143.79 388.46 143.54C388.03 143.29 387.69 142.92 387.45 142.43C387.21 141.94 387.09 141.34 387.09 140.62V135.07H388.79V140.42C388.79 141.01 388.95 141.49 389.28 141.84C389.61 142.19 390.04 142.37 390.56 142.37C390.88 142.37 391.19 142.29 391.51 142.13C391.83 141.97 392.09 141.73 392.3 141.41C392.51 141.09 392.62 140.68 392.61 140.18H392.62ZM398.31 138.62V143.8H396.61V135.07H398.24V136.49H398.35C398.55 136.03 398.87 135.66 399.29 135.38C399.72 135.1 400.27 134.96 400.92 134.96C401.51 134.96 402.03 135.08 402.48 135.34C402.93 135.59 403.27 135.95 403.52 136.44C403.77 136.93 403.89 137.53 403.89 138.25V143.8H402.19V138.45C402.19 137.82 402.02 137.32 401.7 136.97C401.37 136.61 400.92 136.43 400.34 136.43C399.95 136.43 399.6 136.52 399.29 136.69C398.99 136.86 398.75 137.11 398.57 137.44C398.4 137.77 398.31 138.16 398.31 138.62ZM409.83 147.26C409.14 147.26 408.54 147.17 408.04 146.99C407.54 146.81 407.14 146.57 406.82 146.27C406.51 145.97 406.27 145.64 406.12 145.29L407.58 144.69C407.68 144.86 407.82 145.03 407.99 145.22C408.16 145.41 408.4 145.57 408.69 145.7C408.99 145.83 409.37 145.9 409.84 145.9C410.48 145.9 411.02 145.74 411.44 145.43C411.86 145.12 412.07 144.62 412.07 143.94V142.22H411.96C411.86 142.41 411.71 142.61 411.52 142.84C411.33 143.07 411.07 143.26 410.74 143.43C410.41 143.6 409.97 143.68 409.44 143.68C408.75 143.68 408.13 143.52 407.58 143.2C407.03 142.87 406.59 142.39 406.27 141.76C405.95 141.12 405.79 140.34 405.79 139.41C405.79 138.48 405.95 137.69 406.26 137.02C406.58 136.36 407.01 135.85 407.57 135.5C408.12 135.14 408.75 134.97 409.45 134.97C409.99 134.97 410.43 135.06 410.76 135.24C411.09 135.42 411.35 135.63 411.54 135.86C411.73 136.1 411.87 136.31 411.98 136.49H412.1V135.08H413.77V144C413.77 144.75 413.59 145.37 413.25 145.85C412.9 146.33 412.43 146.69 411.83 146.92C411.24 147.15 410.57 147.27 409.83 147.27V147.26ZM409.81 142.27C410.3 142.27 410.71 142.16 411.05 141.93C411.39 141.7 411.65 141.37 411.82 140.94C412 140.51 412.09 139.99 412.09 139.39C412.09 138.79 412 138.29 411.83 137.84C411.66 137.39 411.4 137.04 411.06 136.79C410.72 136.54 410.31 136.41 409.81 136.41C409.31 136.41 408.87 136.54 408.53 136.81C408.19 137.07 407.93 137.43 407.76 137.88C407.59 138.33 407.5 138.83 407.5 139.39C407.5 139.95 407.59 140.46 407.76 140.9C407.93 141.33 408.19 141.67 408.53 141.91C408.88 142.15 409.3 142.27 409.8 142.27H409.81Z" fill="#E67300"/>
</g>
<defs>
<clipPath id="clip0_713_11856">
<rect width="462" height="243" fill="white"/>
</clipPath>
</defs>
</svg>
