<svg width="462" height="243" viewBox="0 0 462 243" fill="none" xmlns="http://www.w3.org/2000/svg">
<g clip-path="url(#clip0_713_12421)">
<path opacity="0.26" d="M225.48 -70.16H203.21C94.3877 -70.16 6.16992 18.0555 6.16992 126.875C6.16992 235.694 94.3877 323.91 203.21 323.91H225.48C334.302 323.91 422.52 235.694 422.52 126.875C422.52 18.0555 334.302 -70.16 225.48 -70.16Z" fill="#FCF5EE"/>
<path opacity="0.68" d="M228.71 -26.63H211.66C128.331 -26.63 60.78 40.9213 60.78 124.25C60.78 207.579 128.331 275.13 211.66 275.13H228.71C312.039 275.13 379.59 207.579 379.59 124.25C379.59 40.9213 312.039 -26.63 228.71 -26.63Z" fill="#FCF5EE"/>
<path d="M342.8 121.5C342.8 54.3974 288.403 0 221.3 0C154.197 0 99.8 54.3974 99.8 121.5C99.8 188.603 154.197 243 221.3 243C288.403 243 342.8 188.603 342.8 121.5Z" fill="#FCF5EE"/>
<path d="M364.87 74.3601C366.11 80.5801 367.12 81.5901 373.35 82.8401C367.13 84.0801 366.12 85.0901 364.87 91.3201C363.63 85.1001 362.62 84.0901 356.39 82.8401C362.61 81.6001 363.62 80.5901 364.87 74.3601Z" fill="#B2E7DB"/>
<path d="M364.87 74.3601C366.11 80.5801 367.12 81.5901 373.35 82.8401C367.13 84.0801 366.12 85.0901 364.87 91.3201C363.63 85.1001 362.62 84.0901 356.39 82.8401C362.61 81.6001 363.62 80.5901 364.87 74.3601Z" stroke="#21324C" stroke-width="0.5"/>
<path d="M386.3 48.4199C388.46 59.1999 390.2 60.9499 400.98 63.0999C390.2 65.2599 388.45 66.9999 386.3 77.7799C384.14 66.9999 382.4 65.2499 371.62 63.0999C382.4 60.9399 384.15 59.1999 386.3 48.4199Z" fill="#B2E7DB"/>
<path d="M386.3 48.4199C388.46 59.1999 390.2 60.9499 400.98 63.0999C390.2 65.2599 388.45 66.9999 386.3 77.7799C384.14 66.9999 382.4 65.2499 371.62 63.0999C382.4 60.9399 384.15 59.1999 386.3 48.4199Z" stroke="#21324C" stroke-width="0.5"/>
<path d="M338.93 27.3201H66.86C63.5021 27.3201 60.78 30.0422 60.78 33.4001V203.34C60.78 206.698 63.5021 209.42 66.86 209.42H338.93C342.288 209.42 345.01 206.698 345.01 203.34V33.4001C345.01 30.0422 342.288 27.3201 338.93 27.3201Z" fill="white" stroke="#F0F4F5"/>
<path d="M73.5699 46.4401H71.4299V40.1201H73.6199C74.2499 40.1201 74.7899 40.2501 75.2399 40.5001C75.6899 40.7501 76.0399 41.1101 76.2799 41.5801C76.5199 42.0501 76.6399 42.6201 76.6399 43.2701C76.6399 43.9201 76.5199 44.4901 76.2699 44.9701C76.0299 45.4401 75.6799 45.8101 75.2199 46.0601C74.7599 46.3101 74.2099 46.4401 73.5699 46.4401ZM72.5699 45.4501H73.5099C73.9499 45.4501 74.3199 45.3701 74.6099 45.2101C74.8999 45.0501 75.1299 44.8101 75.2699 44.4801C75.4199 44.1601 75.4899 43.7501 75.4899 43.2701C75.4899 42.7901 75.4199 42.3901 75.2699 42.0701C75.1199 41.7501 74.8999 41.5101 74.6099 41.3501C74.3199 41.1901 73.9599 41.1101 73.5399 41.1101H72.5599V45.4501H72.5699ZM79.0399 46.5401C78.7399 46.5401 78.4699 46.4901 78.2299 46.3801C77.9899 46.2701 77.7999 46.1101 77.6599 45.9001C77.5199 45.6901 77.4499 45.4301 77.4499 45.1201C77.4499 44.8501 77.4999 44.6301 77.5999 44.4601C77.6999 44.2901 77.8299 44.1501 77.9999 44.0401C78.1699 43.9401 78.3599 43.8601 78.5799 43.8001C78.7999 43.7401 79.0199 43.7001 79.2499 43.6801C79.5299 43.6501 79.7499 43.6301 79.9299 43.6001C80.0999 43.5801 80.2299 43.5401 80.3099 43.4901C80.3899 43.4401 80.4299 43.3601 80.4299 43.2501V43.2301C80.4299 43.0001 80.3599 42.8201 80.2199 42.6901C80.0799 42.5601 79.8799 42.5001 79.6199 42.5001C79.3499 42.5001 79.1299 42.5601 78.9699 42.6801C78.8099 42.8001 78.6999 42.9401 78.6499 43.1001L77.6099 42.9501C77.6899 42.6601 77.8299 42.4201 78.0199 42.2301C78.2099 42.0301 78.4399 41.8901 78.7099 41.7901C78.9799 41.6901 79.2899 41.6401 79.6199 41.6401C79.8499 41.6401 80.0799 41.6701 80.2999 41.7201C80.5299 41.7701 80.7299 41.8601 80.9199 41.9901C81.1099 42.1101 81.2599 42.2801 81.3699 42.4901C81.4899 42.7001 81.5399 42.9601 81.5399 43.2801V46.4501H80.4699V45.8001H80.4299C80.3599 45.9301 80.2699 46.0601 80.1399 46.1701C80.0199 46.2801 79.8699 46.3701 79.6799 46.4401C79.4999 46.5101 79.2799 46.5401 79.0299 46.5401H79.0399ZM79.3299 45.7201C79.5499 45.7201 79.7499 45.6801 79.9099 45.5901C80.0699 45.5001 80.1999 45.3801 80.2899 45.2301C80.3799 45.0801 80.4299 44.9201 80.4299 44.7501V44.1901C80.4299 44.1901 80.3399 44.2501 80.2499 44.2701C80.1699 44.2901 80.0799 44.3201 79.9699 44.3301C79.8699 44.3501 79.7699 44.3601 79.6599 44.3801C79.5599 44.3901 79.4699 44.4101 79.3999 44.4201C79.2299 44.4401 79.0799 44.4801 78.9499 44.5301C78.8199 44.5801 78.7099 44.6501 78.6399 44.7501C78.5599 44.8401 78.5299 44.9601 78.5299 45.1001C78.5299 45.3101 78.6099 45.4601 78.7599 45.5701C78.9099 45.6701 79.0999 45.7301 79.3299 45.7301V45.7201ZM85.0299 41.7001V42.5601H82.2999V41.7001H85.0299ZM82.9799 40.5601H84.0999V45.0101C84.0999 45.1601 84.1199 45.2801 84.1699 45.3601C84.2199 45.4401 84.2799 45.4901 84.3599 45.5201C84.4399 45.5501 84.5199 45.5601 84.6099 45.5601C84.6799 45.5601 84.7399 45.5601 84.7999 45.5401C84.8599 45.5301 84.8999 45.5201 84.9399 45.5101L85.1299 46.3801C85.0699 46.4001 84.9799 46.4201 84.8699 46.4501C84.7599 46.4701 84.6299 46.4901 84.4699 46.4901C84.1899 46.4901 83.9399 46.4601 83.7099 46.3601C83.4899 46.2701 83.3099 46.1201 83.1799 45.9201C83.0499 45.7201 82.9899 45.4801 82.9899 45.1801V40.5401L82.9799 40.5601ZM87.3299 46.5301C87.0299 46.5301 86.7599 46.4801 86.5199 46.3701C86.2799 46.2601 86.0899 46.1001 85.9499 45.8901C85.8099 45.6801 85.7399 45.4201 85.7399 45.1101C85.7399 44.8401 85.7899 44.6201 85.8899 44.4501C85.9899 44.2801 86.1199 44.1401 86.2899 44.0301C86.4599 43.9301 86.6499 43.8501 86.8699 43.7901C87.0899 43.7301 87.3099 43.6901 87.5399 43.6701C87.8199 43.6401 88.0399 43.6201 88.2199 43.5901C88.3899 43.5701 88.5199 43.5301 88.5999 43.4801C88.6799 43.4301 88.7199 43.3501 88.7199 43.2401V43.2201C88.7199 42.9901 88.6499 42.8101 88.5099 42.6801C88.3699 42.5501 88.1699 42.4901 87.9099 42.4901C87.6399 42.4901 87.4199 42.5501 87.2599 42.6701C87.0999 42.7901 86.9899 42.9301 86.9399 43.0901L85.8999 42.9401C85.9799 42.6501 86.1199 42.4101 86.3099 42.2201C86.4999 42.0201 86.7299 41.8801 86.9999 41.7801C87.2699 41.6801 87.5799 41.6301 87.9099 41.6301C88.1399 41.6301 88.3699 41.6601 88.5899 41.7101C88.8199 41.7601 89.0199 41.8501 89.2099 41.9801C89.3999 42.1001 89.5499 42.2701 89.6599 42.4801C89.7799 42.6901 89.8299 42.9501 89.8299 43.2701V46.4401H88.7599V45.7901H88.7199C88.6499 45.9201 88.5599 46.0501 88.4299 46.1601C88.3099 46.2701 88.1599 46.3601 87.9699 46.4301C87.7899 46.5001 87.5699 46.5301 87.3199 46.5301H87.3299ZM87.6199 45.7101C87.8399 45.7101 88.0399 45.6701 88.1999 45.5801C88.3599 45.4901 88.4899 45.3701 88.5799 45.2201C88.6699 45.0701 88.7199 44.9101 88.7199 44.7401V44.1801C88.7199 44.1801 88.6299 44.2401 88.5399 44.2601C88.4599 44.2801 88.3699 44.3101 88.2599 44.3201C88.1599 44.3401 88.0599 44.3501 87.9499 44.3701C87.8499 44.3801 87.7599 44.4001 87.6899 44.4101C87.5199 44.4301 87.3699 44.4701 87.2399 44.5201C87.1099 44.5701 86.9999 44.6401 86.9299 44.7401C86.8499 44.8301 86.8199 44.9501 86.8199 45.0901C86.8199 45.3001 86.8999 45.4501 87.0499 45.5601C87.1999 45.6601 87.3899 45.7201 87.6199 45.7201V45.7101ZM93.1599 46.4401V40.1201H94.3099V43.0201H94.3899L96.8599 40.1201H98.2599L95.8199 42.9601L98.2899 46.4401H96.9099L95.0199 43.7301L94.3199 44.5601V46.4401H93.1699H93.1599ZM100.74 46.5301C100.26 46.5301 99.8499 46.4301 99.5099 46.2301C99.1699 46.0301 98.8999 45.7501 98.7199 45.3801C98.5299 45.0101 98.4399 44.5801 98.4399 44.0901C98.4399 43.6001 98.5299 43.1701 98.7199 42.8101C98.9099 42.4401 99.1699 42.1501 99.4999 41.9501C99.8399 41.7401 100.23 41.6401 100.68 41.6401C100.97 41.6401 101.25 41.6901 101.51 41.7801C101.77 41.8701 102 42.0201 102.2 42.2101C102.4 42.4101 102.56 42.6501 102.68 42.9601C102.8 43.2601 102.85 43.6201 102.85 44.0301V44.3701H98.9599V43.6201H101.78C101.78 43.4101 101.73 43.2201 101.64 43.0501C101.55 42.8801 101.42 42.7501 101.26 42.6501C101.1 42.5501 100.91 42.5001 100.7 42.5001C100.47 42.5001 100.27 42.5601 100.1 42.6701C99.9299 42.7801 99.7899 42.9201 99.6999 43.1001C99.6099 43.2801 99.5599 43.4701 99.5499 43.6801V44.3401C99.5499 44.6201 99.5999 44.8501 99.6999 45.0501C99.7999 45.2501 99.9399 45.4001 100.12 45.5001C100.3 45.6001 100.51 45.6501 100.76 45.6501C100.92 45.6501 101.07 45.6301 101.2 45.5801C101.33 45.5301 101.45 45.4601 101.54 45.3701C101.64 45.2801 101.71 45.1701 101.76 45.0301L102.8 45.1501C102.73 45.4301 102.61 45.6701 102.42 45.8701C102.24 46.0701 102 46.2301 101.72 46.3501C101.43 46.4601 101.11 46.5201 100.74 46.5201V46.5301ZM104.91 40.1201V46.4401H103.79V40.1201H104.91ZM109.08 44.4501V41.7001H110.2V46.4401H109.12V45.6001H109.07C108.96 45.8701 108.79 46.0801 108.54 46.2501C108.3 46.4201 108 46.5001 107.64 46.5001C107.33 46.5001 107.05 46.4301 106.82 46.2901C106.58 46.1501 106.4 45.9501 106.26 45.6801C106.13 45.4101 106.06 45.0901 106.06 44.7101V41.6901H107.18V44.5401C107.18 44.8401 107.26 45.0801 107.43 45.2601C107.59 45.4401 107.81 45.5301 108.08 45.5301C108.24 45.5301 108.4 45.4901 108.56 45.4101C108.71 45.3301 108.84 45.2101 108.94 45.0501C109.04 44.8901 109.09 44.6901 109.09 44.4501H109.08ZM112.46 43.6701V46.4501H111.34V40.1301H112.43V42.5201H112.49C112.6 42.2501 112.77 42.0401 113.01 41.8901C113.24 41.7301 113.54 41.6601 113.9 41.6601C114.23 41.6601 114.52 41.7301 114.76 41.8701C115 42.0101 115.19 42.2101 115.33 42.4801C115.47 42.7501 115.53 43.0701 115.53 43.4501V46.4701H114.41V43.6201C114.41 43.3001 114.33 43.0501 114.16 42.8801C114 42.7001 113.77 42.6101 113.47 42.6101C113.27 42.6101 113.1 42.6501 112.94 42.7401C112.79 42.8201 112.66 42.9501 112.58 43.1101C112.49 43.2701 112.45 43.4601 112.45 43.6901L112.46 43.6701ZM118.04 46.5401C117.74 46.5401 117.47 46.4901 117.23 46.3801C116.99 46.2701 116.8 46.1101 116.66 45.9001C116.52 45.6901 116.45 45.4301 116.45 45.1201C116.45 44.8501 116.5 44.6301 116.6 44.4601C116.7 44.2901 116.83 44.1501 117 44.0401C117.17 43.9401 117.36 43.8601 117.58 43.8001C117.8 43.7401 118.02 43.7001 118.25 43.6801C118.53 43.6501 118.75 43.6301 118.93 43.6001C119.1 43.5801 119.23 43.5401 119.31 43.4901C119.39 43.4401 119.43 43.3601 119.43 43.2501V43.2301C119.43 43.0001 119.36 42.8201 119.22 42.6901C119.08 42.5601 118.88 42.5001 118.62 42.5001C118.35 42.5001 118.13 42.5601 117.97 42.6801C117.81 42.8001 117.7 42.9401 117.65 43.1001L116.61 42.9501C116.69 42.6601 116.83 42.4201 117.02 42.2301C117.21 42.0301 117.44 41.8901 117.71 41.7901C117.98 41.6901 118.29 41.6401 118.62 41.6401C118.85 41.6401 119.08 41.6701 119.3 41.7201C119.53 41.7701 119.73 41.8601 119.92 41.9901C120.11 42.1101 120.26 42.2801 120.37 42.4901C120.49 42.7001 120.54 42.9601 120.54 43.2801V46.4501H119.47V45.8001H119.43C119.36 45.9301 119.27 46.0601 119.14 46.1701C119.02 46.2801 118.87 46.3701 118.68 46.4401C118.5 46.5101 118.28 46.5401 118.03 46.5401H118.04ZM118.33 45.7201C118.55 45.7201 118.75 45.6801 118.91 45.5901C119.07 45.5001 119.2 45.3801 119.29 45.2301C119.38 45.0801 119.43 44.9201 119.43 44.7501V44.1901C119.43 44.1901 119.34 44.2501 119.25 44.2701C119.17 44.2901 119.08 44.3201 118.97 44.3301C118.87 44.3501 118.77 44.3601 118.66 44.3801C118.56 44.3901 118.47 44.4101 118.4 44.4201C118.23 44.4401 118.08 44.4801 117.95 44.5301C117.82 44.5801 117.71 44.6501 117.64 44.7501C117.56 44.8401 117.53 44.9601 117.53 45.1001C117.53 45.3101 117.61 45.4601 117.76 45.5701C117.91 45.6701 118.1 45.7301 118.33 45.7301V45.7201ZM122.78 43.6701V46.4501H121.66V41.7101H122.73V42.5201H122.79C122.9 42.2501 123.07 42.0401 123.31 41.8901C123.55 41.7301 123.85 41.6601 124.2 41.6601C124.53 41.6601 124.81 41.7301 125.05 41.8701C125.29 42.0101 125.48 42.2101 125.62 42.4801C125.76 42.7501 125.82 43.0701 125.82 43.4501V46.4701H124.7V43.6201C124.7 43.3001 124.62 43.0601 124.45 42.8801C124.29 42.7001 124.06 42.6101 123.77 42.6101C123.57 42.6101 123.4 42.6501 123.25 42.7401C123.1 42.8201 122.98 42.9501 122.9 43.1101C122.82 43.2701 122.77 43.4601 122.77 43.6901L122.78 43.6701Z" fill="#39404F"/>
<path d="M240.19 124C178.36 72.5 122.93 113.87 102.94 140.99V184.64H334.58V110.79C328.88 136.65 302.02 175.5 240.19 124Z" fill="url(#paint0_linear_713_12421)" fill-opacity="0.8"/>
<path d="M179.51 69.47V94.24" stroke="#B2B8BD" stroke-width="1.5" stroke-linecap="round"/>
<path d="M179.51 101.38C180.521 101.38 181.34 100.561 181.34 99.55C181.34 98.5393 180.521 97.72 179.51 97.72C178.499 97.72 177.68 98.5393 177.68 99.55C177.68 100.561 178.499 101.38 179.51 101.38Z" fill="#39404F"/>
<path d="M179.51 104.85V183.77" stroke="#B2B8BD" stroke-width="1.5" stroke-linecap="round"/>
<path d="M94.6799 60.5601H335.01" stroke="#D4D6DA"/>
<path d="M94.6799 74.04H335.01" stroke="#D4D6DA"/>
<path d="M94.6799 89.25H335.01" stroke="#D4D6DA"/>
<path d="M94.6799 101.42H335.01" stroke="#D4D6DA"/>
<path d="M94.6799 116.19H335.01" stroke="#D4D6DA"/>
<path d="M94.6799 130.1H335.01" stroke="#D4D6DA"/>
<path d="M94.6799 143.14H335.01" stroke="#D4D6DA"/>
<path d="M94.6799 170.95H335.01" stroke="#D4D6DA"/>
<path d="M94.6799 157.04H335.01" stroke="#D4D6DA"/>
<path d="M104.4 193.14H105.02V196.05C105.02 196.31 104.97 196.54 104.86 196.73C104.76 196.92 104.61 197.06 104.42 197.16C104.23 197.26 104.01 197.31 103.76 197.31C103.53 197.31 103.32 197.27 103.14 197.18C102.96 197.1 102.81 196.97 102.7 196.81C102.59 196.65 102.54 196.45 102.54 196.22H103.16C103.16 196.33 103.19 196.43 103.24 196.52C103.29 196.6 103.37 196.67 103.46 196.71C103.55 196.76 103.66 196.78 103.78 196.78C103.91 196.78 104.02 196.75 104.11 196.7C104.2 196.64 104.27 196.56 104.32 196.45C104.37 196.34 104.39 196.21 104.39 196.05V193.14H104.4ZM106.77 197.32C106.57 197.32 106.4 197.28 106.24 197.21C106.08 197.14 105.96 197.03 105.86 196.89C105.77 196.75 105.72 196.58 105.72 196.38C105.72 196.21 105.75 196.06 105.82 195.95C105.89 195.84 105.98 195.75 106.09 195.68C106.2 195.61 106.33 195.56 106.47 195.53C106.61 195.5 106.75 195.47 106.9 195.45C107.08 195.43 107.23 195.41 107.35 195.4C107.47 195.39 107.55 195.36 107.6 195.33C107.65 195.3 107.68 195.25 107.68 195.17C107.68 194.98 107.63 194.84 107.53 194.75C107.43 194.65 107.29 194.61 107.09 194.61C106.89 194.61 106.73 194.65 106.61 194.74C106.5 194.83 106.42 194.93 106.37 195.04L105.81 194.91C105.88 194.72 105.97 194.57 106.1 194.46C106.23 194.34 106.38 194.26 106.55 194.21C106.72 194.16 106.9 194.13 107.08 194.13C107.2 194.13 107.33 194.14 107.47 194.17C107.61 194.2 107.74 194.25 107.86 194.33C107.98 194.41 108.08 194.52 108.16 194.66C108.24 194.8 108.28 194.98 108.28 195.21V197.26H107.69V196.84H107.67C107.63 196.92 107.57 196.99 107.5 197.07C107.42 197.14 107.32 197.21 107.2 197.26C107.08 197.31 106.93 197.33 106.76 197.33L106.77 197.32ZM106.9 196.84C107.07 196.84 107.21 196.81 107.33 196.74C107.45 196.67 107.54 196.59 107.6 196.48C107.66 196.37 107.69 196.26 107.69 196.14V195.74C107.69 195.74 107.63 195.78 107.57 195.8C107.51 195.82 107.44 195.83 107.36 195.85C107.28 195.86 107.21 195.87 107.13 195.88C107.06 195.88 106.99 195.9 106.95 195.9C106.83 195.91 106.73 195.94 106.63 195.97C106.54 196 106.46 196.05 106.4 196.12C106.34 196.18 106.32 196.27 106.32 196.38C106.32 196.53 106.37 196.64 106.48 196.72C106.59 196.8 106.73 196.83 106.9 196.83V196.84ZM109.69 195.42V197.25H109.09V194.17H109.67V194.67H109.71C109.78 194.51 109.89 194.38 110.04 194.28C110.19 194.18 110.38 194.13 110.62 194.13C110.83 194.13 111.01 194.17 111.17 194.26C111.33 194.35 111.45 194.48 111.54 194.65C111.63 194.82 111.67 195.04 111.67 195.29V197.25H111.07V195.36C111.07 195.14 111.01 194.96 110.9 194.84C110.78 194.71 110.62 194.65 110.42 194.65C110.28 194.65 110.16 194.68 110.05 194.74C109.94 194.8 109.86 194.89 109.8 195.01C109.74 195.12 109.71 195.26 109.71 195.43L109.69 195.42Z" fill="#757C86"/>
<path d="M122.57 197.25V193.14H125.12V193.67H123.19V194.92H124.94V195.45H123.19V197.24H122.57V197.25ZM126.93 197.31C126.63 197.31 126.37 197.25 126.15 197.12C125.93 196.99 125.76 196.81 125.64 196.57C125.52 196.33 125.46 196.05 125.46 195.73C125.46 195.41 125.52 195.14 125.64 194.9C125.76 194.66 125.93 194.47 126.14 194.34C126.35 194.2 126.6 194.14 126.89 194.14C127.06 194.14 127.23 194.17 127.4 194.23C127.56 194.29 127.71 194.38 127.84 194.5C127.97 194.62 128.07 194.78 128.15 194.98C128.23 195.18 128.26 195.41 128.26 195.69V195.9H125.81V195.45H127.67C127.67 195.29 127.64 195.15 127.57 195.03C127.51 194.91 127.42 194.81 127.3 194.74C127.19 194.67 127.05 194.63 126.89 194.63C126.72 194.63 126.57 194.67 126.45 194.75C126.33 194.83 126.23 194.94 126.16 195.07C126.09 195.2 126.06 195.34 126.06 195.5V195.85C126.06 196.06 126.1 196.23 126.17 196.38C126.24 196.52 126.35 196.63 126.48 196.71C126.61 196.79 126.76 196.82 126.94 196.82C127.05 196.82 127.16 196.8 127.25 196.77C127.34 196.74 127.42 196.69 127.49 196.62C127.56 196.55 127.61 196.47 127.65 196.38L128.22 196.48C128.17 196.65 128.09 196.79 127.98 196.92C127.86 197.04 127.72 197.14 127.54 197.21C127.36 197.28 127.16 197.31 126.94 197.31H126.93ZM128.97 197.25V193.14H129.57V194.67H129.61C129.64 194.61 129.7 194.53 129.76 194.45C129.83 194.37 129.92 194.29 130.03 194.23C130.15 194.17 130.3 194.13 130.49 194.13C130.74 194.13 130.96 194.19 131.16 194.32C131.36 194.45 131.51 194.63 131.62 194.86C131.73 195.1 131.79 195.38 131.79 195.71C131.79 196.04 131.73 196.33 131.62 196.57C131.51 196.81 131.36 196.99 131.16 197.12C130.97 197.25 130.74 197.31 130.5 197.31C130.31 197.31 130.16 197.28 130.04 197.22C129.92 197.16 129.83 197.08 129.76 197C129.69 196.92 129.64 196.84 129.61 196.78H129.56V197.26H128.97V197.25ZM129.56 195.71C129.56 195.93 129.59 196.12 129.65 196.28C129.71 196.44 129.8 196.57 129.92 196.66C130.04 196.75 130.19 196.8 130.36 196.8C130.53 196.8 130.69 196.75 130.81 196.66C130.93 196.56 131.02 196.43 131.08 196.27C131.14 196.11 131.17 195.92 131.17 195.71C131.17 195.5 131.14 195.32 131.08 195.16C131.02 195 130.93 194.87 130.81 194.78C130.69 194.69 130.54 194.64 130.36 194.64C130.18 194.64 130.04 194.68 129.92 194.77C129.8 194.86 129.71 194.98 129.65 195.15C129.59 195.31 129.56 195.5 129.56 195.71Z" fill="#757C86"/>
<path d="M142.91 193.14H143.66L144.97 196.33H145.02L146.33 193.14H147.08V197.25H146.49V194.28H146.45L145.24 197.25H144.75L143.54 194.28H143.5V197.26H142.91V193.15V193.14ZM148.83 197.32C148.63 197.32 148.46 197.28 148.3 197.21C148.14 197.14 148.02 197.03 147.92 196.89C147.83 196.75 147.78 196.58 147.78 196.38C147.78 196.21 147.81 196.06 147.88 195.95C147.95 195.84 148.04 195.75 148.15 195.68C148.26 195.61 148.39 195.56 148.53 195.53C148.67 195.5 148.81 195.47 148.96 195.45C149.14 195.43 149.29 195.41 149.41 195.4C149.53 195.39 149.61 195.36 149.66 195.33C149.71 195.3 149.74 195.25 149.74 195.17C149.74 194.98 149.69 194.84 149.59 194.75C149.49 194.65 149.35 194.61 149.15 194.61C148.95 194.61 148.79 194.65 148.67 194.74C148.56 194.83 148.48 194.93 148.43 195.04L147.87 194.91C147.94 194.72 148.03 194.57 148.16 194.46C148.29 194.34 148.44 194.26 148.61 194.21C148.78 194.16 148.96 194.13 149.14 194.13C149.26 194.13 149.39 194.14 149.53 194.17C149.67 194.2 149.8 194.25 149.92 194.33C150.04 194.41 150.14 194.52 150.22 194.66C150.3 194.8 150.34 194.98 150.34 195.21V197.26H149.75V196.84H149.73C149.69 196.92 149.63 196.99 149.56 197.07C149.48 197.14 149.38 197.21 149.26 197.26C149.14 197.31 148.99 197.33 148.82 197.33L148.83 197.32ZM148.96 196.84C149.13 196.84 149.27 196.81 149.39 196.74C149.51 196.67 149.6 196.59 149.66 196.48C149.72 196.37 149.75 196.26 149.75 196.14V195.74C149.75 195.74 149.69 195.78 149.63 195.8C149.57 195.82 149.5 195.83 149.42 195.85C149.34 195.86 149.27 195.87 149.19 195.88C149.12 195.88 149.06 195.9 149.01 195.9C148.89 195.91 148.79 195.94 148.69 195.97C148.59 196 148.52 196.05 148.46 196.12C148.4 196.18 148.38 196.27 148.38 196.38C148.38 196.53 148.43 196.64 148.54 196.72C148.65 196.8 148.79 196.83 148.96 196.83V196.84ZM151.15 197.25V194.17H151.73V194.66H151.76C151.82 194.49 151.92 194.36 152.06 194.27C152.2 194.17 152.37 194.13 152.55 194.13C152.59 194.13 152.63 194.13 152.68 194.13C152.73 194.13 152.77 194.13 152.8 194.13V194.7C152.8 194.7 152.73 194.69 152.67 194.68C152.61 194.68 152.55 194.67 152.49 194.67C152.35 194.67 152.22 194.7 152.11 194.76C152 194.82 151.91 194.9 151.85 195.01C151.79 195.11 151.75 195.23 151.75 195.37V197.25H151.15Z" fill="#757C86"/>
<path d="M164.09 197.25H163.43L164.91 193.14H165.63L167.11 197.25H166.45L165.29 193.89H165.26L164.1 197.25H164.09ZM164.2 195.64H166.33V196.16H164.2V195.64ZM167.65 198.4V194.16H168.24V194.66H168.29C168.32 194.6 168.37 194.52 168.44 194.44C168.51 194.36 168.6 194.28 168.71 194.22C168.83 194.16 168.98 194.12 169.17 194.12C169.42 194.12 169.64 194.18 169.84 194.31C170.04 194.44 170.19 194.62 170.3 194.85C170.41 195.09 170.47 195.37 170.47 195.7C170.47 196.03 170.41 196.32 170.3 196.56C170.19 196.8 170.04 196.98 169.84 197.11C169.65 197.24 169.42 197.3 169.18 197.3C168.99 197.3 168.84 197.27 168.72 197.21C168.6 197.15 168.51 197.07 168.44 196.99C168.37 196.91 168.32 196.83 168.29 196.77H168.25V198.4H167.65ZM168.24 195.7C168.24 195.92 168.27 196.11 168.33 196.27C168.39 196.43 168.48 196.56 168.6 196.65C168.72 196.74 168.86 196.79 169.04 196.79C169.22 196.79 169.37 196.74 169.49 196.65C169.61 196.55 169.7 196.42 169.76 196.26C169.82 196.1 169.85 195.91 169.85 195.7C169.85 195.49 169.82 195.31 169.76 195.15C169.7 194.99 169.61 194.86 169.49 194.77C169.37 194.68 169.22 194.63 169.04 194.63C168.86 194.63 168.72 194.67 168.6 194.76C168.48 194.85 168.39 194.97 168.33 195.14C168.27 195.3 168.24 195.49 168.24 195.7ZM171.14 197.24V194.16H171.72V194.65H171.75C171.81 194.48 171.91 194.35 172.05 194.26C172.19 194.16 172.36 194.12 172.54 194.12C172.58 194.12 172.62 194.12 172.67 194.12C172.72 194.12 172.76 194.12 172.79 194.12V194.69C172.79 194.69 172.72 194.68 172.66 194.67C172.6 194.67 172.54 194.66 172.48 194.66C172.34 194.66 172.21 194.69 172.1 194.75C171.99 194.81 171.9 194.89 171.84 195C171.78 195.1 171.74 195.22 171.74 195.36V197.24H171.14Z" fill="#757C86"/>
<path d="M183.56 193.14H184.31L185.62 196.33H185.67L186.98 193.14H187.73V197.25H187.14V194.28H187.1L185.89 197.25H185.4L184.19 194.28H184.15V197.26H183.56V193.15V193.14ZM189.91 197.31C189.61 197.31 189.35 197.25 189.13 197.12C188.91 196.99 188.74 196.81 188.62 196.57C188.5 196.33 188.44 196.05 188.44 195.73C188.44 195.41 188.5 195.14 188.62 194.9C188.74 194.66 188.91 194.47 189.12 194.34C189.33 194.2 189.58 194.14 189.87 194.14C190.04 194.14 190.21 194.17 190.38 194.23C190.54 194.29 190.69 194.38 190.82 194.5C190.95 194.62 191.05 194.78 191.13 194.98C191.2 195.18 191.24 195.41 191.24 195.69V195.9H188.79V195.45H190.65C190.65 195.29 190.62 195.15 190.55 195.03C190.49 194.91 190.4 194.81 190.28 194.74C190.16 194.67 190.03 194.63 189.87 194.63C189.7 194.63 189.55 194.67 189.43 194.75C189.31 194.83 189.21 194.94 189.14 195.07C189.07 195.2 189.04 195.34 189.04 195.5V195.85C189.04 196.06 189.08 196.23 189.15 196.38C189.22 196.52 189.33 196.63 189.46 196.71C189.59 196.79 189.74 196.82 189.92 196.82C190.03 196.82 190.14 196.8 190.23 196.77C190.32 196.74 190.4 196.69 190.47 196.62C190.54 196.55 190.59 196.47 190.63 196.38L191.2 196.48C191.15 196.65 191.07 196.79 190.96 196.92C190.84 197.04 190.7 197.14 190.52 197.21C190.34 197.28 190.14 197.31 189.92 197.31H189.91ZM191.9 197.25V194.17H192.5V197.25H191.9ZM192.2 193.69C192.1 193.69 192.01 193.66 191.93 193.59C191.86 193.52 191.82 193.43 191.82 193.34C191.82 193.25 191.86 193.16 191.93 193.09C192 193.02 192.09 192.98 192.2 192.98C192.31 192.98 192.39 193.02 192.47 193.09C192.54 193.16 192.58 193.24 192.58 193.34C192.58 193.44 192.54 193.52 192.47 193.59C192.4 193.66 192.31 193.69 192.2 193.69Z" fill="#757C86"/>
<path d="M205.08 193.14H205.7V196.05C205.7 196.31 205.65 196.54 205.54 196.73C205.44 196.92 205.29 197.06 205.1 197.16C204.91 197.26 204.69 197.31 204.44 197.31C204.21 197.31 204 197.27 203.82 197.18C203.64 197.1 203.49 196.97 203.38 196.81C203.27 196.65 203.22 196.45 203.22 196.22H203.84C203.84 196.33 203.87 196.43 203.92 196.52C203.97 196.6 204.05 196.67 204.14 196.71C204.23 196.76 204.34 196.78 204.46 196.78C204.59 196.78 204.7 196.75 204.79 196.7C204.88 196.64 204.95 196.56 205 196.45C205.05 196.34 205.07 196.21 205.07 196.05V193.14H205.08ZM208.5 195.97V194.17H209.1V197.25H208.51V196.72H208.48C208.41 196.88 208.3 197.02 208.14 197.13C207.98 197.24 207.79 197.29 207.56 197.29C207.36 197.29 207.19 197.25 207.03 197.16C206.88 197.07 206.76 196.94 206.67 196.77C206.58 196.6 206.54 196.38 206.54 196.13V194.17H207.14V196.06C207.14 196.27 207.2 196.44 207.31 196.56C207.43 196.68 207.58 196.75 207.76 196.75C207.87 196.75 207.98 196.72 208.1 196.67C208.21 196.61 208.31 196.53 208.38 196.41C208.45 196.3 208.49 196.15 208.49 195.98L208.5 195.97ZM210.51 195.42V197.25H209.91V194.17H210.49V194.67H210.53C210.6 194.51 210.71 194.38 210.86 194.28C211.01 194.18 211.2 194.13 211.44 194.13C211.65 194.13 211.83 194.17 211.99 194.26C212.15 194.35 212.27 194.48 212.36 194.65C212.45 194.82 212.49 195.04 212.49 195.29V197.25H211.89V195.36C211.89 195.14 211.83 194.96 211.72 194.84C211.6 194.71 211.44 194.65 211.24 194.65C211.1 194.65 210.98 194.68 210.87 194.74C210.76 194.8 210.68 194.89 210.62 195.01C210.56 195.12 210.53 195.26 210.53 195.43L210.51 195.42Z" fill="#757C86"/>
<path d="M225.31 193.14H225.93V196.05C225.93 196.31 225.88 196.54 225.77 196.73C225.67 196.92 225.52 197.06 225.33 197.16C225.14 197.26 224.92 197.31 224.67 197.31C224.44 197.31 224.23 197.27 224.05 197.18C223.87 197.1 223.72 196.97 223.61 196.81C223.5 196.65 223.45 196.45 223.45 196.22H224.07C224.07 196.33 224.1 196.43 224.15 196.52C224.2 196.6 224.28 196.67 224.37 196.71C224.46 196.76 224.57 196.78 224.69 196.78C224.82 196.78 224.93 196.75 225.02 196.7C225.11 196.64 225.18 196.56 225.23 196.45C225.28 196.34 225.3 196.21 225.3 196.05V193.14H225.31ZM228.73 195.97V194.17H229.33V197.25H228.74V196.72H228.71C228.64 196.88 228.53 197.02 228.37 197.13C228.21 197.24 228.02 197.29 227.79 197.29C227.59 197.29 227.42 197.25 227.26 197.16C227.11 197.07 226.99 196.94 226.9 196.77C226.81 196.6 226.77 196.38 226.77 196.13V194.17H227.37V196.06C227.37 196.27 227.43 196.44 227.54 196.56C227.66 196.68 227.81 196.75 227.99 196.75C228.1 196.75 228.21 196.72 228.33 196.67C228.44 196.61 228.54 196.53 228.61 196.41C228.68 196.3 228.72 196.15 228.72 195.98L228.73 195.97ZM230.74 193.14V197.25H230.14V193.14H230.74Z" fill="#757C86"/>
<path d="M242.05 197.25H241.39L242.87 193.14H243.59L245.07 197.25H244.41L243.25 193.89H243.22L242.06 197.25H242.05ZM242.16 195.64H244.29V196.16H242.16V195.64ZM246.85 198.47C246.61 198.47 246.39 198.44 246.22 198.37C246.04 198.31 245.9 198.22 245.79 198.12C245.68 198.01 245.6 197.9 245.54 197.77L246.06 197.56C246.1 197.62 246.14 197.68 246.2 197.75C246.26 197.82 246.34 197.87 246.45 197.92C246.56 197.97 246.69 197.99 246.86 197.99C247.09 197.99 247.28 197.93 247.42 197.82C247.57 197.71 247.64 197.54 247.64 197.29V196.68H247.6C247.56 196.75 247.51 196.82 247.44 196.9C247.37 196.98 247.28 197.05 247.16 197.11C247.04 197.17 246.89 197.2 246.7 197.2C246.46 197.2 246.24 197.14 246.04 197.03C245.85 196.92 245.69 196.75 245.58 196.52C245.47 196.3 245.41 196.02 245.41 195.69C245.41 195.36 245.47 195.08 245.58 194.85C245.69 194.62 245.85 194.44 246.04 194.31C246.24 194.18 246.46 194.12 246.7 194.12C246.89 194.12 247.05 194.15 247.16 194.22C247.28 194.28 247.37 194.36 247.44 194.44C247.51 194.52 247.56 194.6 247.59 194.66H247.63V194.16H248.22V197.31C248.22 197.57 248.16 197.79 248.04 197.96C247.92 198.13 247.75 198.26 247.54 198.34C247.33 198.42 247.1 198.46 246.83 198.46L246.85 198.47ZM246.85 196.71C247.02 196.71 247.17 196.67 247.29 196.59C247.41 196.51 247.5 196.39 247.56 196.24C247.62 196.09 247.65 195.9 247.65 195.69C247.65 195.48 247.62 195.3 247.56 195.14C247.5 194.98 247.41 194.86 247.29 194.77C247.17 194.68 247.02 194.64 246.85 194.64C246.68 194.64 246.52 194.69 246.4 194.78C246.28 194.87 246.19 195 246.13 195.16C246.07 195.32 246.04 195.5 246.04 195.69C246.04 195.88 246.07 196.07 246.13 196.22C246.19 196.37 246.28 196.49 246.4 196.58C246.52 196.67 246.67 196.71 246.85 196.71ZM251 195.98V194.18H251.6V197.26H251.01V196.73H250.98C250.91 196.89 250.8 197.03 250.64 197.14C250.48 197.25 250.29 197.3 250.06 197.3C249.86 197.3 249.69 197.26 249.53 197.17C249.38 197.08 249.26 196.95 249.17 196.78C249.08 196.61 249.04 196.39 249.04 196.14V194.18H249.64V196.07C249.64 196.28 249.7 196.45 249.81 196.57C249.93 196.69 250.08 196.76 250.26 196.76C250.37 196.76 250.48 196.73 250.6 196.68C250.71 196.62 250.81 196.54 250.88 196.42C250.96 196.31 250.99 196.16 250.99 195.99L251 195.98Z" fill="#757C86"/>
<path d="M265.12 194.22C265.1 194.03 265.01 193.88 264.85 193.78C264.69 193.67 264.5 193.62 264.26 193.62C264.09 193.62 263.95 193.65 263.82 193.7C263.7 193.75 263.6 193.82 263.53 193.92C263.46 194.01 263.43 194.11 263.43 194.23C263.43 194.33 263.45 194.41 263.5 194.48C263.55 194.55 263.61 194.61 263.68 194.66C263.76 194.71 263.84 194.75 263.92 194.78C264.01 194.81 264.09 194.84 264.17 194.86L264.57 194.96C264.7 194.99 264.84 195.04 264.97 195.09C265.11 195.14 265.24 195.22 265.35 195.31C265.47 195.4 265.56 195.51 265.64 195.64C265.71 195.77 265.75 195.93 265.75 196.12C265.75 196.35 265.69 196.56 265.57 196.74C265.45 196.92 265.28 197.06 265.05 197.17C264.82 197.27 264.55 197.33 264.23 197.33C263.91 197.33 263.66 197.28 263.43 197.18C263.2 197.08 263.03 196.94 262.9 196.76C262.77 196.58 262.7 196.37 262.69 196.12H263.31C263.32 196.27 263.37 196.39 263.45 196.49C263.54 196.59 263.64 196.66 263.78 196.71C263.91 196.76 264.06 196.78 264.22 196.78C264.4 196.78 264.55 196.75 264.69 196.7C264.83 196.64 264.94 196.57 265.02 196.47C265.1 196.37 265.14 196.25 265.14 196.12C265.14 196 265.11 195.9 265.04 195.82C264.97 195.74 264.88 195.68 264.76 195.63C264.64 195.58 264.51 195.53 264.36 195.5L263.87 195.37C263.54 195.28 263.28 195.15 263.09 194.97C262.9 194.8 262.8 194.57 262.8 194.28C262.8 194.04 262.86 193.84 262.99 193.66C263.12 193.48 263.29 193.35 263.51 193.25C263.73 193.15 263.98 193.1 264.25 193.1C264.52 193.1 264.77 193.15 264.99 193.25C265.2 193.35 265.37 193.48 265.5 193.65C265.62 193.82 265.69 194.02 265.69 194.24H265.09L265.12 194.22ZM267.79 197.31C267.49 197.31 267.22 197.25 267.01 197.12C266.79 196.99 266.62 196.81 266.5 196.57C266.38 196.33 266.32 196.05 266.32 195.73C266.32 195.41 266.38 195.14 266.5 194.9C266.62 194.66 266.79 194.47 267 194.34C267.21 194.2 267.46 194.14 267.75 194.14C267.92 194.14 268.09 194.17 268.26 194.23C268.42 194.29 268.57 194.38 268.7 194.5C268.83 194.62 268.93 194.78 269.01 194.98C269.09 195.18 269.12 195.41 269.12 195.69V195.9H266.67V195.45H268.53C268.53 195.29 268.5 195.15 268.43 195.03C268.37 194.91 268.28 194.81 268.16 194.74C268.04 194.67 267.91 194.63 267.75 194.63C267.58 194.63 267.43 194.67 267.31 194.75C267.19 194.83 267.09 194.94 267.02 195.07C266.95 195.2 266.92 195.34 266.92 195.5V195.85C266.92 196.06 266.96 196.23 267.03 196.38C267.1 196.52 267.21 196.63 267.34 196.71C267.47 196.79 267.62 196.82 267.8 196.82C267.91 196.82 268.02 196.8 268.11 196.77C268.2 196.74 268.28 196.69 268.35 196.62C268.42 196.55 268.47 196.47 268.51 196.38L269.08 196.48C269.03 196.65 268.95 196.79 268.84 196.92C268.72 197.04 268.58 197.14 268.4 197.21C268.22 197.28 268.02 197.31 267.8 197.31H267.79ZM269.78 198.4V194.16H270.37V194.66H270.42C270.45 194.6 270.5 194.52 270.57 194.44C270.64 194.36 270.73 194.28 270.84 194.22C270.96 194.16 271.11 194.12 271.3 194.12C271.55 194.12 271.77 194.18 271.97 194.31C272.17 194.44 272.32 194.62 272.43 194.85C272.54 195.09 272.6 195.37 272.6 195.7C272.6 196.03 272.54 196.32 272.43 196.56C272.32 196.8 272.17 196.98 271.97 197.11C271.78 197.24 271.55 197.3 271.31 197.3C271.12 197.3 270.97 197.27 270.85 197.21C270.73 197.15 270.64 197.07 270.57 196.99C270.5 196.91 270.45 196.83 270.42 196.77H270.38V198.4H269.78ZM270.37 195.7C270.37 195.92 270.4 196.11 270.46 196.27C270.52 196.43 270.61 196.56 270.73 196.65C270.85 196.74 270.99 196.79 271.17 196.79C271.35 196.79 271.5 196.74 271.62 196.65C271.74 196.55 271.83 196.42 271.89 196.26C271.95 196.1 271.98 195.91 271.98 195.7C271.98 195.49 271.95 195.31 271.89 195.15C271.83 194.99 271.74 194.86 271.62 194.77C271.5 194.68 271.35 194.63 271.17 194.63C270.99 194.63 270.85 194.67 270.73 194.76C270.61 194.85 270.52 194.97 270.46 195.14C270.4 195.3 270.37 195.49 270.37 195.7Z" fill="#757C86"/>
<path d="M287.29 195.19C287.29 195.63 287.21 196.01 287.05 196.32C286.89 196.63 286.67 196.88 286.39 197.05C286.11 197.22 285.8 197.3 285.44 197.3C285.08 197.3 284.77 197.22 284.49 197.05C284.21 196.88 283.99 196.64 283.83 196.32C283.67 196 283.59 195.63 283.59 195.19C283.59 194.75 283.67 194.37 283.83 194.06C283.99 193.74 284.21 193.5 284.49 193.33C284.77 193.16 285.09 193.08 285.44 193.08C285.79 193.08 286.11 193.17 286.39 193.33C286.67 193.5 286.89 193.74 287.05 194.06C287.21 194.37 287.29 194.75 287.29 195.19ZM286.68 195.19C286.68 194.86 286.63 194.57 286.52 194.35C286.41 194.12 286.27 193.95 286.08 193.83C285.89 193.71 285.68 193.65 285.45 193.65C285.22 193.65 285 193.71 284.82 193.83C284.63 193.95 284.49 194.12 284.38 194.35C284.27 194.58 284.22 194.86 284.22 195.19C284.22 195.52 284.27 195.81 284.38 196.04C284.49 196.27 284.64 196.44 284.82 196.56C285.01 196.68 285.22 196.74 285.45 196.74C285.68 196.74 285.9 196.68 286.08 196.56C286.27 196.44 286.41 196.27 286.52 196.04C286.63 195.81 286.68 195.53 286.68 195.19ZM288.57 196.2V195.47H288.67L289.9 194.17H290.62L289.22 195.65H289.13L288.58 196.2H288.57ZM288.02 197.25V193.14H288.62V197.25H288.02ZM289.97 197.25L288.87 195.79L289.28 195.37L290.71 197.25H289.97ZM292.61 194.17V194.65H290.93V194.17H292.61ZM291.38 193.43H291.98V196.35C291.98 196.47 292 196.55 292.03 196.61C292.06 196.67 292.11 196.71 292.16 196.73C292.22 196.75 292.28 196.76 292.34 196.76C292.39 196.76 292.43 196.76 292.47 196.75C292.51 196.75 292.53 196.74 292.55 196.73L292.66 197.23C292.66 197.23 292.58 197.26 292.51 197.27C292.45 197.28 292.37 197.29 292.27 197.29C292.11 197.29 291.96 197.26 291.83 197.21C291.69 197.15 291.58 197.06 291.5 196.94C291.42 196.82 291.37 196.66 291.37 196.48V193.44L291.38 193.43Z" fill="#757C86"/>
<path d="M306.76 193.14V197.25H306.19L304.1 194.24H304.06V197.25H303.44V193.14H304.01L306.1 196.16H306.14V193.14H306.75H306.76ZM308.91 197.31C308.62 197.31 308.37 197.24 308.15 197.11C307.93 196.98 307.77 196.79 307.65 196.55C307.53 196.31 307.47 196.03 307.47 195.72C307.47 195.41 307.53 195.12 307.65 194.88C307.77 194.64 307.94 194.45 308.15 194.32C308.37 194.19 308.62 194.12 308.91 194.12C309.2 194.12 309.45 194.19 309.67 194.32C309.89 194.45 310.05 194.64 310.17 194.88C310.29 195.12 310.35 195.4 310.35 195.72C310.35 196.04 310.29 196.32 310.17 196.55C310.05 196.79 309.88 196.97 309.67 197.11C309.45 197.24 309.2 197.31 308.91 197.31ZM308.91 196.81C309.1 196.81 309.25 196.76 309.38 196.66C309.5 196.56 309.59 196.43 309.65 196.26C309.71 196.1 309.74 195.91 309.74 195.72C309.74 195.53 309.71 195.34 309.65 195.18C309.59 195.01 309.5 194.88 309.38 194.78C309.26 194.68 309.1 194.63 308.91 194.63C308.72 194.63 308.56 194.68 308.44 194.78C308.32 194.88 308.23 195.01 308.17 195.18C308.11 195.34 308.08 195.53 308.08 195.72C308.08 195.91 308.11 196.1 308.17 196.26C308.23 196.42 308.32 196.56 308.44 196.66C308.56 196.76 308.72 196.81 308.91 196.81ZM313.55 194.17L312.43 197.25H311.79L310.67 194.17H311.31L312.09 196.54H312.12L312.9 194.17H313.54H313.55Z" fill="#757C86"/>
<path d="M325.5 197.25H324.17V193.14H325.54C325.94 193.14 326.29 193.22 326.58 193.39C326.87 193.55 327.09 193.79 327.24 194.09C327.4 194.39 327.47 194.76 327.47 195.19C327.47 195.62 327.39 195.99 327.24 196.29C327.08 196.6 326.86 196.83 326.57 197C326.28 197.16 325.92 197.25 325.5 197.25ZM324.79 196.71H325.47C325.78 196.71 326.04 196.65 326.25 196.53C326.46 196.41 326.61 196.24 326.72 196.01C326.82 195.78 326.87 195.51 326.87 195.18C326.87 194.85 326.82 194.58 326.72 194.36C326.62 194.14 326.47 193.96 326.26 193.85C326.06 193.73 325.81 193.68 325.51 193.68H324.8V196.71H324.79ZM329.53 197.31C329.23 197.31 328.97 197.25 328.75 197.12C328.53 196.99 328.36 196.81 328.24 196.57C328.12 196.33 328.06 196.05 328.06 195.73C328.06 195.41 328.12 195.14 328.24 194.9C328.36 194.66 328.53 194.47 328.74 194.34C328.95 194.2 329.2 194.14 329.49 194.14C329.66 194.14 329.83 194.17 330 194.23C330.16 194.29 330.31 194.38 330.44 194.5C330.57 194.62 330.67 194.78 330.75 194.98C330.82 195.18 330.86 195.41 330.86 195.69V195.9H328.41V195.45H330.27C330.27 195.29 330.24 195.15 330.17 195.03C330.11 194.91 330.02 194.81 329.9 194.74C329.79 194.67 329.65 194.63 329.49 194.63C329.32 194.63 329.17 194.67 329.05 194.75C328.93 194.83 328.83 194.94 328.76 195.07C328.69 195.2 328.66 195.34 328.66 195.5V195.85C328.66 196.06 328.7 196.23 328.77 196.38C328.84 196.52 328.95 196.63 329.08 196.71C329.21 196.79 329.36 196.82 329.54 196.82C329.65 196.82 329.76 196.8 329.85 196.77C329.94 196.74 330.02 196.69 330.09 196.62C330.16 196.55 330.21 196.47 330.25 196.38L330.82 196.48C330.77 196.65 330.69 196.79 330.58 196.92C330.46 197.04 330.32 197.14 330.14 197.21C329.96 197.28 329.76 197.31 329.54 197.31H329.53ZM333.83 194.92L333.29 195.02C333.27 194.95 333.23 194.88 333.18 194.82C333.13 194.76 333.07 194.71 332.98 194.67C332.9 194.63 332.79 194.61 332.67 194.61C332.5 194.61 332.36 194.65 332.24 194.72C332.13 194.79 332.07 194.89 332.07 195.01C332.07 195.11 332.11 195.2 332.18 195.26C332.26 195.32 332.38 195.37 332.55 195.41L333.04 195.52C333.32 195.59 333.53 195.69 333.67 195.82C333.81 195.95 333.88 196.13 333.88 196.35C333.88 196.53 333.83 196.7 333.72 196.84C333.61 196.98 333.47 197.1 333.28 197.18C333.09 197.26 332.87 197.3 332.62 197.3C332.27 197.3 331.99 197.23 331.78 197.08C331.56 196.93 331.43 196.72 331.38 196.45L331.96 196.36C332 196.51 332.07 196.63 332.18 196.7C332.29 196.78 332.44 196.81 332.62 196.81C332.82 196.81 332.97 196.77 333.09 196.69C333.21 196.61 333.27 196.51 333.27 196.39C333.27 196.29 333.23 196.21 333.16 196.15C333.09 196.08 332.98 196.04 332.83 196L332.31 195.89C332.02 195.82 331.81 195.72 331.67 195.58C331.53 195.44 331.47 195.26 331.47 195.04C331.47 194.86 331.52 194.7 331.62 194.56C331.72 194.42 331.86 194.32 332.04 194.24C332.22 194.16 332.42 194.12 332.66 194.12C332.99 194.12 333.25 194.19 333.45 194.34C333.64 194.48 333.77 194.68 333.83 194.92Z" fill="#757C86"/>
<path d="M72.86 63.01C72.61 63.01 72.38 62.96 72.18 62.87C71.98 62.77 71.82 62.64 71.7 62.47C71.58 62.3 71.52 62.11 71.51 61.89H72.11C72.12 62.07 72.2 62.21 72.34 62.33C72.48 62.44 72.65 62.5 72.85 62.5C73.01 62.5 73.15 62.46 73.27 62.39C73.39 62.32 73.49 62.22 73.56 62.09C73.63 61.96 73.67 61.82 73.67 61.65C73.67 61.48 73.63 61.33 73.56 61.2C73.49 61.07 73.39 60.97 73.26 60.89C73.13 60.82 72.99 60.78 72.83 60.78C72.71 60.78 72.58 60.8 72.45 60.84C72.32 60.88 72.22 60.94 72.15 61.01L71.58 60.93L71.81 58.86H74.07V59.39H72.33L72.2 60.54H72.22C72.3 60.46 72.41 60.4 72.54 60.35C72.67 60.3 72.82 60.27 72.97 60.27C73.22 60.27 73.44 60.33 73.64 60.45C73.84 60.57 73.99 60.73 74.1 60.94C74.21 61.14 74.27 61.38 74.27 61.65C74.27 61.92 74.21 62.15 74.09 62.36C73.97 62.57 73.8 62.73 73.59 62.85C73.38 62.97 73.13 63.03 72.86 63.03V63.01ZM76.44 63.02C76.12 63.02 75.85 62.94 75.63 62.77C75.41 62.6 75.23 62.36 75.11 62.05C74.99 61.73 74.93 61.35 74.93 60.9C74.93 60.45 74.99 60.07 75.11 59.76C75.23 59.44 75.4 59.2 75.63 59.04C75.86 58.87 76.13 58.79 76.44 58.79C76.75 58.79 77.02 58.87 77.25 59.04C77.47 59.21 77.65 59.45 77.77 59.76C77.89 60.07 77.95 60.45 77.95 60.9C77.95 61.35 77.89 61.73 77.77 62.05C77.65 62.37 77.48 62.61 77.25 62.77C77.03 62.94 76.76 63.02 76.44 63.02ZM76.44 62.48C76.72 62.48 76.94 62.34 77.09 62.07C77.25 61.8 77.33 61.41 77.33 60.89C77.33 60.55 77.29 60.26 77.22 60.03C77.15 59.79 77.05 59.61 76.91 59.49C76.78 59.37 76.62 59.31 76.44 59.31C76.16 59.31 75.95 59.45 75.79 59.72C75.63 59.99 75.55 60.39 75.55 60.9C75.55 61.24 75.59 61.53 75.66 61.77C75.73 62.01 75.83 62.18 75.97 62.31C76.1 62.43 76.26 62.49 76.45 62.49L76.44 62.48ZM80.09 63.02C79.77 63.02 79.5 62.94 79.28 62.77C79.06 62.6 78.88 62.36 78.76 62.05C78.64 61.73 78.58 61.35 78.58 60.9C78.58 60.45 78.64 60.07 78.76 59.76C78.88 59.44 79.05 59.2 79.28 59.04C79.51 58.87 79.78 58.79 80.09 58.79C80.4 58.79 80.67 58.87 80.9 59.04C81.12 59.21 81.3 59.45 81.42 59.76C81.54 60.07 81.6 60.45 81.6 60.9C81.6 61.35 81.54 61.73 81.42 62.05C81.3 62.37 81.13 62.61 80.9 62.77C80.68 62.94 80.41 63.02 80.09 63.02ZM80.09 62.48C80.37 62.48 80.59 62.34 80.74 62.07C80.9 61.8 80.98 61.41 80.98 60.89C80.98 60.55 80.94 60.26 80.87 60.03C80.8 59.79 80.7 59.61 80.56 59.49C80.43 59.37 80.27 59.31 80.09 59.31C79.81 59.31 79.6 59.45 79.44 59.72C79.28 59.99 79.2 60.39 79.2 60.9C79.2 61.24 79.24 61.53 79.31 61.77C79.38 62.01 79.48 62.18 79.62 62.31C79.75 62.43 79.91 62.49 80.1 62.49L80.09 62.48ZM83.74 63.02C83.42 63.02 83.15 62.94 82.93 62.77C82.71 62.6 82.53 62.36 82.41 62.05C82.29 61.73 82.23 61.35 82.23 60.9C82.23 60.45 82.29 60.07 82.41 59.76C82.53 59.44 82.7 59.2 82.93 59.04C83.16 58.87 83.43 58.79 83.74 58.79C84.05 58.79 84.32 58.87 84.55 59.04C84.77 59.21 84.95 59.45 85.07 59.76C85.19 60.07 85.25 60.45 85.25 60.9C85.25 61.35 85.19 61.73 85.07 62.05C84.95 62.37 84.78 62.61 84.55 62.77C84.33 62.94 84.06 63.02 83.74 63.02ZM83.74 62.48C84.02 62.48 84.24 62.34 84.39 62.07C84.55 61.8 84.63 61.41 84.63 60.89C84.63 60.55 84.59 60.26 84.52 60.03C84.45 59.79 84.35 59.61 84.21 59.49C84.08 59.37 83.92 59.31 83.74 59.31C83.46 59.31 83.25 59.45 83.09 59.72C82.93 59.99 82.85 60.39 82.85 60.9C82.85 61.24 82.89 61.53 82.96 61.77C83.03 62.01 83.13 62.18 83.27 62.31C83.4 62.43 83.56 62.49 83.75 62.49L83.74 62.48Z" fill="#757C86"/>
<path d="M72.8001 76.9199C72.5201 76.9199 72.2801 76.8699 72.0601 76.7799C71.8401 76.6899 71.6701 76.5499 71.5501 76.3799C71.4301 76.2099 71.3601 76.0099 71.3501 75.7899H71.9801C71.9801 75.9099 72.0301 76.0199 72.1001 76.1099C72.1701 76.1999 72.2701 76.2699 72.3901 76.3099C72.5101 76.3599 72.6401 76.3799 72.7901 76.3799C72.9501 76.3799 73.0901 76.3499 73.2201 76.2999C73.3501 76.2399 73.4401 76.1699 73.5101 76.0699C73.5801 75.9699 73.6201 75.8499 73.6201 75.7199C73.6201 75.5899 73.5801 75.4599 73.5101 75.3599C73.4401 75.2499 73.3401 75.1699 73.2001 75.1099C73.0701 75.0499 72.9001 75.0199 72.7101 75.0199H72.3601V74.5099H72.7101C72.8601 74.5099 73.0001 74.4799 73.1101 74.4299C73.2301 74.3799 73.3201 74.2999 73.3801 74.1999C73.4501 74.0999 73.4801 73.9899 73.4801 73.8499C73.4801 73.7099 73.4501 73.6099 73.3901 73.5199C73.3301 73.4299 73.2501 73.3499 73.1501 73.2999C73.0501 73.2499 72.9301 73.2199 72.7801 73.2199C72.6301 73.2199 72.5201 73.2399 72.4001 73.2899C72.2801 73.3399 72.1901 73.4099 72.1201 73.4999C72.0501 73.5899 72.0101 73.6999 72.0001 73.8199H71.4001C71.4001 73.5999 71.4701 73.3999 71.6001 73.2299C71.7301 73.0599 71.8901 72.9299 72.1001 72.8299C72.3101 72.7299 72.5301 72.6899 72.7901 72.6899C73.0501 72.6899 73.2801 72.7399 73.4701 72.8399C73.6601 72.9399 73.8101 73.0799 73.9201 73.2499C74.0301 73.4199 74.0801 73.6099 74.0801 73.8099C74.0801 74.0399 74.0201 74.2399 73.8901 74.3999C73.7601 74.5599 73.5901 74.6699 73.3801 74.7199V74.7499C73.6501 74.7899 73.8601 74.8999 74.0101 75.0799C74.1601 75.2599 74.2401 75.4699 74.2301 75.7299C74.2301 75.9599 74.1701 76.1599 74.0401 76.3399C73.9101 76.5199 73.7401 76.6599 73.5201 76.7599C73.3001 76.8599 73.0501 76.9099 72.7701 76.9099L72.8001 76.9199ZM76.4401 76.9299C76.1201 76.9299 75.8501 76.8499 75.6301 76.6799C75.4101 76.5099 75.2301 76.2699 75.1101 75.9599C74.9901 75.6399 74.9301 75.2599 74.9301 74.8099C74.9301 74.3599 74.9901 73.9799 75.1101 73.6699C75.2301 73.3499 75.4001 73.1099 75.6301 72.9499C75.8601 72.7799 76.1301 72.6999 76.4401 72.6999C76.7501 72.6999 77.0201 72.7799 77.2501 72.9499C77.4701 73.1199 77.6501 73.3599 77.7701 73.6699C77.8901 73.9799 77.9501 74.3599 77.9501 74.8099C77.9501 75.2599 77.8901 75.6399 77.7701 75.9599C77.6501 76.2799 77.4801 76.5199 77.2501 76.6799C77.0301 76.8499 76.7601 76.9299 76.4401 76.9299ZM76.4401 76.3899C76.7201 76.3899 76.9401 76.2499 77.0901 75.9799C77.2501 75.7099 77.3301 75.3199 77.3301 74.7999C77.3301 74.4599 77.2901 74.1699 77.2201 73.9399C77.1501 73.6999 77.0501 73.5199 76.9101 73.3999C76.7801 73.2799 76.6201 73.2199 76.4401 73.2199C76.1601 73.2199 75.9501 73.3599 75.7901 73.6299C75.6301 73.8999 75.5501 74.2999 75.5501 74.8099C75.5501 75.1499 75.5901 75.4399 75.6601 75.6799C75.7301 75.9199 75.8301 76.0899 75.9701 76.2199C76.1001 76.3399 76.2601 76.3999 76.4501 76.3999L76.4401 76.3899ZM80.0901 76.9299C79.7701 76.9299 79.5001 76.8499 79.2801 76.6799C79.0601 76.5099 78.8801 76.2699 78.7601 75.9599C78.6401 75.6399 78.5801 75.2599 78.5801 74.8099C78.5801 74.3599 78.6401 73.9799 78.7601 73.6699C78.8801 73.3499 79.0501 73.1099 79.2801 72.9499C79.5101 72.7799 79.7801 72.6999 80.0901 72.6999C80.4001 72.6999 80.6701 72.7799 80.9001 72.9499C81.1201 73.1199 81.3001 73.3599 81.4201 73.6699C81.5401 73.9799 81.6001 74.3599 81.6001 74.8099C81.6001 75.2599 81.5401 75.6399 81.4201 75.9599C81.3001 76.2799 81.1301 76.5199 80.9001 76.6799C80.6801 76.8499 80.4101 76.9299 80.0901 76.9299ZM80.0901 76.3899C80.3701 76.3899 80.5901 76.2499 80.7401 75.9799C80.9001 75.7099 80.9801 75.3199 80.9801 74.7999C80.9801 74.4599 80.9401 74.1699 80.8701 73.9399C80.8001 73.6999 80.7001 73.5199 80.5601 73.3999C80.4301 73.2799 80.2701 73.2199 80.0901 73.2199C79.8101 73.2199 79.6001 73.3599 79.4401 73.6299C79.2801 73.8999 79.2001 74.2999 79.2001 74.8099C79.2001 75.1499 79.2401 75.4399 79.3101 75.6799C79.3801 75.9199 79.4801 76.0899 79.6201 76.2199C79.7501 76.3399 79.9101 76.3999 80.1001 76.3999L80.0901 76.3899ZM83.7401 76.9299C83.4201 76.9299 83.1501 76.8499 82.9301 76.6799C82.7101 76.5099 82.5301 76.2699 82.4101 75.9599C82.2901 75.6399 82.2301 75.2599 82.2301 74.8099C82.2301 74.3599 82.2901 73.9799 82.4101 73.6699C82.5301 73.3499 82.7001 73.1099 82.9301 72.9499C83.1601 72.7799 83.4301 72.6999 83.7401 72.6999C84.0501 72.6999 84.3201 72.7799 84.5501 72.9499C84.7701 73.1199 84.9501 73.3599 85.0701 73.6699C85.1901 73.9799 85.2501 74.3599 85.2501 74.8099C85.2501 75.2599 85.1901 75.6399 85.0701 75.9599C84.9501 76.2799 84.7801 76.5199 84.5501 76.6799C84.3301 76.8499 84.0601 76.9299 83.7401 76.9299ZM83.7401 76.3899C84.0201 76.3899 84.2401 76.2499 84.3901 75.9799C84.5501 75.7099 84.6301 75.3199 84.6301 74.7999C84.6301 74.4599 84.5901 74.1699 84.5201 73.9399C84.4501 73.6999 84.3501 73.5199 84.2101 73.3999C84.0801 73.2799 83.9201 73.2199 83.7401 73.2199C83.4601 73.2199 83.2501 73.3599 83.0901 73.6299C82.9301 73.8999 82.8501 74.2999 82.8501 74.8099C82.8501 75.1499 82.8901 75.4399 82.9601 75.6799C83.0301 75.9199 83.1301 76.0899 83.2701 76.2199C83.4001 76.3399 83.5601 76.3999 83.7501 76.3999L83.7401 76.3899Z" fill="#757C86"/>
<path d="M73.9 86.6601V90.7701H73.28V87.2801H73.26L72.28 87.9201V87.3301L73.31 86.6601H73.91H73.9ZM76.44 90.8401C76.12 90.8401 75.85 90.7601 75.63 90.5901C75.41 90.4201 75.23 90.1801 75.11 89.8701C74.99 89.5501 74.93 89.1701 74.93 88.7201C74.93 88.2701 74.99 87.8901 75.11 87.5801C75.23 87.2601 75.4 87.0201 75.63 86.8601C75.86 86.6901 76.13 86.6101 76.44 86.6101C76.75 86.6101 77.02 86.6901 77.25 86.8601C77.47 87.0301 77.65 87.2701 77.77 87.5801C77.89 87.8901 77.95 88.2701 77.95 88.7201C77.95 89.1701 77.89 89.5501 77.77 89.8701C77.65 90.1901 77.48 90.4301 77.25 90.5901C77.03 90.7601 76.76 90.8401 76.44 90.8401ZM76.44 90.3001C76.72 90.3001 76.94 90.1601 77.09 89.8901C77.25 89.6201 77.33 89.2301 77.33 88.7101C77.33 88.3701 77.29 88.0801 77.22 87.8501C77.15 87.6101 77.05 87.4301 76.91 87.3101C76.78 87.1901 76.62 87.1301 76.44 87.1301C76.16 87.1301 75.95 87.2701 75.79 87.5401C75.63 87.8101 75.55 88.2101 75.55 88.7201C75.55 89.0601 75.59 89.3501 75.66 89.5901C75.73 89.8301 75.83 90.0001 75.97 90.1301C76.1 90.2501 76.26 90.3101 76.45 90.3101L76.44 90.3001ZM80.09 90.8401C79.77 90.8401 79.5 90.7601 79.28 90.5901C79.06 90.4201 78.88 90.1801 78.76 89.8701C78.64 89.5501 78.58 89.1701 78.58 88.7201C78.58 88.2701 78.64 87.8901 78.76 87.5801C78.88 87.2601 79.05 87.0201 79.28 86.8601C79.51 86.6901 79.78 86.6101 80.09 86.6101C80.4 86.6101 80.67 86.6901 80.9 86.8601C81.12 87.0301 81.3 87.2701 81.42 87.5801C81.54 87.8901 81.6 88.2701 81.6 88.7201C81.6 89.1701 81.54 89.5501 81.42 89.8701C81.3 90.1901 81.13 90.4301 80.9 90.5901C80.68 90.7601 80.41 90.8401 80.09 90.8401ZM80.09 90.3001C80.37 90.3001 80.59 90.1601 80.74 89.8901C80.9 89.6201 80.98 89.2301 80.98 88.7101C80.98 88.3701 80.94 88.0801 80.87 87.8501C80.8 87.6101 80.7 87.4301 80.56 87.3101C80.43 87.1901 80.27 87.1301 80.09 87.1301C79.81 87.1301 79.6 87.2701 79.44 87.5401C79.28 87.8101 79.2 88.2101 79.2 88.7201C79.2 89.0601 79.24 89.3501 79.31 89.5901C79.38 89.8301 79.48 90.0001 79.62 90.1301C79.75 90.2501 79.91 90.3101 80.1 90.3101L80.09 90.3001ZM83.74 90.8401C83.42 90.8401 83.15 90.7601 82.93 90.5901C82.71 90.4201 82.53 90.1801 82.41 89.8701C82.29 89.5501 82.23 89.1701 82.23 88.7201C82.23 88.2701 82.29 87.8901 82.41 87.5801C82.53 87.2601 82.7 87.0201 82.93 86.8601C83.16 86.6901 83.43 86.6101 83.74 86.6101C84.05 86.6101 84.32 86.6901 84.55 86.8601C84.77 87.0301 84.95 87.2701 85.07 87.5801C85.19 87.8901 85.25 88.2701 85.25 88.7201C85.25 89.1701 85.19 89.5501 85.07 89.8701C84.95 90.1901 84.78 90.4301 84.55 90.5901C84.33 90.7601 84.06 90.8401 83.74 90.8401ZM83.74 90.3001C84.02 90.3001 84.24 90.1601 84.39 89.8901C84.55 89.6201 84.63 89.2301 84.63 88.7101C84.63 88.3701 84.59 88.0801 84.52 87.8501C84.45 87.6101 84.35 87.4301 84.21 87.3101C84.08 87.1901 83.92 87.1301 83.74 87.1301C83.46 87.1301 83.25 87.2701 83.09 87.5401C82.93 87.8101 82.85 88.2101 82.85 88.7201C82.85 89.0601 82.89 89.3501 82.96 89.5901C83.03 89.8301 83.13 90.0001 83.27 90.1301C83.4 90.2501 83.56 90.3101 83.75 90.3101L83.74 90.3001Z" fill="#757C86"/>
<path d="M76.5099 104.73C76.2599 104.73 76.0299 104.68 75.8299 104.59C75.6299 104.49 75.4699 104.36 75.3499 104.19C75.2299 104.02 75.1699 103.83 75.1599 103.61H75.7599C75.7699 103.79 75.8499 103.93 75.9899 104.05C76.1299 104.16 76.2999 104.22 76.4999 104.22C76.6599 104.22 76.7999 104.18 76.9199 104.11C77.0399 104.04 77.1399 103.94 77.2099 103.81C77.2799 103.68 77.3199 103.53 77.3199 103.37C77.3199 103.21 77.2799 103.05 77.2099 102.92C77.1399 102.79 77.0399 102.69 76.9099 102.61C76.7799 102.54 76.6399 102.5 76.4799 102.5C76.3599 102.5 76.2299 102.52 76.0999 102.56C75.9699 102.6 75.8699 102.66 75.7999 102.73L75.2299 102.65L75.4599 100.58H77.7199V101.11H75.9799L75.8499 102.26H75.8699C75.9499 102.18 76.0599 102.12 76.1899 102.07C76.3199 102.02 76.4699 101.99 76.6199 101.99C76.8699 101.99 77.0899 102.05 77.2899 102.17C77.4899 102.29 77.6399 102.45 77.7499 102.66C77.8599 102.86 77.9199 103.1 77.9199 103.37C77.9199 103.64 77.8599 103.87 77.7399 104.08C77.6199 104.29 77.4499 104.45 77.2399 104.57C77.0299 104.69 76.7799 104.75 76.5099 104.75V104.73ZM80.0899 104.74C79.7699 104.74 79.4999 104.66 79.2799 104.49C79.0599 104.32 78.8799 104.08 78.7599 103.77C78.6399 103.45 78.5799 103.07 78.5799 102.62C78.5799 102.17 78.6399 101.79 78.7599 101.48C78.8799 101.16 79.0499 100.92 79.2799 100.76C79.5099 100.59 79.7799 100.51 80.0899 100.51C80.3999 100.51 80.6699 100.59 80.8999 100.76C81.1199 100.93 81.2999 101.17 81.4199 101.48C81.5399 101.79 81.5999 102.17 81.5999 102.62C81.5999 103.07 81.5399 103.45 81.4199 103.77C81.2999 104.09 81.1299 104.33 80.8999 104.49C80.6799 104.66 80.4099 104.74 80.0899 104.74ZM80.0899 104.2C80.3699 104.2 80.5899 104.06 80.7399 103.79C80.8999 103.52 80.9799 103.13 80.9799 102.61C80.9799 102.27 80.9399 101.98 80.8699 101.75C80.7999 101.51 80.6999 101.33 80.5599 101.21C80.4299 101.09 80.2699 101.03 80.0899 101.03C79.8099 101.03 79.5999 101.17 79.4399 101.44C79.2799 101.71 79.1999 102.11 79.1999 102.62C79.1999 102.96 79.2399 103.25 79.3099 103.49C79.3799 103.73 79.4799 103.9 79.6199 104.03C79.7499 104.15 79.9099 104.21 80.0999 104.21L80.0899 104.2ZM83.7399 104.74C83.4199 104.74 83.1499 104.66 82.9299 104.49C82.7099 104.32 82.5299 104.08 82.4099 103.77C82.2899 103.45 82.2299 103.07 82.2299 102.62C82.2299 102.17 82.2899 101.79 82.4099 101.48C82.5299 101.16 82.6999 100.92 82.9299 100.76C83.1599 100.59 83.4299 100.51 83.7399 100.51C84.0499 100.51 84.3199 100.59 84.5499 100.76C84.7699 100.93 84.9499 101.17 85.0699 101.48C85.1899 101.79 85.2499 102.17 85.2499 102.62C85.2499 103.07 85.1899 103.45 85.0699 103.77C84.9499 104.09 84.7799 104.33 84.5499 104.49C84.3299 104.66 84.0599 104.74 83.7399 104.74ZM83.7399 104.2C84.0199 104.2 84.2399 104.06 84.3899 103.79C84.5499 103.52 84.6299 103.13 84.6299 102.61C84.6299 102.27 84.5899 101.98 84.5199 101.75C84.4499 101.51 84.3499 101.33 84.2099 101.21C84.0799 101.09 83.9199 101.03 83.7399 101.03C83.4599 101.03 83.2499 101.17 83.0899 101.44C82.9299 101.71 82.8499 102.11 82.8499 102.62C82.8499 102.96 82.8899 103.25 82.9599 103.49C83.0299 103.73 83.1299 103.9 83.2699 104.03C83.3999 104.15 83.5599 104.21 83.7499 104.21L83.7399 104.2Z" fill="#757C86"/>
<path d="M76.44 118.64C76.16 118.64 75.92 118.59 75.7 118.5C75.48 118.41 75.31 118.27 75.19 118.1C75.07 117.93 75 117.73 74.99 117.51H75.62C75.62 117.63 75.67 117.74 75.74 117.83C75.81 117.92 75.91 117.99 76.03 118.03C76.15 118.08 76.28 118.1 76.43 118.1C76.59 118.1 76.73 118.07 76.86 118.02C76.99 117.96 77.08 117.89 77.15 117.79C77.22 117.69 77.26 117.57 77.26 117.44C77.26 117.31 77.22 117.18 77.15 117.08C77.08 116.97 76.98 116.89 76.84 116.83C76.71 116.77 76.54 116.74 76.35 116.74H76V116.23H76.35C76.5 116.23 76.64 116.2 76.75 116.15C76.87 116.1 76.96 116.02 77.02 115.92C77.09 115.82 77.12 115.71 77.12 115.57C77.12 115.43 77.09 115.33 77.03 115.24C76.97 115.15 76.89 115.07 76.79 115.02C76.69 114.97 76.57 114.94 76.42 114.94C76.27 114.94 76.16 114.96 76.04 115.01C75.92 115.06 75.83 115.13 75.76 115.22C75.69 115.31 75.65 115.42 75.64 115.54H75.04C75.04 115.32 75.11 115.12 75.24 114.95C75.37 114.78 75.53 114.65 75.74 114.55C75.95 114.45 76.17 114.41 76.43 114.41C76.69 114.41 76.92 114.46 77.11 114.56C77.3 114.66 77.45 114.8 77.56 114.97C77.67 115.14 77.72 115.33 77.72 115.53C77.72 115.76 77.66 115.96 77.53 116.12C77.4 116.28 77.23 116.39 77.02 116.44V116.47C77.29 116.51 77.5 116.62 77.65 116.8C77.8 116.98 77.88 117.19 77.87 117.45C77.87 117.68 77.81 117.88 77.68 118.06C77.55 118.24 77.38 118.38 77.16 118.48C76.94 118.58 76.69 118.63 76.41 118.63L76.44 118.64ZM80.08 118.65C79.76 118.65 79.49 118.57 79.27 118.4C79.05 118.23 78.87 117.99 78.75 117.68C78.63 117.36 78.57 116.98 78.57 116.53C78.57 116.08 78.63 115.7 78.75 115.39C78.87 115.07 79.04 114.83 79.27 114.67C79.5 114.5 79.77 114.42 80.08 114.42C80.39 114.42 80.66 114.5 80.89 114.67C81.11 114.84 81.29 115.08 81.41 115.39C81.53 115.7 81.59 116.08 81.59 116.53C81.59 116.98 81.53 117.36 81.41 117.68C81.29 118 81.12 118.24 80.89 118.4C80.67 118.57 80.4 118.65 80.08 118.65ZM80.08 118.11C80.36 118.11 80.58 117.97 80.73 117.7C80.89 117.43 80.97 117.04 80.97 116.52C80.97 116.18 80.93 115.89 80.86 115.66C80.79 115.42 80.69 115.24 80.55 115.12C80.42 115 80.26 114.94 80.08 114.94C79.8 114.94 79.59 115.08 79.43 115.35C79.27 115.62 79.19 116.02 79.19 116.53C79.19 116.87 79.23 117.16 79.3 117.4C79.37 117.64 79.47 117.81 79.61 117.94C79.74 118.06 79.9 118.12 80.09 118.12L80.08 118.11ZM83.73 118.65C83.41 118.65 83.14 118.57 82.92 118.4C82.7 118.23 82.52 117.99 82.4 117.68C82.28 117.36 82.22 116.98 82.22 116.53C82.22 116.08 82.28 115.7 82.4 115.39C82.52 115.07 82.69 114.83 82.92 114.67C83.15 114.5 83.42 114.42 83.73 114.42C84.04 114.42 84.31 114.5 84.54 114.67C84.76 114.84 84.94 115.08 85.06 115.39C85.18 115.7 85.24 116.08 85.24 116.53C85.24 116.98 85.18 117.36 85.06 117.68C84.94 118 84.77 118.24 84.54 118.4C84.32 118.57 84.05 118.65 83.73 118.65ZM83.73 118.11C84.01 118.11 84.23 117.97 84.38 117.7C84.54 117.43 84.62 117.04 84.62 116.52C84.62 116.18 84.58 115.89 84.51 115.66C84.44 115.42 84.34 115.24 84.2 115.12C84.07 115 83.91 114.94 83.73 114.94C83.45 114.94 83.24 115.08 83.08 115.35C82.92 115.62 82.84 116.02 82.84 116.53C82.84 116.87 82.88 117.16 82.95 117.4C83.02 117.64 83.12 117.81 83.26 117.94C83.39 118.06 83.55 118.12 83.74 118.12L83.73 118.11Z" fill="#757C86"/>
<path d="M75.1899 132.49V132.04L76.5799 130.6C76.7299 130.44 76.8499 130.31 76.9499 130.19C77.0499 130.07 77.1199 129.96 77.1699 129.85C77.2199 129.74 77.2399 129.63 77.2399 129.51C77.2399 129.37 77.2099 129.26 77.1399 129.16C77.0799 129.06 76.9899 128.98 76.8799 128.93C76.7699 128.87 76.6399 128.85 76.4999 128.85C76.3499 128.85 76.2199 128.88 76.1099 128.94C75.9999 129 75.9199 129.09 75.8599 129.19C75.7999 129.3 75.7699 129.43 75.7699 129.58H75.1799C75.1799 129.33 75.2399 129.11 75.3499 128.92C75.4599 128.73 75.6199 128.59 75.8199 128.48C76.0199 128.38 76.2499 128.32 76.4999 128.32C76.7499 128.32 76.9899 128.37 77.1799 128.47C77.3799 128.57 77.5299 128.71 77.6399 128.89C77.7499 129.07 77.8099 129.26 77.8099 129.48C77.8099 129.63 77.7799 129.78 77.7199 129.93C77.6599 130.08 77.5699 130.24 77.4299 130.42C77.2899 130.6 77.0899 130.81 76.8399 131.07L76.0199 131.92V131.95H77.8699V132.48H75.1699L75.1899 132.49ZM80.0899 132.56C79.7699 132.56 79.4999 132.48 79.2799 132.31C79.0599 132.14 78.8799 131.9 78.7599 131.59C78.6399 131.27 78.5799 130.89 78.5799 130.44C78.5799 129.99 78.6399 129.61 78.7599 129.3C78.8799 128.98 79.0499 128.74 79.2799 128.58C79.5099 128.41 79.7799 128.33 80.0899 128.33C80.3999 128.33 80.6699 128.41 80.8999 128.58C81.1199 128.75 81.2999 128.99 81.4199 129.3C81.5399 129.61 81.5999 129.99 81.5999 130.44C81.5999 130.89 81.5399 131.27 81.4199 131.59C81.2999 131.91 81.1299 132.15 80.8999 132.31C80.6799 132.48 80.4099 132.56 80.0899 132.56ZM80.0899 132.02C80.3699 132.02 80.5899 131.88 80.7399 131.61C80.8999 131.34 80.9799 130.95 80.9799 130.43C80.9799 130.09 80.9399 129.8 80.8699 129.57C80.7999 129.33 80.6999 129.15 80.5599 129.03C80.4299 128.91 80.2699 128.85 80.0899 128.85C79.8099 128.85 79.5999 128.99 79.4399 129.26C79.2799 129.53 79.1999 129.93 79.1999 130.44C79.1999 130.78 79.2399 131.07 79.3099 131.31C79.3799 131.55 79.4799 131.72 79.6199 131.85C79.7499 131.97 79.9099 132.03 80.0999 132.03L80.0899 132.02ZM83.7399 132.56C83.4199 132.56 83.1499 132.48 82.9299 132.31C82.7099 132.14 82.5299 131.9 82.4099 131.59C82.2899 131.27 82.2299 130.89 82.2299 130.44C82.2299 129.99 82.2899 129.61 82.4099 129.3C82.5299 128.98 82.6999 128.74 82.9299 128.58C83.1599 128.41 83.4299 128.33 83.7399 128.33C84.0499 128.33 84.3199 128.41 84.5499 128.58C84.7699 128.75 84.9499 128.99 85.0699 129.3C85.1899 129.61 85.2499 129.99 85.2499 130.44C85.2499 130.89 85.1899 131.27 85.0699 131.59C84.9499 131.91 84.7799 132.15 84.5499 132.31C84.3299 132.48 84.0599 132.56 83.7399 132.56ZM83.7399 132.02C84.0199 132.02 84.2399 131.88 84.3899 131.61C84.5499 131.34 84.6299 130.95 84.6299 130.43C84.6299 130.09 84.5899 129.8 84.5199 129.57C84.4499 129.33 84.3499 129.15 84.2099 129.03C84.0799 128.91 83.9199 128.85 83.7399 128.85C83.4599 128.85 83.2499 128.99 83.0899 129.26C82.9299 129.53 82.8499 129.93 82.8499 130.44C82.8499 130.78 82.8899 131.07 82.9599 131.31C83.0299 131.55 83.1299 131.72 83.2699 131.85C83.3999 131.97 83.5599 132.03 83.7499 132.03L83.7399 132.02Z" fill="#757C86"/>
<path d="M77.5399 142.29V146.4H76.9199V142.91H76.8999L75.9199 143.55V142.96L76.9499 142.29H77.5499H77.5399ZM80.0799 146.47C79.7599 146.47 79.4899 146.39 79.2699 146.22C79.0499 146.05 78.8699 145.81 78.7499 145.5C78.6299 145.18 78.5699 144.8 78.5699 144.35C78.5699 143.9 78.6299 143.52 78.7499 143.21C78.8699 142.89 79.0399 142.65 79.2699 142.49C79.4999 142.32 79.7699 142.24 80.0799 142.24C80.3899 142.24 80.6599 142.32 80.8899 142.49C81.1099 142.66 81.2899 142.9 81.4099 143.21C81.5299 143.52 81.5899 143.9 81.5899 144.35C81.5899 144.8 81.5299 145.18 81.4099 145.5C81.2899 145.82 81.1199 146.06 80.8899 146.22C80.6699 146.39 80.3999 146.47 80.0799 146.47ZM80.0799 145.93C80.3599 145.93 80.5799 145.79 80.7299 145.52C80.8899 145.25 80.9699 144.86 80.9699 144.34C80.9699 144 80.9299 143.71 80.8599 143.48C80.7899 143.24 80.6899 143.06 80.5499 142.94C80.4199 142.82 80.2599 142.76 80.0799 142.76C79.7999 142.76 79.5899 142.9 79.4299 143.17C79.2699 143.44 79.1899 143.84 79.1899 144.35C79.1899 144.69 79.2299 144.98 79.2999 145.22C79.3699 145.46 79.4699 145.63 79.6099 145.76C79.7399 145.88 79.8999 145.94 80.0899 145.94L80.0799 145.93ZM83.7299 146.47C83.4099 146.47 83.1399 146.39 82.9199 146.22C82.6999 146.05 82.5199 145.81 82.3999 145.5C82.2799 145.18 82.2199 144.8 82.2199 144.35C82.2199 143.9 82.2799 143.52 82.3999 143.21C82.5199 142.89 82.6899 142.65 82.9199 142.49C83.1499 142.32 83.4199 142.24 83.7299 142.24C84.0399 142.24 84.3099 142.32 84.5399 142.49C84.7599 142.66 84.9399 142.9 85.0599 143.21C85.1799 143.52 85.2399 143.9 85.2399 144.35C85.2399 144.8 85.1799 145.18 85.0599 145.5C84.9399 145.82 84.7699 146.06 84.5399 146.22C84.3199 146.39 84.0499 146.47 83.7299 146.47ZM83.7299 145.93C84.0099 145.93 84.2299 145.79 84.3799 145.52C84.5399 145.25 84.6199 144.86 84.6199 144.34C84.6199 144 84.5799 143.71 84.5099 143.48C84.4399 143.24 84.3399 143.06 84.1999 142.94C84.0699 142.82 83.9099 142.76 83.7299 142.76C83.4499 142.76 83.2399 142.9 83.0799 143.17C82.9199 143.44 82.8399 143.84 82.8399 144.35C82.8399 144.69 82.8799 144.98 82.9499 145.22C83.0199 145.46 83.1199 145.63 83.2599 145.76C83.3899 145.88 83.5499 145.94 83.7399 145.94L83.7299 145.93Z" fill="#757C86"/>
<path d="M80.15 160.36C79.9 160.36 79.67 160.31 79.47 160.22C79.27 160.12 79.11 159.99 78.99 159.82C78.87 159.65 78.81 159.46 78.8 159.24H79.4C79.41 159.42 79.49 159.56 79.63 159.68C79.77 159.79 79.94 159.85 80.14 159.85C80.3 159.85 80.44 159.81 80.56 159.74C80.68 159.67 80.78 159.57 80.85 159.44C80.92 159.31 80.96 159.16 80.96 159C80.96 158.84 80.92 158.68 80.85 158.55C80.78 158.42 80.68 158.32 80.55 158.24C80.42 158.17 80.28 158.13 80.12 158.13C80 158.13 79.87 158.15 79.74 158.19C79.61 158.23 79.51 158.29 79.44 158.36L78.87 158.28L79.1 156.21H81.36V156.74H79.62L79.49 157.89H79.51C79.59 157.81 79.7 157.75 79.83 157.7C79.96 157.65 80.11 157.62 80.26 157.62C80.51 157.62 80.73 157.68 80.93 157.8C81.13 157.92 81.28 158.08 81.39 158.29C81.5 158.49 81.56 158.73 81.56 159C81.56 159.27 81.5 159.5 81.38 159.71C81.26 159.92 81.09 160.08 80.88 160.2C80.67 160.32 80.42 160.38 80.15 160.38V160.36ZM83.73 160.37C83.41 160.37 83.14 160.29 82.92 160.12C82.7 159.95 82.52 159.71 82.4 159.4C82.28 159.08 82.22 158.7 82.22 158.25C82.22 157.8 82.28 157.42 82.4 157.11C82.52 156.79 82.69 156.55 82.92 156.39C83.15 156.22 83.42 156.14 83.73 156.14C84.04 156.14 84.31 156.22 84.54 156.39C84.76 156.56 84.94 156.8 85.06 157.11C85.18 157.42 85.24 157.8 85.24 158.25C85.24 158.7 85.18 159.08 85.06 159.4C84.94 159.72 84.77 159.96 84.54 160.12C84.32 160.29 84.05 160.37 83.73 160.37ZM83.73 159.83C84.01 159.83 84.23 159.69 84.38 159.42C84.54 159.15 84.62 158.76 84.62 158.24C84.62 157.9 84.58 157.61 84.51 157.38C84.44 157.14 84.34 156.96 84.2 156.84C84.07 156.72 83.91 156.66 83.73 156.66C83.45 156.66 83.24 156.8 83.08 157.07C82.92 157.34 82.84 157.74 82.84 158.25C82.84 158.59 82.88 158.88 82.95 159.12C83.02 159.36 83.12 159.53 83.26 159.66C83.39 159.78 83.55 159.84 83.74 159.84L83.73 159.83Z" fill="#757C86"/>
<path d="M81.1901 170.1V174.21H80.5701V170.72H80.5501L79.5701 171.36V170.77L80.6001 170.1H81.2001H81.1901ZM83.7301 174.28C83.4101 174.28 83.1401 174.2 82.9201 174.03C82.7001 173.86 82.5201 173.62 82.4001 173.31C82.2801 172.99 82.2201 172.61 82.2201 172.16C82.2201 171.71 82.2801 171.33 82.4001 171.02C82.5201 170.7 82.6901 170.46 82.9201 170.3C83.1501 170.13 83.4201 170.05 83.7301 170.05C84.0401 170.05 84.3101 170.13 84.5401 170.3C84.7601 170.47 84.9401 170.71 85.0601 171.02C85.1801 171.33 85.2401 171.71 85.2401 172.16C85.2401 172.61 85.1801 172.99 85.0601 173.31C84.9401 173.63 84.7701 173.87 84.5401 174.03C84.3201 174.2 84.0501 174.28 83.7301 174.28ZM83.7301 173.74C84.0101 173.74 84.2301 173.6 84.3801 173.33C84.5401 173.06 84.6201 172.67 84.6201 172.15C84.6201 171.81 84.5801 171.52 84.5101 171.29C84.4401 171.05 84.3401 170.87 84.2001 170.75C84.0701 170.63 83.9101 170.57 83.7301 170.57C83.4501 170.57 83.2401 170.71 83.0801 170.98C82.9201 171.25 82.8401 171.65 82.8401 172.16C82.8401 172.5 82.8801 172.79 82.9501 173.03C83.0201 173.27 83.1201 173.44 83.2601 173.57C83.3901 173.69 83.5501 173.75 83.7401 173.75L83.7301 173.74Z" fill="#757C86"/>
<path d="M94.6799 56.4399V184.65" stroke="#B2B8BD" stroke-width="2" stroke-linecap="round"/>
<path d="M334.58 184.64H94.6799" stroke="#B2B8BD" stroke-width="2" stroke-linecap="round"/>
<path d="M102.94 141.1C122.93 113.91 178.36 72.4299 240.19 124.06C302.02 175.69 328.88 136.74 334.58 110.82" stroke="#39404F" stroke-width="3" stroke-linecap="round"/>
<path d="M397.91 109.54H290.38C287.84 109.54 285.78 111.6 285.78 114.14V212.02C285.78 214.561 287.84 216.62 290.38 216.62H397.91C400.451 216.62 402.51 214.561 402.51 212.02V114.14C402.51 111.6 400.451 109.54 397.91 109.54Z" fill="white" stroke="#39404F"/>
<path d="M397.91 109.54H290.38C287.84 109.54 285.78 111.6 285.78 114.14V212.02C285.78 214.561 287.84 216.62 290.38 216.62H397.91C400.451 216.62 402.51 214.561 402.51 212.02V114.14C402.51 111.6 400.451 109.54 397.91 109.54Z" stroke="#39404F" stroke-width="0.25"/>
<path d="M312.03 123.79V119.11H313.78C314.14 119.11 314.44 119.18 314.68 119.31C314.93 119.44 315.11 119.63 315.24 119.86C315.37 120.09 315.43 120.36 315.43 120.66C315.43 120.96 315.37 121.23 315.24 121.46C315.11 121.69 314.93 121.88 314.68 122.01C314.43 122.14 314.13 122.21 313.77 122.21H312.61V121.51H313.66C313.87 121.51 314.04 121.47 314.18 121.4C314.31 121.33 314.41 121.23 314.48 121.1C314.55 120.97 314.58 120.83 314.58 120.66C314.58 120.49 314.55 120.35 314.48 120.22C314.42 120.09 314.32 120 314.18 119.93C314.05 119.86 313.87 119.82 313.66 119.82H312.88V123.79H312.03ZM317.02 119.11V123.79H316.17V119.11H317.02ZM321.94 120.69H321.09C321.07 120.55 321.02 120.43 320.96 120.32C320.89 120.21 320.81 120.12 320.72 120.04C320.62 119.96 320.51 119.91 320.39 119.87C320.27 119.83 320.13 119.81 319.99 119.81C319.74 119.81 319.51 119.87 319.31 120C319.11 120.13 318.96 120.31 318.85 120.56C318.74 120.8 318.68 121.1 318.68 121.45C318.68 121.8 318.74 122.11 318.85 122.35C318.96 122.59 319.12 122.78 319.31 122.9C319.51 123.02 319.73 123.09 319.98 123.09C320.12 123.09 320.25 123.07 320.37 123.04C320.49 123 320.6 122.95 320.7 122.87C320.8 122.8 320.88 122.71 320.95 122.6C321.02 122.49 321.07 122.37 321.09 122.23H321.94C321.91 122.46 321.84 122.67 321.73 122.86C321.62 123.05 321.49 123.23 321.32 123.38C321.15 123.53 320.95 123.64 320.72 123.73C320.49 123.81 320.24 123.85 319.96 123.85C319.55 123.85 319.18 123.75 318.86 123.56C318.54 123.37 318.28 123.09 318.1 122.74C317.91 122.38 317.82 121.95 317.82 121.45C317.82 120.95 317.91 120.51 318.1 120.16C318.29 119.8 318.54 119.53 318.87 119.34C319.19 119.15 319.56 119.05 319.97 119.05C320.23 119.05 320.47 119.09 320.7 119.16C320.92 119.23 321.12 119.34 321.3 119.48C321.48 119.62 321.62 119.79 321.73 120C321.84 120.2 321.92 120.43 321.95 120.69H321.94ZM325.9 123.79H324.31V119.11H325.93C326.39 119.11 326.79 119.2 327.13 119.39C327.47 119.58 327.72 119.84 327.9 120.19C328.08 120.54 328.17 120.96 328.17 121.44C328.17 121.92 328.08 122.35 327.9 122.7C327.72 123.05 327.46 123.32 327.12 123.51C326.78 123.7 326.38 123.79 325.9 123.79ZM325.16 123.06H325.86C326.19 123.06 326.46 123 326.68 122.88C326.9 122.76 327.06 122.58 327.17 122.34C327.28 122.1 327.33 121.8 327.33 121.44C327.33 121.08 327.28 120.79 327.17 120.55C327.06 120.31 326.9 120.13 326.68 120.02C326.47 119.9 326.2 119.84 325.88 119.84H325.16V123.05V123.06ZM328.94 123.79V120.28H329.77V123.79H328.94ZM329.36 119.78C329.23 119.78 329.12 119.74 329.02 119.65C328.93 119.56 328.88 119.46 328.88 119.33C328.88 119.2 328.93 119.1 329.02 119.01C329.11 118.92 329.23 118.88 329.36 118.88C329.49 118.88 329.61 118.92 329.7 119.01C329.79 119.1 329.84 119.2 329.84 119.33C329.84 119.46 329.79 119.56 329.7 119.65C329.61 119.74 329.49 119.78 329.36 119.78ZM332.15 125.18C331.85 125.18 331.6 125.14 331.38 125.06C331.17 124.98 331 124.87 330.87 124.74C330.74 124.61 330.65 124.46 330.6 124.29L331.34 124.11C331.37 124.18 331.42 124.25 331.49 124.31C331.55 124.38 331.64 124.43 331.75 124.48C331.86 124.53 332 124.55 332.16 124.55C332.39 124.55 332.59 124.49 332.74 124.38C332.89 124.27 332.97 124.08 332.97 123.82V123.16H332.93C332.89 123.25 332.82 123.33 332.74 123.42C332.66 123.51 332.55 123.59 332.42 123.65C332.29 123.71 332.12 123.74 331.92 123.74C331.65 123.74 331.41 123.68 331.19 123.55C330.97 123.42 330.8 123.23 330.67 122.98C330.54 122.73 330.48 122.41 330.48 122.02C330.48 121.63 330.54 121.31 330.67 121.04C330.8 120.77 330.97 120.57 331.19 120.43C331.41 120.29 331.65 120.22 331.92 120.22C332.13 120.22 332.29 120.26 332.43 120.33C332.56 120.4 332.67 120.48 332.75 120.58C332.83 120.68 332.89 120.77 332.93 120.85H332.98V120.27H333.8V123.84C333.8 124.14 333.73 124.39 333.59 124.58C333.45 124.78 333.25 124.92 333 125.02C332.75 125.12 332.47 125.17 332.15 125.17V125.18ZM332.15 123.09C332.33 123.09 332.47 123.05 332.6 122.96C332.72 122.87 332.82 122.75 332.88 122.59C332.94 122.43 332.98 122.24 332.98 122.01C332.98 121.78 332.95 121.6 332.88 121.43C332.82 121.26 332.72 121.14 332.6 121.04C332.48 120.95 332.33 120.9 332.15 120.9C331.97 120.9 331.81 120.95 331.69 121.04C331.57 121.14 331.47 121.27 331.41 121.44C331.35 121.61 331.32 121.79 331.32 122.01C331.32 122.23 331.35 122.41 331.41 122.57C331.47 122.73 331.57 122.85 331.69 122.94C331.81 123.03 331.97 123.07 332.15 123.07V123.09ZM334.64 123.79V120.28H335.47V123.79H334.64ZM335.06 119.78C334.93 119.78 334.82 119.74 334.72 119.65C334.63 119.56 334.58 119.46 334.58 119.33C334.58 119.2 334.63 119.1 334.72 119.01C334.81 118.92 334.93 118.88 335.06 118.88C335.19 118.88 335.31 118.92 335.4 119.01C335.49 119.1 335.54 119.2 335.54 119.33C335.54 119.46 335.49 119.56 335.4 119.65C335.31 119.74 335.19 119.78 335.06 119.78ZM338.07 120.28V120.92H336.05V120.28H338.07ZM336.55 119.44H337.38V122.73C337.38 122.84 337.4 122.93 337.43 122.99C337.46 123.05 337.51 123.09 337.57 123.11C337.63 123.13 337.69 123.14 337.76 123.14C337.81 123.14 337.86 123.14 337.9 123.13C337.94 123.13 337.98 123.12 338 123.11L338.14 123.76C338.14 123.76 338.03 123.79 337.95 123.81C337.87 123.83 337.77 123.84 337.65 123.84C337.44 123.84 337.26 123.81 337.09 123.75C336.92 123.68 336.79 123.57 336.69 123.43C336.59 123.28 336.55 123.1 336.55 122.88V119.45V119.44ZM339.77 123.86C339.55 123.86 339.35 123.82 339.17 123.74C338.99 123.66 338.85 123.54 338.75 123.38C338.65 123.22 338.6 123.03 338.6 122.8C338.6 122.6 338.64 122.44 338.71 122.31C338.78 122.18 338.88 122.08 339.01 122C339.14 121.92 339.28 121.86 339.44 121.82C339.6 121.78 339.76 121.75 339.94 121.73C340.15 121.71 340.31 121.69 340.44 121.67C340.57 121.65 340.66 121.62 340.72 121.59C340.78 121.55 340.81 121.49 340.81 121.41C340.81 121.22 340.76 121.09 340.66 121C340.56 120.91 340.41 120.86 340.22 120.86C340.02 120.86 339.86 120.9 339.74 120.99C339.62 121.08 339.54 121.18 339.5 121.3L338.73 121.19C338.79 120.98 338.89 120.8 339.03 120.66C339.17 120.52 339.34 120.41 339.54 120.34C339.74 120.27 339.97 120.23 340.21 120.23C340.38 120.23 340.55 120.25 340.72 120.29C340.89 120.33 341.04 120.4 341.18 120.49C341.32 120.58 341.43 120.7 341.51 120.86C341.6 121.02 341.64 121.21 341.64 121.44V123.79H340.84V123.31H340.81C340.76 123.41 340.69 123.5 340.6 123.58C340.51 123.66 340.4 123.73 340.26 123.78C340.12 123.83 339.96 123.86 339.78 123.86H339.77ZM339.98 123.25C340.15 123.25 340.29 123.22 340.41 123.15C340.53 123.08 340.63 122.99 340.69 122.88C340.76 122.77 340.79 122.65 340.79 122.52V122.11C340.79 122.11 340.72 122.15 340.66 122.17C340.6 122.19 340.53 122.2 340.45 122.22C340.37 122.23 340.3 122.25 340.22 122.26C340.15 122.27 340.08 122.28 340.03 122.29C339.91 122.31 339.8 122.33 339.7 122.37C339.6 122.41 339.53 122.46 339.47 122.53C339.41 122.6 339.39 122.68 339.39 122.79C339.39 122.94 339.45 123.06 339.56 123.13C339.67 123.21 339.81 123.25 339.99 123.25H339.98ZM343.28 119.11V123.79H342.45V119.11H343.28ZM345.76 119.11H346.8L348.19 122.5H348.24L349.63 119.11H350.67V123.79H349.86V120.58H349.82L348.53 123.78H347.92L346.63 120.57H346.59V123.79H345.78V119.11H345.76ZM352.56 123.86C352.34 123.86 352.14 123.82 351.96 123.74C351.78 123.66 351.64 123.54 351.54 123.38C351.44 123.22 351.39 123.03 351.39 122.8C351.39 122.6 351.43 122.44 351.5 122.31C351.57 122.18 351.67 122.08 351.8 122C351.93 121.92 352.07 121.86 352.23 121.82C352.39 121.78 352.56 121.75 352.73 121.73C352.94 121.71 353.1 121.69 353.23 121.67C353.36 121.65 353.45 121.62 353.51 121.59C353.57 121.55 353.6 121.49 353.6 121.41C353.6 121.22 353.55 121.09 353.45 121C353.35 120.91 353.2 120.86 353.01 120.86C352.81 120.86 352.65 120.9 352.53 120.99C352.41 121.08 352.33 121.18 352.29 121.3L351.52 121.19C351.58 120.98 351.68 120.8 351.82 120.66C351.96 120.52 352.13 120.41 352.33 120.34C352.53 120.27 352.76 120.23 353 120.23C353.17 120.23 353.34 120.25 353.51 120.29C353.68 120.33 353.83 120.4 353.97 120.49C354.11 120.58 354.22 120.7 354.3 120.86C354.39 121.02 354.43 121.21 354.43 121.44V123.79H353.63V123.31H353.6C353.55 123.41 353.48 123.5 353.39 123.58C353.3 123.66 353.19 123.73 353.05 123.78C352.91 123.83 352.76 123.86 352.57 123.86H352.56ZM352.78 123.25C352.95 123.25 353.09 123.22 353.21 123.15C353.33 123.08 353.43 122.99 353.49 122.88C353.56 122.77 353.59 122.65 353.59 122.52V122.11C353.59 122.11 353.52 122.15 353.46 122.17C353.4 122.19 353.33 122.2 353.25 122.22C353.17 122.23 353.1 122.25 353.02 122.26C352.95 122.27 352.88 122.28 352.83 122.29C352.71 122.31 352.6 122.33 352.5 122.37C352.4 122.41 352.33 122.46 352.27 122.53C352.21 122.6 352.19 122.68 352.19 122.79C352.19 122.94 352.25 123.06 352.36 123.13C352.47 123.21 352.61 123.25 352.79 123.25H352.78ZM355.25 123.79V120.28H356.05V120.86H356.09C356.15 120.66 356.26 120.5 356.42 120.39C356.58 120.28 356.76 120.22 356.96 120.22C357.01 120.22 357.06 120.22 357.11 120.22C357.17 120.22 357.22 120.22 357.25 120.24V121C357.25 121 357.16 120.98 357.08 120.97C357.01 120.96 356.93 120.95 356.86 120.95C356.71 120.95 356.57 120.98 356.45 121.05C356.33 121.11 356.24 121.2 356.17 121.32C356.1 121.43 356.07 121.57 356.07 121.72V123.78H355.24L355.25 123.79ZM358.55 122.69V121.69H358.68L359.94 120.28H360.91L359.36 122.01H359.19L358.55 122.69ZM357.8 123.79V119.11H358.63V123.79H357.8ZM360 123.79L358.86 122.19L359.42 121.61L360.99 123.79H360ZM362.87 123.86C362.52 123.86 362.21 123.79 361.96 123.64C361.71 123.49 361.51 123.28 361.37 123.01C361.23 122.74 361.16 122.42 361.16 122.05C361.16 121.68 361.23 121.37 361.37 121.1C361.51 120.83 361.7 120.61 361.95 120.46C362.2 120.31 362.49 120.23 362.82 120.23C363.04 120.23 363.24 120.27 363.43 120.34C363.62 120.41 363.79 120.52 363.94 120.66C364.09 120.8 364.21 120.99 364.29 121.21C364.38 121.43 364.42 121.7 364.42 122.01V122.26H361.54V121.7H363.62C363.62 121.54 363.58 121.4 363.52 121.28C363.45 121.16 363.36 121.06 363.24 120.99C363.12 120.92 362.98 120.88 362.82 120.88C362.65 120.88 362.5 120.92 362.37 121C362.24 121.08 362.14 121.19 362.07 121.32C362 121.45 361.96 121.59 361.96 121.75V122.24C361.96 122.44 362 122.62 362.07 122.77C362.14 122.91 362.25 123.03 362.38 123.1C362.51 123.18 362.67 123.21 362.85 123.21C362.97 123.21 363.08 123.19 363.18 123.16C363.28 123.12 363.36 123.07 363.43 123.01C363.5 122.94 363.56 122.86 363.59 122.76L364.36 122.85C364.31 123.05 364.22 123.23 364.08 123.38C363.94 123.53 363.77 123.65 363.56 123.73C363.35 123.81 363.11 123.85 362.83 123.85L362.87 123.86ZM366.88 120.28V120.92H364.86V120.28H366.88ZM365.36 119.44H366.19V122.73C366.19 122.84 366.21 122.93 366.24 122.99C366.27 123.05 366.32 123.09 366.38 123.11C366.44 123.13 366.5 123.14 366.57 123.14C366.62 123.14 366.67 123.14 366.71 123.13C366.75 123.13 366.79 123.12 366.81 123.11L366.95 123.76C366.95 123.76 366.84 123.79 366.76 123.81C366.68 123.83 366.58 123.84 366.46 123.84C366.25 123.84 366.07 123.81 365.9 123.75C365.73 123.68 365.6 123.57 365.5 123.43C365.4 123.28 365.36 123.1 365.36 122.88V119.45V119.44ZM367.57 123.79V120.28H368.4V123.79H367.57ZM367.99 119.78C367.86 119.78 367.75 119.74 367.65 119.65C367.56 119.56 367.51 119.46 367.51 119.33C367.51 119.2 367.56 119.1 367.65 119.01C367.74 118.92 367.86 118.88 367.99 118.88C368.12 118.88 368.24 118.92 368.33 119.01C368.42 119.1 368.47 119.2 368.47 119.33C368.47 119.46 368.42 119.56 368.33 119.65C368.24 119.74 368.12 119.78 367.99 119.78ZM370.08 121.73V123.79H369.25V120.28H370.04V120.88H370.08C370.16 120.68 370.29 120.53 370.47 120.41C370.65 120.29 370.87 120.24 371.13 120.24C371.37 120.24 371.58 120.29 371.76 120.4C371.94 120.5 372.08 120.65 372.18 120.85C372.28 121.05 372.33 121.28 372.33 121.57V123.8H371.5V121.69C371.5 121.46 371.44 121.27 371.32 121.14C371.2 121.01 371.03 120.94 370.82 120.94C370.68 120.94 370.55 120.97 370.43 121.04C370.32 121.1 370.23 121.19 370.17 121.31C370.11 121.43 370.08 121.57 370.08 121.74V121.73ZM374.7 125.18C374.4 125.18 374.15 125.14 373.93 125.06C373.72 124.98 373.55 124.87 373.42 124.74C373.29 124.61 373.2 124.46 373.15 124.29L373.89 124.11C373.92 124.18 373.97 124.25 374.04 124.31C374.1 124.38 374.19 124.43 374.3 124.48C374.41 124.53 374.55 124.55 374.71 124.55C374.94 124.55 375.14 124.49 375.29 124.38C375.44 124.27 375.52 124.08 375.52 123.82V123.16H375.48C375.44 123.25 375.37 123.33 375.29 123.42C375.21 123.51 375.1 123.59 374.97 123.65C374.84 123.71 374.67 123.74 374.47 123.74C374.2 123.74 373.96 123.68 373.74 123.55C373.52 123.42 373.35 123.23 373.22 122.98C373.09 122.73 373.03 122.41 373.03 122.02C373.03 121.63 373.09 121.31 373.22 121.04C373.35 120.77 373.52 120.57 373.74 120.43C373.96 120.29 374.2 120.22 374.47 120.22C374.68 120.22 374.84 120.26 374.98 120.33C375.11 120.4 375.22 120.48 375.3 120.58C375.38 120.68 375.44 120.77 375.48 120.85H375.53V120.27H376.35V123.84C376.35 124.14 376.28 124.39 376.14 124.58C376 124.78 375.8 124.92 375.55 125.02C375.3 125.12 375.02 125.17 374.7 125.17V125.18ZM374.7 123.09C374.88 123.09 375.02 123.05 375.15 122.96C375.27 122.87 375.37 122.75 375.43 122.59C375.49 122.43 375.53 122.24 375.53 122.01C375.53 121.78 375.5 121.6 375.43 121.43C375.37 121.26 375.27 121.14 375.15 121.04C375.03 120.95 374.88 120.9 374.7 120.9C374.52 120.9 374.36 120.95 374.24 121.04C374.12 121.14 374.02 121.27 373.96 121.44C373.9 121.61 373.87 121.79 373.87 122.01C373.87 122.23 373.9 122.41 373.96 122.57C374.02 122.73 374.12 122.85 374.24 122.94C374.37 123.03 374.52 123.07 374.7 123.07V123.09Z" fill="#39404F"/>
<path d="M313.96 134.36V133.79L315.47 132.31C315.61 132.16 315.73 132.03 315.83 131.92C315.93 131.81 316 131.7 316.05 131.59C316.1 131.48 316.12 131.37 316.12 131.25C316.12 131.11 316.09 131 316.03 130.9C315.97 130.8 315.88 130.72 315.77 130.67C315.66 130.62 315.54 130.59 315.4 130.59C315.26 130.59 315.13 130.62 315.02 130.68C314.91 130.74 314.83 130.82 314.77 130.93C314.71 131.04 314.68 131.17 314.68 131.31H313.93C313.93 131.03 313.99 130.79 314.12 130.59C314.25 130.39 314.42 130.23 314.64 130.12C314.86 130.01 315.12 129.95 315.4 129.95C315.68 129.95 315.95 130 316.17 130.11C316.39 130.22 316.56 130.37 316.68 130.56C316.8 130.75 316.86 130.97 316.86 131.21C316.86 131.37 316.83 131.53 316.77 131.69C316.71 131.85 316.6 132.02 316.44 132.21C316.28 132.4 316.07 132.63 315.78 132.9L315.03 133.66V133.69H316.92V134.35H313.94L313.96 134.36ZM317.5 133.55V132.92L319.34 130.01H319.86V130.9H319.54L318.3 132.87V132.9H320.87V133.55H317.49H317.5ZM319.57 134.36V133.08V130.01H320.31V134.35H319.56L319.57 134.36Z" fill="#585E6C"/>
<path d="M329.69 132.19C329.69 132.65 329.61 133.04 329.44 133.38C329.27 133.71 329.05 133.97 328.76 134.15C328.47 134.33 328.14 134.42 327.77 134.42C327.4 134.42 327.07 134.33 326.78 134.15C326.49 133.97 326.26 133.71 326.1 133.38C325.93 133.05 325.85 132.65 325.85 132.19C325.85 131.73 325.93 131.34 326.1 131C326.27 130.66 326.49 130.41 326.78 130.23C327.07 130.05 327.4 129.96 327.77 129.96C328.14 129.96 328.47 130.05 328.76 130.23C329.05 130.41 329.28 130.67 329.44 131C329.6 131.33 329.69 131.73 329.69 132.19ZM329.18 132.19C329.18 131.81 329.12 131.5 328.99 131.24C328.87 130.98 328.7 130.79 328.48 130.65C328.27 130.52 328.03 130.45 327.77 130.45C327.51 130.45 327.27 130.52 327.06 130.65C326.85 130.78 326.68 130.98 326.55 131.24C326.43 131.5 326.36 131.82 326.36 132.19C326.36 132.56 326.42 132.88 326.55 133.14C326.68 133.4 326.84 133.59 327.06 133.73C327.27 133.86 327.51 133.93 327.77 133.93C328.03 133.93 328.27 133.86 328.48 133.73C328.69 133.6 328.86 133.4 328.99 133.14C329.12 132.88 329.18 132.56 329.18 132.19ZM330.51 134.36V131.1H330.99V131.59H331.02C331.08 131.43 331.19 131.3 331.34 131.2C331.5 131.1 331.67 131.05 331.87 131.05C331.91 131.05 331.95 131.05 332.01 131.05C332.07 131.05 332.11 131.05 332.14 131.05V131.56C332.14 131.56 332.08 131.55 332.02 131.54C331.96 131.54 331.9 131.53 331.83 131.53C331.67 131.53 331.53 131.56 331.41 131.63C331.29 131.7 331.19 131.79 331.12 131.9C331.05 132.01 331.01 132.15 331.01 132.29V134.35H330.51V134.36ZM333.69 134.44C333.48 134.44 333.3 134.4 333.13 134.32C332.96 134.24 332.83 134.13 332.73 133.98C332.63 133.83 332.58 133.65 332.58 133.44C332.58 133.25 332.62 133.1 332.69 132.99C332.76 132.87 332.86 132.78 332.99 132.71C333.11 132.64 333.25 132.59 333.4 132.56C333.55 132.53 333.7 132.5 333.85 132.48C334.05 132.45 334.21 132.44 334.33 132.42C334.45 132.41 334.55 132.38 334.6 132.35C334.66 132.32 334.69 132.26 334.69 132.18V132.16C334.69 131.95 334.63 131.79 334.52 131.67C334.41 131.55 334.24 131.5 334 131.5C333.76 131.5 333.57 131.55 333.44 131.66C333.3 131.76 333.21 131.88 333.15 132L332.67 131.83C332.76 131.63 332.87 131.48 333.01 131.37C333.15 131.26 333.31 131.18 333.48 131.14C333.65 131.09 333.82 131.07 333.98 131.07C334.08 131.07 334.2 131.08 334.34 131.11C334.48 131.13 334.61 131.18 334.74 131.26C334.87 131.34 334.98 131.45 335.06 131.61C335.15 131.76 335.19 131.97 335.19 132.23V134.38H334.69V133.94H334.66C334.63 134.01 334.57 134.09 334.49 134.17C334.41 134.25 334.31 134.32 334.17 134.38C334.04 134.44 333.88 134.46 333.69 134.46V134.44ZM333.77 133.99C333.97 133.99 334.13 133.95 334.27 133.87C334.41 133.79 334.51 133.69 334.58 133.57C334.65 133.45 334.69 133.32 334.69 133.18V132.72C334.69 132.72 334.62 132.77 334.55 132.79C334.48 132.81 334.4 132.83 334.3 132.84C334.21 132.85 334.12 132.87 334.03 132.88C333.94 132.88 333.87 132.9 333.82 132.91C333.69 132.93 333.57 132.95 333.46 132.99C333.35 133.03 333.26 133.08 333.19 133.16C333.12 133.23 333.09 133.33 333.09 133.46C333.09 133.63 333.15 133.77 333.28 133.85C333.41 133.94 333.58 133.98 333.77 133.98V133.99ZM336.6 132.4V134.36H336.1V131.1H336.58V131.61H336.62C336.7 131.44 336.81 131.31 336.97 131.21C337.13 131.11 337.33 131.06 337.57 131.06C337.79 131.06 337.98 131.11 338.15 131.2C338.32 131.29 338.44 131.42 338.54 131.61C338.63 131.79 338.68 132.02 338.68 132.3V134.37H338.18V132.33C338.18 132.07 338.11 131.87 337.98 131.73C337.85 131.59 337.66 131.51 337.43 131.51C337.27 131.51 337.13 131.54 337 131.61C336.88 131.68 336.78 131.78 336.7 131.91C336.63 132.04 336.59 132.2 336.59 132.39L336.6 132.4ZM340.91 135.65C340.67 135.65 340.46 135.62 340.29 135.56C340.12 135.5 339.97 135.42 339.85 135.32C339.74 135.22 339.64 135.11 339.58 135L339.98 134.72C340.03 134.78 340.08 134.85 340.15 134.92C340.22 135 340.31 135.06 340.43 135.12C340.55 135.18 340.71 135.21 340.91 135.21C341.17 135.21 341.39 135.15 341.56 135.02C341.73 134.89 341.82 134.69 341.82 134.42V133.76H341.78C341.74 133.82 341.69 133.89 341.62 133.98C341.55 134.07 341.46 134.14 341.33 134.21C341.21 134.28 341.04 134.31 340.82 134.31C340.56 134.31 340.32 134.25 340.11 134.12C339.9 134 339.74 133.81 339.62 133.58C339.5 133.34 339.44 133.05 339.44 132.71C339.44 132.37 339.5 132.09 339.62 131.84C339.74 131.59 339.9 131.4 340.11 131.26C340.32 131.12 340.56 131.05 340.84 131.05C341.05 131.05 341.22 131.09 341.35 131.16C341.48 131.23 341.57 131.31 341.64 131.4C341.71 131.49 341.76 131.56 341.8 131.62H341.85V131.1H342.33V134.45C342.33 134.73 342.27 134.96 342.14 135.13C342.01 135.31 341.84 135.44 341.63 135.52C341.42 135.6 341.18 135.65 340.92 135.65H340.91ZM340.89 133.86C341.09 133.86 341.26 133.81 341.4 133.72C341.54 133.63 341.64 133.5 341.72 133.32C341.79 133.15 341.83 132.94 341.83 132.7C341.83 132.46 341.79 132.26 341.72 132.08C341.65 131.9 341.54 131.76 341.41 131.66C341.27 131.56 341.1 131.51 340.9 131.51C340.7 131.51 340.51 131.56 340.37 131.67C340.23 131.78 340.12 131.92 340.05 132.1C339.98 132.28 339.95 132.48 339.95 132.7C339.95 132.92 339.99 133.13 340.06 133.3C340.13 133.47 340.24 133.61 340.38 133.71C340.52 133.81 340.7 133.86 340.91 133.86H340.89ZM344.74 130.48V130.01H348V130.48H346.63V134.36H346.1V130.48H344.73H344.74ZM349.64 134.43C349.33 134.43 349.05 134.36 348.83 134.22C348.6 134.08 348.43 133.88 348.31 133.63C348.19 133.38 348.13 133.09 348.13 132.75C348.13 132.41 348.19 132.12 348.31 131.87C348.43 131.61 348.6 131.41 348.82 131.27C349.04 131.13 349.3 131.05 349.59 131.05C349.76 131.05 349.93 131.08 350.09 131.13C350.25 131.18 350.41 131.28 350.54 131.41C350.68 131.54 350.78 131.7 350.86 131.91C350.94 132.12 350.98 132.37 350.98 132.68V132.89H348.47V132.46H350.47C350.47 132.28 350.43 132.11 350.36 131.97C350.29 131.83 350.18 131.71 350.05 131.63C349.92 131.55 349.76 131.5 349.58 131.5C349.38 131.5 349.21 131.55 349.06 131.65C348.92 131.75 348.8 131.87 348.73 132.03C348.65 132.19 348.61 132.36 348.61 132.53V132.82C348.61 133.07 348.65 133.27 348.74 133.45C348.83 133.62 348.95 133.75 349.1 133.84C349.25 133.93 349.43 133.97 349.63 133.97C349.76 133.97 349.88 133.95 349.99 133.91C350.1 133.87 350.19 133.82 350.27 133.74C350.35 133.66 350.41 133.57 350.45 133.46L350.93 133.6C350.88 133.76 350.79 133.91 350.67 134.03C350.55 134.15 350.4 134.25 350.22 134.32C350.04 134.39 349.84 134.42 349.62 134.42L349.64 134.43ZM351.75 134.36V131.1H352.23V131.59H352.26C352.32 131.43 352.43 131.3 352.58 131.2C352.74 131.1 352.91 131.05 353.11 131.05C353.15 131.05 353.19 131.05 353.25 131.05C353.31 131.05 353.35 131.05 353.37 131.05V131.56C353.37 131.56 353.31 131.55 353.25 131.54C353.19 131.54 353.13 131.53 353.06 131.53C352.9 131.53 352.76 131.56 352.64 131.63C352.52 131.7 352.42 131.79 352.35 131.9C352.28 132.01 352.24 132.15 352.24 132.29V134.35H351.74L351.75 134.36ZM355.19 135.65C354.95 135.65 354.74 135.62 354.57 135.56C354.4 135.5 354.25 135.42 354.14 135.32C354.03 135.22 353.93 135.11 353.87 135L354.27 134.72C354.32 134.78 354.37 134.85 354.44 134.92C354.51 135 354.6 135.06 354.72 135.12C354.84 135.18 355 135.21 355.2 135.21C355.46 135.21 355.68 135.15 355.85 135.02C356.02 134.89 356.11 134.69 356.11 134.42V133.76H356.07C356.03 133.82 355.98 133.89 355.91 133.98C355.84 134.07 355.75 134.14 355.62 134.21C355.5 134.28 355.33 134.31 355.12 134.31C354.86 134.31 354.62 134.25 354.41 134.12C354.2 134 354.04 133.81 353.92 133.58C353.8 133.34 353.74 133.05 353.74 132.71C353.74 132.37 353.8 132.09 353.92 131.84C354.04 131.59 354.2 131.4 354.41 131.26C354.62 131.12 354.86 131.05 355.14 131.05C355.35 131.05 355.52 131.09 355.65 131.16C355.78 131.23 355.87 131.31 355.94 131.4C356.01 131.49 356.06 131.56 356.1 131.62H356.15V131.1H356.63V134.45C356.63 134.73 356.57 134.96 356.44 135.13C356.31 135.31 356.14 135.44 355.93 135.52C355.72 135.6 355.48 135.65 355.22 135.65H355.19ZM355.17 133.86C355.37 133.86 355.54 133.81 355.68 133.72C355.82 133.63 355.92 133.5 356 133.32C356.07 133.15 356.11 132.94 356.11 132.7C356.11 132.46 356.07 132.26 356 132.08C355.93 131.9 355.82 131.76 355.69 131.66C355.55 131.56 355.38 131.51 355.18 131.51C354.98 131.51 354.79 131.56 354.65 131.67C354.51 131.78 354.4 131.92 354.33 132.1C354.26 132.28 354.23 132.48 354.23 132.7C354.23 132.92 354.27 133.13 354.34 133.3C354.41 133.47 354.52 133.61 354.66 133.71C354.8 133.81 354.98 133.86 355.19 133.86H355.17ZM358.47 134.44C358.26 134.44 358.08 134.4 357.91 134.32C357.74 134.24 357.61 134.13 357.51 133.98C357.41 133.83 357.36 133.65 357.36 133.44C357.36 133.25 357.4 133.1 357.47 132.99C357.54 132.87 357.64 132.78 357.76 132.71C357.88 132.64 358.02 132.59 358.17 132.56C358.32 132.53 358.47 132.5 358.62 132.48C358.82 132.45 358.98 132.44 359.1 132.42C359.22 132.41 359.32 132.38 359.37 132.35C359.43 132.32 359.46 132.26 359.46 132.18V132.16C359.46 131.95 359.4 131.79 359.29 131.67C359.18 131.55 359.01 131.5 358.77 131.5C358.53 131.5 358.34 131.55 358.21 131.66C358.07 131.76 357.98 131.88 357.92 132L357.44 131.83C357.52 131.63 357.64 131.48 357.78 131.37C357.92 131.26 358.08 131.18 358.25 131.14C358.42 131.09 358.59 131.07 358.75 131.07C358.85 131.07 358.98 131.08 359.11 131.11C359.25 131.13 359.38 131.18 359.51 131.26C359.64 131.34 359.75 131.45 359.83 131.61C359.91 131.76 359.96 131.97 359.96 132.23V134.38H359.46V133.94H359.43C359.4 134.01 359.34 134.09 359.26 134.17C359.18 134.25 359.08 134.32 358.94 134.38C358.81 134.44 358.65 134.46 358.46 134.46L358.47 134.44ZM358.55 133.99C358.75 133.99 358.91 133.95 359.05 133.87C359.19 133.79 359.29 133.69 359.36 133.57C359.43 133.45 359.47 133.32 359.47 133.18V132.72C359.47 132.72 359.4 132.77 359.33 132.79C359.26 132.81 359.18 132.83 359.08 132.84C358.99 132.85 358.9 132.87 358.81 132.88C358.72 132.88 358.65 132.9 358.6 132.91C358.47 132.93 358.35 132.95 358.23 132.99C358.12 133.03 358.03 133.08 357.96 133.16C357.89 133.23 357.86 133.33 357.86 133.46C357.86 133.63 357.92 133.77 358.05 133.85C358.18 133.94 358.35 133.98 358.54 133.98L358.55 133.99ZM360.95 134.36V130.02H361.45V131.62H361.49C361.53 131.56 361.58 131.49 361.64 131.4C361.71 131.31 361.8 131.23 361.92 131.16C362.04 131.09 362.21 131.05 362.42 131.05C362.69 131.05 362.94 131.12 363.15 131.26C363.36 131.4 363.52 131.59 363.64 131.84C363.76 132.09 363.82 132.39 363.82 132.73C363.82 133.07 363.76 133.37 363.64 133.63C363.52 133.88 363.36 134.08 363.15 134.22C362.94 134.36 362.7 134.43 362.43 134.43C362.22 134.43 362.05 134.4 361.93 134.33C361.8 134.26 361.71 134.18 361.64 134.09C361.57 134 361.52 133.92 361.48 133.87H361.42V134.37H360.94L360.95 134.36ZM361.44 132.73C361.44 132.98 361.48 133.19 361.55 133.38C361.62 133.57 361.73 133.71 361.87 133.82C362.01 133.92 362.18 133.98 362.38 133.98C362.58 133.98 362.76 133.92 362.9 133.81C363.04 133.7 363.15 133.55 363.22 133.36C363.29 133.17 363.33 132.96 363.33 132.73C363.33 132.5 363.29 132.29 363.22 132.11C363.15 131.92 363.05 131.78 362.9 131.67C362.76 131.56 362.58 131.51 362.37 131.51C362.16 131.51 362 131.56 361.86 131.66C361.72 131.76 361.62 131.9 361.55 132.09C361.48 132.27 361.44 132.49 361.44 132.73ZM366.64 133.03V131.1H367.14V134.36H366.64V133.81H366.61C366.53 133.98 366.41 134.12 366.25 134.23C366.09 134.34 365.89 134.4 365.64 134.4C365.44 134.4 365.26 134.36 365.1 134.27C364.94 134.18 364.82 134.04 364.73 133.86C364.64 133.68 364.59 133.45 364.59 133.17V131.1H365.09V133.14C365.09 133.38 365.16 133.57 365.29 133.71C365.42 133.85 365.6 133.92 365.8 133.92C365.92 133.92 366.05 133.89 366.18 133.82C366.31 133.76 366.42 133.66 366.51 133.53C366.6 133.4 366.64 133.23 366.64 133.03ZM368.56 132.4V134.36H368.06V131.1H368.54V131.61H368.58C368.66 131.44 368.77 131.31 368.93 131.21C369.09 131.11 369.29 131.06 369.53 131.06C369.75 131.06 369.94 131.11 370.11 131.2C370.28 131.29 370.4 131.42 370.5 131.61C370.59 131.79 370.64 132.02 370.64 132.3V134.37H370.14V132.33C370.14 132.07 370.07 131.87 369.94 131.73C369.81 131.59 369.62 131.51 369.39 131.51C369.23 131.51 369.09 131.54 368.96 131.61C368.84 131.68 368.74 131.78 368.66 131.91C368.58 132.04 368.55 132.2 368.55 132.39L368.56 132.4ZM372.87 135.65C372.63 135.65 372.42 135.62 372.25 135.56C372.08 135.5 371.93 135.42 371.82 135.32C371.71 135.22 371.61 135.11 371.55 135L371.95 134.72C372 134.78 372.05 134.85 372.12 134.92C372.19 135 372.28 135.06 372.4 135.12C372.52 135.18 372.68 135.21 372.88 135.21C373.14 135.21 373.36 135.15 373.53 135.02C373.7 134.89 373.79 134.69 373.79 134.42V133.76H373.75C373.71 133.82 373.66 133.89 373.59 133.98C373.52 134.07 373.43 134.14 373.3 134.21C373.18 134.28 373.01 134.31 372.79 134.31C372.53 134.31 372.29 134.25 372.08 134.12C371.87 134 371.71 133.81 371.59 133.58C371.47 133.34 371.41 133.05 371.41 132.71C371.41 132.37 371.47 132.09 371.59 131.84C371.71 131.59 371.87 131.4 372.08 131.26C372.29 131.12 372.53 131.05 372.81 131.05C373.02 131.05 373.19 131.09 373.31 131.16C373.44 131.23 373.53 131.31 373.6 131.4C373.67 131.49 373.72 131.56 373.76 131.62H373.81V131.1H374.29V134.45C374.29 134.73 374.23 134.96 374.1 135.13C373.97 135.31 373.8 135.44 373.59 135.52C373.38 135.6 373.14 135.65 372.88 135.65H372.87ZM372.85 133.86C373.05 133.86 373.22 133.81 373.36 133.72C373.5 133.63 373.6 133.5 373.68 133.32C373.75 133.15 373.79 132.94 373.79 132.7C373.79 132.46 373.75 132.26 373.68 132.08C373.61 131.9 373.5 131.76 373.37 131.66C373.24 131.56 373.06 131.51 372.86 131.51C372.66 131.51 372.47 131.56 372.33 131.67C372.19 131.78 372.08 131.92 372.01 132.1C371.94 132.28 371.91 132.48 371.91 132.7C371.91 132.92 371.95 133.13 372.02 133.3C372.09 133.47 372.2 133.61 372.34 133.71C372.48 133.81 372.66 133.86 372.87 133.86H372.85Z" fill="#757C86"/>
<path opacity="0.19" d="M374.7 188.95C372.09 195.54 367.42 201.12 361.38 204.84C355.34 208.56 348.26 210.23 341.2 209.59L344.14 176.86L374.69 188.94L374.7 188.95Z" fill="#39404F"/>
<path opacity="0.53" d="M322.97 151.74C328.59 147 335.64 144.29 342.99 144.03C350.34 143.77 357.56 145.99 363.5 150.32C369.44 154.65 373.76 160.85 375.76 167.93C377.76 175.01 377.33 182.55 374.53 189.35L344.14 176.87L322.97 151.74Z" fill="#39404F"/>
<path d="M340.99 209.57C334.52 208.95 328.38 206.42 323.35 202.3C318.32 198.19 314.62 192.67 312.72 186.46C310.82 180.24 310.81 173.61 312.68 167.38C314.55 161.16 318.23 155.63 323.25 151.5L344.14 176.86L340.98 209.57H340.99Z" fill="#39404F"/>
<path d="M47.9899 19.8301C48.8499 24.1101 49.5399 24.8001 53.8199 25.6601C49.5399 26.5201 48.8499 27.2101 47.9899 31.4901C47.1299 27.2101 46.4399 26.5201 42.1599 25.6601C46.4399 24.8001 47.1299 24.1101 47.9899 19.8301Z" fill="#B2E7DB"/>
<path d="M47.9899 19.8301C48.8499 24.1101 49.5399 24.8001 53.8199 25.6601C49.5399 26.5201 48.8499 27.2101 47.9899 31.4901C47.1299 27.2101 46.4399 26.5201 42.1599 25.6601C46.4399 24.8001 47.1299 24.1101 47.9899 19.8301Z" stroke="#21324C" stroke-width="0.5"/>
</g>
<defs>
<linearGradient id="paint0_linear_713_12421" x1="218.25" y1="185.61" x2="220.13" y2="100.65" gradientUnits="userSpaceOnUse">
<stop stop-color="white"/>
<stop offset="1" stop-color="#757C86" stop-opacity="0.33"/>
</linearGradient>
<clipPath id="clip0_713_12421">
<rect width="462" height="243" fill="white"/>
</clipPath>
</defs>
</svg>
