<svg width="520" height="520" viewBox="0 0 520 520" fill="none" xmlns="http://www.w3.org/2000/svg">
<path d="M353.906 24.52L478.774 54.2498C478.774 54.2498 461.848 121.486 461.393 122.86L400.755 108.687L393.343 106.95L342.008 94.956L301.301 60.1976L353.906 24.52Z" fill="#05B08B"/>
<path d="M460.022 334.637L392.961 364.269L384.919 367.82L361.682 378.091L318.227 357.051C318.227 357.051 354.36 310.396 355.273 309.028C355.61 308.523 369.665 302.302 387.33 294.617C389.876 293.509 392.494 292.375 395.157 291.221C424.434 278.534 459.111 263.742 459.111 263.742L460.022 334.637Z" fill="#182233"/>
<path fill-rule="evenodd" clip-rule="evenodd" d="M253.055 56.1008C253.567 56.2326 253.879 56.7488 253.759 57.2632C253.747 57.315 253.735 57.368 253.722 57.4217C253.669 57.6481 253.613 57.8892 253.553 58.1246C253.423 58.636 252.908 58.9497 252.393 58.8313C251.879 58.7128 251.553 58.2055 251.659 57.6885C251.721 57.3902 251.791 57.0843 251.877 56.7782C252.02 56.2698 252.543 55.969 253.055 56.1008Z" fill="#182233"/>
<path fill-rule="evenodd" clip-rule="evenodd" d="M259.473 45.3244C260.17 44.9602 261.012 44.7241 261.925 44.9072C263.319 45.1837 264.123 46.2319 264.542 47.3135C264.957 48.3876 265.059 49.6349 264.999 50.6852L264.999 50.6879C264.733 55.1149 263.422 59.4156 261.174 63.2386C261.173 63.239 261.173 63.2394 261.173 63.2398L261.038 63.4706C260.767 63.9342 260.172 64.0905 259.709 63.8198C259.245 63.5491 259.089 62.9539 259.359 62.4903L259.496 62.2569L259.497 62.2543C261.59 58.696 262.81 54.693 263.058 50.5725C263.108 49.6985 263.013 48.7497 262.729 48.0148C262.447 47.2873 262.049 46.9135 261.546 46.8139L261.543 46.8133C261.199 46.7442 260.817 46.8156 260.374 47.0473C259.925 47.2819 259.476 47.6497 259.046 48.0701C256.477 50.6038 254.648 53.7901 253.753 57.2856C253.62 57.8057 253.091 58.1195 252.571 57.9864C252.051 57.8534 251.737 57.324 251.87 56.8039C252.852 52.9655 254.861 49.4667 257.683 46.6846L257.685 46.6822L257.685 46.6822C258.176 46.2019 258.782 45.6857 259.473 45.3244Z" fill="#182233"/>
<path fill-rule="evenodd" clip-rule="evenodd" d="M353.36 23.7159C353.586 23.5628 353.865 23.5116 354.131 23.5748L479.002 53.3035C479.255 53.3637 479.473 53.5227 479.608 53.7449C479.742 53.9672 479.783 54.2342 479.719 54.4863L478.777 54.249C479.719 54.4863 479.719 54.4866 479.719 54.4871L479.718 54.4894L478.991 57.3782C478.527 59.2194 477.864 61.8512 477.067 65.0137C475.473 71.3386 473.343 79.7862 471.198 88.2768C469.054 96.7673 466.895 105.301 465.244 111.798C463.603 118.258 462.445 122.777 462.318 123.164C462.16 123.642 461.664 123.92 461.174 123.806L400.534 109.634L393.122 107.898L341.787 95.9039C341.636 95.8685 341.495 95.7975 341.377 95.6966L300.67 60.9382C300.439 60.7413 300.314 60.4481 300.331 60.1453C300.347 59.8425 300.505 59.5649 300.756 59.3946L353.36 23.7159ZM477.594 54.9665L354.097 25.565L302.902 60.2878L342.46 94.0647L393.564 106.005L400.977 107.741L460.703 121.699C460.71 121.672 460.717 121.644 460.725 121.616C460.873 121.05 461.078 120.259 461.331 119.275C461.837 117.306 462.535 114.568 463.36 111.32C465.011 104.824 467.169 96.2911 469.313 87.8008C471.458 79.3106 473.588 70.8633 475.182 64.5386C475.979 61.3762 476.642 58.7445 477.106 56.9033L477.594 54.9665Z" fill="#182233"/>
<path fill-rule="evenodd" clip-rule="evenodd" d="M475.099 173.117C475.357 173.114 475.605 173.212 475.789 173.391L519.704 215.932C520.073 216.289 520.1 216.872 519.767 217.262L487.289 255.228C487.102 255.447 486.827 255.571 486.539 255.568L396.06 254.531L388.97 254.447L326.905 253.734C326.646 253.731 326.398 253.625 326.218 253.438C326.037 253.251 325.939 253 325.945 252.741L326.859 211.573C326.871 211.037 327.315 210.611 327.852 210.623C328.389 210.635 328.814 211.08 328.802 211.616L327.91 251.802L388.992 252.503L396.082 252.587L486.107 253.619L517.695 216.693L474.725 175.067L377.504 176.428L377.493 176.428L377.257 176.434C376.721 176.448 376.275 176.023 376.262 175.487C376.248 174.95 376.673 174.504 377.209 174.491L377.456 174.485L377.466 174.485L475.099 173.117Z" fill="#182233"/>
<path fill-rule="evenodd" clip-rule="evenodd" d="M458.727 262.847C459.025 262.719 459.367 262.749 459.639 262.926C459.91 263.103 460.076 263.404 460.08 263.728L460.994 334.625C460.999 335.015 460.771 335.369 460.415 335.527L393.354 365.158L385.309 368.709L385.309 368.709L362.072 378.98C361.811 379.095 361.513 379.09 361.256 378.966L317.801 357.925C317.537 357.797 317.345 357.557 317.278 357.272C317.211 356.987 317.277 356.687 317.456 356.455L318.225 357.05C317.456 356.455 317.456 356.455 317.457 356.455L317.458 356.453L319.01 354.448C320 353.169 321.415 351.342 323.116 349.144C326.518 344.749 331.063 338.874 335.636 332.957C344.808 321.091 354.03 309.134 354.463 308.487C354.576 308.317 354.726 308.209 354.767 308.179L354.771 308.176C354.841 308.126 354.919 308.077 354.993 308.032C355.144 307.942 355.341 307.835 355.573 307.715C356.041 307.473 356.699 307.152 357.523 306.764C359.173 305.985 361.521 304.917 364.404 303.627C370.173 301.046 378.106 297.568 386.939 293.725C389.464 292.626 392.059 291.502 394.698 290.359L394.768 290.328C394.768 290.328 394.768 290.328 394.768 290.328C409.409 283.985 425.399 277.114 437.728 271.83C443.893 269.188 449.142 266.942 452.851 265.357C454.705 264.564 456.174 263.936 457.179 263.507L458.727 262.847C458.727 262.846 458.727 262.847 459.108 263.741L458.727 262.847ZM458.155 265.204L457.943 265.295C456.938 265.724 455.469 266.352 453.615 267.144C449.907 268.729 444.658 270.975 438.494 273.617C426.166 278.9 410.179 285.77 395.541 292.112L395.476 292.14C392.835 293.284 390.24 294.408 387.715 295.507C378.883 299.35 370.957 302.824 365.198 305.401C362.318 306.69 359.984 307.752 358.352 308.522C357.535 308.907 356.902 309.216 356.467 309.441C356.248 309.554 356.092 309.64 355.991 309.701C355.987 309.703 355.983 309.705 355.979 309.708C354.852 311.254 345.931 322.816 337.174 334.146C332.6 340.064 328.055 345.938 324.653 350.334C322.952 352.532 321.537 354.359 320.548 355.638L319.727 356.698L361.698 377.02L384.523 366.931L384.524 366.93L392.568 363.38L459.042 334.008L458.155 265.204ZM356.08 309.566C356.08 309.566 356.079 309.567 356.079 309.567L356.08 309.566Z" fill="#182233"/>
<path fill-rule="evenodd" clip-rule="evenodd" d="M393.325 106.193C393.862 106.211 394.282 106.661 394.263 107.198C393.486 129.9 392.838 151.928 392.346 174.868C392.334 175.405 391.89 175.831 391.353 175.819C390.816 175.808 390.391 175.363 390.402 174.827C390.894 151.876 391.543 129.84 392.32 107.131C392.339 106.595 392.789 106.175 393.325 106.193Z" fill="#182233"/>
<path fill-rule="evenodd" clip-rule="evenodd" d="M389.026 252.881C389.562 252.908 389.975 253.364 389.947 253.901C389.261 267.47 388.744 281.048 388.303 294.635C388.302 294.685 388.3 294.732 388.298 294.759L388.298 294.764C388.297 294.782 388.297 294.794 388.296 294.804L388.296 294.814C388.296 294.817 388.296 294.818 388.296 294.817C388.296 295.354 387.861 295.789 387.324 295.789C386.787 295.789 386.352 295.354 386.352 294.817C386.352 294.761 386.355 294.706 386.356 294.675L386.357 294.67C386.357 294.652 386.358 294.64 386.358 294.63L386.359 294.62C386.359 294.618 386.359 294.618 386.359 294.617L386.359 294.617C386.359 294.606 386.359 294.596 386.359 294.585C386.801 280.986 387.319 267.392 388.006 253.802C388.033 253.266 388.49 252.854 389.026 252.881Z" fill="#182233"/>
<path fill-rule="evenodd" clip-rule="evenodd" d="M385.242 367.478C385.779 367.502 386.194 367.957 386.169 368.493C385.192 390.061 384.76 411.62 384.326 433.235C383.98 450.496 383.633 467.794 383.008 485.162C382.988 485.698 382.538 486.118 382.001 486.098C381.465 486.079 381.046 485.628 381.065 485.092C381.687 467.812 382.035 450.524 382.382 433.253C382.817 411.591 383.251 389.958 384.227 368.405C384.252 367.869 384.706 367.454 385.242 367.478Z" fill="#182233"/>
<path fill-rule="evenodd" clip-rule="evenodd" d="M383.71 484.783C383.824 485.284 383.527 485.787 383.034 485.931C382.73 486.019 382.419 486.074 382.106 486.097C381.592 486.134 381.139 485.763 381.073 485.252C381.006 484.742 381.35 484.268 381.856 484.172C382.098 484.126 382.353 484.079 382.606 484.038C383.113 483.955 383.597 484.282 383.71 484.783Z" fill="#182233"/>
<path fill-rule="evenodd" clip-rule="evenodd" d="M393.388 364.244C393.925 364.247 394.358 364.685 394.355 365.221C394.138 404.603 392.256 443.474 390.347 482.927L390.245 485.019C390.229 485.37 390.023 485.684 389.709 485.841C388.105 486.643 386.69 486.418 385.511 486.188C385.434 486.174 385.359 486.159 385.285 486.144C384.188 485.928 383.325 485.758 382.314 486.059C381.799 486.212 381.258 485.919 381.105 485.404C380.952 484.89 381.245 484.349 381.76 484.196C383.25 483.753 384.563 484.016 385.609 484.226C385.703 484.245 385.793 484.263 385.882 484.28C386.804 484.46 387.546 484.559 388.334 484.309L388.404 482.851C390.314 443.385 392.194 404.55 392.411 365.211C392.414 364.674 392.851 364.241 393.388 364.244Z" fill="#182233"/>
<path fill-rule="evenodd" clip-rule="evenodd" d="M396.072 252.51C396.609 252.51 397.044 252.945 397.044 253.482V253.56L397.044 253.569C396.921 266.133 396.538 278.701 396.13 291.253C396.129 291.28 396.127 291.308 396.124 291.335C396.132 291.868 395.71 292.309 395.176 292.322C394.64 292.336 394.194 291.912 394.18 291.375C394.178 291.301 394.181 291.226 394.188 291.152C394.596 278.615 394.977 266.08 395.1 253.555V253.482C395.1 252.945 395.535 252.51 396.072 252.51Z" fill="#182233"/>
<path fill-rule="evenodd" clip-rule="evenodd" d="M400.725 108.159C401.261 108.199 401.662 108.666 401.622 109.201C400.494 124.186 400.135 138.849 399.772 153.635C399.602 160.571 399.432 167.535 399.181 174.571C399.162 175.108 398.711 175.527 398.175 175.508C397.638 175.489 397.219 175.039 397.238 174.502C397.487 167.513 397.658 160.573 397.827 153.648C398.19 138.836 398.552 124.089 399.683 109.055C399.723 108.52 400.19 108.119 400.725 108.159Z" fill="#182233"/>
<path fill-rule="evenodd" clip-rule="evenodd" d="M342.637 485.73C342.641 485.193 343.079 484.761 343.616 484.764L433.272 485.334C433.809 485.338 434.241 485.776 434.238 486.312C434.234 486.849 433.796 487.282 433.259 487.278L343.603 486.708C343.066 486.705 342.634 486.267 342.637 485.73Z" fill="#182233"/>
<path fill-rule="evenodd" clip-rule="evenodd" d="M158.393 59.7045C158.79 59.3433 159.405 59.3726 159.766 59.7698L166.627 67.3168C166.988 67.714 166.959 68.3287 166.562 68.6898C166.164 69.0509 165.55 69.0216 165.189 68.6244L158.327 61.0775C157.966 60.6803 157.996 60.0656 158.393 59.7045Z" fill="#05B08B"/>
<path fill-rule="evenodd" clip-rule="evenodd" d="M164.422 59.6376C164.856 59.9534 164.952 60.5613 164.637 60.9954L159.148 68.5424C158.832 68.9765 158.224 69.0725 157.79 68.7567C157.356 68.441 157.26 67.8331 157.576 67.399L163.064 59.852C163.38 59.4179 163.988 59.3219 164.422 59.6376Z" fill="#05B08B"/>
<path fill-rule="evenodd" clip-rule="evenodd" d="M215.319 30.908C215.714 30.5443 216.328 30.5695 216.692 30.9643L224.917 39.8912C225.281 40.286 225.256 40.9009 224.861 41.2647C224.466 41.6284 223.851 41.6033 223.488 41.2085L215.263 32.2815C214.899 31.8867 214.924 31.2718 215.319 30.908Z" fill="#182233"/>
<path fill-rule="evenodd" clip-rule="evenodd" d="M223.619 30.9951C224 31.3733 224.002 31.9887 223.624 32.3697L215.421 40.6328C215.043 41.0138 214.427 41.0161 214.046 40.6379C213.666 40.2597 213.663 39.6442 214.041 39.2633L222.244 31.0001C222.623 30.6191 223.238 30.6169 223.619 30.9951Z" fill="#182233"/>
<path fill-rule="evenodd" clip-rule="evenodd" d="M296.224 103.008C296.577 102.604 297.191 102.563 297.596 102.916L303.084 107.717C303.488 108.07 303.529 108.684 303.176 109.088C302.823 109.492 302.209 109.533 301.804 109.18L296.316 104.379C295.912 104.026 295.871 103.412 296.224 103.008Z" fill="#182233"/>
<path fill-rule="evenodd" clip-rule="evenodd" d="M302.342 101.498C302.771 101.82 302.858 102.43 302.536 102.859L296.361 111.092C296.039 111.522 295.43 111.609 295 111.287C294.571 110.965 294.484 110.355 294.806 109.926L300.981 101.693C301.303 101.263 301.913 101.176 302.342 101.498Z" fill="#182233"/>
<path fill-rule="evenodd" clip-rule="evenodd" d="M358.446 47.1703C358.565 46.647 359.087 46.3199 359.61 46.4398L449.491 67.023C450.014 67.1428 450.341 67.6641 450.221 68.1874C450.101 68.7107 449.58 69.0377 449.057 68.9179L359.176 48.3347C358.653 48.2149 358.326 47.6935 358.446 47.1703Z" fill="#182233"/>
<path fill-rule="evenodd" clip-rule="evenodd" d="M388.63 75.3179C388.741 74.7926 389.256 74.4564 389.782 74.5669L441.926 85.5444C442.452 85.655 442.788 86.1705 442.677 86.6958C442.567 87.2211 442.051 87.5573 441.526 87.4467L389.381 76.4692C388.856 76.3586 388.52 75.8432 388.63 75.3179Z" fill="#182233"/>
<path fill-rule="evenodd" clip-rule="evenodd" d="M426.836 300.173C427.051 300.665 426.827 301.238 426.335 301.454L371.446 325.467C370.954 325.682 370.381 325.458 370.166 324.966C369.951 324.475 370.175 323.901 370.667 323.686L425.556 299.673C426.047 299.457 426.621 299.682 426.836 300.173Z" fill="#05B08B"/>
<path fill-rule="evenodd" clip-rule="evenodd" d="M438.491 315.934C438.718 316.42 438.507 316.998 438.02 317.225L359.803 353.589C359.316 353.815 358.738 353.604 358.512 353.117C358.285 352.63 358.497 352.052 358.983 351.826L437.2 315.462C437.687 315.236 438.265 315.447 438.491 315.934Z" fill="#05B08B"/>
<path d="M288.273 27.4067L294.035 29.6591C294.084 29.6781 294.125 29.7115 294.154 29.7549C294.183 29.7984 294.199 29.8497 294.198 29.902C294.197 29.9542 294.179 30.005 294.149 30.0473C294.118 30.0897 294.075 30.1215 294.026 30.1387L288.183 32.1737C288.135 32.1905 288.094 32.221 288.063 32.2613C288.033 32.3017 288.015 32.35 288.012 32.4005L287.653 38.5768C287.65 38.6289 287.631 38.6788 287.598 38.7199C287.566 38.761 287.522 38.7911 287.472 38.8063C287.422 38.8215 287.369 38.821 287.319 38.805C287.269 38.7889 287.226 38.758 287.194 38.7164L283.453 33.7888C283.422 33.7485 283.381 33.7182 283.333 33.7017C283.285 33.6852 283.233 33.6832 283.185 33.6961L277.199 35.261C277.148 35.2747 277.094 35.2725 277.045 35.2547C276.995 35.2368 276.953 35.2041 276.923 35.1611C276.893 35.1181 276.876 35.0668 276.876 35.0143C276.877 34.9618 276.893 34.9106 276.923 34.8676L280.455 29.7872C280.483 29.7456 280.499 29.6964 280.5 29.6458C280.501 29.5952 280.487 29.5455 280.46 29.503L277.122 24.294C277.094 24.25 277.079 24.1984 277.081 24.1462C277.084 24.0941 277.102 24.0438 277.133 24.0021C277.165 23.9604 277.208 23.9294 277.258 23.9131C277.307 23.8968 277.361 23.8961 277.411 23.9111L283.334 25.6989C283.382 25.7135 283.434 25.7134 283.482 25.6987C283.53 25.6839 283.573 25.6552 283.605 25.6161L287.528 20.832C287.561 20.7917 287.606 20.7625 287.656 20.7484C287.706 20.7342 287.76 20.7357 287.809 20.7528C287.859 20.7699 287.902 20.8016 287.932 20.8438C287.963 20.8859 287.98 20.9365 287.982 20.9887L288.112 27.1744C288.112 27.2246 288.128 27.2735 288.157 27.3148C288.185 27.3562 288.226 27.3881 288.273 27.4067Z" fill="#05B08B"/>
<path fill-rule="evenodd" clip-rule="evenodd" d="M337.952 157.866C338.215 158.03 338.383 158.31 338.406 158.619L339.321 171.121C339.346 171.467 339.185 171.8 338.899 171.995C338.613 172.191 338.244 172.219 337.931 172.069L323.294 165.055C322.947 164.888 322.73 164.532 322.743 164.146C322.756 163.761 322.995 163.419 323.353 163.276L337.076 157.787C337.363 157.672 337.689 157.701 337.952 157.866ZM326.131 164.259L337.26 169.591L336.564 160.086L326.131 164.259Z" fill="#182233"/>
<path fill-rule="evenodd" clip-rule="evenodd" d="M305.713 189.18C305.99 189.084 306.296 189.12 306.545 189.276L322.097 199.034C322.437 199.247 322.611 199.648 322.534 200.042C322.458 200.436 322.147 200.743 321.751 200.814L301.321 204.473C300.978 204.534 300.629 204.408 300.406 204.142C300.182 203.876 300.117 203.51 300.236 203.184L305.115 189.767C305.215 189.491 305.435 189.275 305.713 189.18ZM306.531 191.562L302.64 202.262L318.933 199.344L306.531 191.562Z" fill="#182233"/>
<path fill-rule="evenodd" clip-rule="evenodd" d="M327.42 133.555C327.599 133.197 327.979 132.985 328.377 133.022L345.149 134.546C345.6 134.587 345.963 134.934 346.024 135.382C346.086 135.83 345.83 136.262 345.407 136.423L323.756 144.656C323.381 144.798 322.958 144.697 322.689 144.4C322.421 144.103 322.362 143.671 322.541 143.313L327.42 133.555ZM328.862 135.018L325.394 141.953L340.783 136.101L328.862 135.018Z" fill="#182233"/>
<path d="M443.748 201.018V217.334H446.502V221.36H443.748V226.092H439.121V221.36H426.337V217.369L438.345 201.018H443.748ZM431.529 217.334H439.121V207.092L431.529 217.334Z" fill="#39404F"/>
<path d="M412.512 226.657C405.979 226.657 402.059 221.501 402.059 213.59C402.059 205.644 405.979 200.453 412.512 200.453C419.046 200.453 422.93 205.644 422.93 213.59C422.93 221.501 419.046 226.657 412.512 226.657ZM406.827 213.59C406.827 219.453 408.84 222.666 412.512 222.666C416.185 222.666 418.198 219.453 418.198 213.59C418.198 207.693 416.185 204.444 412.512 204.444C408.84 204.444 406.827 207.693 406.827 213.59Z" fill="#39404F"/>
<path d="M395.948 201.018V217.334H398.703V221.36H395.948V226.092H391.322V221.36H378.538V217.369L390.545 201.018H395.948ZM383.729 217.334H391.322V207.092L383.729 217.334Z" fill="#39404F"/>
<mask id="mask0_1068_10509" style="mask-type:luminance" maskUnits="userSpaceOnUse" x="0" y="94" width="405" height="405">
<path d="M404.468 94.2124H0V498.681H404.468V94.2124Z" fill="white"/>
</mask>
<g mask="url(#mask0_1068_10509)">
<path fill-rule="evenodd" clip-rule="evenodd" d="M299.892 477.942C300.945 476.06 299.674 473.581 297.823 472.461C296.326 471.553 294.566 471.268 292.82 470.986C292.413 470.92 292.007 470.855 291.605 470.781C279.854 468.65 269.944 458.668 267.901 446.906C267.646 446.953 267.393 446.999 267.138 447.041C257.619 448.659 248.101 450.277 238.585 451.895C238.186 451.963 237.777 452.024 237.362 452.082L237.388 452.289C237.844 461.095 238.441 471.606 239.182 480.391C241.174 481.839 244.202 480.598 245.462 478.482C246.722 476.366 246.676 473.737 246.484 471.284C246.469 471.094 246.453 470.904 246.438 470.713C246.253 468.437 246.063 466.097 246.857 463.967C248.807 468.116 252.696 471.009 256.69 473.26C268.441 479.837 282.054 482.297 295.365 480.25C297.097 479.975 299.036 479.477 299.892 477.942ZM269.774 458.08C269.631 457.674 269.187 457.462 268.782 457.605C268.377 457.748 268.164 458.192 268.307 458.597C269.603 462.271 271.772 465.575 274.627 468.226C277.483 470.876 280.939 472.793 284.699 473.812C285.114 473.924 285.541 473.679 285.654 473.264C285.766 472.85 285.521 472.423 285.106 472.311C281.589 471.358 278.356 469.564 275.686 467.085C273.015 464.606 270.986 461.516 269.774 458.08Z" fill="#05B08B"/>
<path fill-rule="evenodd" clip-rule="evenodd" d="M162.873 480.016C163.625 478.917 163.304 477.355 162.49 476.298C161.701 475.277 160.541 474.623 159.414 473.986C159.378 473.966 159.342 473.946 159.306 473.925C154.779 471.377 150.345 468.526 146.839 464.693C143.333 460.861 140.803 455.929 140.694 450.738L140.658 450.567C135.886 451.584 130.638 450.449 125.78 449.266C123.456 448.706 120.925 447.964 119.027 446.616L118.83 446.948C115.142 455.3 111.451 463.651 107.759 472C110.167 473.27 112.577 474.543 114.988 475.819C117.126 471.421 119.266 467.024 121.408 462.626C125.598 468.094 131.536 472.011 137.847 474.766C144.158 477.522 150.878 479.192 157.563 480.851C159.419 481.312 161.789 481.593 162.873 480.016ZM138.55 457.427C138.447 457.01 138.025 456.755 137.608 456.858C137.191 456.961 136.937 457.383 137.039 457.8C138.599 464.12 142.565 469.582 148.093 473.02C148.458 473.247 148.938 473.135 149.165 472.771C149.392 472.406 149.28 471.926 148.915 471.699C143.732 468.475 140.012 463.354 138.55 457.427Z" fill="#05B08B"/>
<path fill-rule="evenodd" clip-rule="evenodd" d="M202.213 180.765C202.212 180.765 202.212 180.766 202.212 180.766L202.211 180.765H202.213ZM201.009 160.35C203.213 166.928 203.628 173.973 202.213 180.765H202.216C206.942 179.914 211.761 179.697 216.544 180.122L216.575 179.733C213.552 176.99 212.173 172.826 211.483 168.786C211.245 167.379 211.074 165.958 210.902 164.537C210.564 161.743 210.227 158.951 209.388 156.273C206.438 146.829 196.788 139.917 186.892 140.171C176.996 140.425 167.715 147.815 165.247 157.398C164.207 161.428 164.288 165.6 164.369 169.783C164.428 172.862 164.488 175.948 164.101 178.987C163.815 181.222 163.264 183.483 162.005 185.355C160.88 187.035 159.101 188.358 157.115 188.638L157.12 188.684C162.649 191.27 168.948 191.683 174.768 189.841C176.293 189.377 177.721 188.641 178.984 187.668C180.048 186.85 180.84 185.729 181.255 184.453C181.811 182.622 181.396 180.646 180.815 178.826C179.642 175.151 177.809 171.721 175.406 168.704L175.49 168.636C178.56 169.871 182.1 168.994 185.016 167.428C186.569 166.594 188.011 165.58 189.453 164.566C190.719 163.677 191.984 162.787 193.324 162.019C195.668 160.682 198.407 159.712 201.051 159.945L201.009 160.35ZM195.298 143.955C194.901 143.791 194.447 143.981 194.283 144.378C194.119 144.775 194.309 145.23 194.706 145.394C197.139 146.395 199.318 147.926 201.084 149.875C202.85 151.825 204.159 154.144 204.916 156.663C205.04 157.074 205.474 157.308 205.885 157.184C206.296 157.06 206.529 156.626 206.406 156.215C205.582 153.474 204.158 150.952 202.237 148.831C200.315 146.71 197.945 145.044 195.298 143.955Z" fill="#182233"/>
<path fill-rule="evenodd" clip-rule="evenodd" d="M83.6967 334.037L83.3752 333.824C82.1412 330.366 77.2989 329.468 74.0219 331.128C70.7444 332.787 68.696 336.106 66.8135 339.259C65.488 341.481 64.1638 343.704 62.8413 345.928L63.4998 346.322C66.2902 348.296 69.0802 350.268 71.8698 352.239C75.7611 346.135 79.7034 340.068 83.6967 334.037ZM77.4085 332.706C76.8877 332.561 76.3434 332.521 75.807 332.588C75.3811 332.641 75.0786 333.03 75.1321 333.456C75.1856 333.882 75.5745 334.184 76.0004 334.131C76.332 334.09 76.6686 334.114 76.9905 334.204C77.3124 334.294 77.6132 334.447 77.8753 334.654C78.1374 334.861 78.356 335.118 78.5178 335.41C78.6796 335.703 78.7816 336.025 78.8182 336.357C78.865 336.783 79.2488 337.092 79.676 337.045C80.1028 336.998 80.4112 336.615 80.3645 336.187C80.3055 335.65 80.1403 335.13 79.8787 334.657C79.617 334.184 79.2636 333.768 78.8397 333.433C78.4154 333.098 77.9288 332.851 77.4085 332.706Z" fill="#05B08B"/>
<path fill-rule="evenodd" clip-rule="evenodd" d="M97.6321 312.037C96.7819 313.811 95.9316 315.584 95.081 317.358C95.0886 317.338 95.0966 317.318 95.1046 317.299C95.1488 317.19 95.1935 317.08 95.2415 316.968L95.2053 316.952C91.3245 322.615 87.4888 328.309 83.6977 334.034C79.707 340.071 75.7638 346.138 71.8691 352.237C85.4125 361.806 98.9542 371.377 112.495 380.95L112.754 381.121C114.613 378.311 116.507 375.464 118.437 372.581C124.043 364.2 129.986 354.658 128.062 344.759C126.988 339.241 123.504 334.429 119.267 330.726C115.03 327.023 110.047 324.311 105.105 321.625L104.944 321.278C105.881 319.148 106.816 317.02 107.75 314.894C105.565 313.487 103.382 312.078 101.2 310.667C100.762 310.321 100.232 310.113 99.6755 310.071C98.6812 310.107 98.0627 311.135 97.6321 312.037ZM118.514 336.874C118.215 336.566 117.722 336.56 117.414 336.859C117.106 337.159 117.1 337.651 117.399 337.959C120.193 340.831 121.821 344.639 121.966 348.643C122.112 352.647 120.765 356.562 118.187 359.63C117.911 359.958 117.953 360.449 118.282 360.725C118.611 361.002 119.102 360.959 119.378 360.63C122.204 357.268 123.681 352.976 123.521 348.586C123.361 344.197 121.577 340.023 118.514 336.874Z" fill="#05B08B"/>
<path fill-rule="evenodd" clip-rule="evenodd" d="M154.531 436.543C173.106 399.305 187.775 360.243 198.304 319.983L199.01 320.169L199.025 320.202C207.927 339.447 216.87 358.781 222.8 379.139C228.732 399.508 231.595 421.096 228.099 442.026C227.643 444.749 227.167 447.834 228.846 450.023C230.722 452.471 234.206 452.507 237.365 452.082C237.779 452.024 238.189 451.962 238.588 451.895C248.108 450.277 257.625 448.659 267.141 447.041C267.391 447 267.64 446.954 267.89 446.909L267.904 446.906C272.068 446.158 276.574 444.939 278.586 441.283C280.484 437.83 279.372 433.566 278.197 429.807C261.43 376.249 240.192 324.194 214.706 274.192L214.645 273.689C213.374 273.812 212.097 273.846 210.822 273.793C197.621 273.437 184.422 273.078 171.224 272.714L171.209 272.714C167.024 272.6 162.818 272.485 158.675 271.895C169.17 327.559 154.847 387.444 120.289 432.332C117.79 435.583 115.031 439.602 116.473 443.44C116.981 444.735 117.873 445.844 119.029 446.618C120.927 447.967 123.458 448.708 125.781 449.269C130.64 450.45 135.888 451.585 140.659 450.569C141.871 450.313 143.045 449.904 144.154 449.352C149.153 446.837 152.032 441.547 154.531 436.543ZM216.531 293.27C216.314 292.899 215.838 292.775 215.467 292.991C215.096 293.208 214.971 293.684 215.188 294.055C238.593 334.099 256.147 377.286 267.316 422.303C267.419 422.72 267.84 422.974 268.258 422.871C268.674 422.767 268.929 422.346 268.825 421.929C257.621 376.767 240.011 333.442 216.531 293.27Z" fill="#182233"/>
<path d="M158.674 271.895C158.238 271.839 157.803 271.769 157.373 271.698C154.972 271.294 152.322 270.511 151.171 268.369C149.812 265.844 151.186 262.779 152.55 260.253C159.005 248.285 166.205 235.035 172.66 223.066C162.522 229.184 155.194 239.23 149.764 249.796C144.076 260.857 140.129 272.733 134.747 283.95C133.656 286.221 132.351 288.622 130.064 289.685C128.727 290.277 127.234 290.416 125.812 290.08C123.68 289.66 121.539 288.493 119.651 287.331C117.152 285.796 114.531 284.085 112.915 281.714C112.456 281.049 112.089 280.325 111.82 279.562C110.576 275.984 111.883 272.064 113.298 268.548C119.19 253.898 127.212 240.021 137.729 228.249C148.246 216.477 161.319 206.847 176.067 201.205L176.223 201.159C175.906 200.176 175.736 199.152 175.719 198.12C175.74 196.839 176.212 195.491 177.243 194.723C178.151 194.054 179.333 193.914 180.454 193.795C180.697 193.769 180.936 193.743 181.18 193.717C181.195 193.764 181.2 193.816 181.211 193.862C181.226 193.81 181.242 193.764 181.257 193.712C186.521 193.162 191.786 192.615 197.053 192.068C197.369 192.037 197.691 192.001 198.018 191.991C198.66 191.933 199.307 192.01 199.916 192.219C202.11 193.064 202.592 195.901 202.728 198.245V198.447C210.688 202.067 218.238 205.671 226.826 207.32C235.414 208.969 244.644 208.591 252.449 204.639C261.429 200.086 267.55 191.384 272.301 182.506C273.234 180.758 274.162 178.949 275.63 177.621C276.93 176.449 278.777 175.723 280.453 176.097C280.676 176.144 280.895 176.211 281.106 176.299C282.91 177.041 283.932 179.006 285.654 179.924C287.345 180.826 289.575 180.65 291.135 181.64C291.362 181.78 291.571 181.948 291.758 182.138C293.478 183.895 292.665 186.82 291.648 189.062C284.736 204.271 272.923 217.542 257.749 224.521C244.743 230.505 229.253 231.465 215.972 226.388L215.702 227.072C214.282 233.342 215.656 239.892 217.45 246.062C219.245 252.233 221.485 258.379 221.822 264.799C221.931 266.883 221.796 269.113 220.583 270.814C219.24 272.691 217.016 273.427 214.645 273.687C213.375 273.809 212.098 273.844 210.823 273.791C197.62 273.432 184.421 273.073 171.225 272.712C167.034 272.601 162.823 272.487 158.674 271.895Z" fill="#05B08B"/>
<path d="M112.493 380.952L112.752 381.123C111.44 383.115 110.137 385.09 108.842 387.051L108.837 387.046C95.2037 377.26 81.8124 367.656 68.2632 357.933C69.4559 356.03 70.6575 354.132 71.8676 352.239C85.4088 361.812 98.9505 371.383 112.493 380.952Z" fill="#182233"/>
<path d="M108.841 387.046L108.846 387.051C101.208 398.672 94.0302 409.837 86.8686 421.121L86.7427 421.044C73.2052 411.983 60.1535 402.217 47.6411 391.786C54.341 380.397 61.2157 369.113 68.2648 357.933C81.8161 367.656 95.2053 377.26 108.841 387.046Z" fill="#05B08B"/>
<path d="M86.7408 421.044L86.8667 421.121C85.596 423.113 84.3291 425.109 83.066 427.111C69.727 417.885 56.6239 408.328 43.7563 398.439C45.0435 396.214 46.3382 393.996 47.6405 391.786C60.1525 402.216 73.2042 411.983 86.7408 421.044Z" fill="#182233"/>
<path d="M63.4991 346.322C66.2895 348.292 69.0795 350.265 71.869 352.239C70.6611 354.132 69.4599 356.03 68.265 357.932C65.3921 355.869 62.509 353.8 59.6149 351.726L59.4438 351.622C60.5793 349.723 61.7114 347.826 62.8401 345.928L63.4991 346.322Z" fill="#182233"/>
<path d="M59.6147 351.726C62.5083 353.8 65.3919 355.869 68.2644 357.933C61.2128 369.108 54.3381 380.392 47.6408 391.786C45.0374 389.618 42.4585 387.419 39.9036 385.19L39.5679 384.987C46.1952 373.864 52.8209 362.742 59.4449 351.622L59.6147 351.726Z" fill="#05B08B"/>
<path d="M83.0646 427.111C76.0635 438.183 69.0009 449.472 61.466 461.514C60.5063 460.097 59.2499 458.906 57.7837 458.024C56.3175 457.142 54.6769 456.59 52.9756 456.406C51.2747 456.222 49.5536 456.411 47.9328 456.958C46.312 457.507 44.8297 458.401 43.5894 459.579L43.5843 459.574C34.4108 454.342 38.71 457.552 30.5577 450.717C27.2338 447.932 23.956 444.526 23.382 440.221C22.8365 436.13 24.8549 432.178 26.8305 428.548C30.0662 422.606 33.3505 416.687 36.6835 410.792C39.017 406.664 41.3741 402.547 43.755 398.44C56.617 408.323 69.7201 417.88 83.0646 427.111Z" fill="#05B08B"/>
<path d="M61.4662 461.514C62.9416 463.692 63.6461 466.301 63.467 468.925C63.2884 471.549 62.2372 474.038 60.4803 475.996C58.7234 477.954 56.3619 479.268 53.772 479.728C51.1821 480.189 48.5126 479.77 46.1882 478.538C43.8642 477.306 42.0189 475.332 40.9463 472.93C39.8736 470.528 39.6353 467.837 40.2693 465.284C40.9033 462.731 42.3732 460.463 44.4448 458.842C46.5164 457.221 49.0709 456.34 51.7012 456.338C53.6287 456.332 55.5285 456.801 57.2319 457.703C58.9349 458.606 60.3893 459.915 61.4662 461.514Z" fill="#182233"/>
<path d="M47.6403 391.785C46.3389 393.999 45.0441 396.217 43.7562 398.438C41.2049 396.483 38.6638 394.513 36.1332 392.527L35.3501 392.06C36.7553 389.7 38.1607 387.342 39.5662 384.987L39.9019 385.189C42.4598 387.419 45.0391 389.617 47.6403 391.785Z" fill="#182233"/>
<path d="M36.134 392.527C38.6647 394.513 41.2057 396.484 43.7573 398.439C41.3781 402.541 39.0203 406.658 36.6837 410.791L36.5646 410.724C33.1731 411.631 30.435 408.089 30.2432 404.589C30.0514 401.089 31.9079 397.833 33.7073 394.819C34.257 393.902 34.8012 392.978 35.351 392.061L36.134 392.527Z" fill="#05B08B"/>
<path fill-rule="evenodd" clip-rule="evenodd" d="M191.618 172.547C192.18 172.585 192.604 173.07 192.567 173.632C192.468 175.112 192.948 176.574 193.905 177.708L193.909 177.713L193.909 177.713C193.934 177.743 193.964 177.778 193.997 177.816C194.148 177.994 194.365 178.248 194.531 178.508C194.746 178.846 194.969 179.327 194.926 179.918C194.923 179.952 194.919 179.985 194.913 180.017C194.832 180.49 194.606 180.925 194.267 181.264C193.928 181.602 193.493 181.828 193.022 181.91C193.012 181.912 193.002 181.913 192.992 181.915C192.316 182.012 191.626 181.965 190.968 181.776C190.428 181.621 190.115 181.056 190.271 180.516C190.426 179.975 190.991 179.663 191.531 179.818C191.905 179.926 192.297 179.954 192.682 179.901C192.737 179.889 192.787 179.862 192.826 179.823C192.851 179.798 192.871 179.77 192.885 179.739C192.875 179.712 192.854 179.668 192.813 179.603C192.731 179.474 192.633 179.359 192.493 179.193C192.448 179.141 192.4 179.084 192.347 179.02C191.05 177.483 190.4 175.502 190.534 173.496C190.571 172.934 191.057 172.51 191.618 172.547ZM192.894 179.774C192.894 179.774 192.894 179.773 192.894 179.771C192.894 179.773 192.894 179.774 192.894 179.774Z" fill="#182233"/>
<path fill-rule="evenodd" clip-rule="evenodd" d="M200.688 159.384C201.221 159.205 201.799 159.492 201.977 160.026C204.238 166.775 204.665 174.004 203.212 180.972C202.389 185.009 200.938 188.892 198.913 192.481C198.902 192.501 198.893 192.516 198.89 192.522C198.89 192.522 198.89 192.522 198.89 192.523C198.631 193.017 198.022 193.212 197.524 192.958C197.023 192.702 196.824 192.089 197.08 191.588C197.096 191.556 197.111 191.53 197.115 191.522C197.115 191.522 197.116 191.521 197.116 191.521C197.121 191.511 197.126 191.502 197.131 191.492C199.056 188.085 200.434 184.397 201.217 180.562L201.217 180.558C202.597 173.943 202.192 167.08 200.045 160.673C199.867 160.14 200.154 159.562 200.688 159.384Z" fill="#182233"/>
<path fill-rule="evenodd" clip-rule="evenodd" d="M201.136 158.93C201.802 158.982 202.462 159.107 203.102 159.303C203.64 159.467 203.943 160.037 203.778 160.575C203.614 161.113 203.044 161.416 202.506 161.251C202.007 161.099 201.492 161.001 200.972 160.961L200.962 160.96C198.611 160.752 196.086 161.616 193.83 162.903C192.533 163.647 191.305 164.51 190.031 165.405C189.945 165.466 189.86 165.526 189.773 165.587C188.422 166.536 187.016 167.51 185.498 168.326L185.498 168.326C182.466 169.954 178.587 170.979 175.11 169.581C174.588 169.371 174.335 168.778 174.545 168.256C174.754 167.734 175.348 167.481 175.87 167.691C178.532 168.762 181.733 168.035 184.534 166.531C185.931 165.78 187.246 164.872 188.603 163.919C188.694 163.855 188.785 163.791 188.877 163.727C190.134 162.843 191.435 161.928 192.817 161.136L192.819 161.134C195.25 159.748 198.201 158.672 201.136 158.93Z" fill="#182233"/>
<path fill-rule="evenodd" clip-rule="evenodd" d="M173.465 166.457C173.882 166.08 174.526 166.112 174.904 166.529C175.35 167.024 175.791 167.54 176.208 168.076C178.686 171.19 180.576 174.728 181.786 178.519L181.786 178.519C182.377 180.37 182.882 182.604 182.231 184.75C182.23 184.755 182.229 184.759 182.227 184.763C182.227 184.765 182.226 184.767 182.225 184.77C181.747 186.242 180.833 187.534 179.606 188.477C178.248 189.524 176.711 190.316 175.071 190.816C169.009 192.733 162.449 192.303 156.69 189.609C156.18 189.371 155.96 188.764 156.199 188.255C156.437 187.745 157.043 187.525 157.553 187.764C162.85 190.241 168.886 190.637 174.461 188.872L174.472 188.868C175.88 188.44 177.198 187.761 178.363 186.863L178.364 186.862C179.263 186.172 179.932 185.226 180.284 184.149C180.739 182.638 180.415 180.924 179.845 179.138C178.71 175.581 176.936 172.261 174.61 169.34L174.602 169.33C174.223 168.842 173.815 168.364 173.392 167.896C173.015 167.478 173.047 166.834 173.465 166.457Z" fill="#182233"/>
<path fill-rule="evenodd" clip-rule="evenodd" d="M208.417 156.576C205.602 147.567 196.36 140.947 186.92 141.189C177.479 141.432 168.59 148.51 166.235 157.652C165.369 161.007 165.306 164.493 165.359 168.113C165.367 168.655 165.378 169.2 165.388 169.748C165.448 172.825 165.51 175.996 165.113 179.115C164.82 181.41 164.242 183.857 162.853 185.922C161.606 187.784 159.597 189.314 157.265 189.645C156.992 189.687 156.717 189.709 156.442 189.713C155.879 189.721 155.417 189.272 155.408 188.709C155.4 188.147 155.849 187.684 156.412 187.676C156.598 187.673 156.781 187.658 156.963 187.63L156.975 187.629C158.612 187.398 160.159 186.284 161.16 184.788L161.162 184.786C162.29 183.108 162.814 181.032 163.092 178.858M210.362 155.968C207.275 146.091 197.218 138.886 186.868 139.153C176.517 139.418 166.844 147.12 164.262 157.144M210.362 155.968C211.021 158.073 211.377 160.227 211.657 162.345C211.751 163.055 211.835 163.754 211.919 164.447C212.089 165.853 212.255 167.232 212.489 168.615C213.167 172.586 214.496 176.469 217.262 178.978C217.267 178.983 217.273 178.989 217.279 178.994C217.357 179.068 217.436 179.138 217.514 179.202C217.95 179.557 218.016 180.199 217.661 180.635C217.306 181.072 216.664 181.137 216.228 180.782C216.105 180.683 215.99 180.58 215.884 180.479C212.61 177.503 211.182 173.062 210.481 168.957L210.48 168.956C210.239 167.525 210.062 166.063 209.888 164.629C209.806 163.948 209.724 163.273 209.637 162.612C209.362 160.528 209.023 158.512 208.417 156.576M164.262 157.144C163.323 160.785 163.269 164.51 163.322 168.143L164.262 157.144ZM163.322 168.143C163.33 168.704 163.341 169.262 163.352 169.818L163.322 168.143ZM163.352 169.818C163.411 172.899 163.468 175.9 163.092 178.858L163.352 169.818Z" fill="#182233"/>
<path fill-rule="evenodd" clip-rule="evenodd" d="M203.262 179.557C207.684 178.864 212.175 178.713 216.635 179.109C216.643 179.109 216.651 179.11 216.659 179.111C216.688 179.114 216.72 179.117 216.771 179.121L216.776 179.121C216.821 179.125 216.882 179.13 216.945 179.137C217.504 179.2 217.906 179.704 217.843 180.263C217.78 180.822 217.276 181.225 216.717 181.162C216.689 181.158 216.657 181.156 216.606 181.152L216.601 181.151C216.559 181.148 216.503 181.143 216.445 181.137C211.755 180.722 207.031 180.934 202.398 181.769C201.876 181.863 201.37 181.541 201.233 181.03C201.096 180.518 201.374 179.987 201.873 179.807C202.002 179.761 202.147 179.71 202.287 179.661C202.391 179.625 202.492 179.59 202.581 179.558C202.81 179.476 203.049 179.482 203.262 179.557Z" fill="#182233"/>
<path fill-rule="evenodd" clip-rule="evenodd" d="M178.657 186.938C179.155 186.676 179.771 186.867 180.033 187.365C180.89 188.993 181.538 190.721 181.963 192.508C182.322 192.76 182.489 193.227 182.343 193.664C182.326 193.716 182.309 193.768 182.29 193.831L182.287 193.84C182.27 193.895 182.25 193.958 182.229 194.023C182.221 194.049 182.213 194.074 182.207 194.093L182.205 194.097C182.197 194.122 182.192 194.14 182.186 194.158C182.053 194.601 181.638 194.899 181.176 194.883C180.714 194.867 180.32 194.542 180.218 194.091C180.21 194.057 180.205 194.028 180.201 194.011L180.198 193.992C180.19 193.965 180.184 193.937 180.179 193.908C179.811 191.957 179.155 190.071 178.23 188.314C177.968 187.816 178.159 187.2 178.657 186.938Z" fill="#182233"/>
<path fill-rule="evenodd" clip-rule="evenodd" d="M199.567 193.179C199.099 193.022 198.602 192.964 198.109 193.008C198.089 193.01 198.069 193.011 198.05 193.012C197.811 193.019 197.579 193.043 197.31 193.07C197.26 193.075 197.208 193.08 197.155 193.085C191.889 193.631 186.625 194.179 181.363 194.728C181.344 194.73 181.324 194.732 181.305 194.733C181.297 194.734 181.285 194.735 181.272 194.735C181.267 194.736 181.261 194.736 181.254 194.737C181.08 194.755 180.909 194.773 180.735 194.792C180.677 194.798 180.62 194.804 180.562 194.811L180.561 194.811C179.393 194.935 178.499 195.067 177.849 195.545C177.16 196.059 176.758 197.043 176.737 198.123C176.755 199.049 176.908 199.967 177.192 200.85C177.195 200.859 177.198 200.868 177.2 200.877C177.272 201.122 177.343 201.363 177.416 201.607C177.577 202.146 177.271 202.713 176.732 202.874C176.193 203.035 175.625 202.729 175.464 202.19C175.392 201.949 175.32 201.707 175.248 201.46C174.904 200.386 174.719 199.268 174.7 198.14C174.7 198.129 174.7 198.118 174.7 198.106C174.724 196.632 175.265 194.928 176.635 193.909L176.639 193.906L176.639 193.906C177.792 193.056 179.242 192.902 180.31 192.789C180.322 192.787 180.333 192.786 180.345 192.785M199.567 193.179C200.283 193.462 200.787 194.083 201.139 195.028C201.496 195.99 201.644 197.163 201.711 198.307C201.743 198.869 202.225 199.298 202.786 199.265C203.348 199.233 203.777 198.751 203.745 198.189C203.675 196.989 203.514 195.571 203.048 194.318C202.579 193.055 201.751 191.837 200.282 191.272C200.27 191.267 200.258 191.262 200.246 191.258C199.51 191.007 198.731 190.911 197.957 190.977C197.651 190.987 197.35 191.018 197.09 191.044C197.043 191.049 196.997 191.054 196.953 191.058L196.948 191.058C191.691 191.603 186.436 192.15 181.183 192.699C181.176 192.699 181.169 192.7 181.163 192.7C181.151 192.701 181.14 192.702 181.132 192.703C181.112 192.704 181.092 192.705 181.072 192.707C180.885 192.727 180.701 192.747 180.516 192.767C180.459 192.773 180.402 192.779 180.345 192.785" fill="#182233"/>
<path fill-rule="evenodd" clip-rule="evenodd" d="M180.646 197.077C181.205 197.006 181.714 197.401 181.785 197.959C181.838 198.372 181.888 198.78 181.939 199.185C182.009 199.753 182.08 200.317 182.153 200.886C182.225 201.444 181.831 201.955 181.273 202.027C180.715 202.099 180.205 201.705 180.133 201.148C180.059 200.577 179.987 200.001 179.916 199.427C179.865 199.021 179.815 198.617 179.764 198.215C179.693 197.657 180.088 197.147 180.646 197.077Z" fill="#182233"/>
<path fill-rule="evenodd" clip-rule="evenodd" d="M185.71 195.42C186.272 195.388 186.753 195.817 186.786 196.378C186.841 197.334 186.896 198.286 186.952 199.24C186.974 199.627 186.997 200.015 187.019 200.403C187.052 200.964 186.623 201.446 186.061 201.479C185.499 201.511 185.018 201.082 184.985 200.521C184.963 200.133 184.94 199.746 184.918 199.359C184.862 198.405 184.807 197.452 184.752 196.496C184.719 195.934 185.148 195.453 185.71 195.42Z" fill="#182233"/>
<path fill-rule="evenodd" clip-rule="evenodd" d="M191.531 194.692C192.093 194.666 192.57 195.1 192.596 195.662C192.629 196.371 192.661 197.089 192.693 197.806C192.721 198.435 192.749 199.065 192.777 199.687C192.803 200.249 192.369 200.726 191.807 200.752C191.245 200.778 190.768 200.343 190.742 199.781C190.713 199.146 190.685 198.518 190.657 197.891C190.626 197.18 190.594 196.472 190.561 195.757C190.535 195.195 190.969 194.718 191.531 194.692Z" fill="#182233"/>
<path fill-rule="evenodd" clip-rule="evenodd" d="M197.251 193.957C197.813 193.957 198.269 194.413 198.269 194.976V198.823C198.269 199.386 197.813 199.842 197.251 199.842C196.688 199.842 196.232 199.386 196.232 198.823V194.976C196.232 194.413 196.688 193.957 197.251 193.957Z" fill="#182233"/>
<path fill-rule="evenodd" clip-rule="evenodd" d="M158.44 270.65C158.993 270.547 159.525 270.912 159.628 271.465C159.639 271.524 159.644 271.55 159.65 271.579C159.655 271.608 159.662 271.64 159.674 271.706C170.224 327.656 155.83 387.836 121.095 432.954C119.848 434.577 118.603 436.308 117.836 438.073C117.074 439.825 116.831 441.497 117.42 443.075C117.853 444.174 118.611 445.115 119.592 445.773C119.6 445.778 119.608 445.783 119.616 445.789C121.339 447.012 123.696 447.719 126.016 448.278L126.018 448.279C130.905 449.468 135.932 450.535 140.443 449.574L140.445 449.573C141.572 449.335 142.664 448.955 143.695 448.442C148.347 446.1 151.096 441.133 153.616 436.089C172.161 398.914 186.806 359.918 197.317 319.725M118.447 447.458C117.124 446.568 116.103 445.297 115.521 443.812L115.515 443.798C114.669 441.541 115.086 439.288 115.967 437.261C116.844 435.244 118.229 433.34 119.48 431.712C153.861 387.054 168.114 327.463 157.672 272.084C157.67 272.072 157.663 272.038 157.656 271.999C157.645 271.94 157.631 271.869 157.625 271.838C157.522 271.285 157.887 270.753 158.44 270.65" fill="#182233"/>
<path fill-rule="evenodd" clip-rule="evenodd" d="M214.239 273.283C214.74 273.027 215.354 273.226 215.609 273.728C241.12 323.78 262.38 375.888 279.165 429.5L278.192 429.805L279.165 429.5C279.755 431.385 280.356 433.479 280.554 435.561C280.753 437.652 280.554 439.807 279.474 441.772L279.474 441.772C278.328 443.855 276.492 445.2 274.465 446.113C272.45 447.021 270.183 447.529 268.083 447.906C267.828 447.953 267.567 448 267.304 448.044C257.786 449.661 248.269 451.279 238.754 452.897L238.753 452.897C238.342 452.967 237.922 453.03 237.499 453.089L237.496 453.089C235.879 453.307 234.098 453.419 232.446 453.131C230.778 452.84 229.173 452.127 228.033 450.641M237.221 451.07C237.627 451.014 238.026 450.954 238.414 450.888C247.929 449.27 257.446 447.652 266.965 446.035L266.97 446.034C267.215 445.993 267.461 445.949 267.715 445.902L267.719 445.901C269.782 445.531 271.848 445.057 273.629 444.255C275.399 443.458 276.822 442.365 277.689 440.79C278.507 439.302 278.701 437.598 278.526 435.754C278.349 433.902 277.807 431.984 277.22 430.109C260.47 376.605 239.253 324.604 213.794 274.653C213.538 274.152 213.738 273.538 214.239 273.283" fill="#182233"/>
<path fill-rule="evenodd" clip-rule="evenodd" d="M112.863 282.08C113.081 282.598 112.838 283.196 112.319 283.414C110.261 284.28 108.53 285.778 107.378 287.691L107.378 287.691C106.226 289.604 105.711 291.833 105.907 294.058M112.863 282.08C112.645 281.561 112.048 281.318 111.529 281.536L112.863 282.08ZM111.529 281.536C109.073 282.57 107.008 284.357 105.633 286.639L111.529 281.536ZM105.633 286.64C104.258 288.923 103.643 291.583 103.878 294.238L103.878 294.238C104.113 296.892 105.185 299.404 106.939 301.41C108.694 303.416 111.04 304.813 113.64 305.399C114.638 305.624 115.792 305.685 116.858 305.441C117.931 305.196 119.001 304.619 119.627 303.503C119.637 303.485 119.646 303.467 119.655 303.448C119.964 302.809 120.119 302.106 120.108 301.396L120.108 301.395C120.096 300.689 119.92 299.994 119.593 299.367C119.59 299.361 119.587 299.354 119.583 299.348C119.531 299.244 119.471 299.123 119.404 299.001C119.396 298.987 119.388 298.973 119.38 298.96C118.83 298.056 118.169 297.224 117.412 296.484C117.01 296.091 116.365 296.098 115.971 296.501C115.578 296.903 115.585 297.548 115.988 297.941C116.617 298.556 117.168 299.247 117.627 299.998C117.672 300.081 117.714 300.166 117.765 300.267L117.776 300.289L117.784 300.305C117.966 300.651 118.064 301.036 118.071 301.429C118.077 301.81 117.996 302.188 117.835 302.533C117.57 302.985 117.092 303.298 116.405 303.455C115.699 303.616 114.859 303.586 114.088 303.412C111.909 302.92 109.943 301.75 108.473 300.069C107.002 298.387 106.104 296.283 105.907 294.058" fill="#182233"/>
<path fill-rule="evenodd" clip-rule="evenodd" d="M125.282 289.453C125.781 289.192 126.396 289.385 126.657 289.883C127.072 290.673 127.223 291.576 127.087 292.459M125.282 289.453C124.784 289.715 124.592 290.33 124.853 290.829L125.282 289.453ZM124.853 290.829C125.066 291.235 125.143 291.698 125.073 292.149L124.853 290.829ZM125.073 292.149L125.073 292.149L125.073 292.149ZM127.087 292.459C126.951 293.342 126.536 294.158 125.902 294.788C125.269 295.417 124.451 295.828 123.567 295.958C122.683 296.088 121.781 295.932 120.992 295.512C120.496 295.248 120.308 294.631 120.573 294.134C120.837 293.638 121.454 293.45 121.951 293.714C122.354 293.929 122.816 294.009 123.269 293.943C123.722 293.876 124.141 293.665 124.466 293.343C124.791 293.02 125.003 292.602 125.073 292.149" fill="#182233"/>
<path fill-rule="evenodd" clip-rule="evenodd" d="M119.663 293.138C119.98 292.768 120.514 292.673 120.939 292.913C121.411 293.18 121.839 293.518 122.209 293.914C122.542 294.27 122.576 294.812 122.29 295.206C122.004 295.601 121.478 295.738 121.036 295.533C120.491 295.28 120.013 294.903 119.64 294.433C119.337 294.052 119.347 293.509 119.663 293.138Z" fill="#182233"/>
<path fill-rule="evenodd" clip-rule="evenodd" d="M122.484 294.609L122.484 294.607L122.484 294.605L122.484 294.601L122.484 294.593C122.484 294.587 122.484 294.58 122.483 294.573C122.483 294.56 122.482 294.542 122.48 294.522C122.478 294.495 122.47 294.407 122.435 294.299C122.418 294.246 122.379 294.141 122.299 294.027C122.218 293.912 122.05 293.728 121.765 293.641C121.463 293.549 121.194 293.616 121.022 293.7C120.887 293.766 120.795 293.848 120.743 293.901C121.127 293.509 121.756 293.491 122.161 293.865C122.17 293.874 122.179 293.882 122.187 293.89C122.371 294.074 122.484 294.328 122.484 294.609ZM120.722 293.923C120.728 293.916 120.735 293.909 120.743 293.901C120.736 293.908 120.729 293.915 120.722 293.923ZM122.187 293.89C122.003 293.705 121.748 293.59 121.466 293.59C120.903 293.59 120.447 294.046 120.447 294.609L121.465 294.609C120.447 294.609 120.447 294.608 120.447 294.609L120.447 294.611L120.447 294.613L120.447 294.617L120.447 294.625C120.447 294.631 120.447 294.638 120.447 294.645C120.448 294.66 120.449 294.678 120.451 294.699C120.453 294.728 120.462 294.818 120.497 294.928C120.515 294.982 120.554 295.088 120.634 295.202C120.716 295.318 120.884 295.502 121.17 295.59C121.784 295.777 122.181 295.347 122.218 295.306C122.218 295.306 122.219 295.305 122.219 295.305C122.592 294.9 122.576 294.274 122.187 293.89Z" fill="#182233"/>
<path fill-rule="evenodd" clip-rule="evenodd" d="M120.745 293.899C121.14 293.498 121.785 293.493 122.186 293.887C122.737 294.429 123.142 295.102 123.363 295.842L123.363 295.843C123.584 296.583 123.615 297.367 123.452 298.122C123.448 298.138 123.445 298.154 123.44 298.17C123.132 299.325 122.226 300.186 121.236 300.598C120.244 301.011 118.965 301.048 117.954 300.245C117.513 299.895 117.44 299.254 117.79 298.813C118.14 298.373 118.781 298.3 119.221 298.65C119.496 298.868 119.939 298.931 120.453 298.717C120.961 298.506 121.342 298.096 121.466 297.666C121.55 297.255 121.531 296.829 121.411 296.425M120.745 293.899C120.351 294.3 120.356 294.945 120.757 295.34L120.745 293.899ZM120.757 295.34C121.063 295.64 121.288 296.014 121.411 296.425L120.757 295.34Z" fill="#182233"/>
<path fill-rule="evenodd" clip-rule="evenodd" d="M99.6379 309.055C99.6761 309.054 99.7143 309.055 99.7524 309.058C100.493 309.114 101.202 309.385 101.79 309.838C103.962 311.238 106.133 312.639 108.303 314.041C108.723 314.312 108.883 314.849 108.682 315.307C107.745 317.436 106.81 319.563 105.877 321.689C105.651 322.204 105.05 322.439 104.535 322.212C104.019 321.986 103.785 321.385 104.011 320.87C104.829 319.008 105.647 317.145 106.468 315.281C104.529 314.028 102.589 312.776 100.648 311.526C100.62 311.508 100.593 311.488 100.567 311.468C100.308 311.262 99.9954 311.133 99.6667 311.096C99.5512 311.113 99.4017 311.185 99.2031 311.408C98.9697 311.671 98.7576 312.046 98.552 312.477L98.5508 312.48C97.8422 313.956 97.1342 315.433 96.4262 316.91C96.2839 317.206 96.1417 317.503 95.9995 317.8C95.7619 318.295 95.1741 318.513 94.6711 318.292C94.168 318.071 93.9309 317.491 94.1353 316.98L94.1423 316.963C94.1879 316.849 94.2396 316.72 94.2966 316.589C94.3413 316.47 94.3958 316.34 94.4387 316.237C94.4566 316.194 94.4724 316.156 94.4847 316.126C94.5363 315.999 94.6105 315.888 94.7008 315.796C95.3714 314.397 96.0422 312.998 96.7135 311.599C96.9379 311.128 97.2494 310.54 97.6806 310.055C98.1196 309.561 98.7635 309.088 99.6379 309.055Z" fill="#182233"/>
<path fill-rule="evenodd" clip-rule="evenodd" d="M108.235 301.044C108.708 301.35 108.843 301.981 108.537 302.453C106.687 305.313 105.087 308.327 103.755 311.461C103.535 311.979 102.937 312.221 102.419 312C101.901 311.78 101.66 311.182 101.88 310.665C103.258 307.422 104.913 304.304 106.827 301.346C107.132 300.874 107.763 300.739 108.235 301.044Z" fill="#182233"/>
<path fill-rule="evenodd" clip-rule="evenodd" d="M95.779 316.114C96.2431 316.432 96.3616 317.066 96.0437 317.53C92.1676 323.189 88.3348 328.879 84.5454 334.599C80.5554 340.626 76.6164 346.688 72.7282 352.787L72.728 352.787C71.5214 354.678 70.3211 356.574 69.1276 358.475L69.1263 358.477C62.0791 369.643 55.2096 380.918 48.5177 392.302C47.2173 394.514 45.9236 396.731 44.6366 398.95L44.6366 398.95C42.2595 403.049 39.9035 407.163 37.5688 411.293L37.5688 411.293C34.2371 417.185 30.9554 423.098 27.7238 429.035C25.7225 432.711 23.8963 436.374 24.3902 440.086C24.9099 443.971 27.8964 447.158 31.2106 449.936L31.2107 449.936C32.4487 450.974 33.3942 451.775 34.1388 452.406C35.8831 453.884 36.5246 454.428 37.2398 454.891C37.7053 455.192 38.1965 455.454 39.094 455.933L39.3036 456.045C40.3236 456.589 41.7837 457.375 44.0878 458.689C44.5764 458.967 44.7466 459.59 44.4679 460.078C44.1892 460.567 43.5671 460.737 43.0784 460.458C40.7956 459.156 39.3529 458.381 38.344 457.842C38.2605 457.797 38.1797 457.754 38.1012 457.712C37.2437 457.255 36.6741 456.951 36.1331 456.601C35.3012 456.063 34.5233 455.404 32.674 453.836C31.9414 453.215 31.0407 452.452 29.9019 451.497C26.5707 448.705 23.0026 445.078 22.3708 440.356L22.3708 440.355C21.7755 435.884 23.9844 431.643 25.9344 428.061L25.9344 428.06C29.1713 422.115 32.4583 416.192 35.7954 410.29C38.1337 406.154 40.4933 402.033 42.8742 397.928C44.1632 395.705 45.4589 393.486 46.7614 391.27C53.4641 379.867 60.3448 368.574 67.4034 357.39C68.5992 355.485 69.8018 353.586 71.0106 351.691C74.905 345.583 78.8504 339.51 82.8468 333.474L82.847 333.474C86.6422 327.745 90.4808 322.046 94.3629 316.379C94.6808 315.915 95.3148 315.796 95.779 316.114Z" fill="#182233"/>
<path fill-rule="evenodd" clip-rule="evenodd" d="M104.209 321.141C104.478 320.647 105.096 320.464 105.59 320.732C110.516 323.409 115.601 326.177 119.936 329.961C124.28 333.751 127.931 338.755 129.061 344.566L129.061 344.566C130.075 349.78 129.005 354.852 127.013 359.633C125.025 364.406 122.085 368.961 119.283 373.149C117.363 376.031 115.469 378.876 113.602 381.686C112.288 383.677 110.985 385.651 109.694 387.61C102.06 399.225 94.8855 410.386 87.726 421.667L87.7249 421.669C86.4566 423.659 85.1904 425.654 83.9263 427.655L83.9261 427.655C77.1042 438.443 70.2236 449.439 62.9028 461.138L62.3301 462.054C62.0317 462.531 61.4031 462.675 60.9262 462.377C60.4493 462.078 60.3046 461.45 60.603 460.973L61.1771 460.056C68.4969 448.357 75.3796 437.358 82.204 426.567C83.4692 424.564 84.7366 422.567 86.0061 420.575C93.1697 409.288 100.35 398.117 107.992 386.491L107.992 386.491C109.284 384.53 110.588 382.554 111.903 380.562L111.905 380.56C113.772 377.748 115.667 374.901 117.589 372.018L117.59 372.016C120.394 367.825 123.229 363.418 125.133 358.85C127.032 354.29 127.972 349.642 127.061 344.955C126.045 339.731 122.727 335.1 118.597 331.496L118.596 331.496C114.459 327.884 109.576 325.217 104.618 322.522C104.123 322.254 103.94 321.635 104.209 321.141Z" fill="#182233"/>
<path fill-rule="evenodd" clip-rule="evenodd" d="M79.7149 329.571C81.7212 330.078 83.5746 331.348 84.3361 333.482C84.5251 334.012 84.2488 334.595 83.7189 334.784C83.189 334.973 82.6062 334.696 82.4172 334.166C81.9446 332.842 80.7592 331.936 79.2158 331.546C77.6666 331.155 75.889 331.326 74.4801 332.037C71.5092 333.536 69.5983 336.581 67.6879 339.781C66.3658 342.006 65.0416 344.229 63.7157 346.45C62.5849 348.347 61.4529 350.245 60.3192 352.144C53.6969 363.262 47.0713 374.383 40.4422 385.508L40.4418 385.509C39.0368 387.863 37.6316 390.22 36.2264 392.581L36.2249 392.584C35.9294 393.077 35.6619 393.527 35.3934 393.979C35.1326 394.418 34.8708 394.859 34.5815 395.342C32.7549 398.401 31.0882 401.387 31.2603 404.533L30.2432 404.589L31.2603 404.533C31.344 406.062 31.9884 407.591 32.9475 408.615C33.8905 409.622 35.0549 410.073 36.3013 409.74C36.8447 409.594 37.4032 409.917 37.5486 410.46C37.694 411.004 37.3714 411.562 36.8279 411.708C34.6828 412.282 32.7824 411.419 31.4606 410.008C30.1547 408.614 29.3342 406.622 29.2261 404.644C29.0146 400.78 31.0607 397.264 32.8327 394.297L32.8333 394.296C33.0842 393.877 33.3598 393.413 33.6364 392.948C33.924 392.464 34.2127 391.978 34.4761 391.539C35.8815 389.177 37.2868 386.82 38.692 384.465C45.3212 373.34 51.9469 362.219 58.5691 351.101L58.5698 351.1C59.7033 349.202 60.8353 347.304 61.9659 345.406L61.9663 345.406C63.2919 343.185 64.6158 340.963 65.9376 338.739L65.9386 338.737C67.7931 335.631 69.9774 332.027 73.5623 330.218C75.4313 329.275 77.7144 329.065 79.7149 329.571Z" fill="#182233"/>
<path fill-rule="evenodd" clip-rule="evenodd" d="M58.789 351.132C59.1167 350.675 59.7531 350.57 60.2104 350.898C63.1043 352.972 65.9881 355.042 68.8609 357.105C74.9247 361.457 80.9571 365.785 86.9938 370.116C94.4452 375.462 101.903 380.813 109.435 386.218C109.892 386.546 109.996 387.183 109.668 387.64C109.34 388.097 108.704 388.202 108.247 387.873C100.716 382.468 93.2593 377.119 85.8092 371.773C79.7715 367.442 73.7381 363.113 67.6727 358.76L67.6723 358.76C64.8 356.697 61.9168 354.628 59.0234 352.554C58.5662 352.226 58.4612 351.59 58.789 351.132Z" fill="#182233"/>
<path fill-rule="evenodd" clip-rule="evenodd" d="M62.6672 345.733C62.9921 345.274 63.6278 345.165 64.0871 345.49C66.8773 347.464 69.667 349.436 72.4564 351.406L72.4565 351.407C86 360.976 99.5417 370.547 113.082 380.12C113.542 380.445 113.651 381.081 113.326 381.54C113.001 381.999 112.365 382.108 111.906 381.784C98.3657 372.211 84.8241 362.639 71.2809 353.07L71.8687 352.238L71.2809 353.07C68.4911 351.1 65.701 349.128 62.9104 347.153C62.4511 346.828 62.3422 346.192 62.6672 345.733Z" fill="#182233"/>
<path fill-rule="evenodd" clip-rule="evenodd" d="M39.1359 384.52C39.5059 384.096 40.1493 384.052 40.5732 384.422C43.1222 386.647 45.6952 388.84 48.2925 391.003L48.2929 391.003C60.7775 401.412 73.8006 411.156 87.3079 420.197C87.7755 420.51 87.9008 421.143 87.5879 421.611C87.2749 422.078 86.6422 422.203 86.1747 421.891C72.6081 412.81 59.528 403.022 46.9887 392.569C44.3794 390.395 41.7945 388.192 39.2337 385.957C38.8098 385.587 38.766 384.944 39.1359 384.52Z" fill="#182233"/>
<path fill-rule="evenodd" clip-rule="evenodd" d="M35.3325 391.899C35.6798 391.457 36.3202 391.379 36.7628 391.727C39.2904 393.71 41.8284 395.678 44.3766 397.631L44.3778 397.632C57.2244 407.505 70.3056 417.048 83.6214 426.26C83.6316 426.267 83.6406 426.273 83.6482 426.278C83.6511 426.28 83.6538 426.282 83.6565 426.284C84.0764 426.559 84.2379 427.11 84.0145 427.575C83.7711 428.082 83.1626 428.296 82.6554 428.053C82.621 428.036 82.592 428.02 82.5691 428.006C82.5462 427.993 82.5271 427.98 82.513 427.97C82.5087 427.968 82.5047 427.965 82.501 427.962C82.4958 427.959 82.4906 427.955 82.4855 427.952C69.1337 418.715 56.0173 409.147 43.1363 399.247C40.5821 397.29 38.0384 395.317 35.5051 393.329C35.0625 392.982 34.9852 392.342 35.3325 391.899Z" fill="#182233"/>
<path fill-rule="evenodd" clip-rule="evenodd" d="M277.083 169.625C277.147 169.839 277.296 170.113 277.488 170.365C278.751 172.031 280.017 173.699 281.288 175.368C281.628 175.816 281.542 176.455 281.094 176.795C280.646 177.136 280.007 177.049 279.666 176.602C278.395 174.931 277.128 173.263 275.864 171.596L275.864 171.596C275.567 171.204 275.237 170.653 275.091 170.062C274.944 169.465 274.949 168.582 275.712 167.971L275.721 167.964C276.272 167.533 276.902 167.516 277.372 167.603C277.833 167.688 278.254 167.888 278.559 168.057L278.564 168.059L278.564 168.059C280.113 168.928 281.554 169.976 282.859 171.182C283.272 171.564 283.297 172.208 282.915 172.621C282.534 173.035 281.889 173.06 281.476 172.678C280.29 171.581 278.978 170.628 277.569 169.838C277.382 169.734 277.216 169.662 277.083 169.625ZM276.914 169.598C276.914 169.598 276.916 169.598 276.92 169.598C276.916 169.598 276.914 169.599 276.914 169.598Z" fill="#182233"/>
<path fill-rule="evenodd" clip-rule="evenodd" d="M285.028 156.041C285.059 156.039 285.09 156.038 285.121 156.038C285.558 156.044 285.983 156.176 286.347 156.417L286.348 156.418C286.711 156.66 286.997 157.002 287.171 157.402C287.175 157.41 287.178 157.418 287.181 157.425C287.408 157.983 287.525 158.58 287.526 159.183C287.744 163.198 287.77 167.223 287.603 171.233C287.592 171.547 287.576 171.86 287.56 172.165C287.531 172.726 287.051 173.158 286.49 173.129C285.928 173.099 285.496 172.62 285.525 172.058C285.542 171.752 285.557 171.454 285.567 171.159L285.567 171.151L285.567 171.151C285.732 167.196 285.706 163.226 285.49 159.265C285.489 159.244 285.488 159.224 285.488 159.203C285.49 158.863 285.426 158.525 285.3 158.208C285.282 158.17 285.254 158.138 285.219 158.114C285.205 158.105 285.189 158.097 285.173 158.091C285.155 158.107 285.131 158.132 285.099 158.172C284.986 158.314 284.875 158.536 284.769 158.816C283.22 162.96 282.681 167.413 283.194 171.807C283.259 172.365 282.859 172.871 282.3 172.937C281.741 173.002 281.236 172.602 281.17 172.043C280.619 167.327 281.199 162.548 282.861 158.101L282.863 158.096L282.863 158.096C282.995 157.748 283.195 157.296 283.501 156.909C283.813 156.514 284.31 156.097 285.028 156.041ZM285.209 158.067C285.209 158.067 285.206 158.068 285.201 158.07C285.206 158.067 285.209 158.066 285.209 158.067Z" fill="#182233"/>
<path fill-rule="evenodd" clip-rule="evenodd" d="M291.388 155.929C291.414 155.928 291.439 155.929 291.464 155.931C291.962 155.961 292.441 156.132 292.845 156.425M290.551 159.263C290.693 158.849 290.864 158.479 291.058 158.228L290.551 159.263ZM291.058 158.228C291.215 158.025 291.322 157.979 291.385 157.969L291.058 158.228ZM291.385 157.969C291.48 157.982 291.571 158.018 291.649 158.075L291.65 158.075C291.739 158.139 291.808 158.228 291.849 158.33C292.015 158.764 292.088 159.229 292.06 159.693C292.059 159.716 292.059 159.738 292.059 159.76C292.087 163.667 291.505 167.554 290.332 171.281L290.332 171.281L290.331 171.286C290.232 171.606 290.122 171.933 290.009 172.263C289.826 172.795 290.109 173.374 290.641 173.557C291.173 173.74 291.753 173.457 291.935 172.924C292.05 172.59 292.168 172.24 292.277 171.89C293.509 167.971 294.123 163.885 294.096 159.777C294.135 159.032 294.016 158.288 293.748 157.592L293.745 157.584C293.561 157.121 293.249 156.718 292.845 156.425M291.388 155.929C290.485 155.942 289.848 156.462 289.446 156.982L291.388 155.929ZM289.446 156.982C289.05 157.494 288.793 158.11 288.624 158.603L289.446 156.982ZM288.624 158.603L288.624 158.604L288.624 158.603ZM290.551 159.264C289.206 163.194 288.216 167.238 287.592 171.345C287.591 171.353 287.59 171.361 287.589 171.369C287.53 171.705 287.48 172.044 287.434 172.393C287.362 172.951 286.85 173.344 286.292 173.271C285.735 173.198 285.341 172.687 285.414 172.129C285.462 171.765 285.515 171.398 285.58 171.028C286.222 166.804 287.24 162.646 288.624 158.604" fill="#182233"/>
<path fill-rule="evenodd" clip-rule="evenodd" d="M298.816 162.056C299.032 162.016 299.255 162.033 299.463 162.103L298.816 162.056ZM299.463 162.103C299.748 162.258 300.022 162.725 299.993 163.334C299.891 164.081 299.643 164.801 299.262 165.451C299.251 165.47 299.241 165.489 299.231 165.508C296.59 170.761 293.807 175.943 290.882 181.054C290.603 181.542 290.772 182.164 291.26 182.444C291.749 182.723 292.371 182.554 292.65 182.066C295.588 176.932 298.384 171.727 301.037 166.451C301.553 165.563 301.886 164.58 302.018 163.561C302.021 163.539 302.023 163.517 302.024 163.495C302.097 162.346 301.618 160.856 300.29 160.24C300.267 160.229 300.243 160.219 300.219 160.21C299.656 159.999 299.045 159.943 298.451 160.051L298.451 160.051C297.858 160.159 297.306 160.426 296.852 160.822L296.842 160.831C296.134 161.467 295.548 162.228 295.115 163.075C293.551 165.738 291.989 168.403 290.428 171.07C290.304 171.277 290.183 171.486 290.063 171.69L290.054 171.705C289.936 171.906 289.821 172.105 289.704 172.301C289.416 172.784 289.575 173.41 290.059 173.697C290.542 173.985 291.167 173.826 291.455 173.342C291.576 173.139 291.695 172.935 291.812 172.735L291.822 172.719C291.942 172.512 292.061 172.31 292.18 172.109L292.184 172.102C293.751 169.426 295.318 166.752 296.887 164.08C296.898 164.062 296.908 164.044 296.917 164.025C297.237 163.393 297.671 162.826 298.198 162.352C298.373 162.2 298.587 162.098 298.816 162.056" fill="#182233"/>
<path fill-rule="evenodd" clip-rule="evenodd" d="M56.7925 458.53C55.2252 457.7 53.4773 457.269 51.7038 457.275L51.7014 457.275C49.2801 457.276 46.9287 458.087 45.0218 459.58L45.0218 459.58C43.1149 461.072 41.7618 463.159 41.1783 465.509L41.1783 465.509C40.5947 467.859 40.8141 470.337 41.8014 472.548L41.8014 472.548C42.7887 474.759 44.4874 476.576 46.6266 477.71C48.7663 478.844 51.2235 479.229 53.6075 478.805C55.9914 478.382 58.1652 477.172 59.7825 475.37C61.3996 473.568 62.3672 471.277 62.5317 468.861L62.5317 468.861C62.6965 466.445 62.0481 464.044 60.6899 462.039L60.6885 462.037C59.6976 460.566 58.3594 459.361 56.7925 458.53ZM60.475 475.992L60.4798 475.996L60.475 475.992C55.8311 455.9 53.78 455.394 51.6989 455.4L57.6701 456.875C61.0795 459.263 59.5092 457.85 57.6704 456.875C64.5947 466.156 63.8345 463.34 62.2424 460.989C63.0738 474.508 64.2086 471.821 64.4015 468.988L61.1772 476.622C56.7314 480.153 59.2806 478.735 61.1772 476.622C48.2582 480.696 51.1399 481.148 53.9356 480.651L45.749 479.366C41.2481 475.905 43.2402 478.036 45.7489 479.366C38.675 467.813 38.9323 470.719 40.0902 473.312M51.6989 455.4C48.86 455.403 46.103 456.354 43.8669 458.104L51.6989 455.4ZM43.8668 458.104C41.6305 459.854 40.0438 462.301 39.3594 465.058L43.8668 458.104Z" fill="#182233"/>
<path fill-rule="evenodd" clip-rule="evenodd" d="M198.026 166.513C196.033 166.231 194.002 166.515 192.162 167.332C191.648 167.561 191.046 167.329 190.818 166.815C190.589 166.301 190.821 165.699 191.335 165.47C193.523 164.498 195.941 164.16 198.312 164.496C198.869 164.574 199.256 165.09 199.178 165.647C199.099 166.204 198.583 166.592 198.026 166.513Z" fill="#182233"/>
<path fill-rule="evenodd" clip-rule="evenodd" d="M309.489 161.502C310.052 161.502 310.508 161.958 310.508 162.52C310.51 167.415 308.755 172.148 305.562 175.858C305.195 176.285 304.552 176.333 304.125 175.966C303.699 175.599 303.651 174.956 304.018 174.529C306.892 171.189 308.473 166.928 308.471 162.521C308.471 161.958 308.926 161.502 309.489 161.502Z" fill="#182233"/>
<path fill-rule="evenodd" clip-rule="evenodd" d="M313 167.919C313.533 168.1 313.818 168.678 313.637 169.211L312.15 173.596C311.969 174.128 311.39 174.414 310.858 174.233C310.325 174.052 310.04 173.474 310.22 172.941L311.708 168.556C311.889 168.024 312.467 167.738 313 167.919Z" fill="#182233"/>
<path fill-rule="evenodd" clip-rule="evenodd" d="M188.968 254.385C186.569 255.443 184.505 257.014 182.334 258.667C181.569 259.249 180.792 259.84 179.982 260.424C176.95 262.605 173.289 264.666 169.255 264.61C163.286 264.528 158.573 259.945 155.101 255.735C154.744 255.301 154.805 254.659 155.239 254.301C155.673 253.943 156.315 254.005 156.673 254.439C160.152 258.657 164.33 262.505 169.283 262.573L169.283 262.573C172.629 262.619 175.833 260.899 178.791 258.77L178.791 258.77C179.5 258.26 180.216 257.715 180.943 257.161C183.168 255.467 185.509 253.683 188.151 252.519L188.159 252.516C190.884 251.343 193.847 250.83 196.807 251.018C199.767 251.206 202.642 252.09 205.196 253.598L205.204 253.603C206.56 254.42 207.795 255.402 208.969 256.337L209.068 256.415C210.291 257.388 211.454 258.305 212.72 259.048L212.72 259.048C215.263 260.54 218.33 261.085 220.471 259.728C220.946 259.427 221.576 259.569 221.877 260.044C222.178 260.519 222.037 261.148 221.562 261.45C218.462 263.413 214.492 262.45 211.689 260.805C210.28 259.978 209.008 258.971 207.8 258.01L207.744 257.965C206.539 257.007 205.396 256.098 204.156 255.35C201.879 254.006 199.317 253.219 196.678 253.051C194.039 252.884 191.398 253.341 188.968 254.385Z" fill="#182233"/>
<path fill-rule="evenodd" clip-rule="evenodd" d="M198.611 235.662C194.701 234.534 190.399 236.291 186.65 238.755L186.091 237.903L186.65 238.755C185.719 239.367 184.801 240.018 183.867 240.682L183.789 240.738C182.885 241.381 181.965 242.035 181.027 242.657C179.096 243.937 177.039 245.112 174.741 245.836L174.741 245.836C172.397 246.574 169.718 246.665 167.33 246.012C164.936 245.358 162.755 243.93 161.584 241.571C161.333 241.067 161.539 240.456 162.043 240.206C162.547 239.956 163.158 240.161 163.408 240.665C164.258 242.376 165.88 243.504 167.866 244.047C169.858 244.591 172.138 244.519 174.128 243.893L174.434 244.864L174.128 243.893C176.164 243.251 178.037 242.194 179.901 240.959C180.811 240.356 181.707 239.718 182.619 239.07L182.687 239.022C183.617 238.36 184.564 237.688 185.531 237.052L185.531 237.052C189.376 234.525 194.355 232.314 199.176 233.705C200.91 234.205 202.414 235.114 203.785 236.106C204.471 236.602 205.136 237.129 205.782 237.642L205.884 237.723C206.499 238.212 207.097 238.687 207.704 239.134C210.295 241.043 213.312 242.297 215.846 241.333C216.372 241.134 216.96 241.398 217.16 241.924C217.36 242.45 217.096 243.038 216.57 243.238C212.986 244.6 209.173 242.748 206.495 240.775L206.495 240.774C205.857 240.304 205.232 239.808 204.624 239.324L204.514 239.237C203.866 238.721 203.234 238.222 202.591 237.756C201.303 236.825 200.02 236.069 198.611 235.662L198.611 235.662Z" fill="#182233"/>
<path fill-rule="evenodd" clip-rule="evenodd" d="M270.866 183.554C271.244 183.138 271.888 183.107 272.305 183.485C277.129 187.864 282.699 191.343 288.75 193.758C289.272 193.967 289.527 194.56 289.318 195.082C289.11 195.605 288.517 195.859 287.995 195.651C281.717 193.145 275.94 189.536 270.936 184.993C270.519 184.615 270.488 183.971 270.866 183.554Z" fill="#182233"/>
<path fill-rule="evenodd" clip-rule="evenodd" d="M267.962 188.404C268.385 188.033 269.028 188.075 269.399 188.498C273.823 193.543 279.719 197.071 286.256 198.585C286.804 198.712 287.145 199.259 287.018 199.807C286.891 200.355 286.344 200.696 285.796 200.569C278.844 198.96 272.572 195.207 267.868 189.842C267.497 189.419 267.539 188.775 267.962 188.404Z" fill="#182233"/>
<path fill-rule="evenodd" clip-rule="evenodd" d="M116.12 259.967C116.467 259.525 117.108 259.448 117.55 259.795C123.888 264.771 130.883 268.845 138.336 271.901C138.693 271.524 139.286 271.475 139.703 271.802C139.867 271.931 140.003 272.093 140.102 272.278C140.199 272.462 140.258 272.664 140.274 272.872C140.289 273.078 140.262 273.288 140.191 273.488C140.121 273.684 140.012 273.861 139.873 274.011C139.588 274.317 139.144 274.418 138.755 274.265C130.682 271.089 123.115 266.754 116.292 261.398C115.85 261.05 115.772 260.41 116.12 259.967ZM138.271 272.807L138.272 272.803C138.272 272.804 138.272 272.805 138.271 272.805C138.271 272.806 138.271 272.806 138.271 272.807Z" fill="#182233"/>
<path fill-rule="evenodd" clip-rule="evenodd" d="M119.963 252.483C120.294 252.028 120.931 251.927 121.386 252.258C128.025 257.087 135.264 261.031 142.92 263.991C143.445 264.194 143.706 264.784 143.503 265.309C143.3 265.834 142.71 266.095 142.185 265.892C134.364 262.867 126.97 258.838 120.188 253.906C119.733 253.575 119.633 252.938 119.963 252.483Z" fill="#182233"/>
<path fill-rule="evenodd" clip-rule="evenodd" d="M221.769 141.045C222.243 140.742 222.873 140.881 223.175 141.356L227.872 148.717C228.174 149.191 228.035 149.821 227.561 150.123C227.087 150.426 226.457 150.287 226.154 149.812L221.458 142.451C221.155 141.977 221.294 141.347 221.769 141.045Z" fill="#182233"/>
<path fill-rule="evenodd" clip-rule="evenodd" d="M228.994 141.653C229.338 142.099 229.256 142.738 228.81 143.082L220.755 149.303C220.31 149.647 219.67 149.565 219.326 149.119C218.982 148.674 219.065 148.034 219.51 147.691L227.565 141.47C228.01 141.126 228.65 141.208 228.994 141.653Z" fill="#182233"/>
<path fill-rule="evenodd" clip-rule="evenodd" d="M136.533 191.114C136.922 190.708 137.567 190.695 137.973 191.084L144.324 197.174C144.73 197.563 144.743 198.208 144.354 198.614C143.965 199.02 143.32 199.034 142.914 198.644L136.563 192.555C136.157 192.165 136.144 191.52 136.533 191.114Z" fill="#182233"/>
<path fill-rule="evenodd" clip-rule="evenodd" d="M142.428 191.618C142.875 191.96 142.961 192.599 142.619 193.046L138.177 198.865C137.835 199.312 137.196 199.398 136.749 199.056C136.302 198.715 136.216 198.076 136.557 197.629L141 191.81C141.341 191.363 141.981 191.277 142.428 191.618Z" fill="#182233"/>
<path fill-rule="evenodd" clip-rule="evenodd" d="M100.437 130.695C100.964 130.498 101.551 130.766 101.748 131.293L102.969 134.562C105.665 134.784 108.346 134.904 111.174 135.028L111.381 135.037C114.366 135.168 117.512 135.305 120.974 135.575C121.535 135.619 121.954 136.109 121.911 136.67C121.867 137.231 121.377 137.65 120.816 137.606C117.389 137.339 114.272 137.203 111.282 137.072L111.085 137.063C108.039 136.93 105.114 136.799 102.151 136.537C101.76 136.503 101.424 136.247 101.286 135.879L99.8396 132.006C99.6427 131.479 99.9104 130.892 100.437 130.695Z" fill="#182233"/>
<path fill-rule="evenodd" clip-rule="evenodd" d="M115.286 131.168C115.705 131.543 115.741 132.187 115.365 132.606L107.416 141.485C107.041 141.904 106.397 141.94 105.978 141.565C105.559 141.189 105.523 140.545 105.898 140.126L113.847 131.247C114.223 130.828 114.867 130.793 115.286 131.168Z" fill="#182233"/>
<path fill-rule="evenodd" clip-rule="evenodd" d="M75.4148 243.72C68.3797 235.63 55.1755 233.043 46.7248 239.29C46.2724 239.624 45.6345 239.528 45.3001 239.076C44.9657 238.623 45.0614 237.986 45.5138 237.651C54.9844 230.651 69.3633 233.656 76.9522 242.383C84.5503 251.121 85.8879 263.99 82.6145 274.906C79.7957 284.307 73.3515 293.139 64.0556 296.813L63.6812 295.865L64.0556 296.813C62.7597 297.325 61.4091 297.713 60.0298 297.979C56.1567 303.206 49.8528 306.329 43.988 308.667C43.1415 309.005 42.2936 309.335 41.4483 309.664C35.3652 312.035 29.4176 314.354 25.1126 318.83L24.3784 318.124L25.1126 318.83C17.6975 326.54 17.6955 340.236 25.1086 347.948C25.4985 348.353 25.4857 348.998 25.0801 349.388C24.6746 349.778 24.0297 349.765 23.6398 349.36C15.4685 340.859 15.4707 325.916 23.6442 317.418L24.1905 317.943L23.6442 317.418C28.2845 312.593 34.6932 310.102 40.7322 307.755C41.5751 307.427 42.4108 307.103 43.2335 306.775C48.4057 304.713 53.5337 302.168 57.0682 298.359C49.3894 298.863 41.4 295.734 37.3079 289.139L38.15 288.616L37.3079 289.139C34.5416 284.681 33.8212 278.362 37.1553 273.953C41.0432 268.809 48.8341 268.443 54.2132 271.345C62.3604 275.74 65.8909 286.942 61.7353 295.214L60.8686 294.779L61.7353 295.214C61.6854 295.313 61.6347 295.412 61.5832 295.51C62.1665 295.338 62.7418 295.141 63.3068 294.918C71.8648 291.536 77.9684 283.308 80.663 274.321L80.663 274.321C83.7911 263.889 82.4408 251.8 75.4148 243.72ZM58.8496 296.12C59.2402 295.539 59.5965 294.933 59.9148 294.299C63.5756 287.013 60.4232 277.009 53.246 273.138L53.246 273.138C48.4409 270.546 41.871 271.093 38.7805 275.181L38.7804 275.181C36.1137 278.709 36.559 284.068 39.039 288.065L39.0391 288.065C42.9932 294.438 51.2504 297.297 58.8496 296.12Z" fill="#05B08B"/>
<path fill-rule="evenodd" clip-rule="evenodd" d="M314.953 227.032C315.026 227.59 314.634 228.102 314.076 228.176C298.749 230.203 284.757 237.957 274.912 249.879C270.102 255.758 266.411 262.655 265.421 270.061L265.421 270.061C264.429 277.468 266.411 285.392 271.538 290.651C273.836 293.008 276.802 294.715 279.956 295.594C279.46 294.705 278.99 293.799 278.55 292.877L278.549 292.876C277.092 289.82 275.995 286.297 275.806 282.84C275.617 279.377 276.338 275.916 278.599 273.101C281.292 269.747 285.624 268.577 289.68 269.099C293.734 269.621 297.715 271.856 299.755 275.583L298.902 276.05L299.755 275.583C301.775 279.272 301.774 283.62 300.39 287.457C299.006 291.293 296.208 294.713 292.489 296.558L292.489 296.558C289.84 297.871 286.931 298.41 284.029 298.292C287.064 302.702 290.85 306.571 295.231 309.712C296.296 310.474 297.404 311.198 298.532 311.931C298.628 311.994 298.725 312.057 298.822 312.119C299.852 312.788 300.898 313.467 301.917 314.176C304.148 315.727 306.309 317.459 308.051 319.675L308.051 319.675C312.805 325.727 313.31 334.1 311.635 341.352L311.635 341.352C310.199 347.561 307.188 353.578 302.385 357.913C297.583 362.247 290.887 364.74 284.393 363.747C283.837 363.662 283.455 363.142 283.54 362.586C283.625 362.03 284.145 361.648 284.701 361.733C290.493 362.619 296.593 360.396 301.019 356.401C305.444 352.406 308.285 346.796 309.65 340.893C311.248 333.975 310.68 326.319 306.449 320.934C304.89 318.95 302.919 317.354 300.754 315.849C299.763 315.159 298.743 314.497 297.708 313.825C297.613 313.763 297.518 313.702 297.422 313.64C296.295 312.907 295.152 312.16 294.045 311.369L294.044 311.368C289 307.751 284.712 303.211 281.397 298.007C277.143 297.259 273.081 295.153 270.079 292.073C264.429 286.277 262.345 277.683 263.401 269.791L264.411 269.926L263.401 269.791C264.457 261.897 268.371 254.656 273.337 248.587L273.34 248.584C283.512 236.264 297.971 228.251 313.809 226.156C314.367 226.082 314.879 226.474 314.953 227.032ZM282.628 296.131C285.702 296.515 288.825 296.1 291.583 294.733C294.779 293.148 297.247 290.167 298.474 286.766C299.7 283.367 299.655 279.643 297.968 276.561C296.302 273.517 292.964 271.576 289.42 271.12C285.876 270.663 282.328 271.711 280.188 274.376L280.188 274.376C278.327 276.693 277.67 279.61 277.841 282.729C278.011 285.853 279.012 289.113 280.387 291.998C281.066 293.416 281.814 294.795 282.628 296.131Z" fill="#182233"/>
<path fill-rule="evenodd" clip-rule="evenodd" d="M262.015 234.612C262.565 234.496 263.105 234.848 263.221 235.399L264.685 242.354C264.801 242.905 264.449 243.445 263.898 243.561C263.348 243.677 262.808 243.324 262.692 242.774L261.228 235.819C261.112 235.268 261.464 234.728 262.015 234.612Z" fill="#05B08B"/>
<path fill-rule="evenodd" clip-rule="evenodd" d="M266.892 237.224C267.086 237.752 266.815 238.338 266.287 238.532L258.566 241.37C258.038 241.564 257.453 241.293 257.259 240.765C257.065 240.237 257.335 239.652 257.863 239.457L265.584 236.619C266.112 236.425 266.698 236.696 266.892 237.224Z" fill="#05B08B"/>
<path fill-rule="evenodd" clip-rule="evenodd" d="M61.2943 251.852C61.8242 251.663 62.407 251.939 62.5961 252.469L64.4246 257.595C64.6136 258.124 64.3373 258.707 63.8074 258.896C63.2776 259.085 62.6948 258.809 62.5057 258.279L60.6772 253.154C60.4881 252.624 60.7644 252.041 61.2943 251.852Z" fill="#182233"/>
<path fill-rule="evenodd" clip-rule="evenodd" d="M66.1754 253.413C66.435 253.912 66.2408 254.527 65.7417 254.786L59.2062 258.186C58.7071 258.445 58.092 258.251 57.8324 257.752C57.5728 257.253 57.767 256.638 58.2661 256.378L64.8016 252.979C65.3008 252.719 65.9158 252.913 66.1754 253.413Z" fill="#182233"/>
<path fill-rule="evenodd" clip-rule="evenodd" d="M87.6124 279.684C88.1316 279.468 88.7282 279.713 88.9448 280.232L90.7776 284.623C90.9943 285.143 90.749 285.739 90.2299 285.956C89.7107 286.173 89.1141 285.927 88.8974 285.408L87.0647 281.017C86.848 280.498 87.0932 279.901 87.6124 279.684Z" fill="#05B08B"/>
<path fill-rule="evenodd" clip-rule="evenodd" d="M92.5661 281.301C92.8188 281.803 92.6162 282.416 92.1135 282.668L86.2631 285.61C85.7604 285.862 85.1481 285.66 84.8954 285.157C84.6427 284.654 84.8453 284.042 85.348 283.789L91.1984 280.848C91.7011 280.595 92.3134 280.798 92.5661 281.301Z" fill="#05B08B"/>
<path fill-rule="evenodd" clip-rule="evenodd" d="M311.736 293.213C312.067 293.668 311.966 294.305 311.511 294.636L307.482 297.564C307.027 297.895 306.39 297.794 306.06 297.339C305.729 296.884 305.829 296.247 306.284 295.916L310.313 292.988C310.768 292.657 311.405 292.758 311.736 293.213Z" fill="#182233"/>
<path fill-rule="evenodd" clip-rule="evenodd" d="M306.607 292.289C307.044 291.934 307.685 292 308.04 292.437C309.267 293.947 310.095 295.74 310.448 297.653C310.55 298.207 310.184 298.738 309.631 298.84C309.077 298.942 308.546 298.576 308.444 298.023C308.153 296.446 307.47 294.967 306.459 293.722C306.104 293.285 306.17 292.643 306.607 292.289Z" fill="#182233"/>
<path fill-rule="evenodd" clip-rule="evenodd" d="M215.918 126.595C217.233 126.361 218.589 126.528 219.807 127.076C220.32 127.307 220.549 127.91 220.318 128.423C220.087 128.936 219.484 129.165 218.971 128.934C218.127 128.555 217.188 128.438 216.276 128.601C215.723 128.7 215.194 128.331 215.095 127.777C214.996 127.223 215.365 126.694 215.918 126.595Z" fill="#182233"/>
<path fill-rule="evenodd" clip-rule="evenodd" d="M217.879 124.599C218.438 124.669 218.834 125.178 218.764 125.736C218.581 127.201 218.398 128.665 218.214 130.13C218.144 130.688 217.635 131.084 217.077 131.014C216.518 130.944 216.123 130.434 216.193 129.876C216.376 128.412 216.56 126.948 216.742 125.484C216.812 124.926 217.321 124.53 217.879 124.599Z" fill="#182233"/>
<path d="M247.032 158.162L252.517 158.94C252.563 158.947 252.606 158.967 252.641 158.999C252.675 159.031 252.698 159.073 252.708 159.118C252.718 159.164 252.714 159.212 252.696 159.255C252.678 159.298 252.647 159.335 252.607 159.359L247.934 162.334C247.896 162.359 247.866 162.394 247.848 162.435C247.83 162.476 247.824 162.522 247.832 162.567L248.786 168.022C248.794 168.068 248.788 168.116 248.769 168.158C248.749 168.2 248.716 168.236 248.676 168.259C248.636 168.283 248.589 168.294 248.542 168.29C248.496 168.286 248.451 168.268 248.415 168.238L244.142 164.713C244.107 164.685 244.065 164.667 244.02 164.663C243.975 164.658 243.93 164.667 243.89 164.688L238.996 167.282C238.954 167.304 238.907 167.312 238.861 167.307C238.815 167.301 238.771 167.281 238.736 167.25C238.701 167.219 238.677 167.178 238.666 167.132C238.655 167.087 238.658 167.039 238.675 166.996L240.708 161.842C240.724 161.8 240.728 161.754 240.718 161.71C240.709 161.666 240.686 161.625 240.654 161.594L236.674 157.74C236.64 157.708 236.618 157.666 236.608 157.62C236.6 157.574 236.605 157.526 236.624 157.483C236.643 157.441 236.674 157.405 236.714 157.381C236.754 157.356 236.801 157.345 236.847 157.348L242.377 157.688C242.422 157.691 242.467 157.68 242.506 157.657C242.545 157.635 242.576 157.6 242.596 157.56L245.03 152.584C245.05 152.542 245.083 152.507 245.124 152.484C245.165 152.461 245.211 152.451 245.258 152.456C245.305 152.46 245.349 152.479 245.384 152.51C245.42 152.54 245.445 152.58 245.457 152.626L246.842 157.99C246.853 158.034 246.877 158.074 246.911 158.105C246.945 158.136 246.987 158.155 247.032 158.162Z" fill="#05B08B"/>
<g opacity="0.1">
<path d="M178.159 169.73C178.071 171.763 178.066 173.284 178.563 175.285C179.007 177.117 179.351 178.972 179.592 180.842C180.059 184.688 180.071 188.576 179.628 192.424C179.372 194.918 183.59 195.508 184.034 193.02C184.794 188.788 184.897 184.464 184.341 180.2C184.069 178.12 183.628 176.066 183.019 174.058C182.364 171.878 181.391 170.612 179.772 169.064C179.638 168.938 179.47 168.853 179.289 168.819C179.107 168.786 178.92 168.805 178.75 168.876C178.58 168.947 178.433 169.065 178.328 169.217C178.224 169.369 178.165 169.547 178.16 169.732L178.159 169.73Z" fill="#182233"/>
</g>
<g opacity="0.1">
<path d="M176.549 195.628C176.01 197.091 176.471 198.878 176.617 200.395C176.767 201.948 176.609 203.623 177.799 204.771C177.982 204.948 178.202 205.081 178.443 205.161C178.685 205.241 178.941 205.266 179.193 205.233C179.446 205.201 179.687 205.112 179.9 204.973C180.113 204.835 180.293 204.65 180.425 204.432C181.297 203.034 180.718 201.409 180.485 199.872C180.257 198.361 180.27 196.544 179.39 195.256C179.23 195.001 178.999 194.797 178.726 194.669C178.453 194.541 178.15 194.493 177.851 194.532C177.552 194.571 177.271 194.695 177.04 194.889C176.809 195.083 176.639 195.339 176.549 195.627V195.628Z" fill="#182233"/>
</g>
<g opacity="0.1">
<path d="M207.348 221.848C212.027 227.498 220.689 229.057 227.622 229.958C235.077 230.867 242.636 230.379 249.911 228.517C263.406 225.133 275.149 216.935 283.557 205.94C288.173 199.875 291.614 192.999 293.703 185.668C295.192 180.475 287.106 178.257 285.623 183.441C282.41 194.603 275.685 204.432 266.446 211.47C256.206 219.21 243.529 222.771 230.755 221.933C227.165 221.703 223.603 221.145 220.115 220.265C216.363 219.316 212.836 218.128 208.945 217.988C206.824 217.911 206.176 220.439 207.346 221.848H207.348Z" fill="#182233"/>
</g>
<path fill-rule="evenodd" clip-rule="evenodd" d="M188.345 185.217C188.345 184.76 188.716 184.39 189.173 184.39H193.807C194.265 184.39 194.635 184.76 194.635 185.217C194.635 185.674 194.265 186.045 193.807 186.045H189.173C188.716 186.045 188.345 185.674 188.345 185.217Z" fill="#182233"/>
<path d="M187.488 172.789C187.488 173.603 186.828 174.263 186.013 174.263C185.199 174.263 184.539 173.603 184.539 172.789C184.539 171.974 185.199 171.314 186.013 171.314C186.828 171.314 187.488 171.974 187.488 172.789Z" fill="#182233"/>
<path d="M198.021 172.789C198.021 173.603 197.361 174.263 196.546 174.263C195.732 174.263 195.072 173.603 195.072 172.789C195.072 171.974 195.732 171.314 196.546 171.314C197.361 171.314 198.021 171.974 198.021 172.789Z" fill="#182233"/>
</g>
</svg>
